<?xml version="1.0" encoding="UTF-8" standalone="no"?>
<!-- Created with Inkscape (http://www.inkscape.org/) -->

<svg width="210mm" height="210mm" viewBox="0 0 210 210" version="1.1" id="svg5"
   inkscape:version="1.1 (c68e22c387, 2021-05-23)" sodipodi:docname="heart.svg"
   xmlns:inkscape="http://www.inkscape.org/namespaces/inkscape"
   xmlns:sodipodi="http://sodipodi.sourceforge.net/DTD/sodipodi-0.dtd" xmlns="http://www.w3.org/2000/svg"
   xmlns:svg="http://www.w3.org/2000/svg">
   <sodipodi:namedview id="namedview7" pagecolor="#505050" bordercolor="#eeeeee" borderopacity="1" />
   <defs id="def">
      <path id="heart"
         d="m 184.46202,121.60457 c 22.01061,-44.767333 -1.49224,-77.223654 -1.49224,-77.223654 0,0 -7.83429,-18.279995 -36.55998,-18.653058 -28.72571,-0.373059 -41.40979,14.922447 -41.40979,14.922447 0,0 -12.684088,-15.295506 -41.409789,-14.922447 -28.72571,0.373063 -36.559992,18.653058 -36.559992,18.653058 0,0 -23.5028552,32.456321 -1.492246,77.223654 22.010606,44.76733 77.969787,62.67428 79.462027,62.67428 1.49224,0 57.45142,-17.90695 79.46201,-62.67428 z" />
      <path id="sun"
         d="m 144.44914,175.68143 c 5.15043,-1.61325 9.37751,-5.49047 12.27093,-9.95327 2.53447,-4.676 5.49465,-10.66115 0.0791,-22.00813 4.63538,2.71168 13.23021,2.33357 18.38788,0.41056 5.07469,-1.8377 9.12755,-5.89667 11.82236,-10.48215 2.32683,-4.78271 3.46362,-10.40483 2.18476,-15.64833 -1.25373,-5.35982 -6.091,-10.78726 -10.91536,-13.1465 5.15028,-1.52151 7.57047,-5.646367 9.70061,-10.721997 2.13549,-4.95675 1.95244,-10.68977 0.45579,-15.79354 -1.89226,-4.97069 -5.21137,-9.64879 -9.90849,-12.30713 -4.76467,-2.75632 -10.26291,-3.56065 -15.28569,-1.66012 3.24093,-4.28214 3.89568,-9.018345 2.5962,-14.367258 -1.22453,-5.256446 -4.77566,-9.760957 -9.01015,-12.979234 -4.47385,-2.876296 -9.92213,-4.670004 -15.28009,-4.020328 -5.47047,0.610953 -11.43201,4.772308 -14.34535,9.283745 0.19997,-5.366604 -4.19391,-12.763088 -8.32551,-16.400314 -4.0172,-3.604417 -9.50939,-5.258784 -14.82398,-5.467484 -5.314579,0.208697 -10.806768,1.863067 -14.823958,5.467484 -4.1316,3.637226 -6.62979,10.4648 -6.42986,15.831402 -2.91331,-4.511438 -8.87485,-8.672792 -14.34532,-9.283745 -5.35796,-0.649676 -10.80624,1.144032 -15.280092,4.020328 -4.234492,3.218276 -7.785618,7.722788 -9.010153,12.979234 -1.299481,5.348913 -0.644731,10.08512 2.596204,14.36726 -5.022779,-1.90053 -10.521025,-1.0962 -15.285695,1.66011 -4.697117,2.65835 -8.01623,7.33645 -9.908488,12.30714 -1.49665,5.10376 -1.679704,10.83679 0.455794,15.79354 2.130132,5.07563 4.550328,9.200487 9.700609,10.722007 -4.82436,2.35924 -9.661628,7.78668 -10.915362,13.14649 -1.278859,5.24348 -0.142069,10.86563 2.184757,15.64834 2.69481,4.58547 6.74767,8.64445 11.822359,10.48215 5.157673,1.92301 13.7525,2.30112 18.38788,-0.41056 -5.415564,11.34698 -2.455385,17.33213 0.07908,22.00813 2.893427,4.4628 7.120507,8.34002 12.270937,9.95327 5.2371,1.69483 13.84022,1.69543 18.35219,-1.21706 0.70007,4.16353 1.52896,6.57987 5.66056,10.2171 4.01719,3.60442 9.509379,5.25889 14.823968,5.46748 5.31458,-0.20859 10.80677,-1.86306 14.82397,-5.46748 4.1316,-3.63723 6.10622,-6.38384 6.88543,-9.6482 4.51197,2.91249 13.1151,2.91189 18.3522,1.21706 z" />
      <path id="tower"
         d="M 185.71078,63.589254 H 155.62506 V 39.289233 H 138.55718 V 17.88208 l -33.55717,-7e-6 -33.557195,-7e-6 V 39.289233 H 54.374944 V 63.589254 H 24.289223 v 59.592906 c 1.62585,27.26479 18.114641,54.99307 44.849015,64.007 11.159753,4.06253 23.181077,5.28545 34.993962,4.84303 11.50111,0.43159 23.18256,-0.72196 34.10931,-4.47882 27.46228,-8.71096 45.11393,-36.51236 47.46927,-64.37121 z" />
      <path id="tulip"
         d="m 101.11059,185.83245 c -27.056839,0 -39.908834,-8.11704 -39.908834,-8.11704 0,0 -44.305556,-24.35113 -39.908825,-80.155863 4.396739,-55.804721 35.850305,-58.341296 35.850305,-58.341296 0,0 10.777469,0.224028 17.248728,9.977205 0,0 5.022154,-11.5891 10.33253,-16.816887 7.755629,-7.635005 20.275516,-8.210678 20.275516,-8.210678 0,0 12.51988,0.575673 20.2755,8.210678 5.31038,5.227787 10.33252,16.816887 10.33252,16.816887 6.47126,-9.753173 17.24874,-9.977205 17.24874,-9.977205 0,0 31.45357,2.536575 35.8503,58.341296 4.39673,55.804733 -39.90882,80.155863 -39.90882,80.155863 0,0 -12.85201,8.11704 -39.90884,8.11704 z" />
      <path id="rabbit"
         d="m 37.287342,87.830072 c 0,0 -11.036087,-61.360656 9.270316,-67.099418 20.306405,-5.738771 25.603725,16.774854 27.369495,40.171364 l 0.49565,4.238778 c 0,0 10.83962,-2.261274 15.9699,-2.51526 14.836737,-0.781259 38.714907,6.222466 38.714907,6.222466 0,0 19.35202,-54.72581 49.00024,-36.419095 18.6472,11.51399 1.10361,43.482185 -20.96857,60.257045 0.95568,4.39437 3.81122,8.150768 5.61517,16.056568 1.46405,6.41631 2.02236,16.84426 2.01318,22.34668 -3.22724,29.96512 -14.91223,37.9665 -14.91223,37.9665 0,0 -14.60283,23.28937 -55.416884,20.95288 -12.438763,-0.71209 -28.764893,-2.44439 -40.623883,-8.73337 -10.723969,-5.68707 -18.544597,-14.7467 -22.67007,-21.95006 -1.647957,-2.87744 -3.493306,-9.13143 -3.493306,-9.13143 0,0 -12.748308,-40.08642 9.636018,-62.363648 z" />
      <path id="stag_beetle"
         d="m 50.43888,19.165419 c 0,0 5.518315,13.628584 15.685111,25.106253 8.529394,9.629144 20.102399,16.077891 36.902929,16.433977 11.50672,0.244273 22.26792,-3.906945 29.25655,-9.551909 15.46575,-12.492207 19.18762,-32.488299 19.18762,-32.488299 0,0 12.38776,7.534088 15.07553,31.225094 1.18858,10.476477 -2.38897,17.805459 -3.70966,22.434411 -2.21589,7.766557 -4.08901,8.595571 -4.08901,8.595571 0,0 27.82666,32.390843 12.4628,69.794723 -7.24934,17.64876 -22.54927,29.79535 -36.32762,35.5136 -15.42277,6.4007 -29.0255,5.27136 -29.0255,5.27136 0,0 -27.744078,1.58734 -48.820284,-15.35696 -9.235944,-7.42529 -16.696035,-19.11879 -20.813887,-34.86948 -5.252708,-20.09147 0.730189,-38.61869 4.948901,-45.795272 4.14875,-7.057599 7.531597,-9.497966 7.531597,-9.497966 0,0 -24.077106,-33.898672 -0.09809,-64.477571 z" />
      <path
       id="star"
       d="m 151.70745,71.784512 c 0,0 31.13827,11.586353 42.36254,22.448554 6.3152,6.111464 -8.22552,21.646894 -16.44191,31.939564 -6.38695,8.0009 -8.03287,11.74327 -8.03287,11.74327 0,0 9.62979,23.66274 -0.50825,50.0941 -2.42932,6.33357 -53.51568,-11.84292 -59.18847,-11.59561 -4.98669,-0.62925 -9.79699,0 -9.79699,0 -5.672791,-0.24719 -56.759127,17.92918 -59.188443,11.59561 -10.138062,-26.43136 -0.508275,-50.0941 -0.508275,-50.0941 0,0 -1.645916,-3.74237 -8.032857,-11.74327 C 24.15554,115.87996 9.6148131,100.34453 15.930012,94.233066 27.154285,83.370865 58.292571,71.784512 58.292571,71.784512 77.482442,41.008301 105,20.732203 105,20.732203 c 0,0 27.51756,20.276098 46.70745,51.052309 z" />
      <path
       id="fort"
       d="m 65.136233,178.97654 c 0,0 -2.45806,-0.29972 -3.60339,-0.51755 -2.01444,-0.3832 -4.179,-1.03632 -11.88902,-3.10184 C 36.165912,171.7464 22.818912,160.75983 22.818912,160.75983 35.782232,138.43431 34.590038,110.982 34.590038,110.982 c 0,0 0.603596,-28.158922 0,-45.951962 -0.603595,-17.79304 -7.628999,-34.805132 -7.628999,-34.805132 h 34.096854 v 19.837842 h 15.49626 V 30.258132 h 26.519717 l 3.85224,8e-6 26.51973,5e-6 v 19.804613 h 15.49625 V 30.224919 l 34.09686,-0.250858 c 0,0 -7.02539,17.262949 -7.62899,35.055987 -0.60359,17.79303 0,45.951952 0,45.951952 0,0 -1.19218,27.45231 11.77113,49.77783 0,0 -13.34701,10.98657 -26.82489,14.59732 -7.71001,2.06552 -9.87458,2.71864 -11.88902,3.10184 -1.14533,0.21783 -3.6034,0.51755 -3.6034,0.51755 L 105,180.02947 Z" />
      <path
       id="saturn"
       d="M 54.888429,69.200379 C 71.001905,68.982282 104.79872,68.20181 104.79872,68.20181 h 0.40255 c 0,0 33.79681,0.780472 49.91029,0.998569 m 23.22897,15.748781 c -6.6347,-1.984107 -73.54183,-2.657453 -73.54183,-2.657453 0,0 -64.474229,-0.849414 -74.376584,1.658228 m 75.584304,78.050325 c 0,0 -19.017508,-1.22955 -22.951874,-2.4014 -4.705069,-1.40141 -10.187102,-2.82998 -16.989977,-7.72595 C 34.661459,129.2724 46.224998,93.161048 46.224998,93.161048 c 0,0 -40.0555463,1.610266 -39.8542733,-10.466774 C 6.5720177,70.61721 44.413436,69.610805 44.413436,69.610805 l 10.474993,-0.410426 c 0,0 1.872285,-0.296948 2.608484,-1.199865 C 75.679436,45.700614 105,48.073388 105,48.073388 c 0,0 29.32055,-2.372774 47.50308,19.927126 0.7362,0.902917 2.60848,1.199865 2.60848,1.199865 l 10.47499,0.410426 c 0,0 37.84143,1.006405 38.04273,13.083469 0.20127,12.07704 -39.85429,10.466774 -39.85429,10.466774 0,0 11.56353,36.111352 -19.83956,58.711862 -6.80287,4.89597 -12.28491,6.32454 -16.98998,7.72595 -3.93437,1.17185 -22.95188,2.4014 -22.95188,2.4014" />
      <path
       id="moon"
       d="m 189.12034,84.728639 c 0,0 -83.98931,7.05498 -135.919069,-18.102111 C 45.079318,62.691893 39.670736,57.411731 35.442538,54.108137 21.639157,43.323223 20.873499,37.30062 20.873499,37.30062 c 0,0 0.299678,59.222066 26.453069,95.03888 9.683127,13.26097 15.521153,19.76475 26.314412,27.66025 8.458091,6.18724 23.243975,12.59292 36.44373,12.5185 39.44217,-0.22236 56.20433,-30.83826 56.20433,-30.83826 0,0 3.88124,-4.61346 10.69077,-19.00438 6.24797,-13.20412 11.89005,-28.679019 12.14053,-37.946971 z" />
      <path
       id="kirakira"
       d="m 88.462949,175.82412 c -5.76229,-1.15326 -9.435088,-3.05765 -13.090731,-6.15893 -7.793201,-6.61138 -20.033402,-18.39332 -31.462486,-31.8245 -4.325307,-5.08301 -24.296942,-14.32958 -24.296942,-14.32958 1.317166,-2.84873 6.13112,-5.96188 10.799822,-8.76703 60.175581,-36.15593 74.587378,-81.414026 74.587378,-81.414026 0,0 14.41181,45.258096 74.58739,81.414026 4.66871,2.80515 9.48266,5.9183 10.79983,8.76703 0,0 -19.97164,9.24657 -24.29695,14.32958 -11.42908,13.43118 -23.66929,25.21312 -31.46248,31.8245 -3.65564,3.10128 -7.32844,5.00567 -13.09074,6.15893 -4.51866,0.90441 -16.53705,1.62396 -16.53705,1.62396 0,0 -12.018385,-0.71955 -16.537041,-1.62396 z" />
      <path
       id="squid"
       d="m 141.35227,175.50012 c 21.56519,-15.87342 25.39523,-45.18656 25.39523,-45.18656 l 22.11847,-9.21604 -83.86596,-94.925202 -83.865977,94.925202 22.118497,9.21604 c 0,0 3.830031,29.31314 25.395219,45.18656 2.863488,2.10772 19.80291,8.32238 29.384315,8.48531 h 13.935876 c 9.58141,-0.16286 26.52083,-6.37759 29.38433,-8.48531 z" />
   </defs>
</svg>