<svg version="1.1" viewBox="0.0 0.0 600.0 710.0" fill="none" stroke="none" stroke-linecap="square" stroke-miterlimit="10" width="600" height="710" xmlns:xlink="http://www.w3.org/1999/xlink" xmlns="http://www.w3.org/2000/svg"><path fill="#ffffff" d="M0 0L600.0 0L600.0 710.0L0 710.0L0 0Z" fill-rule="nonzero"/><path stroke="#cccccc" stroke-width="1.0" stroke-linecap="butt" d="M167.5 37.5L167.5 659.5" fill-rule="nonzero"/><path stroke="#cccccc" stroke-width="1.0" stroke-linecap="butt" d="M246.5 37.5L246.5 659.5" fill-rule="nonzero"/><path stroke="#cccccc" stroke-width="1.0" stroke-linecap="butt" d="M325.5 37.5L325.5 659.5" fill-rule="nonzero"/><path stroke="#cccccc" stroke-width="1.0" stroke-linecap="butt" d="M404.5 37.5L404.5 659.5" fill-rule="nonzero"/><path stroke="#cccccc" stroke-width="1.0" stroke-linecap="butt" d="M483.5 37.5L483.5 659.5" fill-rule="nonzero"/><path stroke="#cccccc" stroke-width="1.0" stroke-linecap="butt" d="M562.5 37.5L562.5 659.5" fill-rule="nonzero"/><path stroke="#333333" stroke-width="1.0" stroke-linecap="butt" d="M92.5 659.5L570.5 659.5" fill-rule="nonzero"/><path stroke="#cccccc" stroke-width="1.0" stroke-linecap="butt" d="M92.5 503.5L570.5 503.5" fill-rule="nonzero"/><path stroke="#cccccc" stroke-width="1.0" stroke-linecap="butt" d="M92.5 348.5L570.5 348.5" fill-rule="nonzero"/><path stroke="#cccccc" stroke-width="1.0" stroke-linecap="butt" d="M92.5 192.5L570.5 192.5" fill-rule="nonzero"/><path stroke="#cccccc" stroke-width="1.0" stroke-linecap="butt" d="M92.5 37.5L570.5 37.5" fill-rule="nonzero"/><clipPath id="id_0"><path d="M92.0 37.5L570.0 37.5L570.0 659.0L92.0 659.0L92.0 37.5Z" clip-rule="nonzero"/></clipPath><path stroke="#4285f4" stroke-width="2.0" stroke-linecap="butt" clip-path="url(#id_0)" d="M92.0 659.0L95.95042 658.9994L99.900826 658.99805L103.85124 658.9955L107.80165 658.9899L111.75207 658.98224L115.70248 658.97156L119.65289 658.95654L123.6033 658.9356L127.55372 658.90625L131.50414 658.8653L135.45454 658.80804L139.40495 658.7278L143.35538 658.61554L147.30579 658.4584L151.2562 658.25415L155.2066 657.98865L159.15703 657.64343L163.10744 657.1947L167.05785 656.61145L171.00827 655.96985L174.95868 655.2642L178.90909 654.488L182.8595 653.6342L186.80992 652.6951L190.76033 651.6621L194.71074 650.52594L198.66116 649.2761L202.61157 647.90137L206.56198 646.3892L210.51239 644.8317L214.46281 643.22766L218.41322 641.5754L222.36363 639.87366L226.31406 638.1209L230.26447 636.3156L234.21487 634.4563L238.16528 632.5411L242.1157 630.56854L246.06612 628.5368L250.01653 626.46454L253.96695 624.3508L257.91736 622.1948L261.86777 619.9957L265.81818 617.7527L269.7686 615.4647L273.719 613.13104L277.66943 610.7508L281.61984 608.32294L285.57025 605.8465L289.52066 603.33307L293.47107 600.78186L297.42148 598.19244L301.3719 595.5642L305.32233 592.8966L309.27274 590.189L313.22314 587.4408L317.17355 584.6514L321.12396 581.82025L325.07437 578.9466L329.02478 576.02985L332.97522 573.06946L336.92563 570.0647L340.87604 567.01483L344.82645 563.9193L348.77686 560.77734L352.72726 557.5883L356.67767 554.3514L360.6281 551.0659L364.57852 547.73126L368.52893 544.34656L372.47934 540.91113L376.42975 537.4242L380.38016 533.885L384.33057 530.2928L388.281 526.50214L392.2314 522.5023L396.18182 518.2816L400.13223 513.8279L404.08264 509.1282L408.03305 504.16913L411.98346 498.93628L415.9339 493.4145L419.8843 487.5878L423.83472 481.43945L427.78513 474.9516L431.73553 468.10553L435.68594 460.88153L439.63635 453.25858L443.5868 445.21475L447.5372 436.72687L451.4876 427.77023L455.43802 418.3191L459.38843 408.34613L463.33884 397.82257L467.28925 386.71793L471.23965 375.0001L475.1901 362.6353L479.1405 349.58783L483.0909 335.82L487.04132 326.1246L490.99173 316.33224L494.94214 306.44202L498.89255 296.45282L502.843 286.36377L506.7934 276.1739L510.7438 265.88217L514.6942 255.48758L518.64465 244.98901L522.59503 234.38548L526.5455 223.67592L530.49585 212.85933L534.4463 201.9346L538.39667 190.90068L542.3471 179.75638L546.29755 168.015L550.2479 157.13248L554.19836 145.65057L558.14874 134.05388L562.0992 122.34128L566.04956 110.39443L570.0 98.20868" fill-rule="nonzero"/><path fill="#000000" fill-opacity="0.0" clip-path="url(#id_0)" d="M95.0 659.0C95.0 660.65686 93.65685 662.0 92.0 662.0C90.34315 662.0 89.0 660.65686 89.0 659.0C89.0 657.34314 90.34315 656.0 92.0 656.0C93.65685 656.0 95.0 657.34314 95.0 659.0Z" fill-rule="nonzero"/><path fill="#000000" fill-opacity="0.0" clip-path="url(#id_0)" d="M98.95042 658.9994C98.95042 660.65625 97.60727 661.9994 95.95042 661.9994C94.29356 661.9994 92.95042 660.65625 92.95042 658.9994C92.95042 657.3425 94.29356 655.9994 95.95042 655.9994C97.60727 655.9994 98.95042 657.3425 98.95042 658.9994Z" fill-rule="nonzero"/><path fill="#000000" fill-opacity="0.0" clip-path="url(#id_0)" d="M102.900826 658.99805C102.900826 660.6549 101.55768 661.99805 99.900826 661.99805C98.24397 661.99805 96.900826 660.6549 96.900826 658.99805C96.900826 657.34125 98.24397 655.99805 99.900826 655.99805C101.55768 655.99805 102.900826 657.34125 102.900826 658.99805Z" fill-rule="nonzero"/><path fill="#000000" fill-opacity="0.0" clip-path="url(#id_0)" d="M106.85124 658.9955C106.85124 660.65234 105.508095 661.9955 103.85124 661.9955C102.19438 661.9955 100.85124 660.65234 100.85124 658.9955C100.85124 657.3386 102.19438 655.9955 103.85124 655.9955C105.508095 655.9955 106.85124 657.3386 106.85124 658.9955Z" fill-rule="nonzero"/><path fill="#000000" fill-opacity="0.0" clip-path="url(#id_0)" d="M110.80165 658.9899C110.80165 660.6468 109.4585 661.9899 107.80165 661.9899C106.1448 661.9899 104.80165 660.6468 104.80165 658.9899C104.80165 657.33307 106.1448 655.9899 107.80165 655.9899C109.4585 655.9899 110.80165 657.33307 110.80165 658.9899Z" fill-rule="nonzero"/><path fill="#000000" fill-opacity="0.0" clip-path="url(#id_0)" d="M114.75207 658.98224C114.75207 660.6391 113.40892 661.98224 111.75207 661.98224C110.095215 661.98224 108.75207 660.6391 108.75207 658.98224C108.75207 657.3254 110.095215 655.98224 111.75207 655.98224C113.40892 655.98224 114.75207 657.3254 114.75207 658.98224Z" fill-rule="nonzero"/><path fill="#000000" fill-opacity="0.0" clip-path="url(#id_0)" d="M118.70248 658.97156C118.70248 660.6284 117.35934 661.97156 115.70248 661.97156C114.04562 661.97156 112.70248 660.6284 112.70248 658.97156C112.70248 657.3147 114.04562 655.97156 115.70248 655.97156C117.35934 655.97156 118.70248 657.3147 118.70248 658.97156Z" fill-rule="nonzero"/><path fill="#000000" fill-opacity="0.0" clip-path="url(#id_0)" d="M122.65289 658.95654C122.65289 660.6134 121.309746 661.95654 119.65289 661.95654C117.99604 661.95654 116.65289 660.6134 116.65289 658.95654C116.65289 657.2997 117.99604 655.95654 119.65289 655.95654C121.309746 655.95654 122.65289 657.2997 122.65289 658.95654Z" fill-rule="nonzero"/><path fill="#000000" fill-opacity="0.0" clip-path="url(#id_0)" d="M126.6033 658.9356C126.6033 660.59247 125.26016 661.9356 123.6033 661.9356C121.94645 661.9356 120.6033 660.59247 120.6033 658.9356C120.6033 657.27875 121.94645 655.9356 123.6033 655.9356C125.26016 655.9356 126.6033 657.27875 126.6033 658.9356Z" fill-rule="nonzero"/><path fill="#000000" fill-opacity="0.0" clip-path="url(#id_0)" d="M130.55373 658.90625C130.55373 660.5631 129.21057 661.90625 127.55372 661.90625C125.896866 661.90625 124.55372 660.5631 124.55372 658.90625C124.55372 657.24945 125.896866 655.90625 127.55372 655.90625C129.21057 655.90625 130.55373 657.24945 130.55373 658.90625Z" fill-rule="nonzero"/><path fill="#000000" fill-opacity="0.0" clip-path="url(#id_0)" d="M134.50414 658.8653C134.50414 660.52216 133.16098 661.8653 131.50414 661.8653C129.84727 661.8653 128.50414 660.52216 128.50414 658.8653C128.50414 657.2085 129.84727 655.8653 131.50414 655.8653C133.16098 655.8653 134.50414 657.2085 134.50414 658.8653Z" fill-rule="nonzero"/><path fill="#000000" fill-opacity="0.0" clip-path="url(#id_0)" d="M138.45454 658.80804C138.45454 660.46484 137.1114 661.80804 135.45454 661.80804C133.79768 661.80804 132.45454 660.46484 132.45454 658.80804C132.45454 657.1512 133.79768 655.80804 135.45454 655.80804C137.1114 655.80804 138.45454 657.1512 138.45454 658.80804Z" fill-rule="nonzero"/><path fill="#000000" fill-opacity="0.0" clip-path="url(#id_0)" d="M142.40495 658.7278C142.40495 660.38464 141.06181 661.7278 139.40495 661.7278C137.74811 661.7278 136.40495 660.38464 136.40495 658.7278C136.40495 657.0709 137.74811 655.7278 139.40495 655.7278C141.06181 655.7278 142.40495 657.0709 142.40495 658.7278Z" fill-rule="nonzero"/><path fill="#000000" fill-opacity="0.0" clip-path="url(#id_0)" d="M146.35538 658.61554C146.35538 660.2724 145.01222 661.61554 143.35538 661.61554C141.69852 661.61554 140.35538 660.2724 140.35538 658.61554C140.35538 656.9587 141.69852 655.61554 143.35538 655.61554C145.01222 655.61554 146.35538 656.9587 146.35538 658.61554Z" fill-rule="nonzero"/><path fill="#000000" fill-opacity="0.0" clip-path="url(#id_0)" d="M150.30579 658.4584C150.30579 660.11523 148.96265 661.4584 147.30579 661.4584C145.64893 661.4584 144.30579 660.11523 144.30579 658.4584C144.30579 656.8015 145.64893 655.4584 147.30579 655.4584C148.96265 655.4584 150.30579 656.8015 150.30579 658.4584Z" fill-rule="nonzero"/><path fill="#000000" fill-opacity="0.0" clip-path="url(#id_0)" d="M154.2562 658.25415C154.2562 659.911 152.91306 661.25415 151.2562 661.25415C149.59935 661.25415 148.2562 659.911 148.2562 658.25415C148.2562 656.5973 149.59935 655.25415 151.2562 655.25415C152.91306 655.25415 154.2562 656.5973 154.2562 658.25415Z" fill-rule="nonzero"/><path fill="#000000" fill-opacity="0.0" clip-path="url(#id_0)" d="M158.2066 657.98865C158.2066 659.6455 156.86346 660.98865 155.2066 660.98865C153.54976 660.98865 152.2066 659.6455 152.2066 657.98865C152.2066 656.3318 153.54976 654.98865 155.2066 654.98865C156.86346 654.98865 158.2066 656.3318 158.2066 657.98865Z" fill-rule="nonzero"/><path fill="#000000" fill-opacity="0.0" clip-path="url(#id_0)" d="M162.15703 657.64343C162.15703 659.3003 160.81387 660.64343 159.15703 660.64343C157.50017 660.64343 156.15703 659.3003 156.15703 657.64343C156.15703 655.9866 157.50017 654.64343 159.15703 654.64343C160.81387 654.64343 162.15703 655.9866 162.15703 657.64343Z" fill-rule="nonzero"/><path fill="#000000" fill-opacity="0.0" clip-path="url(#id_0)" d="M166.10744 657.1947C166.10744 658.85156 164.7643 660.1947 163.10744 660.1947C161.45058 660.1947 160.10744 658.85156 160.10744 657.1947C160.10744 655.5379 161.45058 654.1947 163.10744 654.1947C164.7643 654.1947 166.10744 655.5379 166.10744 657.1947Z" fill-rule="nonzero"/><path fill="#000000" fill-opacity="0.0" clip-path="url(#id_0)" d="M170.05785 656.61145C170.05785 658.2683 168.7147 659.61145 167.05785 659.61145C165.401 659.61145 164.05785 658.2683 164.05785 656.61145C164.05785 654.9546 165.401 653.61145 167.05785 653.61145C168.7147 653.61145 170.05785 654.9546 170.05785 656.61145Z" fill-rule="nonzero"/><path fill="#000000" fill-opacity="0.0" clip-path="url(#id_0)" d="M174.00827 655.96985C174.00827 657.6267 172.66512 658.96985 171.00827 658.96985C169.35141 658.96985 168.00827 657.6267 168.00827 655.96985C168.00827 654.31305 169.35141 652.96985 171.00827 652.96985C172.66512 652.96985 174.00827 654.31305 174.00827 655.96985Z" fill-rule="nonzero"/><path fill="#000000" fill-opacity="0.0" clip-path="url(#id_0)" d="M177.95868 655.2642C177.95868 656.9211 176.61554 658.2642 174.95868 658.2642C173.30182 658.2642 171.95868 656.9211 171.95868 655.2642C171.95868 653.60736 173.30182 652.2642 174.95868 652.2642C176.61554 652.2642 177.95868 653.60736 177.95868 655.2642Z" fill-rule="nonzero"/><path fill="#000000" fill-opacity="0.0" clip-path="url(#id_0)" d="M181.90909 654.488C181.90909 656.14484 180.56595 657.488 178.90909 657.488C177.25224 657.488 175.90909 656.14484 175.90909 654.488C175.90909 652.8311 177.25224 651.488 178.90909 651.488C180.56595 651.488 181.90909 652.8311 181.90909 654.488Z" fill-rule="nonzero"/><path fill="#000000" fill-opacity="0.0" clip-path="url(#id_0)" d="M185.8595 653.6342C185.8595 655.2911 184.51636 656.6342 182.8595 656.6342C181.20265 656.6342 179.8595 655.2911 179.8595 653.6342C179.8595 651.97736 181.20265 650.6342 182.8595 650.6342C184.51636 650.6342 185.8595 651.97736 185.8595 653.6342Z" fill-rule="nonzero"/><path fill="#000000" fill-opacity="0.0" clip-path="url(#id_0)" d="M189.80992 652.6951C189.80992 654.352 188.46677 655.6951 186.80992 655.6951C185.15306 655.6951 183.80992 654.352 183.80992 652.6951C183.80992 651.03827 185.15306 649.6951 186.80992 649.6951C188.46677 649.6951 189.80992 651.03827 189.80992 652.6951Z" fill-rule="nonzero"/><path fill="#000000" fill-opacity="0.0" clip-path="url(#id_0)" d="M193.76033 651.6621C193.76033 653.319 192.41719 654.6621 190.76033 654.6621C189.10347 654.6621 187.76033 653.319 187.76033 651.6621C187.76033 650.0053 189.10347 648.6621 190.76033 648.6621C192.41719 648.6621 193.76033 650.0053 193.76033 651.6621Z" fill-rule="nonzero"/><path fill="#000000" fill-opacity="0.0" clip-path="url(#id_0)" d="M197.71074 650.52594C197.71074 652.18274 196.3676 653.52594 194.71074 653.52594C193.0539 653.52594 191.71074 652.18274 191.71074 650.52594C191.71074 648.8691 193.0539 647.52594 194.71074 647.52594C196.3676 647.52594 197.71074 648.8691 197.71074 650.52594Z" fill-rule="nonzero"/><path fill="#000000" fill-opacity="0.0" clip-path="url(#id_0)" d="M201.66116 649.2761C201.66116 650.933 200.31801 652.2761 198.66116 652.2761C197.0043 652.2761 195.66116 650.933 195.66116 649.2761C195.66116 647.61926 197.0043 646.2761 198.66116 646.2761C200.31801 646.2761 201.66116 647.61926 201.66116 649.2761Z" fill-rule="nonzero"/><path fill="#000000" fill-opacity="0.0" clip-path="url(#id_0)" d="M205.61157 647.90137C205.61157 649.5582 204.26842 650.90137 202.61157 650.90137C200.95471 650.90137 199.61157 649.5582 199.61157 647.90137C199.61157 646.2445 200.95471 644.90137 202.61157 644.90137C204.26842 644.90137 205.61157 646.2445 205.61157 647.90137Z" fill-rule="nonzero"/><path fill="#000000" fill-opacity="0.0" clip-path="url(#id_0)" d="M209.56198 646.3892C209.56198 648.0461 208.21884 649.3892 206.56198 649.3892C204.90514 649.3892 203.56198 648.0461 203.56198 646.3892C203.56198 644.73236 204.90514 643.3892 206.56198 643.3892C208.21884 643.3892 209.56198 644.73236 209.56198 646.3892Z" fill-rule="nonzero"/><path fill="#000000" fill-opacity="0.0" clip-path="url(#id_0)" d="M213.51239 644.8317C213.51239 646.4886 212.16925 647.8317 210.51239 647.8317C208.85555 647.8317 207.51239 646.4886 207.51239 644.8317C207.51239 643.17487 208.85555 641.8317 210.51239 641.8317C212.16925 641.8317 213.51239 643.17487 213.51239 644.8317Z" fill-rule="nonzero"/><path fill="#000000" fill-opacity="0.0" clip-path="url(#id_0)" d="M217.46281 643.22766C217.46281 644.88446 216.11966 646.22766 214.46281 646.22766C212.80595 646.22766 211.46281 644.88446 211.46281 643.22766C211.46281 641.5708 212.80595 640.22766 214.46281 640.22766C216.11966 640.22766 217.46281 641.5708 217.46281 643.22766Z" fill-rule="nonzero"/><path fill="#000000" fill-opacity="0.0" clip-path="url(#id_0)" d="M221.41322 641.5754C221.41322 643.23224 220.07008 644.5754 218.41322 644.5754C216.75636 644.5754 215.41322 643.23224 215.41322 641.5754C215.41322 639.9185 216.75636 638.5754 218.41322 638.5754C220.07008 638.5754 221.41322 639.9185 221.41322 641.5754Z" fill-rule="nonzero"/><path fill="#000000" fill-opacity="0.0" clip-path="url(#id_0)" d="M225.36363 639.87366C225.36363 641.5305 224.0205 642.87366 222.36363 642.87366C220.70679 642.87366 219.36363 641.5305 219.36363 639.87366C219.36363 638.2168 220.70679 636.87366 222.36363 636.87366C224.0205 636.87366 225.36363 638.2168 225.36363 639.87366Z" fill-rule="nonzero"/><path fill="#000000" fill-opacity="0.0" clip-path="url(#id_0)" d="M229.31406 638.1209C229.31406 639.7778 227.9709 641.1209 226.31406 641.1209C224.6572 641.1209 223.31406 639.7778 223.31406 638.1209C223.31406 636.46405 224.6572 635.1209 226.31406 635.1209C227.9709 635.1209 229.31406 636.46405 229.31406 638.1209Z" fill-rule="nonzero"/><path fill="#000000" fill-opacity="0.0" clip-path="url(#id_0)" d="M233.26447 636.3156C233.26447 637.9725 231.92131 639.3156 230.26447 639.3156C228.6076 639.3156 227.26447 637.9725 227.26447 636.3156C227.26447 634.65875 228.6076 633.3156 230.26447 633.3156C231.92131 633.3156 233.26447 634.65875 233.26447 636.3156Z" fill-rule="nonzero"/><path fill="#000000" fill-opacity="0.0" clip-path="url(#id_0)" d="M237.21487 634.4563C237.21487 636.11316 235.87173 637.4563 234.21487 637.4563C232.55803 637.4563 231.21487 636.11316 231.21487 634.4563C231.21487 632.79944 232.55803 631.4563 234.21487 631.4563C235.87173 631.4563 237.21487 632.79944 237.21487 634.4563Z" fill-rule="nonzero"/><path fill="#000000" fill-opacity="0.0" clip-path="url(#id_0)" d="M241.16528 632.5411C241.16528 634.19794 239.82214 635.5411 238.16528 635.5411C236.50844 635.5411 235.16528 634.19794 235.16528 632.5411C235.16528 630.8842 236.50844 629.5411 238.16528 629.5411C239.82214 629.5411 241.16528 630.8842 241.16528 632.5411Z" fill-rule="nonzero"/><path fill="#000000" fill-opacity="0.0" clip-path="url(#id_0)" d="M245.1157 630.56854C245.1157 632.2254 243.77255 633.56854 242.1157 633.56854C240.45885 633.56854 239.1157 632.2254 239.1157 630.56854C239.1157 628.9117 240.45885 627.56854 242.1157 627.56854C243.77255 627.56854 245.1157 628.9117 245.1157 630.56854Z" fill-rule="nonzero"/><path fill="#000000" fill-opacity="0.0" clip-path="url(#id_0)" d="M249.06612 628.5368C249.06612 630.19366 247.72298 631.5368 246.06612 631.5368C244.40926 631.5368 243.06612 630.19366 243.06612 628.5368C243.06612 626.87994 244.40926 625.5368 246.06612 625.5368C247.72298 625.5368 249.06612 626.87994 249.06612 628.5368Z" fill-rule="nonzero"/><path fill="#000000" fill-opacity="0.0" clip-path="url(#id_0)" d="M253.01653 626.46454C253.01653 628.1214 251.67339 629.46454 250.01653 629.46454C248.35968 629.46454 247.01653 628.1214 247.01653 626.46454C247.01653 624.8077 248.35968 623.46454 250.01653 623.46454C251.67339 623.46454 253.01653 624.8077 253.01653 626.46454Z" fill-rule="nonzero"/><path fill="#000000" fill-opacity="0.0" clip-path="url(#id_0)" d="M256.96695 624.3508C256.96695 626.0077 255.6238 627.3508 253.96695 627.3508C252.31009 627.3508 250.96695 626.0077 250.96695 624.3508C250.96695 622.694 252.31009 621.3508 253.96695 621.3508C255.6238 621.3508 256.96695 622.694 256.96695 624.3508Z" fill-rule="nonzero"/><path fill="#000000" fill-opacity="0.0" clip-path="url(#id_0)" d="M260.91736 622.1948C260.91736 623.8517 259.57422 625.1948 257.91736 625.1948C256.2605 625.1948 254.91736 623.8517 254.91736 622.1948C254.91736 620.53796 256.2605 619.1948 257.91736 619.1948C259.57422 619.1948 260.91736 620.53796 260.91736 622.1948Z" fill-rule="nonzero"/><path fill="#000000" fill-opacity="0.0" clip-path="url(#id_0)" d="M264.86777 619.9957C264.86777 621.6526 263.52463 622.9957 261.86777 622.9957C260.2109 622.9957 258.86777 621.6526 258.86777 619.9957C258.86777 618.33887 260.2109 616.9957 261.86777 616.9957C263.52463 616.9957 264.86777 618.33887 264.86777 619.9957Z" fill-rule="nonzero"/><path fill="#000000" fill-opacity="0.0" clip-path="url(#id_0)" d="M268.81818 617.7527C268.81818 619.4095 267.47504 620.7527 265.81818 620.7527C264.16132 620.7527 262.81818 619.4095 262.81818 617.7527C262.81818 616.0958 264.16132 614.7527 265.81818 614.7527C267.47504 614.7527 268.81818 616.0958 268.81818 617.7527Z" fill-rule="nonzero"/><path fill="#000000" fill-opacity="0.0" clip-path="url(#id_0)" d="M272.7686 615.4647C272.7686 617.1216 271.42545 618.4647 269.7686 618.4647C268.11176 618.4647 266.7686 617.1216 266.7686 615.4647C266.7686 613.80786 268.11176 612.4647 269.7686 612.4647C271.42545 612.4647 272.7686 613.80786 272.7686 615.4647Z" fill-rule="nonzero"/><path fill="#000000" fill-opacity="0.0" clip-path="url(#id_0)" d="M276.719 613.13104C276.719 614.7879 275.37585 616.13104 273.719 616.13104C272.06216 616.13104 270.719 614.7879 270.719 613.13104C270.719 611.4742 272.06216 610.13104 273.719 610.13104C275.37585 610.13104 276.719 611.4742 276.719 613.13104Z" fill-rule="nonzero"/><path fill="#000000" fill-opacity="0.0" clip-path="url(#id_0)" d="M280.66943 610.7508C280.66943 612.40765 279.32626 613.7508 277.66943 613.7508C276.01257 613.7508 274.66943 612.40765 274.66943 610.7508C274.66943 609.09393 276.01257 607.7508 277.66943 607.7508C279.32626 607.7508 280.66943 609.09393 280.66943 610.7508Z" fill-rule="nonzero"/><path fill="#000000" fill-opacity="0.0" clip-path="url(#id_0)" d="M284.61984 608.32294C284.61984 609.9798 283.2767 611.32294 281.61984 611.32294C279.96298 611.32294 278.61984 609.9798 278.61984 608.32294C278.61984 606.6661 279.96298 605.32294 281.61984 605.32294C283.2767 605.32294 284.61984 606.6661 284.61984 608.32294Z" fill-rule="nonzero"/><path fill="#000000" fill-opacity="0.0" clip-path="url(#id_0)" d="M288.57025 605.8465C288.57025 607.50336 287.2271 608.8465 285.57025 608.8465C283.9134 608.8465 282.57025 607.50336 282.57025 605.8465C282.57025 604.1897 283.9134 602.8465 285.57025 602.8465C287.2271 602.8465 288.57025 604.1897 288.57025 605.8465Z" fill-rule="nonzero"/><path fill="#000000" fill-opacity="0.0" clip-path="url(#id_0)" d="M292.52066 603.33307C292.52066 604.9899 291.17752 606.33307 289.52066 606.33307C287.8638 606.33307 286.52066 604.9899 286.52066 603.33307C286.52066 601.6762 287.8638 600.33307 289.52066 600.33307C291.17752 600.33307 292.52066 601.6762 292.52066 603.33307Z" fill-rule="nonzero"/><path fill="#000000" fill-opacity="0.0" clip-path="url(#id_0)" d="M296.47107 600.78186C296.47107 602.4387 295.12793 603.78186 293.47107 603.78186C291.8142 603.78186 290.47107 602.4387 290.47107 600.78186C290.47107 599.125 291.8142 597.78186 293.47107 597.78186C295.12793 597.78186 296.47107 599.125 296.47107 600.78186Z" fill-rule="nonzero"/><path fill="#000000" fill-opacity="0.0" clip-path="url(#id_0)" d="M300.42148 598.19244C300.42148 599.8493 299.07834 601.19244 297.42148 601.19244C295.76465 601.19244 294.42148 599.8493 294.42148 598.19244C294.42148 596.5356 295.76465 595.19244 297.42148 595.19244C299.07834 595.19244 300.42148 596.5356 300.42148 598.19244Z" fill-rule="nonzero"/><path fill="#000000" fill-opacity="0.0" clip-path="url(#id_0)" d="M304.3719 595.5642C304.3719 597.221 303.02875 598.5642 301.3719 598.5642C299.71506 598.5642 298.3719 597.221 298.3719 595.5642C298.3719 593.90735 299.71506 592.5642 301.3719 592.5642C303.02875 592.5642 304.3719 593.90735 304.3719 595.5642Z" fill-rule="nonzero"/><path fill="#000000" fill-opacity="0.0" clip-path="url(#id_0)" d="M308.32233 592.8966C308.32233 594.5534 306.97916 595.8966 305.32233 595.8966C303.66547 595.8966 302.32233 594.5534 302.32233 592.8966C302.32233 591.23975 303.66547 589.8966 305.32233 589.8966C306.97916 589.8966 308.32233 591.23975 308.32233 592.8966Z" fill-rule="nonzero"/><path fill="#000000" fill-opacity="0.0" clip-path="url(#id_0)" d="M312.27274 590.189C312.27274 591.8459 310.9296 593.189 309.27274 593.189C307.61588 593.189 306.27274 591.8459 306.27274 590.189C306.27274 588.53217 307.61588 587.189 309.27274 587.189C310.9296 587.189 312.27274 588.53217 312.27274 590.189Z" fill-rule="nonzero"/><path fill="#000000" fill-opacity="0.0" clip-path="url(#id_0)" d="M316.22314 587.4408C316.22314 589.09766 314.88 590.4408 313.22314 590.4408C311.56628 590.4408 310.22314 589.09766 310.22314 587.4408C310.22314 585.78394 311.56628 584.4408 313.22314 584.4408C314.88 584.4408 316.22314 585.78394 316.22314 587.4408Z" fill-rule="nonzero"/><path fill="#000000" fill-opacity="0.0" clip-path="url(#id_0)" d="M320.17355 584.6514C320.17355 586.3083 318.8304 587.6514 317.17355 587.6514C315.5167 587.6514 314.17355 586.3083 314.17355 584.6514C314.17355 582.99457 315.5167 581.6514 317.17355 581.6514C318.8304 581.6514 320.17355 582.99457 320.17355 584.6514Z" fill-rule="nonzero"/><path fill="#000000" fill-opacity="0.0" clip-path="url(#id_0)" d="M324.12396 581.82025C324.12396 583.4771 322.78082 584.82025 321.12396 584.82025C319.4671 584.82025 318.12396 583.4771 318.12396 581.82025C318.12396 580.1634 319.4671 578.82025 321.12396 578.82025C322.78082 578.82025 324.12396 580.1634 324.12396 581.82025Z" fill-rule="nonzero"/><path fill="#000000" fill-opacity="0.0" clip-path="url(#id_0)" d="M328.07437 578.9466C328.07437 580.60345 326.73123 581.9466 325.07437 581.9466C323.4175 581.9466 322.07437 580.60345 322.07437 578.9466C322.07437 577.28973 323.4175 575.9466 325.07437 575.9466C326.73123 575.9466 328.07437 577.28973 328.07437 578.9466Z" fill-rule="nonzero"/><path fill="#000000" fill-opacity="0.0" clip-path="url(#id_0)" d="M332.02478 576.02985C332.02478 577.6867 330.68164 579.02985 329.02478 579.02985C327.36795 579.02985 326.02478 577.6867 326.02478 576.02985C326.02478 574.37305 327.36795 573.02985 329.02478 573.02985C330.68164 573.02985 332.02478 574.37305 332.02478 576.02985Z" fill-rule="nonzero"/><path fill="#000000" fill-opacity="0.0" clip-path="url(#id_0)" d="M335.97522 573.06946C335.97522 574.7263 334.63205 576.06946 332.97522 576.06946C331.31836 576.06946 329.97522 574.7263 329.97522 573.06946C329.97522 571.41266 331.31836 570.06946 332.97522 570.06946C334.63205 570.06946 335.97522 571.41266 335.97522 573.06946Z" fill-rule="nonzero"/><path fill="#000000" fill-opacity="0.0" clip-path="url(#id_0)" d="M339.92563 570.0647C339.92563 571.72156 338.5825 573.0647 336.92563 573.0647C335.26877 573.0647 333.92563 571.72156 333.92563 570.0647C333.92563 568.40784 335.26877 567.0647 336.92563 567.0647C338.5825 567.0647 339.92563 568.40784 339.92563 570.0647Z" fill-rule="nonzero"/><path fill="#000000" fill-opacity="0.0" clip-path="url(#id_0)" d="M343.87604 567.01483C343.87604 568.6717 342.5329 570.01483 340.87604 570.01483C339.21918 570.01483 337.87604 568.6717 337.87604 567.01483C337.87604 565.358 339.21918 564.01483 340.87604 564.01483C342.5329 564.01483 343.87604 565.358 343.87604 567.01483Z" fill-rule="nonzero"/><path fill="#000000" fill-opacity="0.0" clip-path="url(#id_0)" d="M347.82645 563.9193C347.82645 565.5762 346.4833 566.9193 344.82645 566.9193C343.1696 566.9193 341.82645 565.5762 341.82645 563.9193C341.82645 562.26245 343.1696 560.9193 344.82645 560.9193C346.4833 560.9193 347.82645 562.26245 347.82645 563.9193Z" fill-rule="nonzero"/><path fill="#000000" fill-opacity="0.0" clip-path="url(#id_0)" d="M351.77686 560.77734C351.77686 562.4342 350.43372 563.77734 348.77686 563.77734C347.12 563.77734 345.77686 562.4342 345.77686 560.77734C345.77686 559.1205 347.12 557.77734 348.77686 557.77734C350.43372 557.77734 351.77686 559.1205 351.77686 560.77734Z" fill-rule="nonzero"/><path fill="#000000" fill-opacity="0.0" clip-path="url(#id_0)" d="M355.72726 557.5883C355.72726 559.2451 354.38412 560.5883 352.72726 560.5883C351.0704 560.5883 349.72726 559.2451 349.72726 557.5883C349.72726 555.93146 351.0704 554.5883 352.72726 554.5883C354.38412 554.5883 355.72726 555.93146 355.72726 557.5883Z" fill-rule="nonzero"/><path fill="#000000" fill-opacity="0.0" clip-path="url(#id_0)" d="M359.67767 554.3514C359.67767 556.00824 358.33453 557.3514 356.67767 557.3514C355.02084 557.3514 353.67767 556.00824 353.67767 554.3514C353.67767 552.6945 355.02084 551.3514 356.67767 551.3514C358.33453 551.3514 359.67767 552.6945 359.67767 554.3514Z" fill-rule="nonzero"/><path fill="#000000" fill-opacity="0.0" clip-path="url(#id_0)" d="M363.6281 551.0659C363.6281 552.7228 362.28494 554.0659 360.6281 554.0659C358.97125 554.0659 357.6281 552.7228 357.6281 551.0659C357.6281 549.40906 358.97125 548.0659 360.6281 548.0659C362.28494 548.0659 363.6281 549.40906 363.6281 551.0659Z" fill-rule="nonzero"/><path fill="#000000" fill-opacity="0.0" clip-path="url(#id_0)" d="M367.57852 547.73126C367.57852 549.3881 366.23535 550.73126 364.57852 550.73126C362.92166 550.73126 361.57852 549.3881 361.57852 547.73126C361.57852 546.0744 362.92166 544.73126 364.57852 544.73126C366.23535 544.73126 367.57852 546.0744 367.57852 547.73126Z" fill-rule="nonzero"/><path fill="#000000" fill-opacity="0.0" clip-path="url(#id_0)" d="M371.52893 544.34656C371.52893 546.0034 370.1858 547.34656 368.52893 547.34656C366.87207 547.34656 365.52893 546.0034 365.52893 544.34656C365.52893 542.6897 366.87207 541.34656 368.52893 541.34656C370.1858 541.34656 371.52893 542.6897 371.52893 544.34656Z" fill-rule="nonzero"/><path fill="#000000" fill-opacity="0.0" clip-path="url(#id_0)" d="M375.47934 540.91113C375.47934 542.568 374.1362 543.91113 372.47934 543.91113C370.82248 543.91113 369.47934 542.568 369.47934 540.91113C369.47934 539.2543 370.82248 537.91113 372.47934 537.91113C374.1362 537.91113 375.47934 539.2543 375.47934 540.91113Z" fill-rule="nonzero"/><path fill="#000000" fill-opacity="0.0" clip-path="url(#id_0)" d="M379.42975 537.4242C379.42975 539.08105 378.0866 540.4242 376.42975 540.4242C374.7729 540.4242 373.42975 539.08105 373.42975 537.4242C373.42975 535.7674 374.7729 534.4242 376.42975 534.4242C378.0866 534.4242 379.42975 535.7674 379.42975 537.4242Z" fill-rule="nonzero"/><path fill="#000000" fill-opacity="0.0" clip-path="url(#id_0)" d="M383.38016 533.885C383.38016 535.5419 382.03702 536.885 380.38016 536.885C378.7233 536.885 377.38016 535.5419 377.38016 533.885C377.38016 532.22815 378.7233 530.885 380.38016 530.885C382.03702 530.885 383.38016 532.22815 383.38016 533.885Z" fill-rule="nonzero"/><path fill="#000000" fill-opacity="0.0" clip-path="url(#id_0)" d="M387.33057 530.2928C387.33057 531.9496 385.98743 533.2928 384.33057 533.2928C382.67374 533.2928 381.33057 531.9496 381.33057 530.2928C381.33057 528.6359 382.67374 527.2928 384.33057 527.2928C385.98743 527.2928 387.33057 528.6359 387.33057 530.2928Z" fill-rule="nonzero"/><path fill="#000000" fill-opacity="0.0" clip-path="url(#id_0)" d="M391.281 526.50214C391.281 528.159 389.93784 529.50214 388.281 529.50214C386.62415 529.50214 385.281 528.159 385.281 526.50214C385.281 524.84534 386.62415 523.50214 388.281 523.50214C389.93784 523.50214 391.281 524.84534 391.281 526.50214Z" fill-rule="nonzero"/><path fill="#000000" fill-opacity="0.0" clip-path="url(#id_0)" d="M395.2314 522.5023C395.2314 524.1592 393.88824 525.5023 392.2314 525.5023C390.57455 525.5023 389.2314 524.1592 389.2314 522.5023C389.2314 520.84546 390.57455 519.5023 392.2314 519.5023C393.88824 519.5023 395.2314 520.84546 395.2314 522.5023Z" fill-rule="nonzero"/><path fill="#000000" fill-opacity="0.0" clip-path="url(#id_0)" d="M399.18182 518.2816C399.18182 519.9384 397.83868 521.2816 396.18182 521.2816C394.52496 521.2816 393.18182 519.9384 393.18182 518.2816C393.18182 516.62476 394.52496 515.2816 396.18182 515.2816C397.83868 515.2816 399.18182 516.62476 399.18182 518.2816Z" fill-rule="nonzero"/><path fill="#000000" fill-opacity="0.0" clip-path="url(#id_0)" d="M403.13223 513.8279C403.13223 515.4847 401.7891 516.8279 400.13223 516.8279C398.47537 516.8279 397.13223 515.4847 397.13223 513.8279C397.13223 512.171 398.47537 510.82785 400.13223 510.82785C401.7891 510.82785 403.13223 512.171 403.13223 513.8279Z" fill-rule="nonzero"/><path fill="#000000" fill-opacity="0.0" clip-path="url(#id_0)" d="M407.08264 509.1282C407.08264 510.78506 405.7395 512.1282 404.08264 512.1282C402.42578 512.1282 401.08264 510.78506 401.08264 509.1282C401.08264 507.47134 402.42578 506.1282 404.08264 506.1282C405.7395 506.1282 407.08264 507.47134 407.08264 509.1282Z" fill-rule="nonzero"/><path fill="#000000" fill-opacity="0.0" clip-path="url(#id_0)" d="M411.03305 504.16913C411.03305 505.826 409.6899 507.16913 408.03305 507.16913C406.3762 507.16913 405.03305 505.826 405.03305 504.16913C405.03305 502.51227 406.3762 501.16913 408.03305 501.16913C409.6899 501.16913 411.03305 502.51227 411.03305 504.16913Z" fill-rule="nonzero"/><path fill="#000000" fill-opacity="0.0" clip-path="url(#id_0)" d="M414.98346 498.93628C414.98346 500.59314 413.64032 501.93628 411.98346 501.93628C410.32663 501.93628 408.98346 500.59314 408.98346 498.93628C408.98346 497.27942 410.32663 495.93628 411.98346 495.93628C413.64032 495.93628 414.98346 497.27942 414.98346 498.93628Z" fill-rule="nonzero"/><path fill="#000000" fill-opacity="0.0" clip-path="url(#id_0)" d="M418.9339 493.4145C418.9339 495.07135 417.59073 496.4145 415.9339 496.4145C414.27704 496.4145 412.9339 495.07135 412.9339 493.4145C412.9339 491.75766 414.27704 490.4145 415.9339 490.4145C417.59073 490.4145 418.9339 491.75766 418.9339 493.4145Z" fill-rule="nonzero"/><path fill="#000000" fill-opacity="0.0" clip-path="url(#id_0)" d="M422.8843 487.5878C422.8843 489.24466 421.54114 490.5878 419.8843 490.5878C418.22745 490.5878 416.8843 489.24466 416.8843 487.5878C416.8843 485.93097 418.22745 484.5878 419.8843 484.5878C421.54114 484.5878 422.8843 485.93097 422.8843 487.5878Z" fill-rule="nonzero"/><path fill="#000000" fill-opacity="0.0" clip-path="url(#id_0)" d="M426.83472 481.43945C426.83472 483.09628 425.49158 484.43945 423.83472 484.43945C422.17786 484.43945 420.83472 483.09628 420.83472 481.43945C420.83472 479.7826 422.17786 478.43945 423.83472 478.43945C425.49158 478.43945 426.83472 479.7826 426.83472 481.43945Z" fill-rule="nonzero"/><path fill="#000000" fill-opacity="0.0" clip-path="url(#id_0)" d="M430.78513 474.9516C430.78513 476.60846 429.442 477.9516 427.78513 477.9516C426.12827 477.9516 424.78513 476.60846 424.78513 474.9516C424.78513 473.29474 426.12827 471.9516 427.78513 471.9516C429.442 471.9516 430.78513 473.29474 430.78513 474.9516Z" fill-rule="nonzero"/><path fill="#000000" fill-opacity="0.0" clip-path="url(#id_0)" d="M434.73553 468.10553C434.73553 469.7624 433.3924 471.10553 431.73553 471.10553C430.07867 471.10553 428.73553 469.7624 428.73553 468.10553C428.73553 466.44867 430.07867 465.10553 431.73553 465.10553C433.3924 465.10553 434.73553 466.44867 434.73553 468.10553Z" fill-rule="nonzero"/><path fill="#000000" fill-opacity="0.0" clip-path="url(#id_0)" d="M438.68594 460.88153C438.68594 462.5384 437.3428 463.88153 435.68594 463.88153C434.02908 463.88153 432.68594 462.5384 432.68594 460.88153C432.68594 459.22467 434.02908 457.88153 435.68594 457.88153C437.3428 457.88153 438.68594 459.22467 438.68594 460.88153Z" fill-rule="nonzero"/><path fill="#000000" fill-opacity="0.0" clip-path="url(#id_0)" d="M442.63635 453.25858C442.63635 454.91544 441.2932 456.25858 439.63635 456.25858C437.97952 456.25858 436.63635 454.91544 436.63635 453.25858C436.63635 451.6017 437.97952 450.25858 439.63635 450.25858C441.2932 450.25858 442.63635 451.6017 442.63635 453.25858Z" fill-rule="nonzero"/><path fill="#000000" fill-opacity="0.0" clip-path="url(#id_0)" d="M446.5868 445.21475C446.5868 446.8716 445.24362 448.21475 443.5868 448.21475C441.92993 448.21475 440.5868 446.8716 440.5868 445.21475C440.5868 443.5579 441.92993 442.21475 443.5868 442.21475C445.24362 442.21475 446.5868 443.5579 446.5868 445.21475Z" fill-rule="nonzero"/><path fill="#000000" fill-opacity="0.0" clip-path="url(#id_0)" d="M450.5372 436.72687C450.5372 438.38373 449.19403 439.72687 447.5372 439.72687C445.88034 439.72687 444.5372 438.38373 444.5372 436.72687C444.5372 435.07 445.88034 433.72687 447.5372 433.72687C449.19403 433.72687 450.5372 435.07 450.5372 436.72687Z" fill-rule="nonzero"/><path fill="#000000" fill-opacity="0.0" clip-path="url(#id_0)" d="M454.4876 427.77023C454.4876 429.4271 453.14447 430.77023 451.4876 430.77023C449.83075 430.77023 448.4876 429.4271 448.4876 427.77023C448.4876 426.11337 449.83075 424.77023 451.4876 424.77023C453.14447 424.77023 454.4876 426.11337 454.4876 427.77023Z" fill-rule="nonzero"/><path fill="#000000" fill-opacity="0.0" clip-path="url(#id_0)" d="M458.43802 418.3191C458.43802 419.97595 457.09488 421.3191 455.43802 421.3191C453.78116 421.3191 452.43802 419.97595 452.43802 418.3191C452.43802 416.66223 453.78116 415.3191 455.43802 415.3191C457.09488 415.3191 458.43802 416.66223 458.43802 418.3191Z" fill-rule="nonzero"/><path fill="#000000" fill-opacity="0.0" clip-path="url(#id_0)" d="M462.38843 408.34613C462.38843 410.003 461.0453 411.34613 459.38843 411.34613C457.73157 411.34613 456.38843 410.003 456.38843 408.34613C456.38843 406.68927 457.73157 405.34613 459.38843 405.34613C461.0453 405.34613 462.38843 406.68927 462.38843 408.34613Z" fill-rule="nonzero"/><path fill="#000000" fill-opacity="0.0" clip-path="url(#id_0)" d="M466.33884 397.82257C466.33884 399.47943 464.9957 400.82257 463.33884 400.82257C461.68198 400.82257 460.33884 399.47943 460.33884 397.82257C460.33884 396.16574 461.68198 394.82257 463.33884 394.82257C464.9957 394.82257 466.33884 396.16574 466.33884 397.82257Z" fill-rule="nonzero"/><path fill="#000000" fill-opacity="0.0" clip-path="url(#id_0)" d="M470.28925 386.71793C470.28925 388.3748 468.9461 389.71793 467.28925 389.71793C465.63242 389.71793 464.28925 388.3748 464.28925 386.71793C464.28925 385.06107 465.63242 383.71793 467.28925 383.71793C468.9461 383.71793 470.28925 385.06107 470.28925 386.71793Z" fill-rule="nonzero"/><path fill="#000000" fill-opacity="0.0" clip-path="url(#id_0)" d="M474.23965 375.0001C474.23965 376.65695 472.8965 378.0001 471.23965 378.0001C469.58282 378.0001 468.23965 376.65695 468.23965 375.0001C468.23965 373.34326 469.58282 372.0001 471.23965 372.0001C472.8965 372.0001 474.23965 373.34326 474.23965 375.0001Z" fill-rule="nonzero"/><path fill="#000000" fill-opacity="0.0" clip-path="url(#id_0)" d="M478.1901 362.6353C478.1901 364.29214 476.84692 365.6353 475.1901 365.6353C473.53323 365.6353 472.1901 364.29214 472.1901 362.6353C472.1901 360.97845 473.53323 359.6353 475.1901 359.6353C476.84692 359.6353 478.1901 360.97845 478.1901 362.6353Z" fill-rule="nonzero"/><path fill="#000000" fill-opacity="0.0" clip-path="url(#id_0)" d="M482.1405 349.58783C482.1405 351.2447 480.79736 352.58783 479.1405 352.58783C477.48364 352.58783 476.1405 351.2447 476.1405 349.58783C476.1405 347.931 477.48364 346.58783 479.1405 346.58783C480.79736 346.58783 482.1405 347.931 482.1405 349.58783Z" fill-rule="nonzero"/><path fill="#000000" fill-opacity="0.0" clip-path="url(#id_0)" d="M486.0909 335.82C486.0909 337.47687 484.74777 338.82 483.0909 338.82C481.43405 338.82 480.0909 337.47687 480.0909 335.82C480.0909 334.16315 481.43405 332.82 483.0909 332.82C484.74777 332.82 486.0909 334.16315 486.0909 335.82Z" fill-rule="nonzero"/><path fill="#000000" fill-opacity="0.0" clip-path="url(#id_0)" d="M490.04132 326.1246C490.04132 327.78146 488.69818 329.1246 487.04132 329.1246C485.38446 329.1246 484.04132 327.78146 484.04132 326.1246C484.04132 324.46774 485.38446 323.1246 487.04132 323.1246C488.69818 323.1246 490.04132 324.46774 490.04132 326.1246Z" fill-rule="nonzero"/><path fill="#000000" fill-opacity="0.0" clip-path="url(#id_0)" d="M493.99173 316.33224C493.99173 317.9891 492.6486 319.33224 490.99173 319.33224C489.33487 319.33224 487.99173 317.9891 487.99173 316.33224C487.99173 314.67538 489.33487 313.33224 490.99173 313.33224C492.6486 313.33224 493.99173 314.67538 493.99173 316.33224Z" fill-rule="nonzero"/><path fill="#000000" fill-opacity="0.0" clip-path="url(#id_0)" d="M497.94214 306.44202C497.94214 308.09885 496.599 309.44202 494.94214 309.44202C493.2853 309.44202 491.94214 308.09885 491.94214 306.44202C491.94214 304.78516 493.2853 303.44202 494.94214 303.44202C496.599 303.44202 497.94214 304.78516 497.94214 306.44202Z" fill-rule="nonzero"/><path fill="#000000" fill-opacity="0.0" clip-path="url(#id_0)" d="M501.89255 296.45282C501.89255 298.10968 500.5494 299.45282 498.89255 299.45282C497.23572 299.45282 495.89255 298.10968 495.89255 296.45282C495.89255 294.79596 497.23572 293.45282 498.89255 293.45282C500.5494 293.45282 501.89255 294.79596 501.89255 296.45282Z" fill-rule="nonzero"/><path fill="#000000" fill-opacity="0.0" clip-path="url(#id_0)" d="M505.843 286.36377C505.843 288.02063 504.49982 289.36377 502.843 289.36377C501.18613 289.36377 499.843 288.02063 499.843 286.36377C499.843 284.7069 501.18613 283.36377 502.843 283.36377C504.49982 283.36377 505.843 284.7069 505.843 286.36377Z" fill-rule="nonzero"/><path fill="#000000" fill-opacity="0.0" clip-path="url(#id_0)" d="M509.7934 276.1739C509.7934 277.83075 508.45026 279.1739 506.7934 279.1739C505.13654 279.1739 503.7934 277.83075 503.7934 276.1739C503.7934 274.51706 505.13654 273.1739 506.7934 273.1739C508.45026 273.1739 509.7934 274.51706 509.7934 276.1739Z" fill-rule="nonzero"/><path fill="#000000" fill-opacity="0.0" clip-path="url(#id_0)" d="M513.7438 265.88217C513.7438 267.53903 512.40063 268.88217 510.7438 268.88217C509.08694 268.88217 507.7438 267.53903 507.7438 265.88217C507.7438 264.2253 509.08694 262.88217 510.7438 262.88217C512.40063 262.88217 513.7438 264.2253 513.7438 265.88217Z" fill-rule="nonzero"/><path fill="#000000" fill-opacity="0.0" clip-path="url(#id_0)" d="M517.6942 255.48758C517.6942 257.14444 516.3511 258.48758 514.6942 258.48758C513.03735 258.48758 511.6942 257.14444 511.6942 255.48758C511.6942 253.83073 513.03735 252.48758 514.6942 252.48758C516.3511 252.48758 517.6942 253.83073 517.6942 255.48758Z" fill-rule="nonzero"/><path fill="#000000" fill-opacity="0.0" clip-path="url(#id_0)" d="M521.64465 244.98901C521.64465 246.64587 520.30145 247.98901 518.64465 247.98901C516.9878 247.98901 515.64465 246.64587 515.64465 244.98901C515.64465 243.33217 516.9878 241.98901 518.64465 241.98901C520.30145 241.98901 521.64465 243.33217 521.64465 244.98901Z" fill-rule="nonzero"/><path fill="#000000" fill-opacity="0.0" clip-path="url(#id_0)" d="M525.59503 234.38548C525.59503 236.04234 524.2519 237.38548 522.59503 237.38548C520.9382 237.38548 519.59503 236.04234 519.59503 234.38548C519.59503 232.72862 520.9382 231.38548 522.59503 231.38548C524.2519 231.38548 525.59503 232.72862 525.59503 234.38548Z" fill-rule="nonzero"/><path fill="#000000" fill-opacity="0.0" clip-path="url(#id_0)" d="M529.5455 223.67592C529.5455 225.33278 528.20233 226.67592 526.5455 226.67592C524.8886 226.67592 523.5455 225.33278 523.5455 223.67592C523.5455 222.01906 524.8886 220.67592 526.5455 220.67592C528.20233 220.67592 529.5455 222.01906 529.5455 223.67592Z" fill-rule="nonzero"/><path fill="#000000" fill-opacity="0.0" clip-path="url(#id_0)" d="M533.49585 212.85933C533.49585 214.51619 532.1527 215.85933 530.49585 215.85933C528.839 215.85933 527.49585 214.51619 527.49585 212.85933C527.49585 211.20248 528.839 209.85933 530.49585 209.85933C532.1527 209.85933 533.49585 211.20248 533.49585 212.85933Z" fill-rule="nonzero"/><path fill="#000000" fill-opacity="0.0" clip-path="url(#id_0)" d="M537.4463 201.9346C537.4463 203.59146 536.10315 204.9346 534.4463 204.9346C532.7894 204.9346 531.4463 203.59146 531.4463 201.9346C531.4463 200.27776 532.7894 198.9346 534.4463 198.9346C536.10315 198.9346 537.4463 200.27776 537.4463 201.9346Z" fill-rule="nonzero"/><path fill="#000000" fill-opacity="0.0" clip-path="url(#id_0)" d="M541.39667 190.90068C541.39667 192.55754 540.0535 193.90068 538.39667 193.90068C536.73987 193.90068 535.39667 192.55754 535.39667 190.90068C535.39667 189.24382 536.73987 187.90068 538.39667 187.90068C540.0535 187.90068 541.39667 189.24382 541.39667 190.90068Z" fill-rule="nonzero"/><path fill="#000000" fill-opacity="0.0" clip-path="url(#id_0)" d="M545.3471 179.75638C545.3471 181.41324 544.00397 182.75638 542.3471 182.75638C540.69025 182.75638 539.3471 181.41324 539.3471 179.75638C539.3471 178.09952 540.69025 176.75638 542.3471 176.75638C544.00397 176.75638 545.3471 178.09952 545.3471 179.75638Z" fill-rule="nonzero"/><path fill="#000000" fill-opacity="0.0" clip-path="url(#id_0)" d="M549.29755 168.015C549.29755 169.67186 547.95435 171.015 546.29755 171.015C544.6407 171.015 543.29755 169.67186 543.29755 168.015C543.29755 166.35814 544.6407 165.015 546.29755 165.015C547.95435 165.015 549.29755 166.35814 549.29755 168.015Z" fill-rule="nonzero"/><path fill="#000000" fill-opacity="0.0" clip-path="url(#id_0)" d="M553.2479 157.13248C553.2479 158.78932 551.9048 160.13248 550.2479 160.13248C548.59106 160.13248 547.2479 158.78932 547.2479 157.13248C547.2479 155.47562 548.59106 154.13248 550.2479 154.13248C551.9048 154.13248 553.2479 155.47562 553.2479 157.13248Z" fill-rule="nonzero"/><path fill="#000000" fill-opacity="0.0" clip-path="url(#id_0)" d="M557.19836 145.65057C557.19836 147.30742 555.8552 148.65057 554.19836 148.65057C552.5415 148.65057 551.19836 147.30742 551.19836 145.65057C551.19836 143.99371 552.5415 142.65057 554.19836 142.65057C555.8552 142.65057 557.19836 143.99371 557.19836 145.65057Z" fill-rule="nonzero"/><path fill="#000000" fill-opacity="0.0" clip-path="url(#id_0)" d="M561.14874 134.05388C561.14874 135.71074 559.8056 137.05388 558.14874 137.05388C556.4919 137.05388 555.14874 135.71074 555.14874 134.05388C555.14874 132.39702 556.4919 131.05388 558.14874 131.05388C559.8056 131.05388 561.14874 132.39702 561.14874 134.05388Z" fill-rule="nonzero"/><path fill="#000000" fill-opacity="0.0" clip-path="url(#id_0)" d="M565.0992 122.34128C565.0992 123.99813 563.75604 125.34128 562.0992 125.34128C560.4423 125.34128 559.0992 123.99813 559.0992 122.34128C559.0992 120.68442 560.4423 119.34128 562.0992 119.34128C563.75604 119.34128 565.0992 120.68442 565.0992 122.34128Z" fill-rule="nonzero"/><path fill="#000000" fill-opacity="0.0" clip-path="url(#id_0)" d="M569.04956 110.39443C569.04956 112.051285 567.7064 113.39443 566.04956 113.39443C564.39276 113.39443 563.04956 112.051285 563.04956 110.39443C563.04956 108.73758 564.39276 107.39443 566.04956 107.39443C567.7064 107.39443 569.04956 108.73758 569.04956 110.39443Z" fill-rule="nonzero"/><path fill="#000000" fill-opacity="0.0" clip-path="url(#id_0)" d="M573.0 98.20868C573.0 99.86553 571.65686 101.20868 570.0 101.20868C568.34314 101.20868 567.0 99.86553 567.0 98.20868C567.0 96.55183 568.34314 95.20868 570.0 95.20868C571.65686 95.20868 573.0 96.55183 573.0 98.20868Z" fill-rule="nonzero"/><path fill="#757575" d="M85.0625 659.8594Q85.0625 661.7656 84.40625 662.7031Q83.765625 663.625 82.375 663.625Q81.015625 663.625 80.359375 662.71875Q79.703125 661.8125 79.671875 660.0L79.671875 658.5625Q79.671875 656.6719 80.3125 655.7656Q80.96875 654.84375 82.359375 654.84375Q83.734375 654.84375 84.390625 655.7344Q85.046875 656.6094 85.0625 658.4531L85.0625 659.8594ZM83.96875 658.375Q83.96875 657.0 83.578125 656.375Q83.203125 655.7344 82.359375 655.7344Q81.53125 655.7344 81.140625 656.375Q80.765625 657.0 80.765625 658.2969L80.765625 660.03125Q80.765625 661.40625 81.15625 662.0781Q81.5625 662.7344 82.375 662.7344Q83.171875 662.7344 83.5625 662.1094Q83.953125 661.4844 83.96875 660.15625L83.96875 658.375Z" fill-rule="nonzero"/><path fill="#757575" d="M43.296875 508.125L37.703125 508.125L37.703125 507.34375L40.65625 504.0625Q41.3125 503.3125 41.5625 502.85938Q41.8125 502.39062 41.8125 501.89062Q41.8125 501.21875 41.40625 500.79688Q41.015625 500.35938 40.328125 500.35938Q39.53125 500.35938 39.078125 500.82812Q38.625 501.28125 38.625 502.10938L37.546875 502.10938Q37.546875 500.92188 38.296875 500.20312Q39.0625 499.46875 40.328125 499.46875Q41.53125 499.46875 42.21875 500.09375Q42.90625 500.71875 42.90625 501.76562Q42.90625 503.01562 41.296875 504.76562L39.015625 507.23438L43.296875 507.23438L43.296875 508.125ZM45.203125 503.84375L45.640625 499.59375L50.015625 499.59375L50.015625 500.59375L46.5625 500.59375L46.296875 502.92188Q46.9375 502.54688 47.734375 502.54688Q48.890625 502.54688 49.578125 503.32812Q50.265625 504.09375 50.265625 505.40625Q50.265625 506.71875 49.546875 507.48438Q48.84375 508.25 47.5625 508.25Q46.4375 508.25 45.71875 507.625Q45.0 506.98438 44.90625 505.875L45.921875 505.875Q46.03125 506.60938 46.453125 506.98438Q46.875 507.35938 47.5625 507.35938Q48.3125 507.35938 48.75 506.84375Q49.1875 506.32812 49.1875 505.42188Q49.1875 504.5625 48.71875 504.04688Q48.25 503.53125 47.46875 503.53125Q46.765625 503.53125 46.359375 503.82812L46.078125 504.0625L45.203125 503.84375ZM57.0625 504.48438Q57.0625 506.39062 56.40625 507.32812Q55.765625 508.25 54.375 508.25Q53.015625 508.25 52.359375 507.34375Q51.703125 506.4375 51.671875 504.625L51.671875 503.1875Q51.671875 501.29688 52.3125 500.39062Q52.96875 499.46875 54.359375 499.46875Q55.734375 499.46875 56.390625 500.35938Q57.046875 501.23438 57.0625 503.07812L57.0625 504.48438ZM55.96875 503.0Q55.96875 501.625 55.578125 501.0Q55.203125 500.35938 54.359375 500.35938Q53.53125 500.35938 53.140625 501.0Q52.765625 501.625 52.765625 502.92188L52.765625 504.65625Q52.765625 506.03125 53.15625 506.70312Q53.5625 507.35938 54.375 507.35938Q55.171875 507.35938 55.5625 506.73438Q55.953125 506.10938 55.96875 504.78125L55.96875 503.0ZM64.0625 504.48438Q64.0625 506.39062 63.40625 507.32812Q62.765625 508.25 61.375 508.25Q60.015625 508.25 59.359375 507.34375Q58.703125 506.4375 58.671875 504.625L58.671875 503.1875Q58.671875 501.29688 59.3125 500.39062Q59.96875 499.46875 61.359375 499.46875Q62.734375 499.46875 63.390625 500.35938Q64.046875 501.23438 64.0625 503.07812L64.0625 504.48438ZM62.96875 503.0Q62.96875 501.625 62.578125 501.0Q62.203125 500.35938 61.359375 500.35938Q60.53125 500.35938 60.140625 501.0Q59.765625 501.625 59.765625 502.92188L59.765625 504.65625Q59.765625 506.03125 60.15625 506.70312Q60.5625 507.35938 61.375 507.35938Q62.171875 507.35938 62.5625 506.73438Q62.953125 506.10938 62.96875 504.78125L62.96875 503.0ZM71.0625 504.48438Q71.0625 506.39062 70.40625 507.32812Q69.765625 508.25 68.375 508.25Q67.015625 508.25 66.359375 507.34375Q65.703125 506.4375 65.671875 504.625L65.671875 503.1875Q65.671875 501.29688 66.3125 500.39062Q66.96875 499.46875 68.359375 499.46875Q69.734375 499.46875 70.390625 500.35938Q71.046875 501.23438 71.0625 503.07812L71.0625 504.48438ZM69.96875 503.0Q69.96875 501.625 69.578125 501.0Q69.203125 500.35938 68.359375 500.35938Q67.53125 500.35938 67.140625 501.0Q66.765625 501.625 66.765625 502.92188L66.765625 504.65625Q66.765625 506.03125 67.15625 506.70312Q67.5625 507.35938 68.375 507.35938Q69.171875 507.35938 69.5625 506.73438Q69.953125 506.10938 69.96875 504.78125L69.96875 503.0ZM78.0625 504.48438Q78.0625 506.39062 77.40625 507.32812Q76.765625 508.25 75.375 508.25Q74.015625 508.25 73.359375 507.34375Q72.703125 506.4375 72.671875 504.625L72.671875 503.1875Q72.671875 501.29688 73.3125 500.39062Q73.96875 499.46875 75.359375 499.46875Q76.734375 499.46875 77.390625 500.35938Q78.046875 501.23438 78.0625 503.07812L78.0625 504.48438ZM76.96875 503.0Q76.96875 501.625 76.578125 501.0Q76.203125 500.35938 75.359375 500.35938Q74.53125 500.35938 74.140625 501.0Q73.765625 501.625 73.765625 502.92188L73.765625 504.65625Q73.765625 506.03125 74.15625 506.70312Q74.5625 507.35938 75.375 507.35938Q76.171875 507.35938 76.5625 506.73438Q76.953125 506.10938 76.96875 504.78125L76.96875 503.0ZM85.0625 504.48438Q85.0625 506.39062 84.40625 507.32812Q83.765625 508.25 82.375 508.25Q81.015625 508.25 80.359375 507.34375Q79.703125 506.4375 79.671875 504.625L79.671875 503.1875Q79.671875 501.29688 80.3125 500.39062Q80.96875 499.46875 82.359375 499.46875Q83.734375 499.46875 84.390625 500.35938Q85.046875 501.23438 85.0625 503.07812L85.0625 504.48438ZM83.96875 503.0Q83.96875 501.625 83.578125 501.0Q83.203125 500.35938 82.359375 500.35938Q81.53125 500.35938 81.140625 501.0Q80.765625 501.625 80.765625 502.92188L80.765625 504.65625Q80.765625 506.03125 81.15625 506.70312Q81.5625 507.35938 82.375 507.35938Q83.171875 507.35938 83.5625 506.73438Q83.953125 506.10938 83.96875 504.78125L83.96875 503.0Z" fill-rule="nonzero"/><path fill="#757575" d="M38.203125 348.46875L38.640625 344.21875L43.015625 344.21875L43.015625 345.21875L39.5625 345.21875L39.296875 347.54688Q39.9375 347.17188 40.734375 347.17188Q41.890625 347.17188 42.578125 347.95312Q43.265625 348.71875 43.265625 350.03125Q43.265625 351.34375 42.546875 352.10938Q41.84375 352.875 40.5625 352.875Q39.4375 352.875 38.71875 352.25Q38.0 351.60938 37.90625 350.5L38.921875 350.5Q39.03125 351.23438 39.453125 351.60938Q39.875 351.98438 40.5625 351.98438Q41.3125 351.98438 41.75 351.46875Q42.1875 350.95312 42.1875 350.04688Q42.1875 349.1875 41.71875 348.67188Q41.25 348.15625 40.46875 348.15625Q39.765625 348.15625 39.359375 348.45312L39.078125 348.6875L38.203125 348.46875ZM50.0625 349.10938Q50.0625 351.01562 49.40625 351.95312Q48.765625 352.875 47.375 352.875Q46.015625 352.875 45.359375 351.96875Q44.703125 351.0625 44.671875 349.25L44.671875 347.8125Q44.671875 345.92188 45.3125 345.01562Q45.96875 344.09375 47.359375 344.09375Q48.734375 344.09375 49.390625 344.98438Q50.046875 345.85938 50.0625 347.70312L50.0625 349.10938ZM48.96875 347.625Q48.96875 346.25 48.578125 345.625Q48.203125 344.98438 47.359375 344.98438Q46.53125 344.98438 46.140625 345.625Q45.765625 346.25 45.765625 347.54688L45.765625 349.28125Q45.765625 350.65625 46.15625 351.32812Q46.5625 351.98438 47.375 351.98438Q48.171875 351.98438 48.5625 351.35938Q48.953125 350.73438 48.96875 349.40625L48.96875 347.625ZM57.0625 349.10938Q57.0625 351.01562 56.40625 351.95312Q55.765625 352.875 54.375 352.875Q53.015625 352.875 52.359375 351.96875Q51.703125 351.0625 51.671875 349.25L51.671875 347.8125Q51.671875 345.92188 52.3125 345.01562Q52.96875 344.09375 54.359375 344.09375Q55.734375 344.09375 56.390625 344.98438Q57.046875 345.85938 57.0625 347.70312L57.0625 349.10938ZM55.96875 347.625Q55.96875 346.25 55.578125 345.625Q55.203125 344.98438 54.359375 344.98438Q53.53125 344.98438 53.140625 345.625Q52.765625 346.25 52.765625 347.54688L52.765625 349.28125Q52.765625 350.65625 53.15625 351.32812Q53.5625 351.98438 54.375 351.98438Q55.171875 351.98438 55.5625 351.35938Q55.953125 350.73438 55.96875 349.40625L55.96875 347.625ZM64.0625 349.10938Q64.0625 351.01562 63.40625 351.95312Q62.765625 352.875 61.375 352.875Q60.015625 352.875 59.359375 351.96875Q58.703125 351.0625 58.671875 349.25L58.671875 347.8125Q58.671875 345.92188 59.3125 345.01562Q59.96875 344.09375 61.359375 344.09375Q62.734375 344.09375 63.390625 344.98438Q64.046875 345.85938 64.0625 347.70312L64.0625 349.10938ZM62.96875 347.625Q62.96875 346.25 62.578125 345.625Q62.203125 344.98438 61.359375 344.98438Q60.53125 344.98438 60.140625 345.625Q59.765625 346.25 59.765625 347.54688L59.765625 349.28125Q59.765625 350.65625 60.15625 351.32812Q60.5625 351.98438 61.375 351.98438Q62.171875 351.98438 62.5625 351.35938Q62.953125 350.73438 62.96875 349.40625L62.96875 347.625ZM71.0625 349.10938Q71.0625 351.01562 70.40625 351.95312Q69.765625 352.875 68.375 352.875Q67.015625 352.875 66.359375 351.96875Q65.703125 351.0625 65.671875 349.25L65.671875 347.8125Q65.671875 345.92188 66.3125 345.01562Q66.96875 344.09375 68.359375 344.09375Q69.734375 344.09375 70.390625 344.98438Q71.046875 345.85938 71.0625 347.70312L71.0625 349.10938ZM69.96875 347.625Q69.96875 346.25 69.578125 345.625Q69.203125 344.98438 68.359375 344.98438Q67.53125 344.98438 67.140625 345.625Q66.765625 346.25 66.765625 347.54688L66.765625 349.28125Q66.765625 350.65625 67.15625 351.32812Q67.5625 351.98438 68.375 351.98438Q69.171875 351.98438 69.5625 351.35938Q69.953125 350.73438 69.96875 349.40625L69.96875 347.625ZM78.0625 349.10938Q78.0625 351.01562 77.40625 351.95312Q76.765625 352.875 75.375 352.875Q74.015625 352.875 73.359375 351.96875Q72.703125 351.0625 72.671875 349.25L72.671875 347.8125Q72.671875 345.92188 73.3125 345.01562Q73.96875 344.09375 75.359375 344.09375Q76.734375 344.09375 77.390625 344.98438Q78.046875 345.85938 78.0625 347.70312L78.0625 349.10938ZM76.96875 347.625Q76.96875 346.25 76.578125 345.625Q76.203125 344.98438 75.359375 344.98438Q74.53125 344.98438 74.140625 345.625Q73.765625 346.25 73.765625 347.54688L73.765625 349.28125Q73.765625 350.65625 74.15625 351.32812Q74.5625 351.98438 75.375 351.98438Q76.171875 351.98438 76.5625 351.35938Q76.953125 350.73438 76.96875 349.40625L76.96875 347.625ZM85.0625 349.10938Q85.0625 351.01562 84.40625 351.95312Q83.765625 352.875 82.375 352.875Q81.015625 352.875 80.359375 351.96875Q79.703125 351.0625 79.671875 349.25L79.671875 347.8125Q79.671875 345.92188 80.3125 345.01562Q80.96875 344.09375 82.359375 344.09375Q83.734375 344.09375 84.390625 344.98438Q85.046875 345.85938 85.0625 347.70312L85.0625 349.10938ZM83.96875 347.625Q83.96875 346.25 83.578125 345.625Q83.203125 344.98438 82.359375 344.98438Q81.53125 344.98438 81.140625 345.625Q80.765625 346.25 80.765625 347.54688L80.765625 349.28125Q80.765625 350.65625 81.15625 351.32812Q81.5625 351.98438 82.375 351.98438Q83.171875 351.98438 83.5625 351.35938Q83.953125 350.73438 83.96875 349.40625L83.96875 347.625Z" fill-rule="nonzero"/><path fill="#757575" d="M43.21875 189.45312L39.6875 197.375L38.546875 197.375L42.0625 189.73438L37.453125 189.73438L37.453125 188.84375L43.21875 188.84375L43.21875 189.45312ZM45.203125 193.09375L45.640625 188.84375L50.015625 188.84375L50.015625 189.84375L46.5625 189.84375L46.296875 192.17188Q46.9375 191.79688 47.734375 191.79688Q48.890625 191.79688 49.578125 192.57812Q50.265625 193.34375 50.265625 194.65625Q50.265625 195.96875 49.546875 196.73438Q48.84375 197.5 47.5625 197.5Q46.4375 197.5 45.71875 196.875Q45.0 196.23438 44.90625 195.125L45.921875 195.125Q46.03125 195.85938 46.453125 196.23438Q46.875 196.60938 47.5625 196.60938Q48.3125 196.60938 48.75 196.09375Q49.1875 195.57812 49.1875 194.67188Q49.1875 193.8125 48.71875 193.29688Q48.25 192.78125 47.46875 192.78125Q46.765625 192.78125 46.359375 193.07812L46.078125 193.3125L45.203125 193.09375ZM57.0625 193.73438Q57.0625 195.64062 56.40625 196.57812Q55.765625 197.5 54.375 197.5Q53.015625 197.5 52.359375 196.59375Q51.703125 195.6875 51.671875 193.875L51.671875 192.4375Q51.671875 190.54688 52.3125 189.64062Q52.96875 188.71875 54.359375 188.71875Q55.734375 188.71875 56.390625 189.60938Q57.046875 190.48438 57.0625 192.32812L57.0625 193.73438ZM55.96875 192.25Q55.96875 190.875 55.578125 190.25Q55.203125 189.60938 54.359375 189.60938Q53.53125 189.60938 53.140625 190.25Q52.765625 190.875 52.765625 192.17188L52.765625 193.90625Q52.765625 195.28125 53.15625 195.95312Q53.5625 196.60938 54.375 196.60938Q55.171875 196.60938 55.5625 195.98438Q55.953125 195.35938 55.96875 194.03125L55.96875 192.25ZM64.0625 193.73438Q64.0625 195.64062 63.40625 196.57812Q62.765625 197.5 61.375 197.5Q60.015625 197.5 59.359375 196.59375Q58.703125 195.6875 58.671875 193.875L58.671875 192.4375Q58.671875 190.54688 59.3125 189.64062Q59.96875 188.71875 61.359375 188.71875Q62.734375 188.71875 63.390625 189.60938Q64.046875 190.48438 64.0625 192.32812L64.0625 193.73438ZM62.96875 192.25Q62.96875 190.875 62.578125 190.25Q62.203125 189.60938 61.359375 189.60938Q60.53125 189.60938 60.140625 190.25Q59.765625 190.875 59.765625 192.17188L59.765625 193.90625Q59.765625 195.28125 60.15625 195.95312Q60.5625 196.60938 61.375 196.60938Q62.171875 196.60938 62.5625 195.98438Q62.953125 195.35938 62.96875 194.03125L62.96875 192.25ZM71.0625 193.73438Q71.0625 195.64062 70.40625 196.57812Q69.765625 197.5 68.375 197.5Q67.015625 197.5 66.359375 196.59375Q65.703125 195.6875 65.671875 193.875L65.671875 192.4375Q65.671875 190.54688 66.3125 189.64062Q66.96875 188.71875 68.359375 188.71875Q69.734375 188.71875 70.390625 189.60938Q71.046875 190.48438 71.0625 192.32812L71.0625 193.73438ZM69.96875 192.25Q69.96875 190.875 69.578125 190.25Q69.203125 189.60938 68.359375 189.60938Q67.53125 189.60938 67.140625 190.25Q66.765625 190.875 66.765625 192.17188L66.765625 193.90625Q66.765625 195.28125 67.15625 195.95312Q67.5625 196.60938 68.375 196.60938Q69.171875 196.60938 69.5625 195.98438Q69.953125 195.35938 69.96875 194.03125L69.96875 192.25ZM78.0625 193.73438Q78.0625 195.64062 77.40625 196.57812Q76.765625 197.5 75.375 197.5Q74.015625 197.5 73.359375 196.59375Q72.703125 195.6875 72.671875 193.875L72.671875 192.4375Q72.671875 190.54688 73.3125 189.64062Q73.96875 188.71875 75.359375 188.71875Q76.734375 188.71875 77.390625 189.60938Q78.046875 190.48438 78.0625 192.32812L78.0625 193.73438ZM76.96875 192.25Q76.96875 190.875 76.578125 190.25Q76.203125 189.60938 75.359375 189.60938Q74.53125 189.60938 74.140625 190.25Q73.765625 190.875 73.765625 192.17188L73.765625 193.90625Q73.765625 195.28125 74.15625 195.95312Q74.5625 196.60938 75.375 196.60938Q76.171875 196.60938 76.5625 195.98438Q76.953125 195.35938 76.96875 194.03125L76.96875 192.25ZM85.0625 193.73438Q85.0625 195.64062 84.40625 196.57812Q83.765625 197.5 82.375 197.5Q81.015625 197.5 80.359375 196.59375Q79.703125 195.6875 79.671875 193.875L79.671875 192.4375Q79.671875 190.54688 80.3125 189.64062Q80.96875 188.71875 82.359375 188.71875Q83.734375 188.71875 84.390625 189.60938Q85.046875 190.48438 85.0625 192.32812L85.0625 193.73438ZM83.96875 192.25Q83.96875 190.875 83.578125 190.25Q83.203125 189.60938 82.359375 189.60938Q81.53125 189.60938 81.140625 190.25Q80.765625 190.875 80.765625 192.17188L80.765625 193.90625Q80.765625 195.28125 81.15625 195.95312Q81.5625 196.60938 82.375 196.60938Q83.171875 196.60938 83.5625 195.98438Q83.953125 195.35938 83.96875 194.03125L83.96875 192.25Z" fill-rule="nonzero"/><path fill="#757575" d="M34.265625 42.0L33.1875 42.0L33.1875 34.78125L31.0 35.578125L31.0 34.59375L34.109375 33.421875L34.265625 33.421875L34.265625 42.0ZM43.0625 38.359375Q43.0625 40.265625 42.40625 41.203125Q41.765625 42.125 40.375 42.125Q39.015625 42.125 38.359375 41.21875Q37.703125 40.3125 37.671875 38.5L37.671875 37.0625Q37.671875 35.171875 38.3125 34.265625Q38.96875 33.34375 40.359375 33.34375Q41.734375 33.34375 42.390625 34.234375Q43.046875 35.109375 43.0625 36.953125L43.0625 38.359375ZM41.96875 36.875Q41.96875 35.5 41.578125 34.875Q41.203125 34.234375 40.359375 34.234375Q39.53125 34.234375 39.140625 34.875Q38.765625 35.5 38.765625 36.796875L38.765625 38.53125Q38.765625 39.90625 39.15625 40.578125Q39.5625 41.234375 40.375 41.234375Q41.171875 41.234375 41.5625 40.609375Q41.953125 39.984375 41.96875 38.65625L41.96875 36.875ZM50.0625 38.359375Q50.0625 40.265625 49.40625 41.203125Q48.765625 42.125 47.375 42.125Q46.015625 42.125 45.359375 41.21875Q44.703125 40.3125 44.671875 38.5L44.671875 37.0625Q44.671875 35.171875 45.3125 34.265625Q45.96875 33.34375 47.359375 33.34375Q48.734375 33.34375 49.390625 34.234375Q50.046875 35.109375 50.0625 36.953125L50.0625 38.359375ZM48.96875 36.875Q48.96875 35.5 48.578125 34.875Q48.203125 34.234375 47.359375 34.234375Q46.53125 34.234375 46.140625 34.875Q45.765625 35.5 45.765625 36.796875L45.765625 38.53125Q45.765625 39.90625 46.15625 40.578125Q46.5625 41.234375 47.375 41.234375Q48.171875 41.234375 48.5625 40.609375Q48.953125 39.984375 48.96875 38.65625L48.96875 36.875ZM57.0625 38.359375Q57.0625 40.265625 56.40625 41.203125Q55.765625 42.125 54.375 42.125Q53.015625 42.125 52.359375 41.21875Q51.703125 40.3125 51.671875 38.5L51.671875 37.0625Q51.671875 35.171875 52.3125 34.265625Q52.96875 33.34375 54.359375 33.34375Q55.734375 33.34375 56.390625 34.234375Q57.046875 35.109375 57.0625 36.953125L57.0625 38.359375ZM55.96875 36.875Q55.96875 35.5 55.578125 34.875Q55.203125 34.234375 54.359375 34.234375Q53.53125 34.234375 53.140625 34.875Q52.765625 35.5 52.765625 36.796875L52.765625 38.53125Q52.765625 39.90625 53.15625 40.578125Q53.5625 41.234375 54.375 41.234375Q55.171875 41.234375 55.5625 40.609375Q55.953125 39.984375 55.96875 38.65625L55.96875 36.875ZM64.0625 38.359375Q64.0625 40.265625 63.40625 41.203125Q62.765625 42.125 61.375 42.125Q60.015625 42.125 59.359375 41.21875Q58.703125 40.3125 58.671875 38.5L58.671875 37.0625Q58.671875 35.171875 59.3125 34.265625Q59.96875 33.34375 61.359375 33.34375Q62.734375 33.34375 63.390625 34.234375Q64.046875 35.109375 64.0625 36.953125L64.0625 38.359375ZM62.96875 36.875Q62.96875 35.5 62.578125 34.875Q62.203125 34.234375 61.359375 34.234375Q60.53125 34.234375 60.140625 34.875Q59.765625 35.5 59.765625 36.796875L59.765625 38.53125Q59.765625 39.90625 60.15625 40.578125Q60.5625 41.234375 61.375 41.234375Q62.171875 41.234375 62.5625 40.609375Q62.953125 39.984375 62.96875 38.65625L62.96875 36.875ZM71.0625 38.359375Q71.0625 40.265625 70.40625 41.203125Q69.765625 42.125 68.375 42.125Q67.015625 42.125 66.359375 41.21875Q65.703125 40.3125 65.671875 38.5L65.671875 37.0625Q65.671875 35.171875 66.3125 34.265625Q66.96875 33.34375 68.359375 33.34375Q69.734375 33.34375 70.390625 34.234375Q71.046875 35.109375 71.0625 36.953125L71.0625 38.359375ZM69.96875 36.875Q69.96875 35.5 69.578125 34.875Q69.203125 34.234375 68.359375 34.234375Q67.53125 34.234375 67.140625 34.875Q66.765625 35.5 66.765625 36.796875L66.765625 38.53125Q66.765625 39.90625 67.15625 40.578125Q67.5625 41.234375 68.375 41.234375Q69.171875 41.234375 69.5625 40.609375Q69.953125 39.984375 69.96875 38.65625L69.96875 36.875ZM78.0625 38.359375Q78.0625 40.265625 77.40625 41.203125Q76.765625 42.125 75.375 42.125Q74.015625 42.125 73.359375 41.21875Q72.703125 40.3125 72.671875 38.5L72.671875 37.0625Q72.671875 35.171875 73.3125 34.265625Q73.96875 33.34375 75.359375 33.34375Q76.734375 33.34375 77.390625 34.234375Q78.046875 35.109375 78.0625 36.953125L78.0625 38.359375ZM76.96875 36.875Q76.96875 35.5 76.578125 34.875Q76.203125 34.234375 75.359375 34.234375Q74.53125 34.234375 74.140625 34.875Q73.765625 35.5 73.765625 36.796875L73.765625 38.53125Q73.765625 39.90625 74.15625 40.578125Q74.5625 41.234375 75.375 41.234375Q76.171875 41.234375 76.5625 40.609375Q76.953125 39.984375 76.96875 38.65625L76.96875 36.875ZM85.0625 38.359375Q85.0625 40.265625 84.40625 41.203125Q83.765625 42.125 82.375 42.125Q81.015625 42.125 80.359375 41.21875Q79.703125 40.3125 79.671875 38.5L79.671875 37.0625Q79.671875 35.171875 80.3125 34.265625Q80.96875 33.34375 82.359375 33.34375Q83.734375 33.34375 84.390625 34.234375Q85.046875 35.109375 85.0625 36.953125L85.0625 38.359375ZM83.96875 36.875Q83.96875 35.5 83.578125 34.875Q83.203125 34.234375 82.359375 34.234375Q81.53125 34.234375 81.140625 34.875Q80.765625 35.5 80.765625 36.796875L80.765625 38.53125Q80.765625 39.90625 81.15625 40.578125Q81.5625 41.234375 82.375 41.234375Q83.171875 41.234375 83.5625 40.609375Q83.953125 39.984375 83.96875 38.65625L83.96875 36.875Z" fill-rule="nonzero"/><path fill="#757575" d="M166.35472 677.0L160.76097 677.0L160.76097 676.21875L163.7141 672.9375Q164.37035 672.1875 164.62035 671.7344Q164.87035 671.2656 164.87035 670.7656Q164.87035 670.09375 164.4641 669.6719Q164.07347 669.2344 163.38597 669.2344Q162.5891 669.2344 162.13597 669.7031Q161.68285 670.15625 161.68285 670.9844L160.60472 670.9844Q160.60472 669.7969 161.35472 669.0781Q162.12035 668.34375 163.38597 668.34375Q164.5891 668.34375 165.2766 668.96875Q165.9641 669.59375 165.9641 670.6406Q165.9641 671.8906 164.35472 673.6406L162.07347 676.1094L166.35472 676.1094L166.35472 677.0ZM173.12035 673.3594Q173.12035 675.2656 172.4641 676.2031Q171.82347 677.125 170.43285 677.125Q169.07347 677.125 168.41722 676.21875Q167.76097 675.3125 167.72972 673.5L167.72972 672.0625Q167.72972 670.1719 168.37035 669.2656Q169.0266 668.34375 170.41722 668.34375Q171.79222 668.34375 172.44847 669.2344Q173.10472 670.1094 173.12035 671.9531L173.12035 673.3594ZM172.0266 671.875Q172.0266 670.5 171.63597 669.875Q171.26097 669.2344 170.41722 669.2344Q169.5891 669.2344 169.19847 669.875Q168.82347 670.5 168.82347 671.7969L168.82347 673.53125Q168.82347 674.90625 169.2141 675.5781Q169.62035 676.2344 170.43285 676.2344Q171.22972 676.2344 171.62035 675.6094Q172.01097 674.9844 172.0266 673.65625L172.0266 671.875Z" fill-rule="nonzero"/><path fill="#757575" d="M244.34737 674.1406L245.53487 674.1406L245.53487 675.0156L244.34737 675.0156L244.34737 677.0L243.26924 677.0L243.26924 675.0156L239.37862 675.0156L239.37862 674.375L243.19112 668.46875L244.34737 668.46875L244.34737 674.1406ZM240.61299 674.1406L243.26924 674.1406L243.26924 669.9531L243.12862 670.1875L240.61299 674.1406ZM252.12862 673.3594Q252.12862 675.2656 251.47237 676.2031Q250.83174 677.125 249.44112 677.125Q248.08174 677.125 247.42549 676.21875Q246.76924 675.3125 246.73799 673.5L246.73799 672.0625Q246.73799 670.1719 247.37862 669.2656Q248.03487 668.34375 249.42549 668.34375Q250.80049 668.34375 251.45674 669.2344Q252.11299 670.1094 252.12862 671.9531L252.12862 673.3594ZM251.03487 671.875Q251.03487 670.5 250.64424 669.875Q250.26924 669.2344 249.42549 669.2344Q248.59737 669.2344 248.20674 669.875Q247.83174 670.5 247.83174 671.7969L247.83174 673.53125Q247.83174 674.90625 248.22237 675.5781Q248.62862 676.2344 249.44112 676.2344Q250.23799 676.2344 250.62862 675.6094Q251.01924 674.9844 251.03487 673.65625L251.03487 671.875Z" fill-rule="nonzero"/><path fill="#757575" d="M323.04312 668.46875L323.04312 669.375L322.84 669.375Q321.57437 669.40625 320.82437 670.1406Q320.07437 670.8594 319.94937 672.1719Q320.63687 671.40625 321.79312 671.40625Q322.9025 671.40625 323.57437 672.1875Q324.24625 672.96875 324.24625 674.21875Q324.24625 675.53125 323.5275 676.3281Q322.80875 677.125 321.59 677.125Q320.37125 677.125 319.60562 676.1875Q318.85562 675.2344 318.85562 673.75L318.85562 673.34375Q318.85562 670.9844 319.85562 669.7344Q320.85562 668.4844 322.84 668.46875L323.04312 668.46875ZM321.62125 672.3125Q321.05875 672.3125 320.59 672.6406Q320.12125 672.96875 319.93375 673.4844L319.93375 673.875Q319.93375 674.9375 320.4025 675.5781Q320.88687 676.21875 321.59 676.21875Q322.32437 676.21875 322.74625 675.6875Q323.16812 675.1406 323.16812 674.2656Q323.16812 673.3906 322.74625 672.8594Q322.32437 672.3125 321.62125 672.3125ZM331.13687 673.3594Q331.13687 675.2656 330.48062 676.2031Q329.84 677.125 328.44937 677.125Q327.09 677.125 326.43375 676.21875Q325.7775 675.3125 325.74625 673.5L325.74625 672.0625Q325.74625 670.1719 326.38687 669.2656Q327.04312 668.34375 328.43375 668.34375Q329.80875 668.34375 330.465 669.2344Q331.12125 670.1094 331.13687 671.9531L331.13687 673.3594ZM330.04312 671.875Q330.04312 670.5 329.6525 669.875Q329.2775 669.2344 328.43375 669.2344Q327.60562 669.2344 327.215 669.875Q326.84 670.5 326.84 671.7969L326.84 673.53125Q326.84 674.90625 327.23062 675.5781Q327.63687 676.2344 328.44937 676.2344Q329.24625 676.2344 329.63687 675.6094Q330.0275 674.9844 330.04312 673.65625L330.04312 671.875Z" fill-rule="nonzero"/><path fill="#757575" d="M402.97327 670.6875Q402.97327 671.3281 402.62952 671.8281Q402.28577 672.3281 401.72327 672.6094Q402.37952 672.8906 402.77014 673.4531Q403.16077 674.0 403.16077 674.7031Q403.16077 675.7969 402.41077 676.46875Q401.6764 677.125 400.45764 677.125Q399.22327 677.125 398.47327 676.46875Q397.7389 675.7969 397.7389 674.7031Q397.7389 674.0 398.1139 673.4531Q398.4889 672.8906 399.16077 672.6094Q398.59827 672.3281 398.27014 671.8281Q397.94202 671.3281 397.94202 670.6875Q397.94202 669.6094 398.62952 668.9844Q399.31702 668.34375 400.45764 668.34375Q401.58264 668.34375 402.27014 668.9844Q402.97327 669.6094 402.97327 670.6875ZM402.08264 674.6719Q402.08264 673.9531 401.62952 673.5156Q401.1764 673.0625 400.44202 673.0625Q399.70764 673.0625 399.25452 673.5156Q398.81702 673.9531 398.81702 674.6875Q398.81702 675.40625 399.25452 675.8281Q399.69202 676.2344 400.45764 676.2344Q401.20764 676.2344 401.64514 675.8125Q402.08264 675.3906 402.08264 674.6719ZM400.45764 669.2344Q399.81702 669.2344 399.41077 669.6406Q399.02014 670.03125 399.02014 670.71875Q399.02014 671.3594 399.41077 671.7656Q399.8014 672.1719 400.44202 672.1719Q401.09827 672.1719 401.4889 671.7656Q401.87952 671.3594 401.87952 670.71875Q401.87952 670.0625 401.47327 669.65625Q401.06702 669.2344 400.45764 669.2344ZM410.14514 673.3594Q410.14514 675.2656 409.4889 676.2031Q408.84827 677.125 407.45764 677.125Q406.09827 677.125 405.44202 676.21875Q404.78577 675.3125 404.75452 673.5L404.75452 672.0625Q404.75452 670.1719 405.39514 669.2656Q406.0514 668.34375 407.44202 668.34375Q408.81702 668.34375 409.47327 669.2344Q410.12952 670.1094 410.14514 671.9531L410.14514 673.3594ZM409.0514 671.875Q409.0514 670.5 408.66077 669.875Q408.28577 669.2344 407.44202 669.2344Q406.6139 669.2344 406.22327 669.875Q405.84827 670.5 405.84827 671.7969L405.84827 673.53125Q405.84827 674.90625 406.2389 675.5781Q406.64514 676.2344 407.45764 676.2344Q408.25452 676.2344 408.64514 675.6094Q409.03577 674.9844 409.0514 673.65625L409.0514 671.875Z" fill-rule="nonzero"/><path fill="#757575" d="M476.85654 677.0L475.7784 677.0L475.7784 669.78125L473.5909 670.5781L473.5909 669.59375L476.7003 668.4219L476.85654 668.4219L476.85654 677.0ZM485.6534 673.3594Q485.6534 675.2656 484.99716 676.2031Q484.35654 677.125 482.9659 677.125Q481.60654 677.125 480.9503 676.21875Q480.29404 675.3125 480.2628 673.5L480.2628 672.0625Q480.2628 670.1719 480.9034 669.2656Q481.55966 668.34375 482.9503 668.34375Q484.3253 668.34375 484.98154 669.2344Q485.6378 670.1094 485.6534 671.9531L485.6534 673.3594ZM484.55966 671.875Q484.55966 670.5 484.16904 669.875Q483.79404 669.2344 482.9503 669.2344Q482.12216 669.2344 481.73154 669.875Q481.35654 670.5 481.35654 671.7969L481.35654 673.53125Q481.35654 674.90625 481.74716 675.5781Q482.1534 676.2344 482.9659 676.2344Q483.7628 676.2344 484.1534 675.6094Q484.54404 674.9844 484.55966 673.65625L484.55966 671.875ZM492.6534 673.3594Q492.6534 675.2656 491.99716 676.2031Q491.35654 677.125 489.9659 677.125Q488.60654 677.125 487.9503 676.21875Q487.29404 675.3125 487.2628 673.5L487.2628 672.0625Q487.2628 670.1719 487.9034 669.2656Q488.55966 668.34375 489.9503 668.34375Q491.3253 668.34375 491.98154 669.2344Q492.6378 670.1094 492.6534 671.9531L492.6534 673.3594ZM491.55966 671.875Q491.55966 670.5 491.16904 669.875Q490.79404 669.2344 489.9503 669.2344Q489.12216 669.2344 488.73154 669.875Q488.35654 670.5 488.35654 671.7969L488.35654 673.53125Q488.35654 674.90625 488.74716 675.5781Q489.1534 676.2344 489.9659 676.2344Q490.7628 676.2344 491.1534 675.6094Q491.54404 674.9844 491.55966 673.65625L491.55966 671.875Z" fill-rule="nonzero"/><path fill="#757575" d="M555.8648 677.0L554.7867 677.0L554.7867 669.78125L552.5992 670.5781L552.5992 669.59375L555.70856 668.4219L555.8648 668.4219L555.8648 677.0ZM564.89606 677.0L559.3023 677.0L559.3023 676.21875L562.25543 672.9375Q562.9117 672.1875 563.1617 671.7344Q563.4117 671.2656 563.4117 670.7656Q563.4117 670.09375 563.00543 669.6719Q562.6148 669.2344 561.9273 669.2344Q561.13043 669.2344 560.6773 669.7031Q560.2242 670.15625 560.2242 670.9844L559.14606 670.9844Q559.14606 669.7969 559.89606 669.0781Q560.6617 668.34375 561.9273 668.34375Q563.13043 668.34375 563.81793 668.96875Q564.50543 669.59375 564.50543 670.6406Q564.50543 671.8906 562.89606 673.6406L560.6148 676.1094L564.89606 676.1094L564.89606 677.0ZM571.6617 673.3594Q571.6617 675.2656 571.00543 676.2031Q570.3648 677.125 568.9742 677.125Q567.6148 677.125 566.95856 676.21875Q566.3023 675.3125 566.27106 673.5L566.27106 672.0625Q566.27106 670.1719 566.9117 669.2656Q567.56793 668.34375 568.95856 668.34375Q570.33356 668.34375 570.9898 669.2344Q571.64606 670.1094 571.6617 671.9531L571.6617 673.3594ZM570.56793 671.875Q570.56793 670.5 570.1773 669.875Q569.8023 669.2344 568.95856 669.2344Q568.13043 669.2344 567.7398 669.875Q567.3648 670.5 567.3648 671.7969L567.3648 673.53125Q567.3648 674.90625 567.75543 675.5781Q568.1617 676.2344 568.9742 676.2344Q569.77106 676.2344 570.1617 675.6094Q570.5523 674.9844 570.56793 673.65625L570.56793 671.875Z" fill-rule="nonzero"/></svg>