<svg version="1.1" viewBox="0.0 0.0 651.0 384.0" fill="none" stroke="none" stroke-linecap="square" stroke-miterlimit="10" width="651" height="384" xmlns:xlink="http://www.w3.org/1999/xlink" xmlns="http://www.w3.org/2000/svg"><path fill="#ffffff" d="M0 0L651.0 0L651.0 384.0L0 384.0L0 0Z" fill-rule="nonzero"/><path stroke="#cccccc" stroke-width="1.0" stroke-linecap="butt" d="M100.5 63.5L100.5 343.5" fill-rule="nonzero"/><path stroke="#cccccc" stroke-width="1.0" stroke-linecap="butt" d="M281.5 63.5L281.5 343.5" fill-rule="nonzero"/><path stroke="#cccccc" stroke-width="1.0" stroke-linecap="butt" d="M359.5 63.5L359.5 343.5" fill-rule="nonzero"/><path stroke="#cccccc" stroke-width="1.0" stroke-linecap="butt" d="M540.5 63.5L540.5 343.5" fill-rule="nonzero"/><path stroke="#cccccc" stroke-width="1.0" stroke-linecap="butt" d="M618.5 63.5L618.5 343.5" fill-rule="nonzero"/><path stroke="#cccccc" stroke-width="1.0" stroke-linecap="butt" d="M100.5 343.5L631.5 343.5" fill-rule="nonzero"/><path stroke="#cccccc" stroke-width="1.0" stroke-linecap="butt" d="M100.5 279.5L631.5 279.5" fill-rule="nonzero"/><path stroke="#cccccc" stroke-width="1.0" stroke-linecap="butt" d="M100.5 214.5L631.5 214.5" fill-rule="nonzero"/><path stroke="#cccccc" stroke-width="1.0" stroke-linecap="butt" d="M100.5 150.5L631.5 150.5" fill-rule="nonzero"/><path stroke="#cccccc" stroke-width="1.0" stroke-linecap="butt" d="M100.5 85.5L631.5 85.5" fill-rule="nonzero"/><clipPath id="id_0"><path d="M100.2 63.5L631.8 63.5L631.8 343.8L100.2 343.8L100.2 63.5Z" clip-rule="nonzero"/></clipPath><path stroke="#4285f4" stroke-width="2.0" stroke-linecap="butt" clip-path="url(#id_0)" d="M178.14517 343.8C178.14517 343.8 212.95679 328.7095 223.74017 323.01535C234.52356 317.32123 247.72609 309.61407 256.09033 303.59753C264.4546 297.581 274.349 286.97324 281.18307 282.55994C288.01715 278.14667 295.9072 276.1062 301.68533 273.26926C307.46347 270.43228 314.0145 267.00098 319.01974 264.1027C324.025 261.20444 329.62057 257.6081 334.0355 254.6535C338.45044 251.69893 343.33102 248.23412 347.28033 245.2608C351.22964 242.28749 355.55566 238.80417 359.12823 235.823C362.70084 232.84181 366.58447 229.464 369.84598 226.47348C373.10748 223.48296 376.63022 220.07985 379.6305 217.06577C382.6308 214.05168 385.85355 210.65804 388.6314 207.63548C391.40924 204.61295 394.3788 201.26254 396.96494 198.23126C399.55103 195.19998 402.3041 191.49185 404.72324 188.79868C407.1424 186.10551 409.70825 183.83691 411.98068 181.4633C414.2531 179.08968 416.6555 176.49257 418.79797 174.1121C420.9405 171.73164 423.19888 169.14412 425.2255 166.76022C427.25214 164.37633 429.38275 161.7976 431.30542 159.41112C433.2281 157.02463 435.24457 153.67374 437.07343 152.06424C438.90225 150.45473 440.8162 150.26413 442.55994 149.39557C444.30365 148.52702 446.12494 147.5987 447.79114 146.72876C449.45737 145.85883 451.19452 144.928 452.7898 144.05739C454.3851 143.1868 456.0455 142.26242 457.57568 141.39145C459.10583 140.52048 460.696 139.59508 462.16617 138.72273C463.6363 137.85039 465.16193 136.92564 466.57657 136.05272C467.9912 135.17978 469.4573 134.25764 470.8205 133.38438C472.18372 132.51111 473.59473 131.59016 474.9101 130.71603C476.22543 129.84189 477.5854 128.92062 478.85614 128.04588C480.1269 127.171135 481.43933 125.945076 482.66843 125.377014C483.8975 124.80895 485.16562 124.82114 486.35568 124.549995C487.54572 124.27885 488.7724 123.99547 489.92584 123.723885C491.07928 123.45231 492.26715 123.16685 493.38614 122.89509C494.50516 122.62334 495.6566 122.34031 496.74316 122.06861C497.8297 121.79692 498.94687 121.51287 500.00284 121.24098C501.05878 120.969086 502.14368 120.6858 503.1707 120.41394C504.1977 120.14209 505.2521 119.85955 506.2517 119.587204C507.25134 119.31485 508.27695 119.030075 509.2506 118.75779C510.22424 118.4855 511.22256 118.20421 512.1716 117.931915C513.12054 117.65962 514.093 117.33005 515.01855 117.10312C515.94415 116.87619 516.892 116.73235 517.7953 116.5499C518.69855 116.36744 519.6231 116.177765 520.50507 115.99503C521.3871 115.8123 522.28937 115.62323 523.1511 115.440445C524.0129 115.25765 524.894 115.068306 525.7363 114.88554C526.5787 114.70276 527.4396 114.51413 528.2634 114.33131C529.0873 114.14849 529.92883 113.95934 530.735 113.77642C531.5411 113.593506 532.3642 113.404686 533.1534 113.22186C533.9425 113.03905 534.748 112.85061 535.5209 112.66783C536.29376 112.485054 537.0822 112.2968 537.8395 112.113785C538.5968 111.93076 539.369 111.71856 540.1113 111.558525C540.8536 111.3985 541.6103 111.280136 542.33813 111.14261C543.06604 111.00507 543.80774 110.86293 544.5217 110.725266C545.2357 110.5876 545.9631 110.44632 546.6637 110.30867C547.3644 110.17101 548.0779 110.02917 548.7657 109.891556C549.4535 109.75394 550.1537 109.61288 550.82904 109.475334C551.50446 109.33779 552.19183 109.19655 552.8553 109.05878C553.5187 108.92101 554.19366 108.7791 554.8456 108.64136C555.4975 108.50362 556.1606 108.362755 556.80133 108.22507C557.4421 108.08738 558.0936 107.94602 558.72363 107.80811C559.3536 107.670204 559.994 107.5284 560.6136 107.3906C561.23315 107.25281 561.8628 107.11211 562.47235 106.97445C563.08185 106.8368 563.7011 106.6957 564.30084 106.55792C564.9006 106.42014 565.50977 106.27908 566.1001 106.14112C566.69037 106.00315 567.28986 105.861404 567.87103 105.72357C568.45215 105.58575 569.0422 105.44552 569.6145 105.30766C570.18677 105.16981 570.76764 105.02802 571.3313 104.890076C571.895 104.75213 572.46704 104.61162 573.02234 104.47371C573.5777 104.3358 574.1411 104.19456 574.6883 104.05645C575.23553 103.918335 575.79065 103.77688 576.32996 103.638954C576.8693 103.50102 577.4163 103.36078 577.948 103.222885C578.4797 103.08499 579.0188 102.9437 579.5431 102.8057C580.0673 102.66771 580.5988 102.527054 581.11584 102.38907C581.6329 102.25109 582.1569 102.11008 582.66693 101.97205C583.1769 101.83403 583.6937 101.69328 584.1969 101.555244C584.7 101.41721 585.20984 101.457726 585.7063 101.138245C586.2028 100.81877 586.70575 100.131355 587.19574 99.63284C587.6857 99.13434 588.18207 98.62613 588.6657 98.12751C589.1494 97.6289 589.6392 97.12037 590.11676 96.62172C590.59424 96.12307 591.07776 95.61509 591.54926 95.11642C592.02075 94.617744 592.4981 94.10942 592.96375 93.610725C593.4294 93.11204 593.90076 92.60424 594.36066 92.10557C594.8206 91.60689 595.28613 91.09899 595.7405 90.600204C596.1948 90.10142 596.6546 89.59347 597.1035 89.09459C597.5524 88.5957 598.00665 88.08777 598.45026 87.588875C598.89386 87.08999 599.34265 86.58231 599.78107 86.08342C600.2195 85.584526 600.66296 85.076866 601.0963 84.5779C601.52966 84.07895 601.96796 83.571236 602.3963 83.07228C602.8247 82.573326 603.25793 82.06599 603.68146 81.566956C604.10504 81.06793 604.5333 80.5602 604.95215 80.06111C605.371 79.56202 605.7944 79.05463 606.20856 78.55559C606.6228 78.05655 607.0415 77.54936 607.4512 77.05024C607.86084 76.551125 608.2749 76.043594 608.6801 75.5444C609.0854 75.04522 609.49493 74.538 609.8958 74.03884C610.29675 73.53968 610.7019 73.0325 611.0985 72.53333C611.4952 72.03417 611.896 71.52715 612.2885 71.02792C612.681 70.528694 613.0776 70.02151 613.466 69.52221C613.85443 69.02291 614.2469 68.51584 614.63135 68.01654C615.01575 67.51724 615.4041 67.01027 615.78467 66.51099C616.1652 66.011696 616.5496 65.50484 616.92633 65.00553C617.30304 64.50622 617.68353 62.11108 618.0565 63.5C618.42944 64.888916 618.8061 71.749306 619.1754 73.32406C619.54474 74.89882 619.9176 73.13776 620.2833 73.04531C620.649 72.952866 621.01825 72.85914 621.38043 72.76667C621.74255 72.6742 622.1082 72.58029 622.4669 72.48781C622.8256 72.395325 623.1877 72.30154 623.543 72.20911C623.8983 72.11668 624.25696 72.02301 624.6089 71.93059C624.9609 71.83816 625.3161 71.74438 625.6648 71.65193C626.0135 71.559494 626.36536 71.46582 626.7109 71.373344C627.05634 71.28087 627.40497 71.18701 627.74725 71.09451C628.0896 71.002014 628.435 70.90829 628.77423 70.8158C629.11346 70.72331 629.4557 70.62954 629.7919 70.53707C630.12805 70.44461 630.4672 70.350975 630.8004 70.258514C631.1336 70.16605 631.8 69.97983 631.8 69.97983" fill-rule="nonzero"/><path fill="#000000" fill-opacity="0.0" clip-path="url(#id_0)" d="M181.14517 343.8C181.14517 345.45685 179.80202 346.8 178.14517 346.8C176.48831 346.8 175.14517 345.45685 175.14517 343.8C175.14517 342.14316 176.48831 340.8 178.14517 340.8C179.80202 340.8 181.14517 342.14316 181.14517 343.8Z" fill-rule="nonzero"/><path fill="#000000" fill-opacity="0.0" clip-path="url(#id_0)" d="M226.74017 323.01535C226.74017 324.6722 225.39702 326.01535 223.74017 326.01535C222.08331 326.01535 220.74017 324.6722 220.74017 323.01535C220.74017 321.35852 222.08331 320.01535 223.74017 320.01535C225.39702 320.01535 226.74017 321.35852 226.74017 323.01535Z" fill-rule="nonzero"/><path fill="#000000" fill-opacity="0.0" clip-path="url(#id_0)" d="M259.09033 303.59753C259.09033 305.2544 257.7472 306.59753 256.09033 306.59753C254.43349 306.59753 253.09033 305.2544 253.09033 303.59753C253.09033 301.94067 254.43349 300.59753 256.09033 300.59753C257.7472 300.59753 259.09033 301.94067 259.09033 303.59753Z" fill-rule="nonzero"/><path fill="#000000" fill-opacity="0.0" clip-path="url(#id_0)" d="M284.18307 282.55994C284.18307 284.2168 282.83994 285.55994 281.18307 285.55994C279.5262 285.55994 278.18307 284.2168 278.18307 282.55994C278.18307 280.9031 279.5262 279.55994 281.18307 279.55994C282.83994 279.55994 284.18307 280.9031 284.18307 282.55994Z" fill-rule="nonzero"/><path fill="#000000" fill-opacity="0.0" clip-path="url(#id_0)" d="M304.68533 273.26926C304.68533 274.9261 303.3422 276.26926 301.68533 276.26926C300.02847 276.26926 298.68533 274.9261 298.68533 273.26926C298.68533 271.6124 300.02847 270.26926 301.68533 270.26926C303.3422 270.26926 304.68533 271.6124 304.68533 273.26926Z" fill-rule="nonzero"/><path fill="#000000" fill-opacity="0.0" clip-path="url(#id_0)" d="M322.01974 264.1027C322.01974 265.75955 320.6766 267.1027 319.01974 267.1027C317.36288 267.1027 316.01974 265.75955 316.01974 264.1027C316.01974 262.44583 317.36288 261.1027 319.01974 261.1027C320.6766 261.1027 322.01974 262.44583 322.01974 264.1027Z" fill-rule="nonzero"/><path fill="#000000" fill-opacity="0.0" clip-path="url(#id_0)" d="M337.0355 254.6535C337.0355 256.31036 335.69235 257.6535 334.0355 257.6535C332.37866 257.6535 331.0355 256.31036 331.0355 254.6535C331.0355 252.99666 332.37866 251.6535 334.0355 251.6535C335.69235 251.6535 337.0355 252.99666 337.0355 254.6535Z" fill-rule="nonzero"/><path fill="#000000" fill-opacity="0.0" clip-path="url(#id_0)" d="M350.28033 245.2608C350.28033 246.91766 348.9372 248.2608 347.28033 248.2608C345.62347 248.2608 344.28033 246.91766 344.28033 245.2608C344.28033 243.60394 345.62347 242.2608 347.28033 242.2608C348.9372 242.2608 350.28033 243.60394 350.28033 245.2608Z" fill-rule="nonzero"/><path fill="#000000" fill-opacity="0.0" clip-path="url(#id_0)" d="M362.12823 235.823C362.12823 237.47984 360.7851 238.823 359.12823 238.823C357.4714 238.823 356.12823 237.47984 356.12823 235.823C356.12823 234.16614 357.4714 232.823 359.12823 232.823C360.7851 232.823 362.12823 234.16614 362.12823 235.823Z" fill-rule="nonzero"/><path fill="#000000" fill-opacity="0.0" clip-path="url(#id_0)" d="M372.84598 226.47348C372.84598 228.13033 371.50284 229.47348 369.84598 229.47348C368.18912 229.47348 366.84598 228.13033 366.84598 226.47348C366.84598 224.81662 368.18912 223.47348 369.84598 223.47348C371.50284 223.47348 372.84598 224.81662 372.84598 226.47348Z" fill-rule="nonzero"/><path fill="#000000" fill-opacity="0.0" clip-path="url(#id_0)" d="M382.6305 217.06577C382.6305 218.72263 381.28735 220.06577 379.6305 220.06577C377.97366 220.06577 376.6305 218.72263 376.6305 217.06577C376.6305 215.4089 377.97366 214.06577 379.6305 214.06577C381.28735 214.06577 382.6305 215.4089 382.6305 217.06577Z" fill-rule="nonzero"/><path fill="#000000" fill-opacity="0.0" clip-path="url(#id_0)" d="M391.6314 207.63548C391.6314 209.29234 390.28824 210.63548 388.6314 210.63548C386.97455 210.63548 385.6314 209.29234 385.6314 207.63548C385.6314 205.97864 386.97455 204.63548 388.6314 204.63548C390.28824 204.63548 391.6314 205.97864 391.6314 207.63548Z" fill-rule="nonzero"/><path fill="#000000" fill-opacity="0.0" clip-path="url(#id_0)" d="M399.96494 198.23126C399.96494 199.88812 398.62177 201.23126 396.96494 201.23126C395.30807 201.23126 393.96494 199.88812 393.96494 198.23126C393.96494 196.5744 395.30807 195.23126 396.96494 195.23126C398.62177 195.23126 399.96494 196.5744 399.96494 198.23126Z" fill-rule="nonzero"/><path fill="#000000" fill-opacity="0.0" clip-path="url(#id_0)" d="M407.72324 188.79868C407.72324 190.45554 406.3801 191.79868 404.72324 191.79868C403.0664 191.79868 401.72324 190.45554 401.72324 188.79868C401.72324 187.14183 403.0664 185.79868 404.72324 185.79868C406.3801 185.79868 407.72324 187.14183 407.72324 188.79868Z" fill-rule="nonzero"/><path fill="#000000" fill-opacity="0.0" clip-path="url(#id_0)" d="M414.98068 181.4633C414.98068 183.12015 413.63754 184.4633 411.98068 184.4633C410.32382 184.4633 408.98068 183.12015 408.98068 181.4633C408.98068 179.80644 410.32382 178.4633 411.98068 178.4633C413.63754 178.4633 414.98068 179.80644 414.98068 181.4633Z" fill-rule="nonzero"/><path fill="#000000" fill-opacity="0.0" clip-path="url(#id_0)" d="M421.79797 174.1121C421.79797 175.76897 420.45483 177.1121 418.79797 177.1121C417.1411 177.1121 415.79797 175.76897 415.79797 174.1121C415.79797 172.45526 417.1411 171.1121 418.79797 171.1121C420.45483 171.1121 421.79797 172.45526 421.79797 174.1121Z" fill-rule="nonzero"/><path fill="#000000" fill-opacity="0.0" clip-path="url(#id_0)" d="M428.2255 166.76022C428.2255 168.41707 426.88235 169.76022 425.2255 169.76022C423.56866 169.76022 422.2255 168.41707 422.2255 166.76022C422.2255 165.10336 423.56866 163.76022 425.2255 163.76022C426.88235 163.76022 428.2255 165.10336 428.2255 166.76022Z" fill-rule="nonzero"/><path fill="#000000" fill-opacity="0.0" clip-path="url(#id_0)" d="M434.30542 159.41112C434.30542 161.06798 432.96228 162.41112 431.30542 162.41112C429.64856 162.41112 428.30542 161.06798 428.30542 159.41112C428.30542 157.75427 429.64856 156.41112 431.30542 156.41112C432.96228 156.41112 434.30542 157.75427 434.30542 159.41112Z" fill-rule="nonzero"/><path fill="#000000" fill-opacity="0.0" clip-path="url(#id_0)" d="M440.07343 152.06424C440.07343 153.72108 438.73026 155.06424 437.07343 155.06424C435.41656 155.06424 434.07343 153.72108 434.07343 152.06424C434.07343 150.40738 435.41656 149.06424 437.07343 149.06424C438.73026 149.06424 440.07343 150.40738 440.07343 152.06424Z" fill-rule="nonzero"/><path fill="#000000" fill-opacity="0.0" clip-path="url(#id_0)" d="M445.55994 149.39557C445.55994 151.05243 444.21677 152.39557 442.55994 152.39557C440.90308 152.39557 439.55994 151.05243 439.55994 149.39557C439.55994 147.73872 440.90308 146.39557 442.55994 146.39557C444.21677 146.39557 445.55994 147.73872 445.55994 149.39557Z" fill-rule="nonzero"/><path fill="#000000" fill-opacity="0.0" clip-path="url(#id_0)" d="M450.79114 146.72876C450.79114 148.38562 449.448 149.72876 447.79114 149.72876C446.1343 149.72876 444.79114 148.38562 444.79114 146.72876C444.79114 145.0719 446.1343 143.72876 447.79114 143.72876C449.448 143.72876 450.79114 145.0719 450.79114 146.72876Z" fill-rule="nonzero"/><path fill="#000000" fill-opacity="0.0" clip-path="url(#id_0)" d="M455.7898 144.05739C455.7898 145.71425 454.44666 147.05739 452.7898 147.05739C451.13293 147.05739 449.7898 145.71425 449.7898 144.05739C449.7898 142.40054 451.13293 141.05739 452.7898 141.05739C454.44666 141.05739 455.7898 142.40054 455.7898 144.05739Z" fill-rule="nonzero"/><path fill="#000000" fill-opacity="0.0" clip-path="url(#id_0)" d="M460.57568 141.39145C460.57568 143.04831 459.23254 144.39145 457.57568 144.39145C455.91882 144.39145 454.57568 143.04831 454.57568 141.39145C454.57568 139.7346 455.91882 138.39145 457.57568 138.39145C459.23254 138.39145 460.57568 139.7346 460.57568 141.39145Z" fill-rule="nonzero"/><path fill="#000000" fill-opacity="0.0" clip-path="url(#id_0)" d="M465.16617 138.72273C465.16617 140.3796 463.823 141.72273 462.16617 141.72273C460.5093 141.72273 459.16617 140.3796 459.16617 138.72273C459.16617 137.06587 460.5093 135.72273 462.16617 135.72273C463.823 135.72273 465.16617 137.06587 465.16617 138.72273Z" fill-rule="nonzero"/><path fill="#000000" fill-opacity="0.0" clip-path="url(#id_0)" d="M469.57657 136.05272C469.57657 137.70956 468.23343 139.05272 466.57657 139.05272C464.9197 139.05272 463.57657 137.70956 463.57657 136.05272C463.57657 134.39586 464.9197 133.05272 466.57657 133.05272C468.23343 133.05272 469.57657 134.39586 469.57657 136.05272Z" fill-rule="nonzero"/><path fill="#000000" fill-opacity="0.0" clip-path="url(#id_0)" d="M473.8205 133.38438C473.8205 135.04123 472.47736 136.38438 470.8205 136.38438C469.16367 136.38438 467.8205 135.04123 467.8205 133.38438C467.8205 131.72752 469.16367 130.38438 470.8205 130.38438C472.47736 130.38438 473.8205 131.72752 473.8205 133.38438Z" fill-rule="nonzero"/><path fill="#000000" fill-opacity="0.0" clip-path="url(#id_0)" d="M477.9101 130.71603C477.9101 132.37288 476.56696 133.71603 474.9101 133.71603C473.25323 133.71603 471.9101 132.37288 471.9101 130.71603C471.9101 129.05917 473.25323 127.71603 474.9101 127.71603C476.56696 127.71603 477.9101 129.05917 477.9101 130.71603Z" fill-rule="nonzero"/><path fill="#000000" fill-opacity="0.0" clip-path="url(#id_0)" d="M481.85614 128.04588C481.85614 129.70274 480.513 131.04588 478.85614 131.04588C477.19928 131.04588 475.85614 129.70274 475.85614 128.04588C475.85614 126.38903 477.19928 125.04588 478.85614 125.04588C480.513 125.04588 481.85614 126.38903 481.85614 128.04588Z" fill-rule="nonzero"/><path fill="#000000" fill-opacity="0.0" clip-path="url(#id_0)" d="M485.66843 125.377014C485.66843 127.03387 484.32526 128.37701 482.66843 128.37701C481.01157 128.37701 479.66843 127.03387 479.66843 125.377014C479.66843 123.72016 481.01157 122.377014 482.66843 122.377014C484.32526 122.377014 485.66843 123.72016 485.66843 125.377014Z" fill-rule="nonzero"/><path fill="#000000" fill-opacity="0.0" clip-path="url(#id_0)" d="M489.35568 124.549995C489.35568 126.20685 488.0125 127.549995 486.35568 127.549995C484.69882 127.549995 483.35568 126.20685 483.35568 124.549995C483.35568 122.89314 484.69882 121.549995 486.35568 121.549995C488.0125 121.549995 489.35568 122.89314 489.35568 124.549995Z" fill-rule="nonzero"/><path fill="#000000" fill-opacity="0.0" clip-path="url(#id_0)" d="M492.92584 123.723885C492.92584 125.380745 491.5827 126.723885 489.92584 126.723885C488.26898 126.723885 486.92584 125.380745 486.92584 123.723885C486.92584 122.06703 488.26898 120.723885 489.92584 120.723885C491.5827 120.723885 492.92584 122.06703 492.92584 123.723885Z" fill-rule="nonzero"/><path fill="#000000" fill-opacity="0.0" clip-path="url(#id_0)" d="M496.38614 122.89509C496.38614 124.55194 495.043 125.89509 493.38614 125.89509C491.7293 125.89509 490.38614 124.55194 490.38614 122.89509C490.38614 121.238235 491.7293 119.89509 493.38614 119.89509C495.043 119.89509 496.38614 121.238235 496.38614 122.89509Z" fill-rule="nonzero"/><path fill="#000000" fill-opacity="0.0" clip-path="url(#id_0)" d="M499.74316 122.06861C499.74316 123.72547 498.4 125.06861 496.74316 125.06861C495.0863 125.06861 493.74316 123.72547 493.74316 122.06861C493.74316 120.41176 495.0863 119.06861 496.74316 119.06861C498.4 119.06861 499.74316 120.41176 499.74316 122.06861Z" fill-rule="nonzero"/><path fill="#000000" fill-opacity="0.0" clip-path="url(#id_0)" d="M503.00284 121.24098C503.00284 122.897835 501.6597 124.24098 500.00284 124.24098C498.34598 124.24098 497.00284 122.897835 497.00284 121.24098C497.00284 119.58413 498.34598 118.24098 500.00284 118.24098C501.6597 118.24098 503.00284 119.58413 503.00284 121.24098Z" fill-rule="nonzero"/><path fill="#000000" fill-opacity="0.0" clip-path="url(#id_0)" d="M506.1707 120.41394C506.1707 122.0708 504.82755 123.41394 503.1707 123.41394C501.51382 123.41394 500.1707 122.0708 500.1707 120.41394C500.1707 118.75709 501.51382 117.41394 503.1707 117.41394C504.82755 117.41394 506.1707 118.75709 506.1707 120.41394Z" fill-rule="nonzero"/><path fill="#000000" fill-opacity="0.0" clip-path="url(#id_0)" d="M509.2517 119.587204C509.2517 121.24406 507.90857 122.587204 506.2517 122.587204C504.59488 122.587204 503.2517 121.24406 503.2517 119.587204C503.2517 117.93035 504.59488 116.587204 506.2517 116.587204C507.90857 116.587204 509.2517 117.93035 509.2517 119.587204Z" fill-rule="nonzero"/><path fill="#000000" fill-opacity="0.0" clip-path="url(#id_0)" d="M512.2506 118.75779C512.2506 120.41464 510.90744 121.75779 509.2506 121.75779C507.59375 121.75779 506.2506 120.41464 506.2506 118.75779C506.2506 117.10094 507.59375 115.75779 509.2506 115.75779C510.90744 115.75779 512.2506 117.10094 512.2506 118.75779Z" fill-rule="nonzero"/><path fill="#000000" fill-opacity="0.0" clip-path="url(#id_0)" d="M515.1716 117.931915C515.1716 119.58877 513.8284 120.931915 512.1716 120.931915C510.5147 120.931915 509.17157 119.58877 509.17157 117.931915C509.17157 116.27506 510.5147 114.931915 512.1716 114.931915C513.8284 114.931915 515.1716 116.27506 515.1716 117.931915Z" fill-rule="nonzero"/><path fill="#000000" fill-opacity="0.0" clip-path="url(#id_0)" d="M518.01855 117.10312C518.01855 118.75997 516.6754 120.10312 515.01855 120.10312C513.36176 120.10312 512.01855 118.75997 512.01855 117.10312C512.01855 115.446266 513.36176 114.10312 515.01855 114.10312C516.6754 114.10312 518.01855 115.446266 518.01855 117.10312Z" fill-rule="nonzero"/><path fill="#000000" fill-opacity="0.0" clip-path="url(#id_0)" d="M520.7953 116.5499C520.7953 118.20675 519.45215 119.5499 517.7953 119.5499C516.1384 119.5499 514.7953 118.20675 514.7953 116.5499C514.7953 114.89304 516.1384 113.5499 517.7953 113.5499C519.45215 113.5499 520.7953 114.89304 520.7953 116.5499Z" fill-rule="nonzero"/><path fill="#000000" fill-opacity="0.0" clip-path="url(#id_0)" d="M523.50507 115.99503C523.50507 117.651886 522.1619 118.99503 520.50507 118.99503C518.84827 118.99503 517.50507 117.651886 517.50507 115.99503C517.50507 114.33818 518.84827 112.99503 520.50507 112.99503C522.1619 112.99503 523.50507 114.33818 523.50507 115.99503Z" fill-rule="nonzero"/><path fill="#000000" fill-opacity="0.0" clip-path="url(#id_0)" d="M526.1511 115.440445C526.1511 117.0973 524.808 118.440445 523.1511 118.440445C521.49426 118.440445 520.1511 117.0973 520.1511 115.440445C520.1511 113.783585 521.49426 112.440445 523.1511 112.440445C524.808 112.440445 526.1511 113.783585 526.1511 115.440445Z" fill-rule="nonzero"/><path fill="#000000" fill-opacity="0.0" clip-path="url(#id_0)" d="M528.7363 114.88554C528.7363 116.54239 527.3932 117.88554 525.7363 117.88554C524.07947 117.88554 522.7363 116.54239 522.7363 114.88554C522.7363 113.228676 524.07947 111.88554 525.7363 111.88554C527.3932 111.88554 528.7363 113.228676 528.7363 114.88554Z" fill-rule="nonzero"/><path fill="#000000" fill-opacity="0.0" clip-path="url(#id_0)" d="M531.2634 114.33131C531.2634 115.98817 529.9203 117.33131 528.2634 117.33131C526.60657 117.33131 525.2634 115.98817 525.2634 114.33131C525.2634 112.67445 526.60657 111.33131 528.2634 111.33131C529.9203 111.33131 531.2634 112.67445 531.2634 114.33131Z" fill-rule="nonzero"/><path fill="#000000" fill-opacity="0.0" clip-path="url(#id_0)" d="M533.735 113.77642C533.735 115.43327 532.39185 116.77642 530.735 116.77642C529.0781 116.77642 527.735 115.43327 527.735 113.77642C527.735 112.11957 529.0781 110.77642 530.735 110.77642C532.39185 110.77642 533.735 112.11957 533.735 113.77642Z" fill-rule="nonzero"/><path fill="#000000" fill-opacity="0.0" clip-path="url(#id_0)" d="M536.1534 113.22186C536.1534 114.878716 534.81024 116.22186 533.1534 116.22186C531.4965 116.22186 530.1534 114.878716 530.1534 113.22186C530.1534 111.56501 531.4965 110.22186 533.1534 110.22186C534.81024 110.22186 536.1534 111.56501 536.1534 113.22186Z" fill-rule="nonzero"/><path fill="#000000" fill-opacity="0.0" clip-path="url(#id_0)" d="M538.5209 112.66783C538.5209 114.324684 537.1777 115.66783 535.5209 115.66783C533.864 115.66783 532.5209 114.324684 532.5209 112.66783C532.5209 111.01098 533.864 109.66783 535.5209 109.66783C537.1777 109.66783 538.5209 111.01098 538.5209 112.66783Z" fill-rule="nonzero"/><path fill="#000000" fill-opacity="0.0" clip-path="url(#id_0)" d="M540.8395 112.113785C540.8395 113.77064 539.49634 115.113785 537.8395 115.113785C536.1827 115.113785 534.8395 113.77064 534.8395 112.113785C534.8395 110.45693 536.1827 109.113785 537.8395 109.113785C539.49634 109.113785 540.8395 110.45693 540.8395 112.113785Z" fill-rule="nonzero"/><path fill="#000000" fill-opacity="0.0" clip-path="url(#id_0)" d="M543.1113 111.558525C543.1113 113.21538 541.7682 114.558525 540.1113 114.558525C538.45447 114.558525 537.1113 113.21538 537.1113 111.558525C537.1113 109.90167 538.45447 108.558525 540.1113 108.558525C541.7682 108.558525 543.1113 109.90167 543.1113 111.558525Z" fill-rule="nonzero"/><path fill="#000000" fill-opacity="0.0" clip-path="url(#id_0)" d="M545.33813 111.14261C545.33813 112.79946 543.995 114.14261 542.33813 114.14261C540.6813 114.14261 539.33813 112.79946 539.33813 111.14261C539.33813 109.485756 540.6813 108.14261 542.33813 108.14261C543.995 108.14261 545.33813 109.485756 545.33813 111.14261Z" fill-rule="nonzero"/><path fill="#000000" fill-opacity="0.0" clip-path="url(#id_0)" d="M547.5217 110.725266C547.5217 112.38212 546.1786 113.725266 544.5217 113.725266C542.86487 113.725266 541.5217 112.38212 541.5217 110.725266C541.5217 109.06841 542.86487 107.725266 544.5217 107.725266C546.1786 107.725266 547.5217 109.06841 547.5217 110.725266Z" fill-rule="nonzero"/><path fill="#000000" fill-opacity="0.0" clip-path="url(#id_0)" d="M549.6637 110.30867C549.6637 111.96552 548.32056 113.30867 546.6637 113.30867C545.0069 113.30867 543.6637 111.96552 543.6637 110.30867C543.6637 108.65182 545.0069 107.30867 546.6637 107.30867C548.32056 107.30867 549.6637 108.65182 549.6637 110.30867Z" fill-rule="nonzero"/><path fill="#000000" fill-opacity="0.0" clip-path="url(#id_0)" d="M551.7657 109.891556C551.7657 111.54841 550.42255 112.891556 548.7657 112.891556C547.1088 112.891556 545.7657 111.54841 545.7657 109.891556C545.7657 108.234695 547.1088 106.891556 548.7657 106.891556C550.42255 106.891556 551.7657 108.234695 551.7657 109.891556Z" fill-rule="nonzero"/><path fill="#000000" fill-opacity="0.0" clip-path="url(#id_0)" d="M553.82904 109.475334C553.82904 111.13219 552.4859 112.475334 550.82904 112.475334C549.1722 112.475334 547.82904 111.13219 547.82904 109.475334C547.82904 107.81848 549.1722 106.475334 550.82904 106.475334C552.4859 106.475334 553.82904 107.81848 553.82904 109.475334Z" fill-rule="nonzero"/><path fill="#000000" fill-opacity="0.0" clip-path="url(#id_0)" d="M555.8553 109.05878C555.8553 110.71563 554.5121 112.05878 552.8553 112.05878C551.1984 112.05878 549.8553 110.71563 549.8553 109.05878C549.8553 107.401924 551.1984 106.05878 552.8553 106.05878C554.5121 106.05878 555.8553 107.401924 555.8553 109.05878Z" fill-rule="nonzero"/><path fill="#000000" fill-opacity="0.0" clip-path="url(#id_0)" d="M557.8456 108.64136C557.8456 110.29821 556.50244 111.64136 554.8456 111.64136C553.1887 111.64136 551.8456 110.29821 551.8456 108.64136C551.8456 106.984505 553.1887 105.64136 554.8456 105.64136C556.50244 105.64136 557.8456 106.984505 557.8456 108.64136Z" fill-rule="nonzero"/><path fill="#000000" fill-opacity="0.0" clip-path="url(#id_0)" d="M559.80133 108.22507C559.80133 109.88192 558.4582 111.22507 556.80133 111.22507C555.1445 111.22507 553.80133 109.88192 553.80133 108.22507C553.80133 106.568214 555.1445 105.22507 556.80133 105.22507C558.4582 105.22507 559.80133 106.568214 559.80133 108.22507Z" fill-rule="nonzero"/><path fill="#000000" fill-opacity="0.0" clip-path="url(#id_0)" d="M561.72363 107.80811C561.72363 109.464966 560.38043 110.80811 558.72363 110.80811C557.0668 110.80811 555.72363 109.464966 555.72363 107.80811C555.72363 106.15126 557.0668 104.80811 558.72363 104.80811C560.38043 104.80811 561.72363 106.15126 561.72363 107.80811Z" fill-rule="nonzero"/><path fill="#000000" fill-opacity="0.0" clip-path="url(#id_0)" d="M563.6136 107.3906C563.6136 109.047455 562.27045 110.3906 560.6136 110.3906C558.9567 110.3906 557.6136 109.047455 557.6136 107.3906C557.6136 105.73375 558.9567 104.3906 560.6136 104.3906C562.27045 104.3906 563.6136 105.73375 563.6136 107.3906Z" fill-rule="nonzero"/><path fill="#000000" fill-opacity="0.0" clip-path="url(#id_0)" d="M565.47235 106.97445C565.47235 108.6313 564.12915 109.97445 562.47235 109.97445C560.8155 109.97445 559.47235 108.6313 559.47235 106.97445C559.47235 105.3176 560.8155 103.97445 562.47235 103.97445C564.12915 103.97445 565.47235 105.3176 565.47235 106.97445Z" fill-rule="nonzero"/><path fill="#000000" fill-opacity="0.0" clip-path="url(#id_0)" d="M567.30084 106.55792C567.30084 108.214775 565.9577 109.55792 564.30084 109.55792C562.644 109.55792 561.30084 108.214775 561.30084 106.55792C561.30084 104.90107 562.644 103.55792 564.30084 103.55792C565.9577 103.55792 567.30084 104.90107 567.30084 106.55792Z" fill-rule="nonzero"/><path fill="#000000" fill-opacity="0.0" clip-path="url(#id_0)" d="M569.1001 106.14112C569.1001 107.79797 567.75696 109.14112 566.1001 109.14112C564.44324 109.14112 563.1001 107.79797 563.1001 106.14112C563.1001 104.48426 564.44324 103.14112 566.1001 103.14112C567.75696 103.14112 569.1001 104.48426 569.1001 106.14112Z" fill-rule="nonzero"/><path fill="#000000" fill-opacity="0.0" clip-path="url(#id_0)" d="M570.87103 105.72357C570.87103 107.380424 569.5279 108.72357 567.87103 108.72357C566.2142 108.72357 564.87103 107.380424 564.87103 105.72357C564.87103 104.06672 566.2142 102.72357 567.87103 102.72357C569.5279 102.72357 570.87103 104.06672 570.87103 105.72357Z" fill-rule="nonzero"/><path fill="#000000" fill-opacity="0.0" clip-path="url(#id_0)" d="M572.6145 105.30766C572.6145 106.964516 571.2713 108.30766 569.6145 108.30766C567.95764 108.30766 566.6145 106.964516 566.6145 105.30766C566.6145 103.65081 567.95764 102.30766 569.6145 102.30766C571.2713 102.30766 572.6145 103.65081 572.6145 105.30766Z" fill-rule="nonzero"/><path fill="#000000" fill-opacity="0.0" clip-path="url(#id_0)" d="M574.3313 104.890076C574.3313 106.54693 572.98816 107.890076 571.3313 107.890076C569.67444 107.890076 568.3313 106.54693 568.3313 104.890076C568.3313 103.23322 569.67444 101.890076 571.3313 101.890076C572.98816 101.890076 574.3313 103.23322 574.3313 104.890076Z" fill-rule="nonzero"/><path fill="#000000" fill-opacity="0.0" clip-path="url(#id_0)" d="M576.02234 104.47371C576.02234 106.13056 574.6792 107.47371 573.02234 107.47371C571.3655 107.47371 570.02234 106.13056 570.02234 104.47371C570.02234 102.81686 571.3655 101.47371 573.02234 101.47371C574.6792 101.47371 576.02234 102.81686 576.02234 104.47371Z" fill-rule="nonzero"/><path fill="#000000" fill-opacity="0.0" clip-path="url(#id_0)" d="M577.6883 104.05645C577.6883 105.7133 576.34515 107.05645 574.6883 107.05645C573.0315 107.05645 571.6883 105.7133 571.6883 104.05645C571.6883 102.3996 573.0315 101.05645 574.6883 101.05645C576.34515 101.05645 577.6883 102.3996 577.6883 104.05645Z" fill-rule="nonzero"/><path fill="#000000" fill-opacity="0.0" clip-path="url(#id_0)" d="M579.32996 103.638954C579.32996 105.29581 577.9868 106.638954 576.32996 106.638954C574.6731 106.638954 573.32996 105.29581 573.32996 103.638954C573.32996 101.98209 574.6731 100.638954 576.32996 100.638954C577.9868 100.638954 579.32996 101.98209 579.32996 103.638954Z" fill-rule="nonzero"/><path fill="#000000" fill-opacity="0.0" clip-path="url(#id_0)" d="M580.948 103.222885C580.948 104.87974 579.60486 106.222885 577.948 106.222885C576.29114 106.222885 574.948 104.87974 574.948 103.222885C574.948 101.56603 576.29114 100.222885 577.948 100.222885C579.60486 100.222885 580.948 101.56603 580.948 103.222885Z" fill-rule="nonzero"/><path fill="#000000" fill-opacity="0.0" clip-path="url(#id_0)" d="M582.5431 102.8057C582.5431 104.46256 581.19995 105.8057 579.5431 105.8057C577.8862 105.8057 576.5431 104.46256 576.5431 102.8057C576.5431 101.14885 577.8862 99.8057 579.5431 99.8057C581.19995 99.8057 582.5431 101.14885 582.5431 102.8057Z" fill-rule="nonzero"/><path fill="#000000" fill-opacity="0.0" clip-path="url(#id_0)" d="M584.11584 102.38907C584.11584 104.04593 582.7727 105.38907 581.11584 105.38907C579.459 105.38907 578.11584 104.04593 578.11584 102.38907C578.11584 100.732216 579.459 99.38907 581.11584 99.38907C582.7727 99.38907 584.11584 100.732216 584.11584 102.38907Z" fill-rule="nonzero"/><path fill="#000000" fill-opacity="0.0" clip-path="url(#id_0)" d="M585.66693 101.97205C585.66693 103.62891 584.3238 104.97205 582.66693 104.97205C581.0101 104.97205 579.66693 103.62891 579.66693 101.97205C579.66693 100.3152 581.0101 98.97205 582.66693 98.97205C584.3238 98.97205 585.66693 100.3152 585.66693 101.97205Z" fill-rule="nonzero"/><path fill="#000000" fill-opacity="0.0" clip-path="url(#id_0)" d="M587.1969 101.555244C587.1969 103.2121 585.85376 104.555244 584.1969 104.555244C582.54004 104.555244 581.1969 103.2121 581.1969 101.555244C581.1969 99.89839 582.54004 98.555244 584.1969 98.555244C585.85376 98.555244 587.1969 99.89839 587.1969 101.555244Z" fill-rule="nonzero"/><path fill="#000000" fill-opacity="0.0" clip-path="url(#id_0)" d="M588.7063 101.138245C588.7063 102.795105 587.36316 104.138245 585.7063 104.138245C584.0495 104.138245 582.7063 102.795105 582.7063 101.138245C582.7063 99.48139 584.0495 98.138245 585.7063 98.138245C587.36316 98.138245 588.7063 99.48139 588.7063 101.138245Z" fill-rule="nonzero"/><path fill="#000000" fill-opacity="0.0" clip-path="url(#id_0)" d="M590.19574 99.63284C590.19574 101.289696 588.8526 102.63284 587.19574 102.63284C585.53894 102.63284 584.19574 101.289696 584.19574 99.63284C584.19574 97.97599 585.53894 96.63284 587.19574 96.63284C588.8526 96.63284 590.19574 97.97599 590.19574 99.63284Z" fill-rule="nonzero"/><path fill="#000000" fill-opacity="0.0" clip-path="url(#id_0)" d="M591.6657 98.12751C591.6657 99.78437 590.3226 101.12751 588.6657 101.12751C587.00885 101.12751 585.6657 99.78437 585.6657 98.12751C585.6657 96.47066 587.00885 95.12751 588.6657 95.12751C590.3226 95.12751 591.6657 96.47066 591.6657 98.12751Z" fill-rule="nonzero"/><path fill="#000000" fill-opacity="0.0" clip-path="url(#id_0)" d="M593.11676 96.62172C593.11676 98.27857 591.7736 99.62172 590.11676 99.62172C588.4599 99.62172 587.11676 98.27857 587.11676 96.62172C587.11676 94.96487 588.4599 93.62172 590.11676 93.62172C591.7736 93.62172 593.11676 94.96487 593.11676 96.62172Z" fill-rule="nonzero"/><path fill="#000000" fill-opacity="0.0" clip-path="url(#id_0)" d="M594.54926 95.11642C594.54926 96.77327 593.2061 98.11642 591.54926 98.11642C589.8924 98.11642 588.54926 96.77327 588.54926 95.11642C588.54926 93.459564 589.8924 92.11642 591.54926 92.11642C593.2061 92.11642 594.54926 93.459564 594.54926 95.11642Z" fill-rule="nonzero"/><path fill="#000000" fill-opacity="0.0" clip-path="url(#id_0)" d="M595.96375 93.610725C595.96375 95.267586 594.6206 96.610725 592.96375 96.610725C591.3069 96.610725 589.96375 95.267586 589.96375 93.610725C589.96375 91.95387 591.3069 90.610725 592.96375 90.610725C594.6206 90.610725 595.96375 91.95387 595.96375 93.610725Z" fill-rule="nonzero"/><path fill="#000000" fill-opacity="0.0" clip-path="url(#id_0)" d="M597.36066 92.10557C597.36066 93.76242 596.0175 95.10557 594.36066 95.10557C592.7038 95.10557 591.36066 93.76242 591.36066 92.10557C591.36066 90.448715 592.7038 89.10557 594.36066 89.10557C596.0175 89.10557 597.36066 90.448715 597.36066 92.10557Z" fill-rule="nonzero"/><path fill="#000000" fill-opacity="0.0" clip-path="url(#id_0)" d="M598.7405 90.600204C598.7405 92.25706 597.39734 93.600204 595.7405 93.600204C594.0836 93.600204 592.7405 92.25706 592.7405 90.600204C592.7405 88.94335 594.0836 87.600204 595.7405 87.600204C597.39734 87.600204 598.7405 88.94335 598.7405 90.600204Z" fill-rule="nonzero"/><path fill="#000000" fill-opacity="0.0" clip-path="url(#id_0)" d="M600.1035 89.09459C600.1035 90.75144 598.7604 92.09459 597.1035 92.09459C595.44666 92.09459 594.1035 90.75144 594.1035 89.09459C594.1035 87.43773 595.44666 86.09459 597.1035 86.09459C598.7604 86.09459 600.1035 87.43773 600.1035 89.09459Z" fill-rule="nonzero"/><path fill="#000000" fill-opacity="0.0" clip-path="url(#id_0)" d="M601.45026 87.588875C601.45026 89.24573 600.1071 90.588875 598.45026 90.588875C596.7934 90.588875 595.45026 89.24573 595.45026 87.588875C595.45026 85.93202 596.7934 84.588875 598.45026 84.588875C600.1071 84.588875 601.45026 85.93202 601.45026 87.588875Z" fill-rule="nonzero"/><path fill="#000000" fill-opacity="0.0" clip-path="url(#id_0)" d="M602.78107 86.08342C602.78107 87.74028 601.4379 89.08342 599.78107 89.08342C598.1242 89.08342 596.78107 87.74028 596.78107 86.08342C596.78107 84.42657 598.1242 83.08342 599.78107 83.08342C601.4379 83.08342 602.78107 84.42657 602.78107 86.08342Z" fill-rule="nonzero"/><path fill="#000000" fill-opacity="0.0" clip-path="url(#id_0)" d="M604.0963 84.5779C604.0963 86.234764 602.7532 87.5779 601.0963 87.5779C599.43945 87.5779 598.0963 86.234764 598.0963 84.5779C598.0963 82.92105 599.43945 81.5779 601.0963 81.5779C602.7532 81.5779 604.0963 82.92105 604.0963 84.5779Z" fill-rule="nonzero"/><path fill="#000000" fill-opacity="0.0" clip-path="url(#id_0)" d="M605.3963 83.07228C605.3963 84.72913 604.05316 86.07228 602.3963 86.07228C600.73944 86.07228 599.3963 84.72913 599.3963 83.07228C599.3963 81.41543 600.73944 80.07228 602.3963 80.07228C604.05316 80.07228 605.3963 81.41543 605.3963 83.07228Z" fill-rule="nonzero"/><path fill="#000000" fill-opacity="0.0" clip-path="url(#id_0)" d="M606.68146 81.566956C606.68146 83.223816 605.3383 84.566956 603.68146 84.566956C602.02466 84.566956 600.68146 83.223816 600.68146 81.566956C600.68146 79.9101 602.02466 78.566956 603.68146 78.566956C605.3383 78.566956 606.68146 79.9101 606.68146 81.566956Z" fill-rule="nonzero"/><path fill="#000000" fill-opacity="0.0" clip-path="url(#id_0)" d="M607.95215 80.06111C607.95215 81.717964 606.609 83.06111 604.95215 83.06111C603.2953 83.06111 601.95215 81.717964 601.95215 80.06111C601.95215 78.40426 603.2953 77.06111 604.95215 77.06111C606.609 77.06111 607.95215 78.40426 607.95215 80.06111Z" fill-rule="nonzero"/><path fill="#000000" fill-opacity="0.0" clip-path="url(#id_0)" d="M609.20856 78.55559C609.20856 80.21244 607.8654 81.55559 606.20856 81.55559C604.55176 81.55559 603.20856 80.21244 603.20856 78.55559C603.20856 76.89873 604.55176 75.55559 606.20856 75.55559C607.8654 75.55559 609.20856 76.89873 609.20856 78.55559Z" fill-rule="nonzero"/><path fill="#000000" fill-opacity="0.0" clip-path="url(#id_0)" d="M610.4512 77.05024C610.4512 78.7071 609.10803 80.05024 607.4512 80.05024C605.7943 80.05024 604.4512 78.7071 604.4512 77.05024C604.4512 75.39339 605.7943 74.05024 607.4512 74.05024C609.10803 74.05024 610.4512 75.39339 610.4512 77.05024Z" fill-rule="nonzero"/><path fill="#000000" fill-opacity="0.0" clip-path="url(#id_0)" d="M611.6801 75.5444C611.6801 77.201256 610.337 78.5444 608.6801 78.5444C607.02325 78.5444 605.6801 77.201256 605.6801 75.5444C605.6801 73.88755 607.02325 72.5444 608.6801 72.5444C610.337 72.5444 611.6801 73.88755 611.6801 75.5444Z" fill-rule="nonzero"/><path fill="#000000" fill-opacity="0.0" clip-path="url(#id_0)" d="M612.8958 74.03884C612.8958 75.695694 611.5527 77.03884 609.8958 77.03884C608.23895 77.03884 606.8958 75.695694 606.8958 74.03884C606.8958 72.38199 608.23895 71.03884 609.8958 71.03884C611.5527 71.03884 612.8958 72.38199 612.8958 74.03884Z" fill-rule="nonzero"/><path fill="#000000" fill-opacity="0.0" clip-path="url(#id_0)" d="M614.0985 72.53333C614.0985 74.19019 612.7554 75.53333 611.0985 75.53333C609.44165 75.53333 608.0985 74.19019 608.0985 72.53333C608.0985 70.87648 609.44165 69.53333 611.0985 69.53333C612.7554 69.53333 614.0985 70.87648 614.0985 72.53333Z" fill-rule="nonzero"/><path fill="#000000" fill-opacity="0.0" clip-path="url(#id_0)" d="M615.2885 71.02792C615.2885 72.68478 613.9454 74.02792 612.2885 74.02792C610.63165 74.02792 609.2885 72.68478 609.2885 71.02792C609.2885 69.37107 610.63165 68.02792 612.2885 68.02792C613.9454 68.02792 615.2885 69.37107 615.2885 71.02792Z" fill-rule="nonzero"/><path fill="#000000" fill-opacity="0.0" clip-path="url(#id_0)" d="M616.466 69.52221C616.466 71.17906 615.12286 72.52221 613.466 72.52221C611.80914 72.52221 610.466 71.17906 610.466 69.52221C610.466 67.86536 611.80914 66.52221 613.466 66.52221C615.12286 66.52221 616.466 67.86536 616.466 69.52221Z" fill-rule="nonzero"/><path fill="#000000" fill-opacity="0.0" clip-path="url(#id_0)" d="M617.63135 68.01654C617.63135 69.6734 616.28815 71.01654 614.63135 71.01654C612.9745 71.01654 611.63135 69.6734 611.63135 68.01654C611.63135 66.35969 612.9745 65.01654 614.63135 65.01654C616.28815 65.01654 617.63135 66.35969 617.63135 68.01654Z" fill-rule="nonzero"/><path fill="#000000" fill-opacity="0.0" clip-path="url(#id_0)" d="M618.78467 66.51099C618.78467 68.16784 617.4415 69.51099 615.78467 69.51099C614.1278 69.51099 612.78467 68.16784 612.78467 66.51099C612.78467 64.85413 614.1278 63.510983 615.78467 63.510983C617.4415 63.510983 618.78467 64.85413 618.78467 66.51099Z" fill-rule="nonzero"/><path fill="#000000" fill-opacity="0.0" clip-path="url(#id_0)" d="M619.92633 65.00553C619.92633 66.662384 618.5832 68.00553 616.92633 68.00553C615.2695 68.00553 613.92633 66.662384 613.92633 65.00553C613.92633 63.348675 615.2695 62.005527 616.92633 62.005527C618.5832 62.005527 619.92633 63.348675 619.92633 65.00553Z" fill-rule="nonzero"/><path fill="#000000" fill-opacity="0.0" clip-path="url(#id_0)" d="M621.0565 63.5C621.0565 65.15685 619.7133 66.5 618.0565 66.5C616.39966 66.5 615.0565 65.15685 615.0565 63.5C615.0565 61.843147 616.39966 60.5 618.0565 60.5C619.7133 60.5 621.0565 61.843147 621.0565 63.5Z" fill-rule="nonzero"/><path fill="#000000" fill-opacity="0.0" clip-path="url(#id_0)" d="M622.1754 73.32406C622.1754 74.98092 620.8323 76.32406 619.1754 76.32406C617.51855 76.32406 616.1754 74.98092 616.1754 73.32406C616.1754 71.667206 617.51855 70.32406 619.1754 70.32406C620.8323 70.32406 622.1754 71.667206 622.1754 73.32406Z" fill-rule="nonzero"/><path fill="#000000" fill-opacity="0.0" clip-path="url(#id_0)" d="M623.2833 73.04531C623.2833 74.70216 621.9402 76.04531 620.2833 76.04531C618.62646 76.04531 617.2833 74.70216 617.2833 73.04531C617.2833 71.38846 618.62646 70.04531 620.2833 70.04531C621.9402 70.04531 623.2833 71.38846 623.2833 73.04531Z" fill-rule="nonzero"/><path fill="#000000" fill-opacity="0.0" clip-path="url(#id_0)" d="M624.38043 72.76667C624.38043 74.42352 623.0373 75.76667 621.38043 75.76667C619.7236 75.76667 618.38043 74.42352 618.38043 72.76667C618.38043 71.10982 619.7236 69.76667 621.38043 69.76667C623.0373 69.76667 624.38043 71.10982 624.38043 72.76667Z" fill-rule="nonzero"/><path fill="#000000" fill-opacity="0.0" clip-path="url(#id_0)" d="M625.4669 72.48781C625.4669 74.14466 624.1238 75.48781 622.4669 75.48781C620.81006 75.48781 619.4669 74.14466 619.4669 72.48781C619.4669 70.830956 620.81006 69.48781 622.4669 69.48781C624.1238 69.48781 625.4669 70.830956 625.4669 72.48781Z" fill-rule="nonzero"/><path fill="#000000" fill-opacity="0.0" clip-path="url(#id_0)" d="M626.543 72.20911C626.543 73.86596 625.1998 75.20911 623.543 75.20911C621.88617 75.20911 620.543 73.86596 620.543 72.20911C620.543 70.55225 621.88617 69.20911 623.543 69.20911C625.1998 69.20911 626.543 70.55225 626.543 72.20911Z" fill-rule="nonzero"/><path fill="#000000" fill-opacity="0.0" clip-path="url(#id_0)" d="M627.6089 71.93059C627.6089 73.58744 626.26575 74.93059 624.6089 74.93059C622.952 74.93059 621.6089 73.58744 621.6089 71.93059C621.6089 70.273735 622.952 68.93059 624.6089 68.93059C626.26575 68.93059 627.6089 70.273735 627.6089 71.93059Z" fill-rule="nonzero"/><path fill="#000000" fill-opacity="0.0" clip-path="url(#id_0)" d="M628.6648 71.65193C628.6648 73.308784 627.32166 74.65193 625.6648 74.65193C624.00793 74.65193 622.6648 73.308784 622.6648 71.65193C622.6648 69.99508 624.00793 68.65193 625.6648 68.65193C627.32166 68.65193 628.6648 69.99508 628.6648 71.65193Z" fill-rule="nonzero"/><path fill="#000000" fill-opacity="0.0" clip-path="url(#id_0)" d="M629.7109 71.373344C629.7109 73.0302 628.3677 74.373344 626.7109 74.373344C625.054 74.373344 623.7109 73.0302 623.7109 71.373344C623.7109 69.71649 625.054 68.373344 626.7109 68.373344C628.3677 68.373344 629.7109 69.71649 629.7109 71.373344Z" fill-rule="nonzero"/><path fill="#000000" fill-opacity="0.0" clip-path="url(#id_0)" d="M630.74725 71.09451C630.74725 72.751366 629.4041 74.09451 627.74725 74.09451C626.0904 74.09451 624.74725 72.751366 624.74725 71.09451C624.74725 69.43766 626.0904 68.09451 627.74725 68.09451C629.4041 68.09451 630.74725 69.43766 630.74725 71.09451Z" fill-rule="nonzero"/><path fill="#000000" fill-opacity="0.0" clip-path="url(#id_0)" d="M631.77423 70.8158C631.77423 72.47266 630.4311 73.8158 628.77423 73.8158C627.1174 73.8158 625.77423 72.47266 625.77423 70.8158C625.77423 69.15894 627.1174 67.8158 628.77423 67.8158C630.4311 67.8158 631.77423 69.15894 631.77423 70.8158Z" fill-rule="nonzero"/><path fill="#000000" fill-opacity="0.0" clip-path="url(#id_0)" d="M632.7919 70.53707C632.7919 72.193924 631.4487 73.53707 629.7919 73.53707C628.135 73.53707 626.7919 72.193924 626.7919 70.53707C626.7919 68.88022 628.135 67.53707 629.7919 67.53707C631.4487 67.53707 632.7919 68.88022 632.7919 70.53707Z" fill-rule="nonzero"/><path fill="#000000" fill-opacity="0.0" clip-path="url(#id_0)" d="M633.8004 70.258514C633.8004 71.91537 632.4573 73.258514 630.8004 73.258514C629.14355 73.258514 627.8004 71.91537 627.8004 70.258514C627.8004 68.60166 629.14355 67.258514 630.8004 67.258514C632.4573 67.258514 633.8004 68.60166 633.8004 70.258514Z" fill-rule="nonzero"/><path fill="#000000" fill-opacity="0.0" clip-path="url(#id_0)" d="M634.8 69.97983C634.8 71.63668 633.45685 72.97983 631.8 72.97983C630.1431 72.97983 628.8 71.63668 628.8 69.97983C628.8 68.322975 630.1431 66.97983 631.8 66.97983C633.45685 66.97983 634.8 68.322975 634.8 69.97983Z" fill-rule="nonzero"/><path fill="#424242" d="M22.856237 218.79062Q27.403112 220.75937 30.074987 223.85312L30.543737 223.85312Q30.918737 223.85312 30.918737 223.525L30.918737 220.7125Q30.918737 220.29062 30.449987 220.19687L29.090612 219.86874L29.324987 218.79062L30.824987 219.16562Q31.949987 219.44687 31.949987 220.24374L31.949987 223.94687Q31.949987 224.79062 31.153112 224.79062L30.731237 224.79062Q31.528112 225.91562 32.090614 227.18124L31.012487 227.74374Q30.496862 226.24374 29.371862 224.79062L23.981237 224.79062L23.981237 223.9Q24.074987 223.43124 24.356237 223.85312L28.621862 223.85312Q25.949987 221.18124 22.387487 219.82187L22.856237 218.79062ZM25.809362 218.69687Q27.543737 217.43124 29.231237 216.86874L29.746862 217.99374Q27.871862 218.65 26.371862 219.63437L25.809362 218.69687ZM25.387487 225.5875Q25.528112 225.2125 25.715612 225.63437Q28.199987 225.91562 29.746862 226.57187L29.324987 227.69687Q27.684362 226.9 25.059362 226.61874L25.387487 225.5875ZM21.684362 223.7125Q22.340612 222.16562 23.324987 221.18124L24.262487 221.8375Q23.278112 222.86874 22.574987 224.275L21.684362 223.7125ZM30.778112 209.55624Q31.949987 211.15 32.278114 215.04062L31.387487 215.22812Q31.199987 211.99374 30.449987 210.54062Q30.168737 211.61874 29.981237 212.65L30.309362 212.93124L29.840612 213.775L28.434362 212.50937L28.434362 215.74374L27.684362 215.74374L27.684362 211.9L26.653112 211.15L26.653112 213.63437L26.981237 213.63437L26.981237 214.43124L23.840612 214.43124L23.840612 211.99374L22.809362 211.99374L22.809362 215.4625L22.059362 215.4625L22.059362 205.38437L22.809362 205.38437L22.809362 208.85312L23.840612 208.85312L23.840612 206.41562L26.934362 206.41562L26.934362 207.2125L26.653112 207.2125L26.653112 210.72812L26.887487 210.25937Q27.028112 210.025 27.121862 210.4L27.684362 210.86874L27.684362 205.05624L28.434362 205.05624L28.434362 207.44687Q29.371862 208.00937 30.121862 208.80624Q30.543737 207.30624 31.340612 205.57187L32.184364 206.18124Q31.434362 207.5875 30.778112 209.55624ZM28.434362 211.3375L29.324987 212.13437Q29.465612 211.05624 29.793737 209.74374Q29.231237 208.99374 28.434362 208.57187L28.434362 211.3375ZM22.809362 211.19687L23.840612 211.19687L23.840612 209.65L22.809362 209.65L22.809362 211.19687ZM25.903112 213.63437L25.903112 211.99374L24.590612 211.99374L24.590612 213.63437L25.903112 213.63437ZM24.590612 211.19687L25.903112 211.19687L25.903112 209.65L24.590612 209.65L24.590612 211.19687ZM24.590612 208.85312L25.903112 208.85312L25.903112 207.2125L24.590612 207.2125L24.590612 208.85312ZM24.637487 201.9625L21.684362 201.9625L21.684362 194.8375L24.637487 194.8375L24.637487 201.9625ZM25.949987 203.55624L25.199987 203.55624L25.199987 193.19687L25.949987 193.19687L25.949987 203.55624ZM29.418737 197.97812L29.934362 197.97812L29.934362 194.55624L30.684362 194.55624L30.684362 197.97812L31.246862 197.97812L31.246862 193.05624L31.996862 193.05624L31.996862 203.69687L31.246862 203.69687L31.246862 198.775L30.684362 198.775L30.684362 202.24374L29.934362 202.24374L29.934362 198.775L29.418737 198.775L29.418737 200.36874L29.418737 201.9625L26.512487 201.9625L26.512487 194.8375L29.418737 194.8375L29.418737 197.97812ZM27.684362 195.63437L27.074987 195.63437L27.074987 197.97812L27.684362 197.97812L27.684362 195.63437ZM28.856237 197.97812L28.856237 195.63437L28.246862 195.63437L28.246862 197.97812L28.856237 197.97812ZM22.856237 201.16562L22.856237 195.63437L22.246862 195.63437L22.246862 201.16562L22.856237 201.16562ZM24.074987 201.16562L24.074987 195.63437L23.418737 195.63437L23.418737 201.16562L24.074987 201.16562ZM27.684362 201.16562L27.684362 198.775L27.074987 198.775L27.074987 201.16562L27.684362 201.16562ZM28.856237 201.16562L28.856237 198.775L28.246862 198.775L28.246862 201.16562L28.856237 201.16562Z" fill-rule="nonzero"/><path fill="#757575" d="M84.46562 348.3L83.3875 348.3L83.3875 341.08124L81.2 341.8781L81.2 340.89374L84.30937 339.72186L84.46562 339.72186L84.46562 348.3ZM93.2625 344.65936Q93.2625 346.5656 92.60625 347.5031Q91.96562 348.425 90.575 348.425Q89.21562 348.425 88.55937 347.51874Q87.90312 346.6125 87.87187 344.8L87.87187 343.3625Q87.87187 341.47186 88.5125 340.5656Q89.16875 339.64374 90.55937 339.64374Q91.93437 339.64374 92.59062 340.53436Q93.24687 341.40936 93.2625 343.2531L93.2625 344.65936ZM92.16875 343.175Q92.16875 341.8 91.77812 341.175Q91.40312 340.53436 90.55937 340.53436Q89.73125 340.53436 89.34062 341.175Q88.96562 341.8 88.96562 343.09686L88.96562 344.83124Q88.96562 346.20624 89.35625 346.8781Q89.7625 347.53436 90.575 347.53436Q91.37187 347.53436 91.7625 346.90936Q92.15312 346.28436 92.16875 344.95624L92.16875 343.175Z" fill-rule="nonzero"/><path fill="#757575" d="M77.46562 283.79538L76.3875 283.79538L76.3875 276.57663L74.2 277.3735L74.2 276.38913L77.30937 275.21725L77.46562 275.21725L77.46562 283.79538ZM86.2625 280.15475Q86.2625 282.061 85.60625 282.9985Q84.96562 283.92038 83.575 283.92038Q82.21562 283.92038 81.55937 283.01413Q80.90312 282.10788 80.87187 280.29538L80.87187 278.85788Q80.87187 276.96725 81.5125 276.061Q82.16875 275.13913 83.55937 275.13913Q84.93437 275.13913 85.59062 276.02975Q86.24687 276.90475 86.2625 278.7485L86.2625 280.15475ZM85.16875 278.67038Q85.16875 277.29538 84.77812 276.67038Q84.40312 276.02975 83.55937 276.02975Q82.73125 276.02975 82.34062 276.67038Q81.96562 277.29538 81.96562 278.59225L81.96562 280.32663Q81.96562 281.70163 82.35625 282.3735Q82.7625 283.02975 83.575 283.02975Q84.37187 283.02975 84.7625 282.40475Q85.15312 281.77975 85.16875 280.45163L85.16875 278.67038ZM93.2625 280.15475Q93.2625 282.061 92.60625 282.9985Q91.96562 283.92038 90.575 283.92038Q89.21562 283.92038 88.55937 283.01413Q87.90312 282.10788 87.87187 280.29538L87.87187 278.85788Q87.87187 276.96725 88.5125 276.061Q89.16875 275.13913 90.55937 275.13913Q91.93437 275.13913 92.59062 276.02975Q93.24687 276.90475 93.2625 278.7485L93.2625 280.15475ZM92.16875 278.67038Q92.16875 277.29538 91.77812 276.67038Q91.40312 276.02975 90.55937 276.02975Q89.73125 276.02975 89.34062 276.67038Q88.96562 277.29538 88.96562 278.59225L88.96562 280.32663Q88.96562 281.70163 89.35625 282.3735Q89.7625 283.02975 90.575 283.02975Q91.37187 283.02975 91.7625 282.40475Q92.15312 281.77975 92.16875 280.45163L92.16875 278.67038Z" fill-rule="nonzero"/><path fill="#757575" d="M70.46562 219.29074L69.3875 219.29074L69.3875 212.07199L67.2 212.86887L67.2 211.88449L70.30937 210.71262L70.46562 210.71262L70.46562 219.29074ZM79.2625 215.65012Q79.2625 217.55637 78.60625 218.49387Q77.96562 219.41574 76.575 219.41574Q75.21562 219.41574 74.55937 218.50949Q73.90312 217.60324 73.87187 215.79074L73.87187 214.35324Q73.87187 212.46262 74.5125 211.55637Q75.16875 210.63449 76.55937 210.63449Q77.93437 210.63449 78.59062 211.52512Q79.24687 212.40012 79.2625 214.24387L79.2625 215.65012ZM78.16875 214.16574Q78.16875 212.79074 77.77812 212.16574Q77.40312 211.52512 76.55937 211.52512Q75.73125 211.52512 75.34062 212.16574Q74.96562 212.79074 74.96562 214.08762L74.96562 215.82199Q74.96562 217.19699 75.35625 217.86887Q75.7625 218.52512 76.575 218.52512Q77.37187 218.52512 77.7625 217.90012Q78.15312 217.27512 78.16875 215.94699L78.16875 214.16574ZM86.2625 215.65012Q86.2625 217.55637 85.60625 218.49387Q84.96562 219.41574 83.575 219.41574Q82.21562 219.41574 81.55937 218.50949Q80.90312 217.60324 80.87187 215.79074L80.87187 214.35324Q80.87187 212.46262 81.5125 211.55637Q82.16875 210.63449 83.55937 210.63449Q84.93437 210.63449 85.59062 211.52512Q86.24687 212.40012 86.2625 214.24387L86.2625 215.65012ZM85.16875 214.16574Q85.16875 212.79074 84.77812 212.16574Q84.40312 211.52512 83.55937 211.52512Q82.73125 211.52512 82.34062 212.16574Q81.96562 212.79074 81.96562 214.08762L81.96562 215.82199Q81.96562 217.19699 82.35625 217.86887Q82.7625 218.52512 83.575 218.52512Q84.37187 218.52512 84.7625 217.90012Q85.15312 217.27512 85.16875 215.94699L85.16875 214.16574ZM93.2625 215.65012Q93.2625 217.55637 92.60625 218.49387Q91.96562 219.41574 90.575 219.41574Q89.21562 219.41574 88.55937 218.50949Q87.90312 217.60324 87.87187 215.79074L87.87187 214.35324Q87.87187 212.46262 88.5125 211.55637Q89.16875 210.63449 90.55937 210.63449Q91.93437 210.63449 92.59062 211.52512Q93.24687 212.40012 93.2625 214.24387L93.2625 215.65012ZM92.16875 214.16574Q92.16875 212.79074 91.77812 212.16574Q91.40312 211.52512 90.55937 211.52512Q89.73125 211.52512 89.34062 212.16574Q88.96562 212.79074 88.96562 214.08762L88.96562 215.82199Q88.96562 217.19699 89.35625 217.86887Q89.7625 218.52512 90.575 218.52512Q91.37187 218.52512 91.7625 217.90012Q92.15312 217.27512 92.16875 215.94699L92.16875 214.16574Z" fill-rule="nonzero"/><path fill="#757575" d="M63.465626 154.78612L62.3875 154.78612L62.3875 147.56737L60.2 148.36424L60.2 147.37987L63.309376 146.208L63.465626 146.208L63.465626 154.78612ZM72.2625 151.1455Q72.2625 153.05174 71.60625 153.98924Q70.96562 154.91112 69.575 154.91112Q68.21562 154.91112 67.55937 154.00487Q66.90312 153.09862 66.87187 151.28612L66.87187 149.84862Q66.87187 147.958 67.5125 147.05174Q68.16875 146.12987 69.55937 146.12987Q70.93437 146.12987 71.59062 147.0205Q72.24687 147.8955 72.2625 149.73924L72.2625 151.1455ZM71.16875 149.66112Q71.16875 148.28612 70.77812 147.66112Q70.40312 147.0205 69.55937 147.0205Q68.73125 147.0205 68.34062 147.66112Q67.96562 148.28612 67.96562 149.583L67.96562 151.31737Q67.96562 152.69237 68.35625 153.36424Q68.7625 154.0205 69.575 154.0205Q70.37187 154.0205 70.7625 153.3955Q71.15312 152.7705 71.16875 151.44237L71.16875 149.66112ZM79.2625 151.1455Q79.2625 153.05174 78.60625 153.98924Q77.96562 154.91112 76.575 154.91112Q75.21562 154.91112 74.55937 154.00487Q73.90312 153.09862 73.87187 151.28612L73.87187 149.84862Q73.87187 147.958 74.5125 147.05174Q75.16875 146.12987 76.55937 146.12987Q77.93437 146.12987 78.59062 147.0205Q79.24687 147.8955 79.2625 149.73924L79.2625 151.1455ZM78.16875 149.66112Q78.16875 148.28612 77.77812 147.66112Q77.40312 147.0205 76.55937 147.0205Q75.73125 147.0205 75.34062 147.66112Q74.96562 148.28612 74.96562 149.583L74.96562 151.31737Q74.96562 152.69237 75.35625 153.36424Q75.7625 154.0205 76.575 154.0205Q77.37187 154.0205 77.7625 153.3955Q78.15312 152.7705 78.16875 151.44237L78.16875 149.66112ZM86.2625 151.1455Q86.2625 153.05174 85.60625 153.98924Q84.96562 154.91112 83.575 154.91112Q82.21562 154.91112 81.55937 154.00487Q80.90312 153.09862 80.87187 151.28612L80.87187 149.84862Q80.87187 147.958 81.5125 147.05174Q82.16875 146.12987 83.55937 146.12987Q84.93437 146.12987 85.59062 147.0205Q86.24687 147.8955 86.2625 149.73924L86.2625 151.1455ZM85.16875 149.66112Q85.16875 148.28612 84.77812 147.66112Q84.40312 147.0205 83.55937 147.0205Q82.73125 147.0205 82.34062 147.66112Q81.96562 148.28612 81.96562 149.583L81.96562 151.31737Q81.96562 152.69237 82.35625 153.36424Q82.7625 154.0205 83.575 154.0205Q84.37187 154.0205 84.7625 153.3955Q85.15312 152.7705 85.16875 151.44237L85.16875 149.66112ZM93.2625 151.1455Q93.2625 153.05174 92.60625 153.98924Q91.96562 154.91112 90.575 154.91112Q89.21562 154.91112 88.55937 154.00487Q87.90312 153.09862 87.87187 151.28612L87.87187 149.84862Q87.87187 147.958 88.5125 147.05174Q89.16875 146.12987 90.55937 146.12987Q91.93437 146.12987 92.59062 147.0205Q93.24687 147.8955 93.2625 149.73924L93.2625 151.1455ZM92.16875 149.66112Q92.16875 148.28612 91.77812 147.66112Q91.40312 147.0205 90.55937 147.0205Q89.73125 147.0205 89.34062 147.66112Q88.96562 148.28612 88.96562 149.583L88.96562 151.31737Q88.96562 152.69237 89.35625 153.36424Q89.7625 154.0205 90.575 154.0205Q91.37187 154.0205 91.7625 153.3955Q92.15312 152.7705 92.16875 151.44237L92.16875 149.66112Z" fill-rule="nonzero"/><path fill="#757575" d="M56.465626 90.281494L55.3875 90.281494L55.3875 83.062744L53.2 83.85962L53.2 82.875244L56.309376 81.70337L56.465626 81.70337L56.465626 90.281494ZM65.2625 86.64087Q65.2625 88.54712 64.60625 89.48462Q63.965626 90.406494 62.575 90.406494Q61.215626 90.406494 60.559376 89.500244Q59.903126 88.593994 59.871876 86.781494L59.871876 85.343994Q59.871876 83.45337 60.5125 82.54712Q61.16875 81.625244 62.559376 81.625244Q63.934376 81.625244 64.59062 82.51587Q65.24687 83.39087 65.2625 85.23462L65.2625 86.64087ZM64.16875 85.156494Q64.16875 83.781494 63.778126 83.156494Q63.403126 82.51587 62.559376 82.51587Q61.73125 82.51587 61.340626 83.156494Q60.965626 83.781494 60.965626 85.07837L60.965626 86.812744Q60.965626 88.187744 61.35625 88.85962Q61.7625 89.51587 62.575 89.51587Q63.371876 89.51587 63.7625 88.89087Q64.15312 88.26587 64.16875 86.937744L64.16875 85.156494ZM72.2625 86.64087Q72.2625 88.54712 71.60625 89.48462Q70.96562 90.406494 69.575 90.406494Q68.21562 90.406494 67.55937 89.500244Q66.90312 88.593994 66.87187 86.781494L66.87187 85.343994Q66.87187 83.45337 67.5125 82.54712Q68.16875 81.625244 69.55937 81.625244Q70.93437 81.625244 71.59062 82.51587Q72.24687 83.39087 72.2625 85.23462L72.2625 86.64087ZM71.16875 85.156494Q71.16875 83.781494 70.77812 83.156494Q70.40312 82.51587 69.55937 82.51587Q68.73125 82.51587 68.34062 83.156494Q67.96562 83.781494 67.96562 85.07837L67.96562 86.812744Q67.96562 88.187744 68.35625 88.85962Q68.7625 89.51587 69.575 89.51587Q70.37187 89.51587 70.7625 88.89087Q71.15312 88.26587 71.16875 86.937744L71.16875 85.156494ZM79.2625 86.64087Q79.2625 88.54712 78.60625 89.48462Q77.96562 90.406494 76.575 90.406494Q75.21562 90.406494 74.55937 89.500244Q73.90312 88.593994 73.87187 86.781494L73.87187 85.343994Q73.87187 83.45337 74.5125 82.54712Q75.16875 81.625244 76.55937 81.625244Q77.93437 81.625244 78.59062 82.51587Q79.24687 83.39087 79.2625 85.23462L79.2625 86.64087ZM78.16875 85.156494Q78.16875 83.781494 77.77812 83.156494Q77.40312 82.51587 76.55937 82.51587Q75.73125 82.51587 75.34062 83.156494Q74.96562 83.781494 74.96562 85.07837L74.96562 86.812744Q74.96562 88.187744 75.35625 88.85962Q75.7625 89.51587 76.575 89.51587Q77.37187 89.51587 77.7625 88.89087Q78.15312 88.26587 78.16875 86.937744L78.16875 85.156494ZM86.2625 86.64087Q86.2625 88.54712 85.60625 89.48462Q84.96562 90.406494 83.575 90.406494Q82.21562 90.406494 81.55937 89.500244Q80.90312 88.593994 80.87187 86.781494L80.87187 85.343994Q80.87187 83.45337 81.5125 82.54712Q82.16875 81.625244 83.55937 81.625244Q84.93437 81.625244 85.59062 82.51587Q86.24687 83.39087 86.2625 85.23462L86.2625 86.64087ZM85.16875 85.156494Q85.16875 83.781494 84.77812 83.156494Q84.40312 82.51587 83.55937 82.51587Q82.73125 82.51587 82.34062 83.156494Q81.96562 83.781494 81.96562 85.07837L81.96562 86.812744Q81.96562 88.187744 82.35625 88.85962Q82.7625 89.51587 83.575 89.51587Q84.37187 89.51587 84.7625 88.89087Q85.15312 88.26587 85.16875 86.937744L85.16875 85.156494ZM93.2625 86.64087Q93.2625 88.54712 92.60625 89.48462Q91.96562 90.406494 90.575 90.406494Q89.21562 90.406494 88.55937 89.500244Q87.90312 88.593994 87.87187 86.781494L87.87187 85.343994Q87.87187 83.45337 88.5125 82.54712Q89.16875 81.625244 90.55937 81.625244Q91.93437 81.625244 92.59062 82.51587Q93.24687 83.39087 93.2625 85.23462L93.2625 86.64087ZM92.16875 85.156494Q92.16875 83.781494 91.77812 83.156494Q91.40312 82.51587 90.55937 82.51587Q89.73125 82.51587 89.34062 83.156494Q88.96562 83.781494 88.96562 85.07837L88.96562 86.812744Q88.96562 88.187744 89.35625 88.85962Q89.7625 89.51587 90.575 89.51587Q91.37187 89.51587 91.7625 88.89087Q92.15312 88.26587 92.16875 86.937744L92.16875 85.156494Z" fill-rule="nonzero"/><path fill="#757575" d="M100.96562 361.8L99.8875 361.8L99.8875 354.58124L97.7 355.3781L97.7 354.39374L100.80937 353.22186L100.96562 353.22186L100.96562 361.8Z" fill-rule="nonzero"/><path fill="#757575" d="M278.8862 357.51874L279.3237 353.26874L283.6987 353.26874L283.6987 354.26874L280.24557 354.26874L279.97995 356.59686Q280.62057 356.22186 281.41745 356.22186Q282.5737 356.22186 283.2612 357.0031Q283.9487 357.76874 283.9487 359.08124Q283.9487 360.39374 283.22995 361.15936Q282.52682 361.925 281.24557 361.925Q280.12057 361.925 279.40182 361.3Q278.68307 360.65936 278.58932 359.55L279.60495 359.55Q279.71432 360.28436 280.1362 360.65936Q280.55807 361.03436 281.24557 361.03436Q281.99557 361.03436 282.43307 360.51874Q282.87057 360.0031 282.87057 359.09686Q282.87057 358.2375 282.40182 357.72186Q281.93307 357.20624 281.15182 357.20624Q280.4487 357.20624 280.04245 357.5031L279.7612 357.7375L278.8862 357.51874Z" fill-rule="nonzero"/><path fill="#757575" d="M356.39386 361.8L355.31573 361.8L355.31573 354.58124L353.12823 355.3781L353.12823 354.39374L356.2376 353.22186L356.39386 353.22186L356.39386 361.8ZM365.19073 358.15936Q365.19073 360.0656 364.5345 361.0031Q363.89386 361.925 362.50323 361.925Q361.14386 361.925 360.4876 361.01874Q359.83136 360.1125 359.8001 358.3L359.8001 356.8625Q359.8001 354.97186 360.44073 354.0656Q361.097 353.14374 362.4876 353.14374Q363.8626 353.14374 364.51886 354.03436Q365.1751 354.90936 365.19073 356.7531L365.19073 358.15936ZM364.097 356.675Q364.097 355.3 363.70636 354.675Q363.33136 354.03436 362.4876 354.03436Q361.6595 354.03436 361.26886 354.675Q360.89386 355.3 360.89386 356.59686L360.89386 358.33124Q360.89386 359.70624 361.2845 360.3781Q361.69073 361.03436 362.50323 361.03436Q363.3001 361.03436 363.69073 360.40936Q364.08136 359.78436 364.097 358.45624L364.097 356.675Z" fill-rule="nonzero"/><path fill="#757575" d="M534.31445 357.51874L534.75195 353.26874L539.12695 353.26874L539.12695 354.26874L535.6738 354.26874L535.4082 356.59686Q536.0488 356.22186 536.8457 356.22186Q538.00195 356.22186 538.68945 357.0031Q539.37695 357.76874 539.37695 359.08124Q539.37695 360.39374 538.6582 361.15936Q537.9551 361.925 536.6738 361.925Q535.5488 361.925 534.8301 361.3Q534.1113 360.65936 534.0176 359.55L535.0332 359.55Q535.1426 360.28436 535.56445 360.65936Q535.9863 361.03436 536.6738 361.03436Q537.4238 361.03436 537.8613 360.51874Q538.2988 360.0031 538.2988 359.09686Q538.2988 358.2375 537.8301 357.72186Q537.3613 357.20624 536.5801 357.20624Q535.87695 357.20624 535.4707 357.5031L535.18945 357.7375L534.31445 357.51874ZM546.1738 358.15936Q546.1738 360.0656 545.5176 361.0031Q544.87695 361.925 543.4863 361.925Q542.12695 361.925 541.4707 361.01874Q540.81445 360.1125 540.7832 358.3L540.7832 356.8625Q540.7832 354.97186 541.4238 354.0656Q542.0801 353.14374 543.4707 353.14374Q544.8457 353.14374 545.50195 354.03436Q546.1582 354.90936 546.1738 356.7531L546.1738 358.15936ZM545.0801 356.675Q545.0801 355.3 544.68945 354.675Q544.31445 354.03436 543.4707 354.03436Q542.6426 354.03436 542.25195 354.675Q541.87695 355.3 541.87695 356.59686L541.87695 358.33124Q541.87695 359.70624 542.2676 360.3781Q542.6738 361.03436 543.4863 361.03436Q544.2832 361.03436 544.6738 360.40936Q545.06445 359.78436 545.0801 358.45624L545.0801 356.675Z" fill-rule="nonzero"/><path fill="#757575" d="M611.82214 361.8L610.744 361.8L610.744 354.58124L608.5565 355.3781L608.5565 354.39374L611.6659 353.22186L611.82214 353.22186L611.82214 361.8ZM620.619 358.15936Q620.619 360.0656 619.96277 361.0031Q619.32214 361.925 617.9315 361.925Q616.57214 361.925 615.9159 361.01874Q615.25964 360.1125 615.2284 358.3L615.2284 356.8625Q615.2284 354.97186 615.869 354.0656Q616.52527 353.14374 617.9159 353.14374Q619.2909 353.14374 619.94714 354.03436Q620.6034 354.90936 620.619 356.7531L620.619 358.15936ZM619.52527 356.675Q619.52527 355.3 619.13464 354.675Q618.75964 354.03436 617.9159 354.03436Q617.08777 354.03436 616.69714 354.675Q616.32214 355.3 616.32214 356.59686L616.32214 358.33124Q616.32214 359.70624 616.71277 360.3781Q617.119 361.03436 617.9315 361.03436Q618.7284 361.03436 619.119 360.40936Q619.50964 359.78436 619.52527 358.45624L619.52527 356.675ZM627.619 358.15936Q627.619 360.0656 626.96277 361.0031Q626.32214 361.925 624.9315 361.925Q623.57214 361.925 622.9159 361.01874Q622.25964 360.1125 622.2284 358.3L622.2284 356.8625Q622.2284 354.97186 622.869 354.0656Q623.52527 353.14374 624.9159 353.14374Q626.2909 353.14374 626.94714 354.03436Q627.6034 354.90936 627.619 356.7531L627.619 358.15936ZM626.52527 356.675Q626.52527 355.3 626.13464 354.675Q625.75964 354.03436 624.9159 354.03436Q624.08777 354.03436 623.69714 354.675Q623.32214 355.3 623.32214 356.59686L623.32214 358.33124Q623.32214 359.70624 623.71277 360.3781Q624.119 361.03436 624.9315 361.03436Q625.7284 361.03436 626.119 360.40936Q626.50964 359.78436 626.52527 358.45624L626.52527 356.675Z" fill-rule="nonzero"/><path fill="#757575" d="M35.215626 24.29375Q31.934376 31.871876 26.778126 36.325L26.778126 37.10625Q26.778126 37.73125 27.325 37.73125L32.0125 37.73125Q32.715626 37.73125 32.871876 36.95L33.41875 34.684376L35.215626 35.075L34.590626 37.575Q34.121876 39.45 32.79375 39.45L26.621876 39.45Q25.215626 39.45 25.215626 38.121876L25.215626 37.41875Q23.340626 38.746876 21.23125 39.684376L20.29375 37.8875Q22.79375 37.028126 25.215626 35.153126L25.215626 26.16875L26.7 26.16875Q27.48125 26.325 26.778126 26.79375L26.778126 33.903126Q31.23125 29.45 33.496876 23.5125L35.215626 24.29375ZM35.371876 29.215626Q37.48125 32.10625 38.41875 34.91875L36.54375 35.778126Q35.45 32.653126 33.809376 30.153126L35.371876 29.215626ZM23.8875 28.5125Q24.5125 28.746876 23.809376 29.059376Q23.340626 33.2 22.246876 35.778126L20.371876 35.075Q21.7 32.340626 22.16875 27.965626L23.8875 28.5125ZM27.0125 22.340626Q29.590626 23.434376 31.23125 25.075L30.1375 26.6375Q28.41875 24.996876 26.075 23.825L27.0125 22.340626ZM50.60625 37.496876Q47.95 39.45 41.465626 39.996876L41.153126 38.5125Q46.54375 38.2 48.965626 36.95Q47.16875 36.48125 45.45 36.16875L44.98125 36.715626L43.575 35.934376L45.684376 33.590626L40.29375 33.590626L40.29375 32.340626L46.7 32.340626L47.95 30.621876L43.809376 30.621876L43.809376 31.16875L42.48125 31.16875L42.48125 25.934376L46.54375 25.934376L46.54375 24.215626L40.7625 24.215626L40.7625 22.965626L57.559376 22.965626L57.559376 24.215626L51.778126 24.215626L51.778126 25.934376L55.840626 25.934376L55.840626 31.090626L54.5125 31.090626L54.5125 30.621876L48.653126 30.621876L49.434376 31.0125Q49.825 31.246876 49.2 31.403126L48.41875 32.340626L58.10625 32.340626L58.10625 33.590626L54.121876 33.590626Q53.184376 35.153126 51.85625 36.403126Q54.35625 37.10625 57.246876 38.434376L56.23125 39.840626Q53.8875 38.590626 50.60625 37.496876ZM47.6375 33.590626L46.309376 35.075Q48.10625 35.309376 50.29375 35.85625Q51.54375 34.91875 52.246876 33.590626L47.6375 33.590626ZM47.871876 24.215626L47.871876 25.934376L50.45 25.934376L50.45 24.215626L47.871876 24.215626ZM43.809376 29.371876L46.54375 29.371876L46.54375 27.184376L43.809376 27.184376L43.809376 29.371876ZM47.871876 27.184376L47.871876 29.371876L50.45 29.371876L50.45 27.184376L47.871876 27.184376ZM51.778126 27.184376L51.778126 29.371876L54.5125 29.371876L54.5125 27.184376L51.778126 27.184376ZM63.2625 27.2625L63.2625 22.340626L75.1375 22.340626L75.1375 27.2625L63.2625 27.2625ZM60.60625 29.45L60.60625 28.2L77.87187 28.2L77.87187 29.45L60.60625 29.45ZM69.90312 35.23125L69.90312 36.090626L75.60625 36.090626L75.60625 37.340626L69.90312 37.340626L69.90312 38.278126L78.10625 38.278126L78.10625 39.528126L60.371876 39.528126L60.371876 38.278126L68.575 38.278126L68.575 37.340626L62.79375 37.340626L62.79375 36.090626L68.575 36.090626L68.575 35.23125L65.91875 35.23125L63.2625 35.23125L63.2625 30.3875L75.1375 30.3875L75.1375 35.23125L69.90312 35.23125ZM73.80937 32.340626L73.80937 31.325L69.90312 31.325L69.90312 32.340626L73.80937 32.340626ZM69.90312 34.29375L73.80937 34.29375L73.80937 33.278126L69.90312 33.278126L69.90312 34.29375ZM64.59062 24.29375L73.80937 24.29375L73.80937 23.278126L64.59062 23.278126L64.59062 24.29375ZM64.59062 26.325L73.80937 26.325L73.80937 25.23125L64.59062 25.23125L64.59062 26.325ZM64.59062 32.340626L68.575 32.340626L68.575 31.325L64.59062 31.325L64.59062 32.340626ZM64.59062 34.29375L68.575 34.29375L68.575 33.278126L64.59062 33.278126L64.59062 34.29375Z" fill-rule="nonzero"/></svg>