<svg version="1.1" viewBox="0.0 0.0 651.0 384.0" fill="none" stroke="none" stroke-linecap="square" stroke-miterlimit="10" width="651" height="384" xmlns:xlink="http://www.w3.org/1999/xlink" xmlns="http://www.w3.org/2000/svg"><path fill="#ffffff" d="M0 0L651.0 0L651.0 384.0L0 384.0L0 0Z" fill-rule="nonzero"/><path stroke="#cccccc" stroke-width="1.0" stroke-linecap="butt" d="M190.5 63.5L190.5 343.5" fill-rule="nonzero"/><path stroke="#cccccc" stroke-width="1.0" stroke-linecap="butt" d="M285.5 63.5L285.5 343.5" fill-rule="nonzero"/><path stroke="#cccccc" stroke-width="1.0" stroke-linecap="butt" d="M380.5 63.5L380.5 343.5" fill-rule="nonzero"/><path stroke="#cccccc" stroke-width="1.0" stroke-linecap="butt" d="M475.5 63.5L475.5 343.5" fill-rule="nonzero"/><path stroke="#cccccc" stroke-width="1.0" stroke-linecap="butt" d="M570.5 63.5L570.5 343.5" fill-rule="nonzero"/><path stroke="#333333" stroke-width="1.0" stroke-linecap="butt" d="M100.5 343.5L631.5 343.5" fill-rule="nonzero"/><path stroke="#cccccc" stroke-width="1.0" stroke-linecap="butt" d="M100.5 287.5L631.5 287.5" fill-rule="nonzero"/><path stroke="#cccccc" stroke-width="1.0" stroke-linecap="butt" d="M100.5 231.5L631.5 231.5" fill-rule="nonzero"/><path stroke="#cccccc" stroke-width="1.0" stroke-linecap="butt" d="M100.5 175.5L631.5 175.5" fill-rule="nonzero"/><path stroke="#cccccc" stroke-width="1.0" stroke-linecap="butt" d="M100.5 119.5L631.5 119.5" fill-rule="nonzero"/><path stroke="#cccccc" stroke-width="1.0" stroke-linecap="butt" d="M100.5 63.5L631.5 63.5" fill-rule="nonzero"/><clipPath id="id_0"><path d="M100.2 63.5L631.8 63.5L631.8 343.8L100.2 343.8L100.2 63.5Z" clip-rule="nonzero"/></clipPath><path stroke="#4285f4" stroke-width="2.0" stroke-linecap="butt" clip-path="url(#id_0)" d="M100.2 343.8C100.2 343.8 103.36429 343.79272 104.94643 343.7888C106.52857 343.78485 108.11072 343.78244 109.692856 343.77646C111.275 343.77048 112.85714 343.76562 114.439285 343.7529C116.02143 343.7402 117.60357 343.71555 119.185715 343.70023C120.76786 343.68488 122.35 343.67648 123.932144 343.66098C125.51428 343.64545 127.09643 343.62903 128.67857 343.60715C130.26071 343.5853 131.84285 343.56064 133.425 343.5298C135.00714 343.49896 136.58928 343.46533 138.17143 343.42215C139.75357 343.379 141.33571 343.33096 142.91786 343.27078C144.5 343.21063 146.08214 343.14523 147.66429 343.06113C149.24643 342.97705 150.82857 342.88434 152.41072 342.76627C153.99286 342.64816 155.575 342.51773 157.15715 342.35254C158.73929 342.18735 160.32143 342.00644 161.90356 341.77512C163.48572 341.54376 165.06786 341.24106 166.65 340.96448C168.23215 340.68793 169.81429 340.44144 171.39642 340.11572C172.97858 339.79004 174.56071 339.43405 176.14285 339.01022C177.725 338.58643 179.30714 338.12375 180.88928 337.57285C182.47144 337.02197 184.05357 336.42084 185.63571 335.70493C187.21785 334.98904 188.8 333.8574 190.38214 333.27753C191.96428 332.6977 193.54643 332.59378 195.12857 332.22586C196.71071 331.8579 198.29286 331.47482 199.875 331.0699C201.45714 330.66495 203.03929 330.24152 204.62143 329.7962C206.20357 329.35092 207.78572 328.88766 209.36786 328.39807C210.95 327.90848 212.53215 327.39758 214.11429 326.85867C215.69643 326.31973 217.27856 325.75726 218.86072 325.16452C220.44286 324.5718 222.025 323.954 223.60715 323.30222C225.18929 322.65042 226.77142 321.97098 228.35358 321.25378C229.93571 320.5366 231.51785 319.788 233.1 318.99905C234.68214 318.2101 236.26428 317.06946 237.84644 316.52008C239.42857 315.9707 241.01071 315.9791 242.59285 315.70273C244.175 315.42636 245.75714 315.1468 247.33928 314.86182C248.92143 314.57684 250.50357 314.28647 252.08571 313.9929C253.66786 313.69934 255.25 313.4026 256.83215 313.10043C258.41428 312.79825 259.99643 312.49124 261.57858 312.17993C263.1607 311.8686 264.74286 311.55298 266.325 311.2325C267.90714 310.91202 269.4893 310.58762 271.07144 310.25705C272.65356 309.92648 274.23572 309.5894 275.81787 309.2491C277.4 308.9088 278.98215 308.56573 280.5643 308.21536C282.14642 307.865 283.72858 307.44678 285.3107 307.14685C286.89285 306.84692 288.475 306.6623 290.05713 306.41583C291.63928 306.16934 293.22144 305.9197 294.80356 305.668C296.3857 305.4163 297.96786 305.16232 299.55 304.90558C301.13214 304.6488 302.7143 304.38925 304.29642 304.12747C305.87857 303.86566 307.46072 303.6018 309.04285 303.33478C310.625 303.06775 312.20715 302.79773 313.78928 302.52527C315.37143 302.2528 316.95358 301.97775 318.5357 301.70007C320.11786 301.42236 321.7 301.14227 323.28214 300.85916C324.8643 300.57605 326.44644 300.29053 328.02856 300.00143C329.61072 299.71237 331.19287 299.38217 332.775 299.12466C334.35715 298.86716 335.9393 298.68124 337.52142 298.45642C339.10358 298.23163 340.6857 298.0042 342.26785 297.77585C343.85 297.54752 345.43213 297.31802 347.01428 297.08633C348.59644 296.8546 350.17856 296.62067 351.7607 296.38556C353.34286 296.15048 354.925 295.9143 356.50714 295.67584C358.0893 295.4374 359.67142 295.1973 361.25357 294.95493C362.83572 294.71255 364.41785 294.46756 366.0 294.22165C367.58215 293.97574 369.16428 293.72888 370.74643 293.47943C372.32858 293.22995 373.9107 292.97842 375.49286 292.72485C377.075 292.47128 378.65714 292.2151 380.2393 291.95795C381.82144 291.70084 383.40356 291.44275 384.98572 291.1821C386.56787 290.92142 388.15 290.65866 389.73215 290.3939C391.3143 290.1291 392.89642 289.86243 394.47858 289.59335C396.0607 289.32425 397.64285 289.0522 399.225 288.77936C400.80713 288.50653 402.38928 288.23334 403.97144 287.9564C405.55356 287.67944 407.1357 287.39896 408.71786 287.11774C410.3 286.8365 411.88214 286.55432 413.4643 286.26898C415.04642 285.98364 416.62857 285.69568 418.21072 285.40567C419.79285 285.11563 421.375 284.8228 422.95715 284.52887C424.53928 284.23495 426.12143 283.94025 427.70358 283.64203C429.2857 283.34378 430.86786 283.04236 432.45 282.73944C434.03214 282.43652 435.6143 282.13196 437.19644 281.82455C438.77856 281.51715 440.36072 281.20715 441.94287 280.89508C443.525 280.583 445.10715 280.2689 446.6893 279.95215C448.27142 279.6354 449.85358 279.75052 451.4357 278.99463C453.01785 278.23877 454.6 276.64236 456.18213 275.4169C457.76428 274.1914 459.34644 272.93512 460.92856 271.6418C462.5107 270.3485 464.09286 269.02176 465.675 267.65707C467.25714 266.2924 468.8393 264.89368 470.42142 263.45367C472.00357 262.0137 473.58572 260.5365 475.16785 259.0171C476.75 257.49768 478.33215 255.94034 479.91428 254.3372C481.49643 252.73409 483.07858 251.09021 484.6607 249.39833C486.24286 247.70644 487.825 245.97137 489.40714 244.18587C490.9893 242.40036 492.57144 240.56924 494.15356 238.68526C495.73572 236.80127 497.31787 234.86981 498.9 232.88193C500.48215 230.89404 502.0643 228.8557 503.64642 226.75793C505.22858 224.66017 506.8107 222.50877 508.39285 220.29533C509.975 218.0819 511.55713 215.81316 513.1393 213.47733C514.72144 211.14148 516.3036 208.7453 517.88574 206.28033C519.46783 203.81538 521.05 201.2882 522.63214 198.68758C524.2143 196.08694 525.79645 193.42111 527.3786 190.67659C528.9607 187.93208 530.54285 185.11674 532.125 182.2205C533.70715 179.32426 535.2893 176.35495 536.8714 173.29912C538.45355 170.24329 540.0357 167.10991 541.61786 163.88551C543.2 160.66113 544.78217 157.35547 546.36426 153.9528C547.9464 150.55016 549.52856 147.06042 551.1107 143.46959C552.6929 139.87875 554.275 136.19675 555.8571 132.40784C557.4393 128.61893 559.0214 124.73396 560.6036 120.73614C562.1857 116.73831 563.7679 112.6394 565.35 108.420876C566.9321 104.20236 568.5143 85.3464 570.09644 95.42505C571.6786 105.5037 573.26074 156.93968 574.84283 168.8928C576.425 180.84592 578.00714 167.72955 579.5893 167.14372C581.17145 166.5579 582.7536 165.96965 584.3357 165.37784C585.91785 164.78603 587.5 164.19067 589.08215 163.59288C590.6643 162.9951 592.2464 162.39452 593.82855 161.79112C595.4107 161.18773 596.99286 160.58191 598.575 159.97253C600.15717 159.36316 601.73926 158.75043 603.3214 158.13489C604.90356 157.51935 606.4857 156.9012 608.0679 156.2793C609.65 155.65741 611.2321 155.03178 612.8143 154.40353C614.3964 153.77528 615.9786 153.14424 617.5607 152.50983C619.1429 151.87541 620.725 151.23764 622.3071 150.59706C623.8893 149.95648 625.47144 149.31328 627.0536 148.66635C628.63574 148.01942 631.8 146.71547 631.8 146.71547" fill-rule="nonzero"/><path fill="#4285f4" clip-path="url(#id_0)" d="M100.2 343.8C100.2 343.8 100.2 343.8 100.2 343.8C100.2 343.8 100.2 343.8 100.2 343.8C100.2 343.8 100.2 343.8 100.2 343.8C100.2 343.8 100.2 343.8 100.2 343.8Z" fill-rule="nonzero"/><path fill="#4285f4" clip-path="url(#id_0)" d="M104.94643 343.7888C104.94643 343.7888 104.94643 343.7888 104.94643 343.7888C104.94643 343.7888 104.94643 343.7888 104.94643 343.7888C104.94643 343.7888 104.94643 343.7888 104.94643 343.7888C104.94643 343.7888 104.94643 343.7888 104.94643 343.7888Z" fill-rule="nonzero"/><path fill="#4285f4" clip-path="url(#id_0)" d="M109.692856 343.77646C109.692856 343.77646 109.692856 343.77646 109.692856 343.77646C109.692856 343.77646 109.692856 343.77646 109.692856 343.77646C109.692856 343.77646 109.692856 343.77646 109.692856 343.77646C109.692856 343.77646 109.692856 343.77646 109.692856 343.77646Z" fill-rule="nonzero"/><path fill="#4285f4" clip-path="url(#id_0)" d="M114.439285 343.7529C114.439285 343.7529 114.439285 343.7529 114.439285 343.7529C114.439285 343.7529 114.439285 343.7529 114.439285 343.7529C114.439285 343.7529 114.439285 343.7529 114.439285 343.7529C114.439285 343.7529 114.439285 343.7529 114.439285 343.7529Z" fill-rule="nonzero"/><path fill="#4285f4" clip-path="url(#id_0)" d="M119.185715 343.70023C119.185715 343.70023 119.185715 343.70023 119.185715 343.70023C119.185715 343.70023 119.185715 343.70023 119.185715 343.70023C119.185715 343.70023 119.185715 343.70023 119.185715 343.70023C119.185715 343.70023 119.185715 343.70023 119.185715 343.70023Z" fill-rule="nonzero"/><path fill="#4285f4" clip-path="url(#id_0)" d="M123.932144 343.66098C123.932144 343.66098 123.932144 343.66098 123.932144 343.66098C123.932144 343.66098 123.932144 343.66098 123.932144 343.66098C123.932144 343.66098 123.932144 343.66098 123.932144 343.66098C123.932144 343.66098 123.932144 343.66098 123.932144 343.66098Z" fill-rule="nonzero"/><path fill="#4285f4" clip-path="url(#id_0)" d="M128.67857 343.60715C128.67857 343.60715 128.67857 343.60715 128.67857 343.60715C128.67857 343.60715 128.67857 343.60715 128.67857 343.60715C128.67857 343.60715 128.67857 343.60715 128.67857 343.60715C128.67857 343.60715 128.67857 343.60715 128.67857 343.60715Z" fill-rule="nonzero"/><path fill="#4285f4" clip-path="url(#id_0)" d="M133.425 343.5298C133.425 343.5298 133.425 343.5298 133.425 343.5298C133.425 343.5298 133.425 343.5298 133.425 343.5298C133.425 343.5298 133.425 343.5298 133.425 343.5298C133.425 343.5298 133.425 343.5298 133.425 343.5298Z" fill-rule="nonzero"/><path fill="#4285f4" clip-path="url(#id_0)" d="M138.17143 343.42215C138.17143 343.42215 138.17143 343.42215 138.17143 343.42215C138.17143 343.42215 138.17143 343.42215 138.17143 343.42215C138.17143 343.42215 138.17143 343.42215 138.17143 343.42215C138.17143 343.42215 138.17143 343.42215 138.17143 343.42215Z" fill-rule="nonzero"/><path fill="#4285f4" clip-path="url(#id_0)" d="M142.91786 343.27078C142.91786 343.27078 142.91786 343.27078 142.91786 343.27078C142.91786 343.27078 142.91786 343.27078 142.91786 343.27078C142.91786 343.27078 142.91786 343.27078 142.91786 343.27078C142.91786 343.27078 142.91786 343.27078 142.91786 343.27078Z" fill-rule="nonzero"/><path fill="#4285f4" clip-path="url(#id_0)" d="M147.66429 343.06113C147.66429 343.06113 147.66429 343.06113 147.66429 343.06113C147.66429 343.06113 147.66429 343.06113 147.66429 343.06113C147.66429 343.06113 147.66429 343.06113 147.66429 343.06113C147.66429 343.06113 147.66429 343.06113 147.66429 343.06113Z" fill-rule="nonzero"/><path fill="#4285f4" clip-path="url(#id_0)" d="M152.41072 342.76627C152.41072 342.76627 152.41072 342.76627 152.41072 342.76627C152.41072 342.76627 152.41072 342.76627 152.41072 342.76627C152.41072 342.76627 152.41072 342.76627 152.41072 342.76627C152.41072 342.76627 152.41072 342.76627 152.41072 342.76627Z" fill-rule="nonzero"/><path fill="#4285f4" clip-path="url(#id_0)" d="M157.15715 342.35254C157.15715 342.35254 157.15715 342.35254 157.15715 342.35254C157.15715 342.35254 157.15715 342.35254 157.15715 342.35254C157.15715 342.35254 157.15715 342.35254 157.15715 342.35254C157.15715 342.35254 157.15715 342.35254 157.15715 342.35254Z" fill-rule="nonzero"/><path fill="#4285f4" clip-path="url(#id_0)" d="M161.90356 341.77512C161.90356 341.77512 161.90356 341.77512 161.90356 341.77512C161.90356 341.77512 161.90356 341.77512 161.90356 341.77512C161.90356 341.77512 161.90356 341.77512 161.90356 341.77512C161.90356 341.77512 161.90356 341.77512 161.90356 341.77512Z" fill-rule="nonzero"/><path fill="#4285f4" clip-path="url(#id_0)" d="M166.65 340.96448C166.65 340.96448 166.65 340.96448 166.65 340.96448C166.65 340.96448 166.65 340.96448 166.65 340.96448C166.65 340.96448 166.65 340.96448 166.65 340.96448C166.65 340.96448 166.65 340.96448 166.65 340.96448Z" fill-rule="nonzero"/><path fill="#4285f4" clip-path="url(#id_0)" d="M171.39642 340.11572C171.39642 340.11572 171.39642 340.11572 171.39642 340.11572C171.39642 340.11572 171.39642 340.11572 171.39642 340.11572C171.39642 340.11572 171.39642 340.11572 171.39642 340.11572C171.39642 340.11572 171.39642 340.11572 171.39642 340.11572Z" fill-rule="nonzero"/><path fill="#4285f4" clip-path="url(#id_0)" d="M176.14285 339.01022C176.14285 339.01022 176.14285 339.01022 176.14285 339.01022C176.14285 339.01022 176.14285 339.01022 176.14285 339.01022C176.14285 339.01022 176.14285 339.01022 176.14285 339.01022C176.14285 339.01022 176.14285 339.01022 176.14285 339.01022Z" fill-rule="nonzero"/><path fill="#4285f4" clip-path="url(#id_0)" d="M180.88928 337.57285C180.88928 337.57285 180.88928 337.57285 180.88928 337.57285C180.88928 337.57285 180.88928 337.57285 180.88928 337.57285C180.88928 337.57285 180.88928 337.57285 180.88928 337.57285C180.88928 337.57285 180.88928 337.57285 180.88928 337.57285Z" fill-rule="nonzero"/><path fill="#4285f4" clip-path="url(#id_0)" d="M185.63571 335.70493C185.63571 335.70493 185.63571 335.70493 185.63571 335.70493C185.63571 335.70493 185.63571 335.70493 185.63571 335.70493C185.63571 335.70493 185.63571 335.70493 185.63571 335.70493C185.63571 335.70493 185.63571 335.70493 185.63571 335.70493Z" fill-rule="nonzero"/><path fill="#4285f4" clip-path="url(#id_0)" d="M190.38214 333.27753C190.38214 333.27753 190.38214 333.27753 190.38214 333.27753C190.38214 333.27753 190.38214 333.27753 190.38214 333.27753C190.38214 333.27753 190.38214 333.27753 190.38214 333.27753C190.38214 333.27753 190.38214 333.27753 190.38214 333.27753Z" fill-rule="nonzero"/><path fill="#4285f4" clip-path="url(#id_0)" d="M195.12857 332.22586C195.12857 332.22586 195.12857 332.22586 195.12857 332.22586C195.12857 332.22586 195.12857 332.22586 195.12857 332.22586C195.12857 332.22586 195.12857 332.22586 195.12857 332.22586C195.12857 332.22586 195.12857 332.22586 195.12857 332.22586Z" fill-rule="nonzero"/><path fill="#4285f4" clip-path="url(#id_0)" d="M199.875 331.0699C199.875 331.0699 199.875 331.0699 199.875 331.0699C199.875 331.0699 199.875 331.0699 199.875 331.0699C199.875 331.0699 199.875 331.0699 199.875 331.0699C199.875 331.0699 199.875 331.0699 199.875 331.0699Z" fill-rule="nonzero"/><path fill="#4285f4" clip-path="url(#id_0)" d="M204.62143 329.7962C204.62143 329.7962 204.62143 329.7962 204.62143 329.7962C204.62143 329.7962 204.62143 329.7962 204.62143 329.7962C204.62143 329.7962 204.62143 329.7962 204.62143 329.7962C204.62143 329.7962 204.62143 329.7962 204.62143 329.7962Z" fill-rule="nonzero"/><path fill="#4285f4" clip-path="url(#id_0)" d="M209.36786 328.39807C209.36786 328.39807 209.36786 328.39807 209.36786 328.39807C209.36786 328.39807 209.36786 328.39807 209.36786 328.39807C209.36786 328.39807 209.36786 328.39807 209.36786 328.39807C209.36786 328.39807 209.36786 328.39807 209.36786 328.39807Z" fill-rule="nonzero"/><path fill="#4285f4" clip-path="url(#id_0)" d="M214.11429 326.85867C214.11429 326.85867 214.11429 326.85867 214.11429 326.85867C214.11429 326.85867 214.11429 326.85867 214.11429 326.85867C214.11429 326.85867 214.11429 326.85867 214.11429 326.85867C214.11429 326.85867 214.11429 326.85867 214.11429 326.85867Z" fill-rule="nonzero"/><path fill="#4285f4" clip-path="url(#id_0)" d="M218.86072 325.16452C218.86072 325.16452 218.86072 325.16452 218.86072 325.16452C218.86072 325.16452 218.86072 325.16452 218.86072 325.16452C218.86072 325.16452 218.86072 325.16452 218.86072 325.16452C218.86072 325.16452 218.86072 325.16452 218.86072 325.16452Z" fill-rule="nonzero"/><path fill="#4285f4" clip-path="url(#id_0)" d="M223.60715 323.30222C223.60715 323.30222 223.60715 323.30222 223.60715 323.30222C223.60715 323.30222 223.60715 323.30222 223.60715 323.30222C223.60715 323.30222 223.60715 323.30222 223.60715 323.30222C223.60715 323.30222 223.60715 323.30222 223.60715 323.30222Z" fill-rule="nonzero"/><path fill="#4285f4" clip-path="url(#id_0)" d="M228.35358 321.25378C228.35358 321.25378 228.35358 321.25378 228.35358 321.25378C228.35358 321.25378 228.35358 321.25378 228.35358 321.25378C228.35358 321.25378 228.35358 321.25378 228.35358 321.25378C228.35358 321.25378 228.35358 321.25378 228.35358 321.25378Z" fill-rule="nonzero"/><path fill="#4285f4" clip-path="url(#id_0)" d="M233.1 318.99905C233.1 318.99905 233.1 318.99905 233.1 318.99905C233.1 318.99905 233.1 318.99905 233.1 318.99905C233.1 318.99905 233.1 318.99905 233.1 318.99905C233.1 318.99905 233.1 318.99905 233.1 318.99905Z" fill-rule="nonzero"/><path fill="#4285f4" clip-path="url(#id_0)" d="M237.84644 316.52008C237.84644 316.52008 237.84644 316.52008 237.84644 316.52008C237.84644 316.52008 237.84644 316.52008 237.84644 316.52008C237.84644 316.52008 237.84644 316.52008 237.84644 316.52008C237.84644 316.52008 237.84644 316.52008 237.84644 316.52008Z" fill-rule="nonzero"/><path fill="#4285f4" clip-path="url(#id_0)" d="M242.59285 315.70273C242.59285 315.70273 242.59285 315.70273 242.59285 315.70273C242.59285 315.70273 242.59285 315.70273 242.59285 315.70273C242.59285 315.70273 242.59285 315.70273 242.59285 315.70273C242.59285 315.70273 242.59285 315.70273 242.59285 315.70273Z" fill-rule="nonzero"/><path fill="#4285f4" clip-path="url(#id_0)" d="M247.33928 314.86182C247.33928 314.86182 247.33928 314.86182 247.33928 314.86182C247.33928 314.86182 247.33928 314.86182 247.33928 314.86182C247.33928 314.86182 247.33928 314.86182 247.33928 314.86182C247.33928 314.86182 247.33928 314.86182 247.33928 314.86182Z" fill-rule="nonzero"/><path fill="#4285f4" clip-path="url(#id_0)" d="M252.08571 313.9929C252.08571 313.9929 252.08571 313.9929 252.08571 313.9929C252.08571 313.9929 252.08571 313.9929 252.08571 313.9929C252.08571 313.9929 252.08571 313.9929 252.08571 313.9929C252.08571 313.9929 252.08571 313.9929 252.08571 313.9929Z" fill-rule="nonzero"/><path fill="#4285f4" clip-path="url(#id_0)" d="M256.83215 313.10043C256.83215 313.10043 256.83215 313.10043 256.83215 313.10043C256.83215 313.10043 256.83215 313.10043 256.83215 313.10043C256.83215 313.10043 256.83215 313.10043 256.83215 313.10043C256.83215 313.10043 256.83215 313.10043 256.83215 313.10043Z" fill-rule="nonzero"/><path fill="#4285f4" clip-path="url(#id_0)" d="M261.57858 312.17993C261.57858 312.17993 261.57858 312.17993 261.57858 312.17993C261.57858 312.17993 261.57858 312.17993 261.57858 312.17993C261.57858 312.17993 261.57858 312.17993 261.57858 312.17993C261.57858 312.17993 261.57858 312.17993 261.57858 312.17993Z" fill-rule="nonzero"/><path fill="#4285f4" clip-path="url(#id_0)" d="M266.325 311.2325C266.325 311.2325 266.325 311.2325 266.325 311.2325C266.325 311.2325 266.325 311.2325 266.325 311.2325C266.325 311.2325 266.325 311.2325 266.325 311.2325C266.325 311.2325 266.325 311.2325 266.325 311.2325Z" fill-rule="nonzero"/><path fill="#4285f4" clip-path="url(#id_0)" d="M271.07144 310.25705C271.07144 310.25705 271.07144 310.25705 271.07144 310.25705C271.07144 310.25705 271.07144 310.25705 271.07144 310.25705C271.07144 310.25705 271.07144 310.25705 271.07144 310.25705C271.07144 310.25705 271.07144 310.25705 271.07144 310.25705Z" fill-rule="nonzero"/><path fill="#4285f4" clip-path="url(#id_0)" d="M275.81787 309.2491C275.81787 309.2491 275.81787 309.2491 275.81787 309.2491C275.81787 309.2491 275.81787 309.2491 275.81787 309.2491C275.81787 309.2491 275.81787 309.2491 275.81787 309.2491C275.81787 309.2491 275.81787 309.2491 275.81787 309.2491Z" fill-rule="nonzero"/><path fill="#4285f4" clip-path="url(#id_0)" d="M280.5643 308.21536C280.5643 308.21536 280.5643 308.21536 280.5643 308.21536C280.5643 308.21536 280.5643 308.21536 280.5643 308.21536C280.5643 308.21536 280.5643 308.21536 280.5643 308.21536C280.5643 308.21536 280.5643 308.21536 280.5643 308.21536Z" fill-rule="nonzero"/><path fill="#4285f4" clip-path="url(#id_0)" d="M285.3107 307.14685C285.3107 307.14685 285.3107 307.14685 285.3107 307.14685C285.3107 307.14685 285.3107 307.14685 285.3107 307.14685C285.3107 307.14685 285.3107 307.14685 285.3107 307.14685C285.3107 307.14685 285.3107 307.14685 285.3107 307.14685Z" fill-rule="nonzero"/><path fill="#4285f4" clip-path="url(#id_0)" d="M290.05713 306.41583C290.05713 306.41583 290.05713 306.41583 290.05713 306.41583C290.05713 306.41583 290.05713 306.41583 290.05713 306.41583C290.05713 306.41583 290.05713 306.41583 290.05713 306.41583C290.05713 306.41583 290.05713 306.41583 290.05713 306.41583Z" fill-rule="nonzero"/><path fill="#4285f4" clip-path="url(#id_0)" d="M294.80356 305.668C294.80356 305.668 294.80356 305.668 294.80356 305.668C294.80356 305.668 294.80356 305.668 294.80356 305.668C294.80356 305.668 294.80356 305.668 294.80356 305.668C294.80356 305.668 294.80356 305.668 294.80356 305.668Z" fill-rule="nonzero"/><path fill="#4285f4" clip-path="url(#id_0)" d="M299.55 304.90558C299.55 304.90558 299.55 304.90558 299.55 304.90558C299.55 304.90558 299.55 304.90558 299.55 304.90558C299.55 304.90558 299.55 304.90558 299.55 304.90558C299.55 304.90558 299.55 304.90558 299.55 304.90558Z" fill-rule="nonzero"/><path fill="#4285f4" clip-path="url(#id_0)" d="M304.29642 304.12747C304.29642 304.12747 304.29642 304.12747 304.29642 304.12747C304.29642 304.12747 304.29642 304.12747 304.29642 304.12747C304.29642 304.12747 304.29642 304.12747 304.29642 304.12747C304.29642 304.12747 304.29642 304.12747 304.29642 304.12747Z" fill-rule="nonzero"/><path fill="#4285f4" clip-path="url(#id_0)" d="M309.04285 303.33478C309.04285 303.33478 309.04285 303.33478 309.04285 303.33478C309.04285 303.33478 309.04285 303.33478 309.04285 303.33478C309.04285 303.33478 309.04285 303.33478 309.04285 303.33478C309.04285 303.33478 309.04285 303.33478 309.04285 303.33478Z" fill-rule="nonzero"/><path fill="#4285f4" clip-path="url(#id_0)" d="M313.78928 302.52527C313.78928 302.52527 313.78928 302.52527 313.78928 302.52527C313.78928 302.52527 313.78928 302.52527 313.78928 302.52527C313.78928 302.52527 313.78928 302.52527 313.78928 302.52527C313.78928 302.52527 313.78928 302.52527 313.78928 302.52527Z" fill-rule="nonzero"/><path fill="#4285f4" clip-path="url(#id_0)" d="M318.5357 301.70007C318.5357 301.70007 318.5357 301.70007 318.5357 301.70007C318.5357 301.70007 318.5357 301.70007 318.5357 301.70007C318.5357 301.70007 318.5357 301.70007 318.5357 301.70007C318.5357 301.70007 318.5357 301.70007 318.5357 301.70007Z" fill-rule="nonzero"/><path fill="#4285f4" clip-path="url(#id_0)" d="M323.28214 300.85916C323.28214 300.85916 323.28214 300.85916 323.28214 300.85916C323.28214 300.85916 323.28214 300.85916 323.28214 300.85916C323.28214 300.85916 323.28214 300.85916 323.28214 300.85916C323.28214 300.85916 323.28214 300.85916 323.28214 300.85916Z" fill-rule="nonzero"/><path fill="#4285f4" clip-path="url(#id_0)" d="M328.02856 300.00143C328.02856 300.00143 328.02856 300.00143 328.02856 300.00143C328.02856 300.00143 328.02856 300.00143 328.02856 300.00143C328.02856 300.00143 328.02856 300.00143 328.02856 300.00143C328.02856 300.00143 328.02856 300.00143 328.02856 300.00143Z" fill-rule="nonzero"/><path fill="#4285f4" clip-path="url(#id_0)" d="M332.775 299.12466C332.775 299.12466 332.775 299.12466 332.775 299.12466C332.775 299.12466 332.775 299.12466 332.775 299.12466C332.775 299.12466 332.775 299.12466 332.775 299.12466C332.775 299.12466 332.775 299.12466 332.775 299.12466Z" fill-rule="nonzero"/><path fill="#4285f4" clip-path="url(#id_0)" d="M337.52142 298.45642C337.52142 298.45642 337.52142 298.45642 337.52142 298.45642C337.52142 298.45642 337.52142 298.45642 337.52142 298.45642C337.52142 298.45642 337.52142 298.45642 337.52142 298.45642C337.52142 298.45642 337.52142 298.45642 337.52142 298.45642Z" fill-rule="nonzero"/><path fill="#4285f4" clip-path="url(#id_0)" d="M342.26785 297.77585C342.26785 297.77585 342.26785 297.77585 342.26785 297.77585C342.26785 297.77585 342.26785 297.77585 342.26785 297.77585C342.26785 297.77585 342.26785 297.77585 342.26785 297.77585C342.26785 297.77585 342.26785 297.77585 342.26785 297.77585Z" fill-rule="nonzero"/><path fill="#4285f4" clip-path="url(#id_0)" d="M347.01428 297.08633C347.01428 297.08633 347.01428 297.08633 347.01428 297.08633C347.01428 297.08633 347.01428 297.08633 347.01428 297.08633C347.01428 297.08633 347.01428 297.08633 347.01428 297.08633C347.01428 297.08633 347.01428 297.08633 347.01428 297.08633Z" fill-rule="nonzero"/><path fill="#4285f4" clip-path="url(#id_0)" d="M351.7607 296.38556C351.7607 296.38556 351.7607 296.38556 351.7607 296.38556C351.7607 296.38556 351.7607 296.38556 351.7607 296.38556C351.7607 296.38556 351.7607 296.38556 351.7607 296.38556C351.7607 296.38556 351.7607 296.38556 351.7607 296.38556Z" fill-rule="nonzero"/><path fill="#4285f4" clip-path="url(#id_0)" d="M356.50714 295.67584C356.50714 295.67584 356.50714 295.67584 356.50714 295.67584C356.50714 295.67584 356.50714 295.67584 356.50714 295.67584C356.50714 295.67584 356.50714 295.67584 356.50714 295.67584C356.50714 295.67584 356.50714 295.67584 356.50714 295.67584Z" fill-rule="nonzero"/><path fill="#4285f4" clip-path="url(#id_0)" d="M361.25357 294.95493C361.25357 294.95493 361.25357 294.95493 361.25357 294.95493C361.25357 294.95493 361.25357 294.95493 361.25357 294.95493C361.25357 294.95493 361.25357 294.95493 361.25357 294.95493C361.25357 294.95493 361.25357 294.95493 361.25357 294.95493Z" fill-rule="nonzero"/><path fill="#4285f4" clip-path="url(#id_0)" d="M366.0 294.22165C366.0 294.22165 366.0 294.22165 366.0 294.22165C366.0 294.22165 366.0 294.22165 366.0 294.22165C366.0 294.22165 366.0 294.22165 366.0 294.22165C366.0 294.22165 366.0 294.22165 366.0 294.22165Z" fill-rule="nonzero"/><path fill="#4285f4" clip-path="url(#id_0)" d="M370.74643 293.47943C370.74643 293.47943 370.74643 293.47943 370.74643 293.47943C370.74643 293.47943 370.74643 293.47943 370.74643 293.47943C370.74643 293.47943 370.74643 293.47943 370.74643 293.47943C370.74643 293.47943 370.74643 293.47943 370.74643 293.47943Z" fill-rule="nonzero"/><path fill="#4285f4" clip-path="url(#id_0)" d="M375.49286 292.72485C375.49286 292.72485 375.49286 292.72485 375.49286 292.72485C375.49286 292.72485 375.49286 292.72485 375.49286 292.72485C375.49286 292.72485 375.49286 292.72485 375.49286 292.72485C375.49286 292.72485 375.49286 292.72485 375.49286 292.72485Z" fill-rule="nonzero"/><path fill="#4285f4" clip-path="url(#id_0)" d="M380.2393 291.95795C380.2393 291.95795 380.2393 291.95795 380.2393 291.95795C380.2393 291.95795 380.2393 291.95795 380.2393 291.95795C380.2393 291.95795 380.2393 291.95795 380.2393 291.95795C380.2393 291.95795 380.2393 291.95795 380.2393 291.95795Z" fill-rule="nonzero"/><path fill="#4285f4" clip-path="url(#id_0)" d="M384.98572 291.1821C384.98572 291.1821 384.98572 291.1821 384.98572 291.1821C384.98572 291.1821 384.98572 291.1821 384.98572 291.1821C384.98572 291.1821 384.98572 291.1821 384.98572 291.1821C384.98572 291.1821 384.98572 291.1821 384.98572 291.1821Z" fill-rule="nonzero"/><path fill="#4285f4" clip-path="url(#id_0)" d="M389.73215 290.3939C389.73215 290.3939 389.73215 290.3939 389.73215 290.3939C389.73215 290.3939 389.73215 290.3939 389.73215 290.3939C389.73215 290.3939 389.73215 290.3939 389.73215 290.3939C389.73215 290.3939 389.73215 290.3939 389.73215 290.3939Z" fill-rule="nonzero"/><path fill="#4285f4" clip-path="url(#id_0)" d="M394.47858 289.59335C394.47858 289.59335 394.47858 289.59335 394.47858 289.59335C394.47858 289.59335 394.47858 289.59335 394.47858 289.59335C394.47858 289.59335 394.47858 289.59335 394.47858 289.59335C394.47858 289.59335 394.47858 289.59335 394.47858 289.59335Z" fill-rule="nonzero"/><path fill="#4285f4" clip-path="url(#id_0)" d="M399.225 288.77936C399.225 288.77936 399.225 288.77936 399.225 288.77936C399.225 288.77936 399.225 288.77936 399.225 288.77936C399.225 288.77936 399.225 288.77936 399.225 288.77936C399.225 288.77936 399.225 288.77936 399.225 288.77936Z" fill-rule="nonzero"/><path fill="#4285f4" clip-path="url(#id_0)" d="M403.97144 287.9564C403.97144 287.9564 403.97144 287.9564 403.97144 287.9564C403.97144 287.9564 403.97144 287.9564 403.97144 287.9564C403.97144 287.9564 403.97144 287.9564 403.97144 287.9564C403.97144 287.9564 403.97144 287.9564 403.97144 287.9564Z" fill-rule="nonzero"/><path fill="#4285f4" clip-path="url(#id_0)" d="M408.71786 287.11774C408.71786 287.11774 408.71786 287.11774 408.71786 287.11774C408.71786 287.11774 408.71786 287.11774 408.71786 287.11774C408.71786 287.11774 408.71786 287.11774 408.71786 287.11774C408.71786 287.11774 408.71786 287.11774 408.71786 287.11774Z" fill-rule="nonzero"/><path fill="#4285f4" clip-path="url(#id_0)" d="M413.4643 286.26898C413.4643 286.26898 413.4643 286.26898 413.4643 286.26898C413.4643 286.26898 413.4643 286.26898 413.4643 286.26898C413.4643 286.26898 413.4643 286.26898 413.4643 286.26898C413.4643 286.26898 413.4643 286.26898 413.4643 286.26898Z" fill-rule="nonzero"/><path fill="#4285f4" clip-path="url(#id_0)" d="M418.21072 285.40567C418.21072 285.40567 418.21072 285.40567 418.21072 285.40567C418.21072 285.40567 418.21072 285.40567 418.21072 285.40567C418.21072 285.40567 418.21072 285.40567 418.21072 285.40567C418.21072 285.40567 418.21072 285.40567 418.21072 285.40567Z" fill-rule="nonzero"/><path fill="#4285f4" clip-path="url(#id_0)" d="M422.95715 284.52887C422.95715 284.52887 422.95715 284.52887 422.95715 284.52887C422.95715 284.52887 422.95715 284.52887 422.95715 284.52887C422.95715 284.52887 422.95715 284.52887 422.95715 284.52887C422.95715 284.52887 422.95715 284.52887 422.95715 284.52887Z" fill-rule="nonzero"/><path fill="#4285f4" clip-path="url(#id_0)" d="M427.70358 283.64203C427.70358 283.64203 427.70358 283.64203 427.70358 283.64203C427.70358 283.64203 427.70358 283.64203 427.70358 283.64203C427.70358 283.64203 427.70358 283.64203 427.70358 283.64203C427.70358 283.64203 427.70358 283.64203 427.70358 283.64203Z" fill-rule="nonzero"/><path fill="#4285f4" clip-path="url(#id_0)" d="M432.45 282.73944C432.45 282.73944 432.45 282.73944 432.45 282.73944C432.45 282.73944 432.45 282.73944 432.45 282.73944C432.45 282.73944 432.45 282.73944 432.45 282.73944C432.45 282.73944 432.45 282.73944 432.45 282.73944Z" fill-rule="nonzero"/><path fill="#4285f4" clip-path="url(#id_0)" d="M437.19644 281.82455C437.19644 281.82455 437.19644 281.82455 437.19644 281.82455C437.19644 281.82455 437.19644 281.82455 437.19644 281.82455C437.19644 281.82455 437.19644 281.82455 437.19644 281.82455C437.19644 281.82455 437.19644 281.82455 437.19644 281.82455Z" fill-rule="nonzero"/><path fill="#4285f4" clip-path="url(#id_0)" d="M441.94287 280.89508C441.94287 280.89508 441.94287 280.89508 441.94287 280.89508C441.94287 280.89508 441.94287 280.89508 441.94287 280.89508C441.94287 280.89508 441.94287 280.89508 441.94287 280.89508C441.94287 280.89508 441.94287 280.89508 441.94287 280.89508Z" fill-rule="nonzero"/><path fill="#4285f4" clip-path="url(#id_0)" d="M446.6893 279.95215C446.6893 279.95215 446.6893 279.95215 446.6893 279.95215C446.6893 279.95215 446.6893 279.95215 446.6893 279.95215C446.6893 279.95215 446.6893 279.95215 446.6893 279.95215C446.6893 279.95215 446.6893 279.95215 446.6893 279.95215Z" fill-rule="nonzero"/><path fill="#4285f4" clip-path="url(#id_0)" d="M451.4357 278.99463C451.4357 278.99463 451.4357 278.99463 451.4357 278.99463C451.4357 278.99463 451.4357 278.99463 451.4357 278.99463C451.4357 278.99463 451.4357 278.99463 451.4357 278.99463C451.4357 278.99463 451.4357 278.99463 451.4357 278.99463Z" fill-rule="nonzero"/><path fill="#4285f4" clip-path="url(#id_0)" d="M456.18213 275.4169C456.18213 275.4169 456.18213 275.4169 456.18213 275.4169C456.18213 275.4169 456.18213 275.4169 456.18213 275.4169C456.18213 275.4169 456.18213 275.4169 456.18213 275.4169C456.18213 275.4169 456.18213 275.4169 456.18213 275.4169Z" fill-rule="nonzero"/><path fill="#4285f4" clip-path="url(#id_0)" d="M460.92856 271.6418C460.92856 271.6418 460.92856 271.6418 460.92856 271.6418C460.92856 271.6418 460.92856 271.6418 460.92856 271.6418C460.92856 271.6418 460.92856 271.6418 460.92856 271.6418C460.92856 271.6418 460.92856 271.6418 460.92856 271.6418Z" fill-rule="nonzero"/><path fill="#4285f4" clip-path="url(#id_0)" d="M465.675 267.65707C465.675 267.65707 465.675 267.65707 465.675 267.65707C465.675 267.65707 465.675 267.65707 465.675 267.65707C465.675 267.65707 465.675 267.65707 465.675 267.65707C465.675 267.65707 465.675 267.65707 465.675 267.65707Z" fill-rule="nonzero"/><path fill="#4285f4" clip-path="url(#id_0)" d="M470.42142 263.45367C470.42142 263.45367 470.42142 263.45367 470.42142 263.45367C470.42142 263.45367 470.42142 263.45367 470.42142 263.45367C470.42142 263.45367 470.42142 263.45367 470.42142 263.45367C470.42142 263.45367 470.42142 263.45367 470.42142 263.45367Z" fill-rule="nonzero"/><path fill="#4285f4" clip-path="url(#id_0)" d="M475.16785 259.0171C475.16785 259.0171 475.16785 259.0171 475.16785 259.0171C475.16785 259.0171 475.16785 259.0171 475.16785 259.0171C475.16785 259.0171 475.16785 259.0171 475.16785 259.0171C475.16785 259.0171 475.16785 259.0171 475.16785 259.0171Z" fill-rule="nonzero"/><path fill="#4285f4" clip-path="url(#id_0)" d="M479.91428 254.3372C479.91428 254.3372 479.91428 254.3372 479.91428 254.3372C479.91428 254.3372 479.91428 254.3372 479.91428 254.3372C479.91428 254.3372 479.91428 254.3372 479.91428 254.3372C479.91428 254.3372 479.91428 254.3372 479.91428 254.3372Z" fill-rule="nonzero"/><path fill="#4285f4" clip-path="url(#id_0)" d="M484.6607 249.39833C484.6607 249.39833 484.6607 249.39833 484.6607 249.39833C484.6607 249.39833 484.6607 249.39833 484.6607 249.39833C484.6607 249.39833 484.6607 249.39833 484.6607 249.39833C484.6607 249.39833 484.6607 249.39833 484.6607 249.39833Z" fill-rule="nonzero"/><path fill="#4285f4" clip-path="url(#id_0)" d="M489.40714 244.18587C489.40714 244.18587 489.40714 244.18587 489.40714 244.18587C489.40714 244.18587 489.40714 244.18587 489.40714 244.18587C489.40714 244.18587 489.40714 244.18587 489.40714 244.18587C489.40714 244.18587 489.40714 244.18587 489.40714 244.18587Z" fill-rule="nonzero"/><path fill="#4285f4" clip-path="url(#id_0)" d="M494.15356 238.68526C494.15356 238.68526 494.15356 238.68526 494.15356 238.68526C494.15356 238.68526 494.15356 238.68526 494.15356 238.68526C494.15356 238.68526 494.15356 238.68526 494.15356 238.68526C494.15356 238.68526 494.15356 238.68526 494.15356 238.68526Z" fill-rule="nonzero"/><path fill="#4285f4" clip-path="url(#id_0)" d="M498.9 232.88193C498.9 232.88193 498.9 232.88193 498.9 232.88193C498.9 232.88193 498.9 232.88193 498.9 232.88193C498.9 232.88193 498.9 232.88193 498.9 232.88193C498.9 232.88193 498.9 232.88193 498.9 232.88193Z" fill-rule="nonzero"/><path fill="#4285f4" clip-path="url(#id_0)" d="M503.64642 226.75793C503.64642 226.75793 503.64642 226.75793 503.64642 226.75793C503.64642 226.75793 503.64642 226.75793 503.64642 226.75793C503.64642 226.75793 503.64642 226.75793 503.64642 226.75793C503.64642 226.75793 503.64642 226.75793 503.64642 226.75793Z" fill-rule="nonzero"/><path fill="#4285f4" clip-path="url(#id_0)" d="M508.39285 220.29533C508.39285 220.29533 508.39285 220.29533 508.39285 220.29533C508.39285 220.29533 508.39285 220.29533 508.39285 220.29533C508.39285 220.29533 508.39285 220.29533 508.39285 220.29533C508.39285 220.29533 508.39285 220.29533 508.39285 220.29533Z" fill-rule="nonzero"/><path fill="#4285f4" clip-path="url(#id_0)" d="M513.1393 213.47733C513.1393 213.47733 513.1393 213.47733 513.1393 213.47733C513.1393 213.47733 513.1393 213.47733 513.1393 213.47733C513.1393 213.47733 513.1393 213.47733 513.1393 213.47733C513.1393 213.47733 513.1393 213.47733 513.1393 213.47733Z" fill-rule="nonzero"/><path fill="#4285f4" clip-path="url(#id_0)" d="M517.88574 206.28033C517.88574 206.28033 517.88574 206.28033 517.88574 206.28033C517.88574 206.28033 517.88574 206.28033 517.88574 206.28033C517.88574 206.28033 517.88574 206.28033 517.88574 206.28033C517.88574 206.28033 517.88574 206.28033 517.88574 206.28033Z" fill-rule="nonzero"/><path fill="#4285f4" clip-path="url(#id_0)" d="M522.63214 198.68758C522.63214 198.68758 522.63214 198.68758 522.63214 198.68758C522.63214 198.68758 522.63214 198.68758 522.63214 198.68758C522.63214 198.68758 522.63214 198.68758 522.63214 198.68758C522.63214 198.68758 522.63214 198.68758 522.63214 198.68758Z" fill-rule="nonzero"/><path fill="#4285f4" clip-path="url(#id_0)" d="M527.3786 190.67659C527.3786 190.67659 527.3786 190.67659 527.3786 190.67659C527.3786 190.67659 527.3786 190.67659 527.3786 190.67659C527.3786 190.67659 527.3786 190.67659 527.3786 190.67659C527.3786 190.67659 527.3786 190.67659 527.3786 190.67659Z" fill-rule="nonzero"/><path fill="#4285f4" clip-path="url(#id_0)" d="M532.125 182.2205C532.125 182.2205 532.125 182.2205 532.125 182.2205C532.125 182.2205 532.125 182.2205 532.125 182.2205C532.125 182.2205 532.125 182.2205 532.125 182.2205C532.125 182.2205 532.125 182.2205 532.125 182.2205Z" fill-rule="nonzero"/><path fill="#4285f4" clip-path="url(#id_0)" d="M536.8714 173.29912C536.8714 173.29912 536.8714 173.29912 536.8714 173.29912C536.8714 173.29912 536.8714 173.29912 536.8714 173.29912C536.8714 173.29912 536.8714 173.29912 536.8714 173.29912C536.8714 173.29912 536.8714 173.29912 536.8714 173.29912Z" fill-rule="nonzero"/><path fill="#4285f4" clip-path="url(#id_0)" d="M541.61786 163.88551C541.61786 163.88551 541.61786 163.88551 541.61786 163.88551C541.61786 163.88551 541.61786 163.88551 541.61786 163.88551C541.61786 163.88551 541.61786 163.88551 541.61786 163.88551C541.61786 163.88551 541.61786 163.88551 541.61786 163.88551Z" fill-rule="nonzero"/><path fill="#4285f4" clip-path="url(#id_0)" d="M546.36426 153.9528C546.36426 153.9528 546.36426 153.9528 546.36426 153.9528C546.36426 153.9528 546.36426 153.9528 546.36426 153.9528C546.36426 153.9528 546.36426 153.9528 546.36426 153.9528C546.36426 153.9528 546.36426 153.9528 546.36426 153.9528Z" fill-rule="nonzero"/><path fill="#4285f4" clip-path="url(#id_0)" d="M551.1107 143.46959C551.1107 143.46959 551.1107 143.46959 551.1107 143.46959C551.1107 143.46959 551.1107 143.46959 551.1107 143.46959C551.1107 143.46959 551.1107 143.46959 551.1107 143.46959C551.1107 143.46959 551.1107 143.46959 551.1107 143.46959Z" fill-rule="nonzero"/><path fill="#4285f4" clip-path="url(#id_0)" d="M555.8571 132.40784C555.8571 132.40784 555.8571 132.40784 555.8571 132.40784C555.8571 132.40784 555.8571 132.40784 555.8571 132.40784C555.8571 132.40784 555.8571 132.40784 555.8571 132.40784C555.8571 132.40784 555.8571 132.40784 555.8571 132.40784Z" fill-rule="nonzero"/><path fill="#4285f4" clip-path="url(#id_0)" d="M560.6036 120.73614C560.6036 120.73614 560.6036 120.73614 560.6036 120.73614C560.6036 120.73614 560.6036 120.73614 560.6036 120.73614C560.6036 120.73614 560.6036 120.73614 560.6036 120.73614C560.6036 120.73614 560.6036 120.73614 560.6036 120.73614Z" fill-rule="nonzero"/><path fill="#4285f4" clip-path="url(#id_0)" d="M565.35 108.420876C565.35 108.420876 565.35 108.420876 565.35 108.420876C565.35 108.420876 565.35 108.420876 565.35 108.420876C565.35 108.420876 565.35 108.420876 565.35 108.420876C565.35 108.420876 565.35 108.420876 565.35 108.420876Z" fill-rule="nonzero"/><path fill="#4285f4" clip-path="url(#id_0)" d="M570.09644 95.42505C570.09644 95.42505 570.09644 95.42505 570.09644 95.42505C570.09644 95.42505 570.09644 95.42505 570.09644 95.42505C570.09644 95.42505 570.09644 95.42505 570.09644 95.42505C570.09644 95.42505 570.09644 95.42505 570.09644 95.42505Z" fill-rule="nonzero"/><path fill="#4285f4" clip-path="url(#id_0)" d="M574.84283 168.8928C574.84283 168.8928 574.84283 168.8928 574.84283 168.8928C574.84283 168.8928 574.84283 168.8928 574.84283 168.8928C574.84283 168.8928 574.84283 168.8928 574.84283 168.8928C574.84283 168.8928 574.84283 168.8928 574.84283 168.8928Z" fill-rule="nonzero"/><path fill="#4285f4" clip-path="url(#id_0)" d="M579.5893 167.14372C579.5893 167.14372 579.5893 167.14372 579.5893 167.14372C579.5893 167.14372 579.5893 167.14372 579.5893 167.14372C579.5893 167.14372 579.5893 167.14372 579.5893 167.14372C579.5893 167.14372 579.5893 167.14372 579.5893 167.14372Z" fill-rule="nonzero"/><path fill="#4285f4" clip-path="url(#id_0)" d="M584.3357 165.37784C584.3357 165.37784 584.3357 165.37784 584.3357 165.37784C584.3357 165.37784 584.3357 165.37784 584.3357 165.37784C584.3357 165.37784 584.3357 165.37784 584.3357 165.37784C584.3357 165.37784 584.3357 165.37784 584.3357 165.37784Z" fill-rule="nonzero"/><path fill="#4285f4" clip-path="url(#id_0)" d="M589.08215 163.59288C589.08215 163.59288 589.08215 163.59288 589.08215 163.59288C589.08215 163.59288 589.08215 163.59288 589.08215 163.59288C589.08215 163.59288 589.08215 163.59288 589.08215 163.59288C589.08215 163.59288 589.08215 163.59288 589.08215 163.59288Z" fill-rule="nonzero"/><path fill="#4285f4" clip-path="url(#id_0)" d="M593.82855 161.79112C593.82855 161.79112 593.82855 161.79112 593.82855 161.79112C593.82855 161.79112 593.82855 161.79112 593.82855 161.79112C593.82855 161.79112 593.82855 161.79112 593.82855 161.79112C593.82855 161.79112 593.82855 161.79112 593.82855 161.79112Z" fill-rule="nonzero"/><path fill="#4285f4" clip-path="url(#id_0)" d="M598.575 159.97253C598.575 159.97253 598.575 159.97253 598.575 159.97253C598.575 159.97253 598.575 159.97253 598.575 159.97253C598.575 159.97253 598.575 159.97253 598.575 159.97253C598.575 159.97253 598.575 159.97253 598.575 159.97253Z" fill-rule="nonzero"/><path fill="#4285f4" clip-path="url(#id_0)" d="M603.3214 158.13489C603.3214 158.13489 603.3214 158.13489 603.3214 158.13489C603.3214 158.13489 603.3214 158.13489 603.3214 158.13489C603.3214 158.13489 603.3214 158.13489 603.3214 158.13489C603.3214 158.13489 603.3214 158.13489 603.3214 158.13489Z" fill-rule="nonzero"/><path fill="#4285f4" clip-path="url(#id_0)" d="M608.0679 156.2793C608.0679 156.2793 608.0679 156.2793 608.0679 156.2793C608.0679 156.2793 608.0679 156.2793 608.0679 156.2793C608.0679 156.2793 608.0679 156.2793 608.0679 156.2793C608.0679 156.2793 608.0679 156.2793 608.0679 156.2793Z" fill-rule="nonzero"/><path fill="#4285f4" clip-path="url(#id_0)" d="M612.8143 154.40353C612.8143 154.40353 612.8143 154.40353 612.8143 154.40353C612.8143 154.40353 612.8143 154.40353 612.8143 154.40353C612.8143 154.40353 612.8143 154.40353 612.8143 154.40353C612.8143 154.40353 612.8143 154.40353 612.8143 154.40353Z" fill-rule="nonzero"/><path fill="#4285f4" clip-path="url(#id_0)" d="M617.5607 152.50983C617.5607 152.50983 617.5607 152.50983 617.5607 152.50983C617.5607 152.50983 617.5607 152.50983 617.5607 152.50983C617.5607 152.50983 617.5607 152.50983 617.5607 152.50983C617.5607 152.50983 617.5607 152.50983 617.5607 152.50983Z" fill-rule="nonzero"/><path fill="#4285f4" clip-path="url(#id_0)" d="M622.3071 150.59706C622.3071 150.59706 622.3071 150.59706 622.3071 150.59706C622.3071 150.59706 622.3071 150.59706 622.3071 150.59706C622.3071 150.59706 622.3071 150.59706 622.3071 150.59706C622.3071 150.59706 622.3071 150.59706 622.3071 150.59706Z" fill-rule="nonzero"/><path fill="#4285f4" clip-path="url(#id_0)" d="M627.0536 148.66635C627.0536 148.66635 627.0536 148.66635 627.0536 148.66635C627.0536 148.66635 627.0536 148.66635 627.0536 148.66635C627.0536 148.66635 627.0536 148.66635 627.0536 148.66635C627.0536 148.66635 627.0536 148.66635 627.0536 148.66635Z" fill-rule="nonzero"/><path fill="#4285f4" clip-path="url(#id_0)" d="M631.8 146.71547C631.8 146.71547 631.8 146.71547 631.8 146.71547C631.8 146.71547 631.8 146.71547 631.8 146.71547C631.8 146.71547 631.8 146.71547 631.8 146.71547C631.8 146.71547 631.8 146.71547 631.8 146.71547Z" fill-rule="nonzero"/><path fill="#424242" d="M22.856237 218.79062Q27.403112 220.75937 30.074987 223.85312L30.543737 223.85312Q30.918737 223.85312 30.918737 223.525L30.918737 220.7125Q30.918737 220.29062 30.449987 220.19687L29.090612 219.86874L29.324987 218.79062L30.824987 219.16562Q31.949987 219.44687 31.949987 220.24374L31.949987 223.94687Q31.949987 224.79062 31.153112 224.79062L30.731237 224.79062Q31.528112 225.91562 32.090614 227.18124L31.012487 227.74374Q30.496862 226.24374 29.371862 224.79062L23.981237 224.79062L23.981237 223.9Q24.074987 223.43124 24.356237 223.85312L28.621862 223.85312Q25.949987 221.18124 22.387487 219.82187L22.856237 218.79062ZM25.809362 218.69687Q27.543737 217.43124 29.231237 216.86874L29.746862 217.99374Q27.871862 218.65 26.371862 219.63437L25.809362 218.69687ZM25.387487 225.5875Q25.528112 225.2125 25.715612 225.63437Q28.199987 225.91562 29.746862 226.57187L29.324987 227.69687Q27.684362 226.9 25.059362 226.61874L25.387487 225.5875ZM21.684362 223.7125Q22.340612 222.16562 23.324987 221.18124L24.262487 221.8375Q23.278112 222.86874 22.574987 224.275L21.684362 223.7125ZM30.778112 209.55624Q31.949987 211.15 32.278114 215.04062L31.387487 215.22812Q31.199987 211.99374 30.449987 210.54062Q30.168737 211.61874 29.981237 212.65L30.309362 212.93124L29.840612 213.775L28.434362 212.50937L28.434362 215.74374L27.684362 215.74374L27.684362 211.9L26.653112 211.15L26.653112 213.63437L26.981237 213.63437L26.981237 214.43124L23.840612 214.43124L23.840612 211.99374L22.809362 211.99374L22.809362 215.4625L22.059362 215.4625L22.059362 205.38437L22.809362 205.38437L22.809362 208.85312L23.840612 208.85312L23.840612 206.41562L26.934362 206.41562L26.934362 207.2125L26.653112 207.2125L26.653112 210.72812L26.887487 210.25937Q27.028112 210.025 27.121862 210.4L27.684362 210.86874L27.684362 205.05624L28.434362 205.05624L28.434362 207.44687Q29.371862 208.00937 30.121862 208.80624Q30.543737 207.30624 31.340612 205.57187L32.184364 206.18124Q31.434362 207.5875 30.778112 209.55624ZM28.434362 211.3375L29.324987 212.13437Q29.465612 211.05624 29.793737 209.74374Q29.231237 208.99374 28.434362 208.57187L28.434362 211.3375ZM22.809362 211.19687L23.840612 211.19687L23.840612 209.65L22.809362 209.65L22.809362 211.19687ZM25.903112 213.63437L25.903112 211.99374L24.590612 211.99374L24.590612 213.63437L25.903112 213.63437ZM24.590612 211.19687L25.903112 211.19687L25.903112 209.65L24.590612 209.65L24.590612 211.19687ZM24.590612 208.85312L25.903112 208.85312L25.903112 207.2125L24.590612 207.2125L24.590612 208.85312ZM24.637487 201.9625L21.684362 201.9625L21.684362 194.8375L24.637487 194.8375L24.637487 201.9625ZM25.949987 203.55624L25.199987 203.55624L25.199987 193.19687L25.949987 193.19687L25.949987 203.55624ZM29.418737 197.97812L29.934362 197.97812L29.934362 194.55624L30.684362 194.55624L30.684362 197.97812L31.246862 197.97812L31.246862 193.05624L31.996862 193.05624L31.996862 203.69687L31.246862 203.69687L31.246862 198.775L30.684362 198.775L30.684362 202.24374L29.934362 202.24374L29.934362 198.775L29.418737 198.775L29.418737 200.36874L29.418737 201.9625L26.512487 201.9625L26.512487 194.8375L29.418737 194.8375L29.418737 197.97812ZM27.684362 195.63437L27.074987 195.63437L27.074987 197.97812L27.684362 197.97812L27.684362 195.63437ZM28.856237 197.97812L28.856237 195.63437L28.246862 195.63437L28.246862 197.97812L28.856237 197.97812ZM22.856237 201.16562L22.856237 195.63437L22.246862 195.63437L22.246862 201.16562L22.856237 201.16562ZM24.074987 201.16562L24.074987 195.63437L23.418737 195.63437L23.418737 201.16562L24.074987 201.16562ZM27.684362 201.16562L27.684362 198.775L27.074987 198.775L27.074987 201.16562L27.684362 201.16562ZM28.856237 201.16562L28.856237 198.775L28.246862 198.775L28.246862 201.16562L28.856237 201.16562Z" fill-rule="nonzero"/><path fill="#757575" d="M93.2625 344.65936Q93.2625 346.5656 92.60625 347.5031Q91.96562 348.425 90.575 348.425Q89.21562 348.425 88.55937 347.51874Q87.90312 346.6125 87.87187 344.8L87.87187 343.3625Q87.87187 341.47186 88.5125 340.5656Q89.16875 339.64374 90.55937 339.64374Q91.93437 339.64374 92.59062 340.53436Q93.24687 341.40936 93.2625 343.2531L93.2625 344.65936ZM92.16875 343.175Q92.16875 341.8 91.77812 341.175Q91.40312 340.53436 90.55937 340.53436Q89.73125 340.53436 89.34062 341.175Q88.96562 341.8 88.96562 343.09686L88.96562 344.83124Q88.96562 346.20624 89.35625 346.8781Q89.7625 347.53436 90.575 347.53436Q91.37187 347.53436 91.7625 346.90936Q92.15312 346.28436 92.16875 344.95624L92.16875 343.175Z" fill-rule="nonzero"/><path fill="#757575" d="M60.403126 287.95874L60.840626 283.70874L65.21562 283.70874L65.21562 284.70874L61.7625 284.70874L61.496876 287.03687Q62.1375 286.66187 62.934376 286.66187Q64.09062 286.66187 64.77812 287.4431Q65.46562 288.20874 65.46562 289.52124Q65.46562 290.83374 64.74687 291.59937Q64.04375 292.365 62.7625 292.365Q61.6375 292.365 60.91875 291.74Q60.2 291.09937 60.10625 289.99L61.121876 289.99Q61.23125 290.72437 61.653126 291.09937Q62.075 291.47437 62.7625 291.47437Q63.5125 291.47437 63.95 290.95874Q64.3875 290.4431 64.3875 289.53687Q64.3875 288.6775 63.91875 288.16187Q63.45 287.64624 62.66875 287.64624Q61.965626 287.64624 61.559376 287.9431L61.278126 288.1775L60.403126 287.95874ZM72.2625 288.59937Q72.2625 290.5056 71.60625 291.4431Q70.96562 292.365 69.575 292.365Q68.21562 292.365 67.55937 291.45874Q66.90312 290.5525 66.87187 288.74L66.87187 287.3025Q66.87187 285.41187 67.5125 284.5056Q68.16875 283.58374 69.55937 283.58374Q70.93437 283.58374 71.59062 284.47437Q72.24687 285.34937 72.2625 287.1931L72.2625 288.59937ZM71.16875 287.115Q71.16875 285.74 70.77812 285.115Q70.40312 284.47437 69.55937 284.47437Q68.73125 284.47437 68.34062 285.115Q67.96562 285.74 67.96562 287.03687L67.96562 288.77124Q67.96562 290.14624 68.35625 290.8181Q68.7625 291.47437 69.575 291.47437Q70.37187 291.47437 70.7625 290.84937Q71.15312 290.22437 71.16875 288.89624L71.16875 287.115ZM79.2625 288.59937Q79.2625 290.5056 78.60625 291.4431Q77.96562 292.365 76.575 292.365Q75.21562 292.365 74.55937 291.45874Q73.90312 290.5525 73.87187 288.74L73.87187 287.3025Q73.87187 285.41187 74.5125 284.5056Q75.16875 283.58374 76.55937 283.58374Q77.93437 283.58374 78.59062 284.47437Q79.24687 285.34937 79.2625 287.1931L79.2625 288.59937ZM78.16875 287.115Q78.16875 285.74 77.77812 285.115Q77.40312 284.47437 76.55937 284.47437Q75.73125 284.47437 75.34062 285.115Q74.96562 285.74 74.96562 287.03687L74.96562 288.77124Q74.96562 290.14624 75.35625 290.8181Q75.7625 291.47437 76.575 291.47437Q77.37187 291.47437 77.7625 290.84937Q78.15312 290.22437 78.16875 288.89624L78.16875 287.115ZM86.2625 288.59937Q86.2625 290.5056 85.60625 291.4431Q84.96562 292.365 83.575 292.365Q82.21562 292.365 81.55937 291.45874Q80.90312 290.5525 80.87187 288.74L80.87187 287.3025Q80.87187 285.41187 81.5125 284.5056Q82.16875 283.58374 83.55937 283.58374Q84.93437 283.58374 85.59062 284.47437Q86.24687 285.34937 86.2625 287.1931L86.2625 288.59937ZM85.16875 287.115Q85.16875 285.74 84.77812 285.115Q84.40312 284.47437 83.55937 284.47437Q82.73125 284.47437 82.34062 285.115Q81.96562 285.74 81.96562 287.03687L81.96562 288.77124Q81.96562 290.14624 82.35625 290.8181Q82.7625 291.47437 83.575 291.47437Q84.37187 291.47437 84.7625 290.84937Q85.15312 290.22437 85.16875 288.89624L85.16875 287.115ZM93.2625 288.59937Q93.2625 290.5056 92.60625 291.4431Q91.96562 292.365 90.575 292.365Q89.21562 292.365 88.55937 291.45874Q87.90312 290.5525 87.87187 288.74L87.87187 287.3025Q87.87187 285.41187 88.5125 284.5056Q89.16875 283.58374 90.55937 283.58374Q91.93437 283.58374 92.59062 284.47437Q93.24687 285.34937 93.2625 287.1931L93.2625 288.59937ZM92.16875 287.115Q92.16875 285.74 91.77812 285.115Q91.40312 284.47437 90.55937 284.47437Q89.73125 284.47437 89.34062 285.115Q88.96562 285.74 88.96562 287.03687L88.96562 288.77124Q88.96562 290.14624 89.35625 290.8181Q89.7625 291.47437 90.575 291.47437Q91.37187 291.47437 91.7625 290.84937Q92.15312 290.22437 92.16875 288.89624L92.16875 287.115Z" fill-rule="nonzero"/><path fill="#757575" d="M56.465626 236.18L55.3875 236.18L55.3875 228.96124L53.2 229.75812L53.2 228.77374L56.309376 227.60187L56.465626 227.60187L56.465626 236.18ZM65.2625 232.53937Q65.2625 234.44562 64.60625 235.38312Q63.965626 236.305 62.575 236.305Q61.215626 236.305 60.559376 235.39874Q59.903126 234.4925 59.871876 232.68L59.871876 231.2425Q59.871876 229.35187 60.5125 228.44562Q61.16875 227.52374 62.559376 227.52374Q63.934376 227.52374 64.59062 228.41437Q65.24687 229.28937 65.2625 231.13312L65.2625 232.53937ZM64.16875 231.055Q64.16875 229.68 63.778126 229.055Q63.403126 228.41437 62.559376 228.41437Q61.73125 228.41437 61.340626 229.055Q60.965626 229.68 60.965626 230.97687L60.965626 232.71124Q60.965626 234.08624 61.35625 234.75812Q61.7625 235.41437 62.575 235.41437Q63.371876 235.41437 63.7625 234.78937Q64.15312 234.16437 64.16875 232.83624L64.16875 231.055ZM72.2625 232.53937Q72.2625 234.44562 71.60625 235.38312Q70.96562 236.305 69.575 236.305Q68.21562 236.305 67.55937 235.39874Q66.90312 234.4925 66.87187 232.68L66.87187 231.2425Q66.87187 229.35187 67.5125 228.44562Q68.16875 227.52374 69.55937 227.52374Q70.93437 227.52374 71.59062 228.41437Q72.24687 229.28937 72.2625 231.13312L72.2625 232.53937ZM71.16875 231.055Q71.16875 229.68 70.77812 229.055Q70.40312 228.41437 69.55937 228.41437Q68.73125 228.41437 68.34062 229.055Q67.96562 229.68 67.96562 230.97687L67.96562 232.71124Q67.96562 234.08624 68.35625 234.75812Q68.7625 235.41437 69.575 235.41437Q70.37187 235.41437 70.7625 234.78937Q71.15312 234.16437 71.16875 232.83624L71.16875 231.055ZM79.2625 232.53937Q79.2625 234.44562 78.60625 235.38312Q77.96562 236.305 76.575 236.305Q75.21562 236.305 74.55937 235.39874Q73.90312 234.4925 73.87187 232.68L73.87187 231.2425Q73.87187 229.35187 74.5125 228.44562Q75.16875 227.52374 76.55937 227.52374Q77.93437 227.52374 78.59062 228.41437Q79.24687 229.28937 79.2625 231.13312L79.2625 232.53937ZM78.16875 231.055Q78.16875 229.68 77.77812 229.055Q77.40312 228.41437 76.55937 228.41437Q75.73125 228.41437 75.34062 229.055Q74.96562 229.68 74.96562 230.97687L74.96562 232.71124Q74.96562 234.08624 75.35625 234.75812Q75.7625 235.41437 76.575 235.41437Q77.37187 235.41437 77.7625 234.78937Q78.15312 234.16437 78.16875 232.83624L78.16875 231.055ZM86.2625 232.53937Q86.2625 234.44562 85.60625 235.38312Q84.96562 236.305 83.575 236.305Q82.21562 236.305 81.55937 235.39874Q80.90312 234.4925 80.87187 232.68L80.87187 231.2425Q80.87187 229.35187 81.5125 228.44562Q82.16875 227.52374 83.55937 227.52374Q84.93437 227.52374 85.59062 228.41437Q86.24687 229.28937 86.2625 231.13312L86.2625 232.53937ZM85.16875 231.055Q85.16875 229.68 84.77812 229.055Q84.40312 228.41437 83.55937 228.41437Q82.73125 228.41437 82.34062 229.055Q81.96562 229.68 81.96562 230.97687L81.96562 232.71124Q81.96562 234.08624 82.35625 234.75812Q82.7625 235.41437 83.575 235.41437Q84.37187 235.41437 84.7625 234.78937Q85.15312 234.16437 85.16875 232.83624L85.16875 231.055ZM93.2625 232.53937Q93.2625 234.44562 92.60625 235.38312Q91.96562 236.305 90.575 236.305Q89.21562 236.305 88.55937 235.39874Q87.90312 234.4925 87.87187 232.68L87.87187 231.2425Q87.87187 229.35187 88.5125 228.44562Q89.16875 227.52374 90.55937 227.52374Q91.93437 227.52374 92.59062 228.41437Q93.24687 229.28937 93.2625 231.13312L93.2625 232.53937ZM92.16875 231.055Q92.16875 229.68 91.77812 229.055Q91.40312 228.41437 90.55937 228.41437Q89.73125 228.41437 89.34062 229.055Q88.96562 229.68 88.96562 230.97687L88.96562 232.71124Q88.96562 234.08624 89.35625 234.75812Q89.7625 235.41437 90.575 235.41437Q91.37187 235.41437 91.7625 234.78937Q92.15312 234.16437 92.16875 232.83624L92.16875 231.055Z" fill-rule="nonzero"/><path fill="#757575" d="M56.465626 180.12L55.3875 180.12L55.3875 172.90125L53.2 173.69812L53.2 172.71375L56.309376 171.54187L56.465626 171.54187L56.465626 180.12ZM60.403126 175.83875L60.840626 171.58875L65.21562 171.58875L65.21562 172.58875L61.7625 172.58875L61.496876 174.91687Q62.1375 174.54187 62.934376 174.54187Q64.09062 174.54187 64.77812 175.32312Q65.46562 176.08875 65.46562 177.40125Q65.46562 178.71375 64.74687 179.47937Q64.04375 180.245 62.7625 180.245Q61.6375 180.245 60.91875 179.62Q60.2 178.97937 60.10625 177.87L61.121876 177.87Q61.23125 178.60437 61.653126 178.97937Q62.075 179.35437 62.7625 179.35437Q63.5125 179.35437 63.95 178.83875Q64.3875 178.32312 64.3875 177.41687Q64.3875 176.5575 63.91875 176.04187Q63.45 175.52625 62.66875 175.52625Q61.965626 175.52625 61.559376 175.82312L61.278126 176.0575L60.403126 175.83875ZM72.2625 176.47937Q72.2625 178.38562 71.60625 179.32312Q70.96562 180.245 69.575 180.245Q68.21562 180.245 67.55937 179.33875Q66.90312 178.4325 66.87187 176.62L66.87187 175.1825Q66.87187 173.29187 67.5125 172.38562Q68.16875 171.46375 69.55937 171.46375Q70.93437 171.46375 71.59062 172.35437Q72.24687 173.22937 72.2625 175.07312L72.2625 176.47937ZM71.16875 174.995Q71.16875 173.62 70.77812 172.995Q70.40312 172.35437 69.55937 172.35437Q68.73125 172.35437 68.34062 172.995Q67.96562 173.62 67.96562 174.91687L67.96562 176.65125Q67.96562 178.02625 68.35625 178.69812Q68.7625 179.35437 69.575 179.35437Q70.37187 179.35437 70.7625 178.72937Q71.15312 178.10437 71.16875 176.77625L71.16875 174.995ZM79.2625 176.47937Q79.2625 178.38562 78.60625 179.32312Q77.96562 180.245 76.575 180.245Q75.21562 180.245 74.55937 179.33875Q73.90312 178.4325 73.87187 176.62L73.87187 175.1825Q73.87187 173.29187 74.5125 172.38562Q75.16875 171.46375 76.55937 171.46375Q77.93437 171.46375 78.59062 172.35437Q79.24687 173.22937 79.2625 175.07312L79.2625 176.47937ZM78.16875 174.995Q78.16875 173.62 77.77812 172.995Q77.40312 172.35437 76.55937 172.35437Q75.73125 172.35437 75.34062 172.995Q74.96562 173.62 74.96562 174.91687L74.96562 176.65125Q74.96562 178.02625 75.35625 178.69812Q75.7625 179.35437 76.575 179.35437Q77.37187 179.35437 77.7625 178.72937Q78.15312 178.10437 78.16875 176.77625L78.16875 174.995ZM86.2625 176.47937Q86.2625 178.38562 85.60625 179.32312Q84.96562 180.245 83.575 180.245Q82.21562 180.245 81.55937 179.33875Q80.90312 178.4325 80.87187 176.62L80.87187 175.1825Q80.87187 173.29187 81.5125 172.38562Q82.16875 171.46375 83.55937 171.46375Q84.93437 171.46375 85.59062 172.35437Q86.24687 173.22937 86.2625 175.07312L86.2625 176.47937ZM85.16875 174.995Q85.16875 173.62 84.77812 172.995Q84.40312 172.35437 83.55937 172.35437Q82.73125 172.35437 82.34062 172.995Q81.96562 173.62 81.96562 174.91687L81.96562 176.65125Q81.96562 178.02625 82.35625 178.69812Q82.7625 179.35437 83.575 179.35437Q84.37187 179.35437 84.7625 178.72937Q85.15312 178.10437 85.16875 176.77625L85.16875 174.995ZM93.2625 176.47937Q93.2625 178.38562 92.60625 179.32312Q91.96562 180.245 90.575 180.245Q89.21562 180.245 88.55937 179.33875Q87.90312 178.4325 87.87187 176.62L87.87187 175.1825Q87.87187 173.29187 88.5125 172.38562Q89.16875 171.46375 90.55937 171.46375Q91.93437 171.46375 92.59062 172.35437Q93.24687 173.22937 93.2625 175.07312L93.2625 176.47937ZM92.16875 174.995Q92.16875 173.62 91.77812 172.995Q91.40312 172.35437 90.55937 172.35437Q89.73125 172.35437 89.34062 172.995Q88.96562 173.62 88.96562 174.91687L88.96562 176.65125Q88.96562 178.02625 89.35625 178.69812Q89.7625 179.35437 90.575 179.35437Q91.37187 179.35437 91.7625 178.72937Q92.15312 178.10437 92.16875 176.77625L92.16875 174.995Z" fill-rule="nonzero"/><path fill="#757575" d="M58.496876 124.06L52.903126 124.06L52.903126 123.27875L55.85625 119.9975Q56.5125 119.2475 56.7625 118.79437Q57.0125 118.32562 57.0125 117.82562Q57.0125 117.15375 56.60625 116.73187Q56.215626 116.29437 55.528126 116.29437Q54.73125 116.29437 54.278126 116.76312Q53.825 117.21625 53.825 118.04437L52.746876 118.04437Q52.746876 116.85687 53.496876 116.13812Q54.2625 115.40375 55.528126 115.40375Q56.73125 115.40375 57.41875 116.02875Q58.10625 116.65375 58.10625 117.70062Q58.10625 118.95062 56.496876 120.70062L54.215626 123.16937L58.496876 123.16937L58.496876 124.06ZM65.2625 120.41937Q65.2625 122.32562 64.60625 123.26312Q63.965626 124.185 62.575 124.185Q61.215626 124.185 60.559376 123.27875Q59.903126 122.3725 59.871876 120.56L59.871876 119.1225Q59.871876 117.23187 60.5125 116.32562Q61.16875 115.40375 62.559376 115.40375Q63.934376 115.40375 64.59062 116.29437Q65.24687 117.16937 65.2625 119.01312L65.2625 120.41937ZM64.16875 118.935Q64.16875 117.56 63.778126 116.935Q63.403126 116.29437 62.559376 116.29437Q61.73125 116.29437 61.340626 116.935Q60.965626 117.56 60.965626 118.85687L60.965626 120.59125Q60.965626 121.96625 61.35625 122.63812Q61.7625 123.29437 62.575 123.29437Q63.371876 123.29437 63.7625 122.66937Q64.15312 122.04437 64.16875 120.71625L64.16875 118.935ZM72.2625 120.41937Q72.2625 122.32562 71.60625 123.26312Q70.96562 124.185 69.575 124.185Q68.21562 124.185 67.55937 123.27875Q66.90312 122.3725 66.87187 120.56L66.87187 119.1225Q66.87187 117.23187 67.5125 116.32562Q68.16875 115.40375 69.55937 115.40375Q70.93437 115.40375 71.59062 116.29437Q72.24687 117.16937 72.2625 119.01312L72.2625 120.41937ZM71.16875 118.935Q71.16875 117.56 70.77812 116.935Q70.40312 116.29437 69.55937 116.29437Q68.73125 116.29437 68.34062 116.935Q67.96562 117.56 67.96562 118.85687L67.96562 120.59125Q67.96562 121.96625 68.35625 122.63812Q68.7625 123.29437 69.575 123.29437Q70.37187 123.29437 70.7625 122.66937Q71.15312 122.04437 71.16875 120.71625L71.16875 118.935ZM79.2625 120.41937Q79.2625 122.32562 78.60625 123.26312Q77.96562 124.185 76.575 124.185Q75.21562 124.185 74.55937 123.27875Q73.90312 122.3725 73.87187 120.56L73.87187 119.1225Q73.87187 117.23187 74.5125 116.32562Q75.16875 115.40375 76.55937 115.40375Q77.93437 115.40375 78.59062 116.29437Q79.24687 117.16937 79.2625 119.01312L79.2625 120.41937ZM78.16875 118.935Q78.16875 117.56 77.77812 116.935Q77.40312 116.29437 76.55937 116.29437Q75.73125 116.29437 75.34062 116.935Q74.96562 117.56 74.96562 118.85687L74.96562 120.59125Q74.96562 121.96625 75.35625 122.63812Q75.7625 123.29437 76.575 123.29437Q77.37187 123.29437 77.7625 122.66937Q78.15312 122.04437 78.16875 120.71625L78.16875 118.935ZM86.2625 120.41937Q86.2625 122.32562 85.60625 123.26312Q84.96562 124.185 83.575 124.185Q82.21562 124.185 81.55937 123.27875Q80.90312 122.3725 80.87187 120.56L80.87187 119.1225Q80.87187 117.23187 81.5125 116.32562Q82.16875 115.40375 83.55937 115.40375Q84.93437 115.40375 85.59062 116.29437Q86.24687 117.16937 86.2625 119.01312L86.2625 120.41937ZM85.16875 118.935Q85.16875 117.56 84.77812 116.935Q84.40312 116.29437 83.55937 116.29437Q82.73125 116.29437 82.34062 116.935Q81.96562 117.56 81.96562 118.85687L81.96562 120.59125Q81.96562 121.96625 82.35625 122.63812Q82.7625 123.29437 83.575 123.29437Q84.37187 123.29437 84.7625 122.66937Q85.15312 122.04437 85.16875 120.71625L85.16875 118.935ZM93.2625 120.41937Q93.2625 122.32562 92.60625 123.26312Q91.96562 124.185 90.575 124.185Q89.21562 124.185 88.55937 123.27875Q87.90312 122.3725 87.87187 120.56L87.87187 119.1225Q87.87187 117.23187 88.5125 116.32562Q89.16875 115.40375 90.55937 115.40375Q91.93437 115.40375 92.59062 116.29437Q93.24687 117.16937 93.2625 119.01312L93.2625 120.41937ZM92.16875 118.935Q92.16875 117.56 91.77812 116.935Q91.40312 116.29437 90.55937 116.29437Q89.73125 116.29437 89.34062 116.935Q88.96562 117.56 88.96562 118.85687L88.96562 120.59125Q88.96562 121.96625 89.35625 122.63812Q89.7625 123.29437 90.575 123.29437Q91.37187 123.29437 91.7625 122.66937Q92.15312 122.04437 92.16875 120.71625L92.16875 118.935Z" fill-rule="nonzero"/><path fill="#757575" d="M58.496876 68.0L52.903126 68.0L52.903126 67.21875L55.85625 63.9375Q56.5125 63.1875 56.7625 62.734375Q57.0125 62.265625 57.0125 61.765625Q57.0125 61.09375 56.60625 60.671875Q56.215626 60.234375 55.528126 60.234375Q54.73125 60.234375 54.278126 60.703125Q53.825 61.15625 53.825 61.984375L52.746876 61.984375Q52.746876 60.796875 53.496876 60.078125Q54.2625 59.34375 55.528126 59.34375Q56.73125 59.34375 57.41875 59.96875Q58.10625 60.59375 58.10625 61.640625Q58.10625 62.890625 56.496876 64.640625L54.215626 67.109375L58.496876 67.109375L58.496876 68.0ZM60.403126 63.71875L60.840626 59.46875L65.21562 59.46875L65.21562 60.46875L61.7625 60.46875L61.496876 62.796875Q62.1375 62.421875 62.934376 62.421875Q64.09062 62.421875 64.77812 63.203125Q65.46562 63.96875 65.46562 65.28125Q65.46562 66.59375 64.74687 67.359375Q64.04375 68.125 62.7625 68.125Q61.6375 68.125 60.91875 67.5Q60.2 66.859375 60.10625 65.75L61.121876 65.75Q61.23125 66.484375 61.653126 66.859375Q62.075 67.234375 62.7625 67.234375Q63.5125 67.234375 63.95 66.71875Q64.3875 66.203125 64.3875 65.296875Q64.3875 64.4375 63.91875 63.921875Q63.45 63.40625 62.66875 63.40625Q61.965626 63.40625 61.559376 63.703125L61.278126 63.9375L60.403126 63.71875ZM72.2625 64.359375Q72.2625 66.265625 71.60625 67.203125Q70.96562 68.125 69.575 68.125Q68.21562 68.125 67.55937 67.21875Q66.90312 66.3125 66.87187 64.5L66.87187 63.0625Q66.87187 61.171875 67.5125 60.265625Q68.16875 59.34375 69.55937 59.34375Q70.93437 59.34375 71.59062 60.234375Q72.24687 61.109375 72.2625 62.953125L72.2625 64.359375ZM71.16875 62.875Q71.16875 61.5 70.77812 60.875Q70.40312 60.234375 69.55937 60.234375Q68.73125 60.234375 68.34062 60.875Q67.96562 61.5 67.96562 62.796875L67.96562 64.53125Q67.96562 65.90625 68.35625 66.578125Q68.7625 67.234375 69.575 67.234375Q70.37187 67.234375 70.7625 66.609375Q71.15312 65.984375 71.16875 64.65625L71.16875 62.875ZM79.2625 64.359375Q79.2625 66.265625 78.60625 67.203125Q77.96562 68.125 76.575 68.125Q75.21562 68.125 74.55937 67.21875Q73.90312 66.3125 73.87187 64.5L73.87187 63.0625Q73.87187 61.171875 74.5125 60.265625Q75.16875 59.34375 76.55937 59.34375Q77.93437 59.34375 78.59062 60.234375Q79.24687 61.109375 79.2625 62.953125L79.2625 64.359375ZM78.16875 62.875Q78.16875 61.5 77.77812 60.875Q77.40312 60.234375 76.55937 60.234375Q75.73125 60.234375 75.34062 60.875Q74.96562 61.5 74.96562 62.796875L74.96562 64.53125Q74.96562 65.90625 75.35625 66.578125Q75.7625 67.234375 76.575 67.234375Q77.37187 67.234375 77.7625 66.609375Q78.15312 65.984375 78.16875 64.65625L78.16875 62.875ZM86.2625 64.359375Q86.2625 66.265625 85.60625 67.203125Q84.96562 68.125 83.575 68.125Q82.21562 68.125 81.55937 67.21875Q80.90312 66.3125 80.87187 64.5L80.87187 63.0625Q80.87187 61.171875 81.5125 60.265625Q82.16875 59.34375 83.55937 59.34375Q84.93437 59.34375 85.59062 60.234375Q86.24687 61.109375 86.2625 62.953125L86.2625 64.359375ZM85.16875 62.875Q85.16875 61.5 84.77812 60.875Q84.40312 60.234375 83.55937 60.234375Q82.73125 60.234375 82.34062 60.875Q81.96562 61.5 81.96562 62.796875L81.96562 64.53125Q81.96562 65.90625 82.35625 66.578125Q82.7625 67.234375 83.575 67.234375Q84.37187 67.234375 84.7625 66.609375Q85.15312 65.984375 85.16875 64.65625L85.16875 62.875ZM93.2625 64.359375Q93.2625 66.265625 92.60625 67.203125Q91.96562 68.125 90.575 68.125Q89.21562 68.125 88.55937 67.21875Q87.90312 66.3125 87.87187 64.5L87.87187 63.0625Q87.87187 61.171875 88.5125 60.265625Q89.16875 59.34375 90.55937 59.34375Q91.93437 59.34375 92.59062 60.234375Q93.24687 61.109375 93.2625 62.953125L93.2625 64.359375ZM92.16875 62.875Q92.16875 61.5 91.77812 60.875Q91.40312 60.234375 90.55937 60.234375Q89.73125 60.234375 89.34062 60.875Q88.96562 61.5 88.96562 62.796875L88.96562 64.53125Q88.96562 65.90625 89.35625 66.578125Q89.7625 67.234375 90.575 67.234375Q91.37187 67.234375 91.7625 66.609375Q92.15312 65.984375 92.16875 64.65625L92.16875 62.875Z" fill-rule="nonzero"/><path fill="#757575" d="M189.67902 361.8L184.08527 361.8L184.08527 361.01874L187.03839 357.7375Q187.69464 356.9875 187.94464 356.53436Q188.19464 356.0656 188.19464 355.5656Q188.19464 354.89374 187.78839 354.47186Q187.39777 354.03436 186.71027 354.03436Q185.91339 354.03436 185.46027 354.5031Q185.00714 354.95624 185.00714 355.78436L183.92902 355.78436Q183.92902 354.59686 184.67902 353.8781Q185.44464 353.14374 186.71027 353.14374Q187.91339 353.14374 188.60089 353.76874Q189.28839 354.39374 189.28839 355.4406Q189.28839 356.6906 187.67902 358.4406L185.39777 360.90936L189.67902 360.90936L189.67902 361.8ZM196.44464 358.15936Q196.44464 360.0656 195.78839 361.0031Q195.14777 361.925 193.75714 361.925Q192.39777 361.925 191.74152 361.01874Q191.08527 360.1125 191.05402 358.3L191.05402 356.8625Q191.05402 354.97186 191.69464 354.0656Q192.35089 353.14374 193.74152 353.14374Q195.11652 353.14374 195.77277 354.03436Q196.42902 354.90936 196.44464 356.7531L196.44464 358.15936ZM195.35089 356.675Q195.35089 355.3 194.96027 354.675Q194.58527 354.03436 193.74152 354.03436Q192.91339 354.03436 192.52277 354.675Q192.14777 355.3 192.14777 356.59686L192.14777 358.33124Q192.14777 359.70624 192.53839 360.3781Q192.94464 361.03436 193.75714 361.03436Q194.55402 361.03436 194.94464 360.40936Q195.33527 359.78436 195.35089 358.45624L195.35089 356.675Z" fill-rule="nonzero"/><path fill="#757575" d="M283.59195 358.9406L284.77945 358.9406L284.77945 359.8156L283.59195 359.8156L283.59195 361.8L282.51382 361.8L282.51382 359.8156L278.6232 359.8156L278.6232 359.175L282.4357 353.26874L283.59195 353.26874L283.59195 358.9406ZM279.85757 358.9406L282.51382 358.9406L282.51382 354.7531L282.3732 354.9875L279.85757 358.9406ZM291.3732 358.15936Q291.3732 360.0656 290.71695 361.0031Q290.07632 361.925 288.6857 361.925Q287.32632 361.925 286.67007 361.01874Q286.01382 360.1125 285.98257 358.3L285.98257 356.8625Q285.98257 354.97186 286.6232 354.0656Q287.27945 353.14374 288.67007 353.14374Q290.04507 353.14374 290.70132 354.03436Q291.35757 354.90936 291.3732 356.7531L291.3732 358.15936ZM290.27945 356.675Q290.27945 355.3 289.88882 354.675Q289.51382 354.03436 288.67007 354.03436Q287.84195 354.03436 287.45132 354.675Q287.07632 355.3 287.07632 356.59686L287.07632 358.33124Q287.07632 359.70624 287.46695 360.3781Q287.8732 361.03436 288.6857 361.03436Q289.48257 361.03436 289.8732 360.40936Q290.26382 359.78436 290.27945 358.45624L290.27945 356.675Z" fill-rule="nonzero"/><path fill="#757575" d="M378.20804 353.26874L378.20804 354.175L378.0049 354.175Q376.7393 354.20624 375.9893 354.9406Q375.2393 355.65936 375.1143 356.97186Q375.8018 356.20624 376.95804 356.20624Q378.0674 356.20624 378.7393 356.9875Q379.41116 357.76874 379.41116 359.01874Q379.41116 360.33124 378.6924 361.1281Q377.97366 361.925 376.7549 361.925Q375.53616 361.925 374.77054 360.9875Q374.02054 360.03436 374.02054 358.55L374.02054 358.14374Q374.02054 355.78436 375.02054 354.53436Q376.02054 353.28436 378.0049 353.26874L378.20804 353.26874ZM376.78616 357.1125Q376.22366 357.1125 375.7549 357.4406Q375.28616 357.76874 375.09866 358.28436L375.09866 358.675Q375.09866 359.7375 375.5674 360.3781Q376.0518 361.01874 376.7549 361.01874Q377.4893 361.01874 377.91116 360.4875Q378.33304 359.9406 378.33304 359.0656Q378.33304 358.1906 377.91116 357.65936Q377.4893 357.1125 376.78616 357.1125ZM386.3018 358.15936Q386.3018 360.0656 385.64554 361.0031Q385.0049 361.925 383.6143 361.925Q382.2549 361.925 381.59866 361.01874Q380.9424 360.1125 380.91116 358.3L380.91116 356.8625Q380.91116 354.97186 381.5518 354.0656Q382.20804 353.14374 383.59866 353.14374Q384.97366 353.14374 385.6299 354.03436Q386.28616 354.90936 386.3018 356.7531L386.3018 358.15936ZM385.20804 356.675Q385.20804 355.3 384.8174 354.675Q384.4424 354.03436 383.59866 354.03436Q382.77054 354.03436 382.3799 354.675Q382.0049 355.3 382.0049 356.59686L382.0049 358.33124Q382.0049 359.70624 382.39554 360.3781Q382.8018 361.03436 383.6143 361.03436Q384.41116 361.03436 384.8018 360.40936Q385.1924 359.78436 385.20804 358.45624L385.20804 356.675Z" fill-rule="nonzero"/><path fill="#757575" d="M474.05847 355.4875Q474.05847 356.1281 473.71472 356.6281Q473.37097 357.1281 472.80847 357.40936Q473.46472 357.6906 473.85535 358.2531Q474.24597 358.8 474.24597 359.5031Q474.24597 360.59686 473.49597 361.26874Q472.7616 361.925 471.54285 361.925Q470.30847 361.925 469.55847 361.26874Q468.8241 360.59686 468.8241 359.5031Q468.8241 358.8 469.1991 358.2531Q469.5741 357.6906 470.24597 357.40936Q469.68347 357.1281 469.35535 356.6281Q469.02722 356.1281 469.02722 355.4875Q469.02722 354.40936 469.71472 353.78436Q470.40222 353.14374 471.54285 353.14374Q472.66785 353.14374 473.35535 353.78436Q474.05847 354.40936 474.05847 355.4875ZM473.16785 359.47186Q473.16785 358.7531 472.71472 358.3156Q472.2616 357.8625 471.52722 357.8625Q470.79285 357.8625 470.33972 358.3156Q469.90222 358.7531 469.90222 359.4875Q469.90222 360.20624 470.33972 360.6281Q470.77722 361.03436 471.54285 361.03436Q472.29285 361.03436 472.73035 360.6125Q473.16785 360.1906 473.16785 359.47186ZM471.54285 354.03436Q470.90222 354.03436 470.49597 354.4406Q470.10535 354.83124 470.10535 355.51874Q470.10535 356.15936 470.49597 356.5656Q470.8866 356.97186 471.52722 356.97186Q472.18347 356.97186 472.5741 356.5656Q472.96472 356.15936 472.96472 355.51874Q472.96472 354.8625 472.55847 354.45624Q472.15222 354.03436 471.54285 354.03436ZM481.23035 358.15936Q481.23035 360.0656 480.5741 361.0031Q479.93347 361.925 478.54285 361.925Q477.18347 361.925 476.52722 361.01874Q475.87097 360.1125 475.83972 358.3L475.83972 356.8625Q475.83972 354.97186 476.48035 354.0656Q477.1366 353.14374 478.52722 353.14374Q479.90222 353.14374 480.55847 354.03436Q481.21472 354.90936 481.23035 356.7531L481.23035 358.15936ZM480.1366 356.675Q480.1366 355.3 479.74597 354.675Q479.37097 354.03436 478.52722 354.03436Q477.6991 354.03436 477.30847 354.675Q476.93347 355.3 476.93347 356.59686L476.93347 358.33124Q476.93347 359.70624 477.3241 360.3781Q477.73035 361.03436 478.54285 361.03436Q479.33972 361.03436 479.73035 360.40936Q480.12097 359.78436 480.1366 358.45624L480.1366 356.675Z" fill-rule="nonzero"/><path fill="#757575" d="M563.86206 361.8L562.78394 361.8L562.78394 354.58124L560.59644 355.3781L560.59644 354.39374L563.7058 353.22186L563.86206 353.22186L563.86206 361.8ZM572.65894 358.15936Q572.65894 360.0656 572.0027 361.0031Q571.36206 361.925 569.97144 361.925Q568.61206 361.925 567.9558 361.01874Q567.29956 360.1125 567.2683 358.3L567.2683 356.8625Q567.2683 354.97186 567.90894 354.0656Q568.5652 353.14374 569.9558 353.14374Q571.3308 353.14374 571.98706 354.03436Q572.6433 354.90936 572.65894 356.7531L572.65894 358.15936ZM571.5652 356.675Q571.5652 355.3 571.17456 354.675Q570.79956 354.03436 569.9558 354.03436Q569.1277 354.03436 568.73706 354.675Q568.36206 355.3 568.36206 356.59686L568.36206 358.33124Q568.36206 359.70624 568.7527 360.3781Q569.15894 361.03436 569.97144 361.03436Q570.7683 361.03436 571.15894 360.40936Q571.54956 359.78436 571.5652 358.45624L571.5652 356.675ZM579.65894 358.15936Q579.65894 360.0656 579.0027 361.0031Q578.36206 361.925 576.97144 361.925Q575.61206 361.925 574.9558 361.01874Q574.29956 360.1125 574.2683 358.3L574.2683 356.8625Q574.2683 354.97186 574.90894 354.0656Q575.5652 353.14374 576.9558 353.14374Q578.3308 353.14374 578.98706 354.03436Q579.6433 354.90936 579.65894 356.7531L579.65894 358.15936ZM578.5652 356.675Q578.5652 355.3 578.17456 354.675Q577.79956 354.03436 576.9558 354.03436Q576.1277 354.03436 575.73706 354.675Q575.36206 355.3 575.36206 356.59686L575.36206 358.33124Q575.36206 359.70624 575.7527 360.3781Q576.15894 361.03436 576.97144 361.03436Q577.7683 361.03436 578.15894 360.40936Q578.54956 359.78436 578.5652 358.45624L578.5652 356.675Z" fill-rule="nonzero"/><path fill="#757575" d="M35.215626 24.29375Q31.934376 31.871876 26.778126 36.325L26.778126 37.10625Q26.778126 37.73125 27.325 37.73125L32.0125 37.73125Q32.715626 37.73125 32.871876 36.95L33.41875 34.684376L35.215626 35.075L34.590626 37.575Q34.121876 39.45 32.79375 39.45L26.621876 39.45Q25.215626 39.45 25.215626 38.121876L25.215626 37.41875Q23.340626 38.746876 21.23125 39.684376L20.29375 37.8875Q22.79375 37.028126 25.215626 35.153126L25.215626 26.16875L26.7 26.16875Q27.48125 26.325 26.778126 26.79375L26.778126 33.903126Q31.23125 29.45 33.496876 23.5125L35.215626 24.29375ZM35.371876 29.215626Q37.48125 32.10625 38.41875 34.91875L36.54375 35.778126Q35.45 32.653126 33.809376 30.153126L35.371876 29.215626ZM23.8875 28.5125Q24.5125 28.746876 23.809376 29.059376Q23.340626 33.2 22.246876 35.778126L20.371876 35.075Q21.7 32.340626 22.16875 27.965626L23.8875 28.5125ZM27.0125 22.340626Q29.590626 23.434376 31.23125 25.075L30.1375 26.6375Q28.41875 24.996876 26.075 23.825L27.0125 22.340626ZM50.60625 37.496876Q47.95 39.45 41.465626 39.996876L41.153126 38.5125Q46.54375 38.2 48.965626 36.95Q47.16875 36.48125 45.45 36.16875L44.98125 36.715626L43.575 35.934376L45.684376 33.590626L40.29375 33.590626L40.29375 32.340626L46.7 32.340626L47.95 30.621876L43.809376 30.621876L43.809376 31.16875L42.48125 31.16875L42.48125 25.934376L46.54375 25.934376L46.54375 24.215626L40.7625 24.215626L40.7625 22.965626L57.559376 22.965626L57.559376 24.215626L51.778126 24.215626L51.778126 25.934376L55.840626 25.934376L55.840626 31.090626L54.5125 31.090626L54.5125 30.621876L48.653126 30.621876L49.434376 31.0125Q49.825 31.246876 49.2 31.403126L48.41875 32.340626L58.10625 32.340626L58.10625 33.590626L54.121876 33.590626Q53.184376 35.153126 51.85625 36.403126Q54.35625 37.10625 57.246876 38.434376L56.23125 39.840626Q53.8875 38.590626 50.60625 37.496876ZM47.6375 33.590626L46.309376 35.075Q48.10625 35.309376 50.29375 35.85625Q51.54375 34.91875 52.246876 33.590626L47.6375 33.590626ZM47.871876 24.215626L47.871876 25.934376L50.45 25.934376L50.45 24.215626L47.871876 24.215626ZM43.809376 29.371876L46.54375 29.371876L46.54375 27.184376L43.809376 27.184376L43.809376 29.371876ZM47.871876 27.184376L47.871876 29.371876L50.45 29.371876L50.45 27.184376L47.871876 27.184376ZM51.778126 27.184376L51.778126 29.371876L54.5125 29.371876L54.5125 27.184376L51.778126 27.184376ZM63.2625 27.2625L63.2625 22.340626L75.1375 22.340626L75.1375 27.2625L63.2625 27.2625ZM60.60625 29.45L60.60625 28.2L77.87187 28.2L77.87187 29.45L60.60625 29.45ZM69.90312 35.23125L69.90312 36.090626L75.60625 36.090626L75.60625 37.340626L69.90312 37.340626L69.90312 38.278126L78.10625 38.278126L78.10625 39.528126L60.371876 39.528126L60.371876 38.278126L68.575 38.278126L68.575 37.340626L62.79375 37.340626L62.79375 36.090626L68.575 36.090626L68.575 35.23125L65.91875 35.23125L63.2625 35.23125L63.2625 30.3875L75.1375 30.3875L75.1375 35.23125L69.90312 35.23125ZM73.80937 32.340626L73.80937 31.325L69.90312 31.325L69.90312 32.340626L73.80937 32.340626ZM69.90312 34.29375L73.80937 34.29375L73.80937 33.278126L69.90312 33.278126L69.90312 34.29375ZM64.59062 24.29375L73.80937 24.29375L73.80937 23.278126L64.59062 23.278126L64.59062 24.29375ZM64.59062 26.325L73.80937 26.325L73.80937 25.23125L64.59062 25.23125L64.59062 26.325ZM64.59062 32.340626L68.575 32.340626L68.575 31.325L64.59062 31.325L64.59062 32.340626ZM64.59062 34.29375L68.575 34.29375L68.575 33.278126L64.59062 33.278126L64.59062 34.29375Z" fill-rule="nonzero"/></svg>