<svg version="1.1" viewBox="0.0 0.0 600.0 371.0" fill="none" stroke="none" stroke-linecap="square" stroke-miterlimit="10" width="600" height="371" xmlns:xlink="http://www.w3.org/1999/xlink" xmlns="http://www.w3.org/2000/svg"><path fill="#ffffff" d="M0 0L600.0 0L600.0 371.0L0 371.0L0 0Z" fill-rule="nonzero"/><path stroke="#cccccc" stroke-width="1.0" stroke-linecap="butt" d="M85.5 62.5L85.5 298.5" fill-rule="nonzero"/><path stroke="#cccccc" stroke-width="1.0" stroke-linecap="butt" d="M212.5 62.5L212.5 298.5" fill-rule="nonzero"/><path stroke="#cccccc" stroke-width="1.0" stroke-linecap="butt" d="M339.5 62.5L339.5 298.5" fill-rule="nonzero"/><path stroke="#cccccc" stroke-width="1.0" stroke-linecap="butt" d="M413.5 62.5L413.5 298.5" fill-rule="nonzero"/><path stroke="#cccccc" stroke-width="1.0" stroke-linecap="butt" d="M466.5 62.5L466.5 298.5" fill-rule="nonzero"/><path stroke="#cccccc" stroke-width="1.0" stroke-linecap="butt" d="M507.5 62.5L507.5 298.5" fill-rule="nonzero"/><path stroke="#cccccc" stroke-width="1.0" stroke-linecap="butt" d="M85.5 298.5L581.5 298.5" fill-rule="nonzero"/><path stroke="#cccccc" stroke-width="1.0" stroke-linecap="butt" d="M85.5 242.5L581.5 242.5" fill-rule="nonzero"/><path stroke="#cccccc" stroke-width="1.0" stroke-linecap="butt" d="M85.5 218.5L581.5 218.5" fill-rule="nonzero"/><path stroke="#cccccc" stroke-width="1.0" stroke-linecap="butt" d="M85.5 162.5L581.5 162.5" fill-rule="nonzero"/><path stroke="#cccccc" stroke-width="1.0" stroke-linecap="butt" d="M85.5 137.5L581.5 137.5" fill-rule="nonzero"/><path stroke="#cccccc" stroke-width="1.0" stroke-linecap="butt" d="M85.5 81.5L581.5 81.5" fill-rule="nonzero"/><clipPath id="id_0"><path d="M85.55 62.416668L581.45 62.416668L581.45 298.45L85.55 298.45L85.55 62.416668Z" clip-rule="nonzero"/></clipPath><path stroke="#4285f4" stroke-width="2.0" stroke-linecap="butt" clip-path="url(#id_0)" d="M212.47958 298.45L286.72864 259.00537L339.40918 229.14577L380.27136 201.3548L413.6582 181.53854L441.88638 165.12212L466.33875 150.38248L487.90726 136.66469L507.20096 123.57634L524.65424 110.93625L540.5878 98.57702L555.2453 86.40264L568.816 74.36637L581.45 62.416668" fill-rule="nonzero"/><path fill="#000000" fill-opacity="0.0" clip-path="url(#id_0)" d="M215.47958 298.45C215.47958 300.10684 214.13644 301.45 212.47958 301.45C210.82272 301.45 209.47958 300.10684 209.47958 298.45C209.47958 296.79315 210.82272 295.45 212.47958 295.45C214.13644 295.45 215.47958 296.79315 215.47958 298.45Z" fill-rule="nonzero"/><path fill="#000000" fill-opacity="0.0" clip-path="url(#id_0)" d="M289.72864 259.00537C289.72864 260.66223 288.3855 262.00537 286.72864 262.00537C285.07178 262.00537 283.72864 260.66223 283.72864 259.00537C283.72864 257.3485 285.07178 256.00537 286.72864 256.00537C288.3855 256.00537 289.72864 257.3485 289.72864 259.00537Z" fill-rule="nonzero"/><path fill="#000000" fill-opacity="0.0" clip-path="url(#id_0)" d="M342.40918 229.14577C342.40918 230.80263 341.066 232.14577 339.40918 232.14577C337.75232 232.14577 336.40918 230.80263 336.40918 229.14577C336.40918 227.4889 337.75232 226.14577 339.40918 226.14577C341.066 226.14577 342.40918 227.4889 342.40918 229.14577Z" fill-rule="nonzero"/><path fill="#000000" fill-opacity="0.0" clip-path="url(#id_0)" d="M383.27136 201.3548C383.27136 203.01166 381.92822 204.3548 380.27136 204.3548C378.6145 204.3548 377.27136 203.01166 377.27136 201.3548C377.27136 199.69794 378.6145 198.3548 380.27136 198.3548C381.92822 198.3548 383.27136 199.69794 383.27136 201.3548Z" fill-rule="nonzero"/><path fill="#000000" fill-opacity="0.0" clip-path="url(#id_0)" d="M416.6582 181.53854C416.6582 183.1954 415.31506 184.53854 413.6582 184.53854C412.00137 184.53854 410.6582 183.1954 410.6582 181.53854C410.6582 179.8817 412.00137 178.53854 413.6582 178.53854C415.31506 178.53854 416.6582 179.8817 416.6582 181.53854Z" fill-rule="nonzero"/><path fill="#000000" fill-opacity="0.0" clip-path="url(#id_0)" d="M444.88638 165.12212C444.88638 166.77898 443.54324 168.12212 441.88638 168.12212C440.22955 168.12212 438.88638 166.77898 438.88638 165.12212C438.88638 163.46527 440.22955 162.12212 441.88638 162.12212C443.54324 162.12212 444.88638 163.46527 444.88638 165.12212Z" fill-rule="nonzero"/><path fill="#000000" fill-opacity="0.0" clip-path="url(#id_0)" d="M469.33875 150.38248C469.33875 152.03934 467.9956 153.38248 466.33875 153.38248C464.6819 153.38248 463.33875 152.03934 463.33875 150.38248C463.33875 148.72563 464.6819 147.38248 466.33875 147.38248C467.9956 147.38248 469.33875 148.72563 469.33875 150.38248Z" fill-rule="nonzero"/><path fill="#000000" fill-opacity="0.0" clip-path="url(#id_0)" d="M490.90726 136.66469C490.90726 138.32155 489.56412 139.66469 487.90726 139.66469C486.2504 139.66469 484.90726 138.32155 484.90726 136.66469C484.90726 135.00783 486.2504 133.66469 487.90726 133.66469C489.56412 133.66469 490.90726 135.00783 490.90726 136.66469Z" fill-rule="nonzero"/><path fill="#000000" fill-opacity="0.0" clip-path="url(#id_0)" d="M510.20096 123.57634C510.20096 125.23319 508.85782 126.57634 507.20096 126.57634C505.5441 126.57634 504.20096 125.23319 504.20096 123.57634C504.20096 121.91948 505.5441 120.57634 507.20096 120.57634C508.85782 120.57634 510.20096 121.91948 510.20096 123.57634Z" fill-rule="nonzero"/><path fill="#000000" fill-opacity="0.0" clip-path="url(#id_0)" d="M527.65424 110.93625C527.65424 112.5931 526.3111 113.93625 524.65424 113.93625C522.9974 113.93625 521.65424 112.5931 521.65424 110.93625C521.65424 109.279396 522.9974 107.93625 524.65424 107.93625C526.3111 107.93625 527.65424 109.279396 527.65424 110.93625Z" fill-rule="nonzero"/><path fill="#000000" fill-opacity="0.0" clip-path="url(#id_0)" d="M543.5878 98.57702C543.5878 100.23387 542.2446 101.57702 540.5878 101.57702C538.93097 101.57702 537.5878 100.23387 537.5878 98.57702C537.5878 96.92016 538.93097 95.57702 540.5878 95.57702C542.2446 95.57702 543.5878 96.92016 543.5878 98.57702Z" fill-rule="nonzero"/><path fill="#000000" fill-opacity="0.0" clip-path="url(#id_0)" d="M558.2453 86.40264C558.2453 88.059494 556.90216 89.40264 555.2453 89.40264C553.58844 89.40264 552.2453 88.059494 552.2453 86.40264C552.2453 84.74579 553.58844 83.40264 555.2453 83.40264C556.90216 83.40264 558.2453 84.74579 558.2453 86.40264Z" fill-rule="nonzero"/><path fill="#000000" fill-opacity="0.0" clip-path="url(#id_0)" d="M571.816 74.36637C571.816 76.023224 570.47284 77.36637 568.816 77.36637C567.1591 77.36637 565.816 76.023224 565.816 74.36637C565.816 72.70952 567.1591 71.36637 568.816 71.36637C570.47284 71.36637 571.816 72.70952 571.816 74.36637Z" fill-rule="nonzero"/><path fill="#000000" fill-opacity="0.0" clip-path="url(#id_0)" d="M584.45 62.416668C584.45 64.073524 583.1069 65.416664 581.45 65.416664C579.79315 65.416664 578.45 64.073524 578.45 62.416668C578.45 60.75981 579.79315 59.416668 581.45 59.416668C583.1069 59.416668 584.45 60.75981 584.45 62.416668Z" fill-rule="nonzero"/><path fill="#424242" d="M329.625 348.52814L333.67188 348.52814L333.67188 349.45L328.48438 349.45L328.48438 340.91876L329.625 340.91876L329.625 348.52814ZM336.40625 347.98126L337.98438 343.10626L339.09375 343.10626L336.8125 349.45L335.98438 349.45L333.6875 343.10626L334.79688 343.10626L336.40625 347.98126Z" fill-rule="nonzero"/><path fill="#424242" d="M22.721888 203.91771L23.003138 203.54271Q21.831263 202.79271 20.753138 202.32396L21.268763 201.43333Q21.456263 201.19896 21.503138 201.57396Q22.487513 202.13646 23.518763 202.88646L24.081263 202.23021Q23.284388 201.57396 22.159388 200.91771L22.675013 200.12083Q22.862513 199.83958 22.909388 200.21458Q24.409388 201.33958 25.675013 202.46458L25.581263 200.91771L24.831263 201.33958L24.503138 200.54271Q25.300013 199.93333 26.659388 199.46458L27.034388 200.40208L26.331263 200.63646L26.425013 201.66771L31.581263 201.66771L31.581263 202.60521L26.518763 202.60521L26.565638 204.19896Q26.893763 204.24583 26.706263 204.43333L25.675013 204.66771L25.675013 203.54271L24.831263 202.79271Q24.175013 203.63646 23.518763 204.48021L22.721888 203.91771ZM25.534388 199.69896Q24.971888 198.19896 24.503138 197.63646Q23.659388 198.43333 22.346888 198.99583L22.346888 199.65208L21.456263 199.65208L21.456263 195.38646L21.315638 195.24583L21.925013 194.49583L22.112513 194.73021Q23.331263 195.15208 24.456263 196.23021Q24.925013 195.52708 25.393763 193.65208L26.425013 193.98021Q25.768763 196.08958 25.065638 196.88646Q25.909388 197.87083 26.425013 199.27708L25.534388 199.69896ZM31.206263 200.02708L30.315638 200.02708L30.315638 197.44896L28.300013 197.44896L28.300013 199.37083L27.409388 199.37083L27.409388 197.44896L26.096888 197.44896L26.096888 196.55833Q26.143763 196.18333 26.378138 196.51146L27.409388 196.51146L27.409388 194.44896L28.300013 194.44896L28.300013 196.51146L30.315638 196.51146L30.315638 194.02708L31.206263 194.02708L31.206263 200.02708ZM22.346888 198.05833Q23.331263 197.63646 23.940638 196.93333Q23.284388 196.32396 22.346888 195.85521L22.346888 198.05833ZM27.878138 203.16771Q29.050013 203.21458 30.550013 203.63646L30.221888 204.57396Q28.815638 204.19896 27.409388 204.10521L27.643763 203.07396Q27.831263 202.93333 27.878138 203.16771ZM27.362513 200.44896Q28.206263 199.98021 29.518763 199.79271L29.753138 200.73021Q28.440638 200.91771 27.596888 201.29271L27.362513 200.44896ZM24.315638 183.29271L24.315638 184.55833L25.206263 184.55833L25.206263 182.40208L28.300013 182.40208L28.300013 183.19896L27.925013 183.19896L27.925013 184.46458Q29.612513 183.62083 30.550013 181.69896L31.440638 182.26146Q30.362513 184.13646 28.862513 184.79271Q30.784388 185.44896 31.581263 187.60521L30.737513 188.02708Q29.893763 185.73021 27.925013 185.40208L27.925013 186.66771L28.440638 186.66771L28.440638 187.46458L25.206263 187.46458L25.206263 185.35521L24.315638 185.35521L24.315638 186.62083L23.659388 186.62083Q24.221888 187.08958 24.596888 187.79271L23.800013 188.30833Q22.909388 186.66771 20.846888 185.63646L20.987513 184.65208Q21.175013 184.51146 21.221888 184.74583Q22.675013 183.62083 23.518763 181.69896L24.362513 182.16771Q24.175013 182.68333 23.706263 183.29271L24.315638 183.29271ZM29.800013 189.66771Q28.909388 189.85521 28.300013 190.04271L28.206263 189.52708Q28.815638 189.24583 29.612513 189.10521L29.800013 189.66771ZM30.503138 192.76146Q29.143763 192.38646 28.253138 192.38646L28.346888 191.77708Q29.846888 191.87083 30.737513 192.10521L30.503138 192.76146ZM30.268763 191.49583Q29.284388 191.49583 28.346888 191.58958L28.300013 191.07396Q29.190638 190.93333 30.175013 190.93333L30.268763 191.49583ZM30.643763 190.46458L30.643763 189.43333Q30.643763 189.15208 30.362513 189.05833Q29.987513 188.91771 29.471888 188.91771L27.643763 188.87083L27.643763 192.15208L21.315638 192.15208L21.315638 188.02708L22.065638 188.02708L22.065638 189.52708L23.096888 189.52708L23.096888 188.40208L23.846888 188.40208L23.846888 189.52708L24.971888 189.52708L24.971888 188.30833L25.721888 188.30833L25.721888 189.52708L26.893763 189.52708L26.893763 188.02708L29.565638 188.12083Q30.643763 188.16771 31.018763 188.35521Q31.534388 188.58958 31.534388 189.15208L31.534388 190.37083L30.643763 190.46458ZM25.956263 184.55833L27.175013 184.55833L27.175013 183.19896L25.956263 183.19896L25.956263 184.55833ZM25.956263 185.35521L25.956263 186.66771L27.175013 186.66771L27.175013 185.35521L25.956263 185.35521ZM28.300013 190.27708Q29.190638 189.94896 29.940638 189.94896L30.081263 190.51146Q29.003138 190.60521 28.346888 190.79271L28.300013 190.27708ZM25.721888 190.32396L25.721888 191.35521L26.893763 191.35521L26.893763 190.32396L25.721888 190.32396ZM23.846888 190.32396L23.846888 191.35521L24.971888 191.35521L24.971888 190.32396L23.846888 190.32396ZM22.065638 190.32396L22.065638 191.35521L23.096888 191.35521L23.096888 190.32396L22.065638 190.32396ZM23.565638 183.52708Q22.909388 184.46458 21.831263 185.21458Q22.862513 185.77708 23.565638 186.52708L23.565638 183.52708ZM21.268763 177.85521Q22.487513 178.04271 23.940638 178.51146Q23.987513 178.08958 24.268763 178.37083L31.534388 178.37083L31.534388 179.30833L25.721888 179.30833Q26.237513 179.63646 26.565638 179.91771L26.003138 180.66771Q24.081263 179.07396 20.800013 178.79271L21.034388 177.71458Q21.221888 177.52708 21.268763 177.85521ZM23.003138 173.26146L23.893763 173.26146L23.893763 170.96458L29.425013 170.96458L29.425013 175.32396L23.893763 175.32396L23.893763 174.19896L23.003138 174.19896L23.003138 177.57396L22.112513 177.57396L22.112513 174.19896L20.800013 174.19896L20.800013 173.30833Q20.846888 172.93333 21.081263 173.26146L22.112513 173.26146L22.112513 170.21458L23.003138 170.21458L23.003138 173.26146ZM24.643763 174.52708L25.487513 174.52708L25.487513 171.76146L24.643763 171.76146L24.643763 174.52708ZM26.237513 174.52708L27.034388 174.52708L27.034388 171.76146L26.237513 171.76146L26.237513 174.52708ZM27.784388 174.52708L28.675013 174.52708L28.675013 171.76146L27.784388 171.76146L27.784388 174.52708ZM31.534388 177.24583L24.034388 177.24583L24.034388 176.35521Q24.081263 175.98021 24.315638 176.30833L30.221888 176.30833L30.221888 169.83958L31.112513 169.83958L31.112513 176.30833L31.534388 176.30833L31.534388 177.24583Z" fill-rule="nonzero"/><path fill="#757575" d="M69.81563 302.95L68.7375 302.95L68.7375 295.73126L66.55 296.52814L66.55 295.54376L69.65938 294.3719L69.81563 294.3719L69.81563 302.95ZM78.6125 299.3094Q78.6125 301.21564 77.95625 302.15314Q77.31563 303.075 75.925 303.075Q74.56563 303.075 73.90938 302.16876Q73.25313 301.2625 73.22188 299.45L73.22188 298.0125Q73.22188 296.1219 73.8625 295.21564Q74.51875 294.29376 75.90938 294.29376Q77.28438 294.29376 77.94063 295.1844Q78.59688 296.0594 78.6125 297.90314L78.6125 299.3094ZM77.51875 297.825Q77.51875 296.45 77.12813 295.825Q76.75313 295.1844 75.90938 295.1844Q75.08125 295.1844 74.69063 295.825Q74.31563 296.45 74.31563 297.7469L74.31563 299.48126Q74.31563 300.85626 74.70625 301.52814Q75.1125 302.1844 75.925 302.1844Q76.72188 302.1844 77.1125 301.5594Q77.50313 300.9344 77.51875 299.60626L77.51875 297.825Z" fill-rule="nonzero"/><path fill="#757575" d="M66.75313 242.55814L67.19063 238.30814L71.56563 238.30814L71.56563 239.30814L68.1125 239.30814L67.84688 241.63626Q68.4875 241.26126 69.28438 241.26126Q70.44063 241.26126 71.12813 242.04251Q71.81563 242.80814 71.81563 244.12064Q71.81563 245.43314 71.09688 246.19876Q70.39375 246.96439 69.1125 246.96439Q67.9875 246.96439 67.26875 246.33939Q66.55 245.69876 66.45625 244.58939L67.47188 244.58939Q67.58125 245.32376 68.00313 245.69876Q68.425 246.07376 69.1125 246.07376Q69.8625 246.07376 70.3 245.55814Q70.7375 245.04251 70.7375 244.13626Q70.7375 243.27689 70.26875 242.76126Q69.8 242.24564 69.01875 242.24564Q68.31563 242.24564 67.90938 242.54251L67.62813 242.77689L66.75313 242.55814ZM78.6125 243.19876Q78.6125 245.10501 77.95625 246.04251Q77.31563 246.96439 75.925 246.96439Q74.56563 246.96439 73.90938 246.05814Q73.25313 245.15189 73.22188 243.33939L73.22188 241.90189Q73.22188 240.01126 73.8625 239.10501Q74.51875 238.18314 75.90938 238.18314Q77.28438 238.18314 77.94063 239.07376Q78.59688 239.94876 78.6125 241.79251L78.6125 243.19876ZM77.51875 241.71439Q77.51875 240.33939 77.12813 239.71439Q76.75313 239.07376 75.90938 239.07376Q75.08125 239.07376 74.69063 239.71439Q74.31563 240.33939 74.31563 241.63626L74.31563 243.37064Q74.31563 244.74564 74.70625 245.41751Q75.1125 246.07376 75.925 246.07376Q76.72188 246.07376 77.1125 245.44876Q77.50313 244.82376 77.51875 243.49564L77.51875 241.71439Z" fill-rule="nonzero"/><path fill="#757575" d="M62.815624 222.67386L61.7375 222.67386L61.7375 215.45511L59.55 216.25198L59.55 215.26761L62.659374 214.09573L62.815624 214.09573L62.815624 222.67386ZM71.6125 219.03323Q71.6125 220.93948 70.95625 221.87698Q70.31563 222.79886 68.925 222.79886Q67.56563 222.79886 66.90938 221.89261Q66.25313 220.98636 66.22188 219.17386L66.22188 217.73636Q66.22188 215.84573 66.8625 214.93948Q67.51875 214.01761 68.90938 214.01761Q70.28438 214.01761 70.94063 214.90823Q71.59688 215.78323 71.6125 217.62698L71.6125 219.03323ZM70.51875 217.54886Q70.51875 216.17386 70.12813 215.54886Q69.75313 214.90823 68.90938 214.90823Q68.08125 214.90823 67.69063 215.54886Q67.31563 216.17386 67.31563 217.47073L67.31563 219.20511Q67.31563 220.58011 67.70625 221.25198Q68.1125 221.90823 68.925 221.90823Q69.72188 221.90823 70.1125 221.28323Q70.50313 220.65823 70.51875 219.33011L70.51875 217.54886ZM78.6125 219.03323Q78.6125 220.93948 77.95625 221.87698Q77.31563 222.79886 75.925 222.79886Q74.56563 222.79886 73.90938 221.89261Q73.25313 220.98636 73.22188 219.17386L73.22188 217.73636Q73.22188 215.84573 73.8625 214.93948Q74.51875 214.01761 75.90938 214.01761Q77.28438 214.01761 77.94063 214.90823Q78.59688 215.78323 78.6125 217.62698L78.6125 219.03323ZM77.51875 217.54886Q77.51875 216.17386 77.12813 215.54886Q76.75313 214.90823 75.90938 214.90823Q75.08125 214.90823 74.69063 215.54886Q74.31563 216.17386 74.31563 217.47073L74.31563 219.20511Q74.31563 220.58011 74.70625 221.25198Q75.1125 221.90823 75.925 221.90823Q76.72188 221.90823 77.1125 221.28323Q77.50313 220.65823 77.51875 219.33011L77.51875 217.54886Z" fill-rule="nonzero"/><path fill="#757575" d="M59.753124 162.28198L60.190624 158.03198L64.56563 158.03198L64.56563 159.03198L61.1125 159.03198L60.846874 161.3601Q61.4875 160.9851 62.284374 160.9851Q63.440624 160.9851 64.12813 161.76636Q64.81563 162.53198 64.81563 163.84448Q64.81563 165.15698 64.09688 165.9226Q63.39375 166.68823 62.1125 166.68823Q60.9875 166.68823 60.26875 166.06323Q59.55 165.4226 59.45625 164.31323L60.471874 164.31323Q60.58125 165.0476 61.003124 165.4226Q61.425 165.7976 62.1125 165.7976Q62.8625 165.7976 63.3 165.28198Q63.7375 164.76636 63.7375 163.8601Q63.7375 163.00073 63.26875 162.4851Q62.8 161.96948 62.01875 161.96948Q61.315624 161.96948 60.909374 162.26636L60.628124 162.50073L59.753124 162.28198ZM71.6125 162.9226Q71.6125 164.82886 70.95625 165.76636Q70.31563 166.68823 68.925 166.68823Q67.56563 166.68823 66.90938 165.78198Q66.25313 164.87573 66.22188 163.06323L66.22188 161.62573Q66.22188 159.7351 66.8625 158.82886Q67.51875 157.90698 68.90938 157.90698Q70.28438 157.90698 70.94063 158.7976Q71.59688 159.6726 71.6125 161.51636L71.6125 162.9226ZM70.51875 161.43823Q70.51875 160.06323 70.12813 159.43823Q69.75313 158.7976 68.90938 158.7976Q68.08125 158.7976 67.69063 159.43823Q67.31563 160.06323 67.31563 161.3601L67.31563 163.09448Q67.31563 164.46948 67.70625 165.14136Q68.1125 165.7976 68.925 165.7976Q69.72188 165.7976 70.1125 165.1726Q70.50313 164.5476 70.51875 163.21948L70.51875 161.43823ZM78.6125 162.9226Q78.6125 164.82886 77.95625 165.76636Q77.31563 166.68823 75.925 166.68823Q74.56563 166.68823 73.90938 165.78198Q73.25313 164.87573 73.22188 163.06323L73.22188 161.62573Q73.22188 159.7351 73.8625 158.82886Q74.51875 157.90698 75.90938 157.90698Q77.28438 157.90698 77.94063 158.7976Q78.59688 159.6726 78.6125 161.51636L78.6125 162.9226ZM77.51875 161.43823Q77.51875 160.06323 77.12813 159.43823Q76.75313 158.7976 75.90938 158.7976Q75.08125 158.7976 74.69063 159.43823Q74.31563 160.06323 74.31563 161.3601L74.31563 163.09448Q74.31563 164.46948 74.70625 165.14136Q75.1125 165.7976 75.925 165.7976Q76.72188 165.7976 77.1125 165.1726Q77.50313 164.5476 77.51875 163.21948L77.51875 161.43823Z" fill-rule="nonzero"/><path fill="#757575" d="M55.815624 142.3977L54.7375 142.3977L54.7375 135.17896L52.55 135.97583L52.55 134.99146L55.659374 133.81958L55.815624 133.81958L55.815624 142.3977ZM64.6125 138.75708Q64.6125 140.66333 63.95625 141.60083Q63.315624 142.5227 61.925 142.5227Q60.565624 142.5227 59.909374 141.61646Q59.253124 140.7102 59.221874 138.8977L59.221874 137.4602Q59.221874 135.56958 59.8625 134.66333Q60.51875 133.74146 61.909374 133.74146Q63.284374 133.74146 63.940624 134.63208Q64.59688 135.50708 64.6125 137.35083L64.6125 138.75708ZM63.51875 137.2727Q63.51875 135.8977 63.128124 135.2727Q62.753124 134.63208 61.909374 134.63208Q61.08125 134.63208 60.690624 135.2727Q60.315624 135.8977 60.315624 137.19458L60.315624 138.92896Q60.315624 140.30396 60.70625 140.97583Q61.1125 141.63208 61.925 141.63208Q62.721874 141.63208 63.1125 141.00708Q63.503124 140.38208 63.51875 139.05396L63.51875 137.2727ZM71.6125 138.75708Q71.6125 140.66333 70.95625 141.60083Q70.31563 142.5227 68.925 142.5227Q67.56563 142.5227 66.90938 141.61646Q66.25313 140.7102 66.22188 138.8977L66.22188 137.4602Q66.22188 135.56958 66.8625 134.66333Q67.51875 133.74146 68.90938 133.74146Q70.28438 133.74146 70.94063 134.63208Q71.59688 135.50708 71.6125 137.35083L71.6125 138.75708ZM70.51875 137.2727Q70.51875 135.8977 70.12813 135.2727Q69.75313 134.63208 68.90938 134.63208Q68.08125 134.63208 67.69063 135.2727Q67.31563 135.8977 67.31563 137.19458L67.31563 138.92896Q67.31563 140.30396 67.70625 140.97583Q68.1125 141.63208 68.925 141.63208Q69.72188 141.63208 70.1125 141.00708Q70.50313 140.38208 70.51875 139.05396L70.51875 137.2727ZM78.6125 138.75708Q78.6125 140.66333 77.95625 141.60083Q77.31563 142.5227 75.925 142.5227Q74.56563 142.5227 73.90938 141.61646Q73.25313 140.7102 73.22188 138.8977L73.22188 137.4602Q73.22188 135.56958 73.8625 134.66333Q74.51875 133.74146 75.90938 133.74146Q77.28438 133.74146 77.94063 134.63208Q78.59688 135.50708 78.6125 137.35083L78.6125 138.75708ZM77.51875 137.2727Q77.51875 135.8977 77.12813 135.2727Q76.75313 134.63208 75.90938 134.63208Q75.08125 134.63208 74.69063 135.2727Q74.31563 135.8977 74.31563 137.19458L74.31563 138.92896Q74.31563 140.30396 74.70625 140.97583Q75.1125 141.63208 75.925 141.63208Q76.72188 141.63208 77.1125 141.00708Q77.50313 140.38208 77.51875 139.05396L77.51875 137.2727Z" fill-rule="nonzero"/><path fill="#757575" d="M52.753124 82.005844L53.190624 77.755844L57.565624 77.755844L57.565624 78.755844L54.1125 78.755844L53.846874 81.08397Q54.4875 80.70897 55.284374 80.70897Q56.440624 80.70897 57.128124 81.49022Q57.815624 82.255844 57.815624 83.568344Q57.815624 84.880844 57.096874 85.64647Q56.39375 86.412094 55.1125 86.412094Q53.9875 86.412094 53.26875 85.787094Q52.55 85.14647 52.45625 84.037094L53.471874 84.037094Q53.58125 84.77147 54.003124 85.14647Q54.425 85.52147 55.1125 85.52147Q55.8625 85.52147 56.3 85.005844Q56.7375 84.49022 56.7375 83.58397Q56.7375 82.724594 56.26875 82.20897Q55.8 81.693344 55.01875 81.693344Q54.315624 81.693344 53.909374 81.99022L53.628124 82.224594L52.753124 82.005844ZM64.6125 82.64647Q64.6125 84.55272 63.95625 85.49022Q63.315624 86.412094 61.925 86.412094Q60.565624 86.412094 59.909374 85.505844Q59.253124 84.599594 59.221874 82.787094L59.221874 81.349594Q59.221874 79.45897 59.8625 78.55272Q60.51875 77.630844 61.909374 77.630844Q63.284374 77.630844 63.940624 78.52147Q64.59688 79.39647 64.6125 81.24022L64.6125 82.64647ZM63.51875 81.162094Q63.51875 79.787094 63.128124 79.162094Q62.753124 78.52147 61.909374 78.52147Q61.08125 78.52147 60.690624 79.162094Q60.315624 79.787094 60.315624 81.08397L60.315624 82.818344Q60.315624 84.193344 60.70625 84.86522Q61.1125 85.52147 61.925 85.52147Q62.721874 85.52147 63.1125 84.89647Q63.503124 84.27147 63.51875 82.943344L63.51875 81.162094ZM71.6125 82.64647Q71.6125 84.55272 70.95625 85.49022Q70.31563 86.412094 68.925 86.412094Q67.56563 86.412094 66.90938 85.505844Q66.25313 84.599594 66.22188 82.787094L66.22188 81.349594Q66.22188 79.45897 66.8625 78.55272Q67.51875 77.630844 68.90938 77.630844Q70.28438 77.630844 70.94063 78.52147Q71.59688 79.39647 71.6125 81.24022L71.6125 82.64647ZM70.51875 81.162094Q70.51875 79.787094 70.12813 79.162094Q69.75313 78.52147 68.90938 78.52147Q68.08125 78.52147 67.69063 79.162094Q67.31563 79.787094 67.31563 81.08397L67.31563 82.818344Q67.31563 84.193344 67.70625 84.86522Q68.1125 85.52147 68.925 85.52147Q69.72188 85.52147 70.1125 84.89647Q70.50313 84.27147 70.51875 82.943344L70.51875 81.162094ZM78.6125 82.64647Q78.6125 84.55272 77.95625 85.49022Q77.31563 86.412094 75.925 86.412094Q74.56563 86.412094 73.90938 85.505844Q73.25313 84.599594 73.22188 82.787094L73.22188 81.349594Q73.22188 79.45897 73.8625 78.55272Q74.51875 77.630844 75.90938 77.630844Q77.28438 77.630844 77.94063 78.52147Q78.59688 79.39647 78.6125 81.24022L78.6125 82.64647ZM77.51875 81.162094Q77.51875 79.787094 77.12813 79.162094Q76.75313 78.52147 75.90938 78.52147Q75.08125 78.52147 74.69063 79.162094Q74.31563 79.787094 74.31563 81.08397L74.31563 82.818344Q74.31563 84.193344 74.70625 84.86522Q75.1125 85.52147 75.925 85.52147Q76.72188 85.52147 77.1125 84.89647Q77.50313 84.27147 77.51875 82.943344L77.51875 81.162094Z" fill-rule="nonzero"/><path fill="#757575" d="M77.81563 316.45L76.7375 316.45L76.7375 309.23126L74.55 310.02814L74.55 309.04376L77.65938 307.8719L77.81563 307.8719L77.81563 316.45ZM81.39375 315.8875Q81.39375 315.60626 81.55 315.41876Q81.72188 315.23126 82.05 315.23126Q82.39375 315.23126 82.56563 315.41876Q82.7375 315.60626 82.7375 315.8875Q82.7375 316.15314 82.56563 316.34064Q82.39375 316.5125 82.05 316.5125Q81.72188 316.5125 81.55 316.34064Q81.39375 316.15314 81.39375 315.8875ZM89.6125 312.8094Q89.6125 314.71564 88.95625 315.65314Q88.31563 316.575 86.925 316.575Q85.56563 316.575 84.90938 315.66876Q84.25313 314.7625 84.22188 312.95L84.22188 311.5125Q84.22188 309.6219 84.8625 308.71564Q85.51875 307.79376 86.90938 307.79376Q88.28438 307.79376 88.94063 308.6844Q89.59688 309.5594 89.6125 311.40314L89.6125 312.8094ZM88.51875 311.325Q88.51875 309.95 88.12813 309.325Q87.75313 308.6844 86.90938 308.6844Q86.08125 308.6844 85.69063 309.325Q85.31563 309.95 85.31563 311.2469L85.31563 312.98126Q85.31563 314.35626 85.70625 315.02814Q86.1125 315.6844 86.925 315.6844Q87.72188 315.6844 88.1125 315.0594Q88.50313 314.4344 88.51875 313.10626L88.51875 311.325ZM96.6125 312.8094Q96.6125 314.71564 95.95625 315.65314Q95.31563 316.575 93.925 316.575Q92.56563 316.575 91.90938 315.66876Q91.25313 314.7625 91.22188 312.95L91.22188 311.5125Q91.22188 309.6219 91.8625 308.71564Q92.51875 307.79376 93.90938 307.79376Q95.28438 307.79376 95.94063 308.6844Q96.59688 309.5594 96.6125 311.40314L96.6125 312.8094ZM95.51875 311.325Q95.51875 309.95 95.12813 309.325Q94.75313 308.6844 93.90938 308.6844Q93.08125 308.6844 92.69063 309.325Q92.31563 309.95 92.31563 311.2469L92.31563 312.98126Q92.31563 314.35626 92.70625 315.02814Q93.1125 315.6844 93.925 315.6844Q94.72188 315.6844 95.1125 315.0594Q95.50313 314.4344 95.51875 313.10626L95.51875 311.325Z" fill-rule="nonzero"/><path fill="#757575" d="M206.77646 316.45L201.18271 316.45L201.18271 315.66876L204.13583 312.3875Q204.79208 311.6375 205.04208 311.1844Q205.29208 310.71564 205.29208 310.21564Q205.29208 309.54376 204.88583 309.1219Q204.49521 308.6844 203.80771 308.6844Q203.01083 308.6844 202.55771 309.15314Q202.10458 309.60626 202.10458 310.4344L201.02646 310.4344Q201.02646 309.2469 201.77646 308.52814Q202.54208 307.79376 203.80771 307.79376Q205.01083 307.79376 205.69833 308.41876Q206.38583 309.04376 206.38583 310.09064Q206.38583 311.34064 204.77646 313.09064L202.49521 315.5594L206.77646 315.5594L206.77646 316.45ZM208.32333 315.8875Q208.32333 315.60626 208.47958 315.41876Q208.65146 315.23126 208.97958 315.23126Q209.32333 315.23126 209.49521 315.41876Q209.66708 315.60626 209.66708 315.8875Q209.66708 316.15314 209.49521 316.34064Q209.32333 316.5125 208.97958 316.5125Q208.65146 316.5125 208.47958 316.34064Q208.32333 316.15314 208.32333 315.8875ZM216.54208 312.8094Q216.54208 314.71564 215.88583 315.65314Q215.24521 316.575 213.85458 316.575Q212.49521 316.575 211.83896 315.66876Q211.18271 314.7625 211.15146 312.95L211.15146 311.5125Q211.15146 309.6219 211.79208 308.71564Q212.44833 307.79376 213.83896 307.79376Q215.21396 307.79376 215.87021 308.6844Q216.52646 309.5594 216.54208 311.40314L216.54208 312.8094ZM215.44833 311.325Q215.44833 309.95 215.05771 309.325Q214.68271 308.6844 213.83896 308.6844Q213.01083 308.6844 212.62021 309.325Q212.24521 309.95 212.24521 311.2469L212.24521 312.98126Q212.24521 314.35626 212.63583 315.02814Q213.04208 315.6844 213.85458 315.6844Q214.65146 315.6844 215.04208 315.0594Q215.43271 314.4344 215.44833 313.10626L215.44833 311.325ZM223.54208 312.8094Q223.54208 314.71564 222.88583 315.65314Q222.24521 316.575 220.85458 316.575Q219.49521 316.575 218.83896 315.66876Q218.18271 314.7625 218.15146 312.95L218.15146 311.5125Q218.15146 309.6219 218.79208 308.71564Q219.44833 307.79376 220.83896 307.79376Q222.21396 307.79376 222.87021 308.6844Q223.52646 309.5594 223.54208 311.40314L223.54208 312.8094ZM222.44833 311.325Q222.44833 309.95 222.05771 309.325Q221.68271 308.6844 220.83896 308.6844Q220.01083 308.6844 219.62021 309.325Q219.24521 309.95 219.24521 311.2469L219.24521 312.98126Q219.24521 314.35626 219.63583 315.02814Q220.04208 315.6844 220.85458 315.6844Q221.65146 315.6844 222.04208 315.0594Q222.43271 314.4344 222.44833 313.10626L222.44833 311.325Z" fill-rule="nonzero"/><path fill="#757575" d="M332.69043 313.59064L333.87793 313.59064L333.87793 314.46564L332.69043 314.46564L332.69043 316.45L331.6123 316.45L331.6123 314.46564L327.72168 314.46564L327.72168 313.825L331.53418 307.91876L332.69043 307.91876L332.69043 313.59064ZM328.95605 313.59064L331.6123 313.59064L331.6123 309.40314L331.47168 309.6375L328.95605 313.59064ZM335.25293 315.8875Q335.25293 315.60626 335.40918 315.41876Q335.58105 315.23126 335.90918 315.23126Q336.25293 315.23126 336.4248 315.41876Q336.59668 315.60626 336.59668 315.8875Q336.59668 316.15314 336.4248 316.34064Q336.25293 316.5125 335.90918 316.5125Q335.58105 316.5125 335.40918 316.34064Q335.25293 316.15314 335.25293 315.8875ZM343.47168 312.8094Q343.47168 314.71564 342.81543 315.65314Q342.1748 316.575 340.78418 316.575Q339.4248 316.575 338.76855 315.66876Q338.1123 314.7625 338.08105 312.95L338.08105 311.5125Q338.08105 309.6219 338.72168 308.71564Q339.37793 307.79376 340.76855 307.79376Q342.14355 307.79376 342.7998 308.6844Q343.45605 309.5594 343.47168 311.40314L343.47168 312.8094ZM342.37793 311.325Q342.37793 309.95 341.9873 309.325Q341.6123 308.6844 340.76855 308.6844Q339.94043 308.6844 339.5498 309.325Q339.1748 309.95 339.1748 311.2469L339.1748 312.98126Q339.1748 314.35626 339.56543 315.02814Q339.97168 315.6844 340.78418 315.6844Q341.58105 315.6844 341.97168 315.0594Q342.3623 314.4344 342.37793 313.10626L342.37793 311.325ZM350.47168 312.8094Q350.47168 314.71564 349.81543 315.65314Q349.1748 316.575 347.78418 316.575Q346.4248 316.575 345.76855 315.66876Q345.1123 314.7625 345.08105 312.95L345.08105 311.5125Q345.08105 309.6219 345.72168 308.71564Q346.37793 307.79376 347.76855 307.79376Q349.14355 307.79376 349.7998 308.6844Q350.45605 309.5594 350.47168 311.40314L350.47168 312.8094ZM349.37793 311.325Q349.37793 309.95 348.9873 309.325Q348.6123 308.6844 347.76855 308.6844Q346.94043 308.6844 346.5498 309.325Q346.1748 309.95 346.1748 311.2469L346.1748 312.98126Q346.1748 314.35626 346.56543 315.02814Q346.97168 315.6844 347.78418 315.6844Q348.58105 315.6844 348.97168 315.0594Q349.3623 314.4344 349.37793 313.10626L349.37793 311.325Z" fill-rule="nonzero"/><path fill="#757575" d="M406.62695 307.91876L406.62695 308.825L406.42383 308.825Q405.1582 308.85626 404.4082 309.59064Q403.6582 310.3094 403.5332 311.6219Q404.2207 310.85626 405.37695 310.85626Q406.48633 310.85626 407.1582 311.6375Q407.83008 312.41876 407.83008 313.66876Q407.83008 314.98126 407.11133 315.77814Q406.39258 316.575 405.17383 316.575Q403.95508 316.575 403.18945 315.6375Q402.43945 314.6844 402.43945 313.2L402.43945 312.79376Q402.43945 310.4344 403.43945 309.1844Q404.43945 307.9344 406.42383 307.91876L406.62695 307.91876ZM405.20508 311.7625Q404.64258 311.7625 404.17383 312.09064Q403.70508 312.41876 403.51758 312.9344L403.51758 313.325Q403.51758 314.3875 403.98633 315.02814Q404.4707 315.66876 405.17383 315.66876Q405.9082 315.66876 406.33008 315.1375Q406.75195 314.59064 406.75195 313.71564Q406.75195 312.84064 406.33008 312.3094Q405.9082 311.7625 405.20508 311.7625ZM409.50195 315.8875Q409.50195 315.60626 409.6582 315.41876Q409.83008 315.23126 410.1582 315.23126Q410.50195 315.23126 410.67383 315.41876Q410.8457 315.60626 410.8457 315.8875Q410.8457 316.15314 410.67383 316.34064Q410.50195 316.5125 410.1582 316.5125Q409.83008 316.5125 409.6582 316.34064Q409.50195 316.15314 409.50195 315.8875ZM417.7207 312.8094Q417.7207 314.71564 417.06445 315.65314Q416.42383 316.575 415.0332 316.575Q413.67383 316.575 413.01758 315.66876Q412.36133 314.7625 412.33008 312.95L412.33008 311.5125Q412.33008 309.6219 412.9707 308.71564Q413.62695 307.79376 415.01758 307.79376Q416.39258 307.79376 417.04883 308.6844Q417.70508 309.5594 417.7207 311.40314L417.7207 312.8094ZM416.62695 311.325Q416.62695 309.95 416.23633 309.325Q415.86133 308.6844 415.01758 308.6844Q414.18945 308.6844 413.79883 309.325Q413.42383 309.95 413.42383 311.2469L413.42383 312.98126Q413.42383 314.35626 413.81445 315.02814Q414.2207 315.6844 415.0332 315.6844Q415.83008 315.6844 416.2207 315.0594Q416.61133 314.4344 416.62695 313.10626L416.62695 311.325ZM424.7207 312.8094Q424.7207 314.71564 424.06445 315.65314Q423.42383 316.575 422.0332 316.575Q420.67383 316.575 420.01758 315.66876Q419.36133 314.7625 419.33008 312.95L419.33008 311.5125Q419.33008 309.6219 419.9707 308.71564Q420.62695 307.79376 422.01758 307.79376Q423.39258 307.79376 424.04883 308.6844Q424.70508 309.5594 424.7207 311.40314L424.7207 312.8094ZM423.62695 311.325Q423.62695 309.95 423.23633 309.325Q422.86133 308.6844 422.01758 308.6844Q421.18945 308.6844 420.79883 309.325Q420.42383 309.95 420.42383 311.2469L420.42383 312.98126Q420.42383 314.35626 420.81445 315.02814Q421.2207 315.6844 422.0332 315.6844Q422.83008 315.6844 423.2207 315.0594Q423.61133 314.4344 423.62695 313.10626L423.62695 311.325Z" fill-rule="nonzero"/><path fill="#757575" d="M460.22937 310.1375Q460.22937 310.77814 459.88562 311.27814Q459.54187 311.77814 458.97937 312.0594Q459.63562 312.34064 460.02625 312.90314Q460.41687 313.45 460.41687 314.15314Q460.41687 315.2469 459.66687 315.91876Q458.9325 316.575 457.71375 316.575Q456.47937 316.575 455.72937 315.91876Q454.995 315.2469 454.995 314.15314Q454.995 313.45 455.37 312.90314Q455.745 312.34064 456.41687 312.0594Q455.85437 311.77814 455.52625 311.27814Q455.19812 310.77814 455.19812 310.1375Q455.19812 309.0594 455.88562 308.4344Q456.57312 307.79376 457.71375 307.79376Q458.83875 307.79376 459.52625 308.4344Q460.22937 309.0594 460.22937 310.1375ZM459.33875 314.1219Q459.33875 313.40314 458.88562 312.96564Q458.4325 312.5125 457.69812 312.5125Q456.96375 312.5125 456.51062 312.96564Q456.07312 313.40314 456.07312 314.1375Q456.07312 314.85626 456.51062 315.27814Q456.94812 315.6844 457.71375 315.6844Q458.46375 315.6844 458.90125 315.2625Q459.33875 314.84064 459.33875 314.1219ZM457.71375 308.6844Q457.07312 308.6844 456.66687 309.09064Q456.27625 309.48126 456.27625 310.16876Q456.27625 310.8094 456.66687 311.21564Q457.0575 311.6219 457.69812 311.6219Q458.35437 311.6219 458.745 311.21564Q459.13562 310.8094 459.13562 310.16876Q459.13562 309.5125 458.72937 309.10626Q458.32312 308.6844 457.71375 308.6844ZM462.1825 315.8875Q462.1825 315.60626 462.33875 315.41876Q462.51062 315.23126 462.83875 315.23126Q463.1825 315.23126 463.35437 315.41876Q463.52625 315.60626 463.52625 315.8875Q463.52625 316.15314 463.35437 316.34064Q463.1825 316.5125 462.83875 316.5125Q462.51062 316.5125 462.33875 316.34064Q462.1825 316.15314 462.1825 315.8875ZM470.40125 312.8094Q470.40125 314.71564 469.745 315.65314Q469.10437 316.575 467.71375 316.575Q466.35437 316.575 465.69812 315.66876Q465.04187 314.7625 465.01062 312.95L465.01062 311.5125Q465.01062 309.6219 465.65125 308.71564Q466.3075 307.79376 467.69812 307.79376Q469.07312 307.79376 469.72937 308.6844Q470.38562 309.5594 470.40125 311.40314L470.40125 312.8094ZM469.3075 311.325Q469.3075 309.95 468.91687 309.325Q468.54187 308.6844 467.69812 308.6844Q466.87 308.6844 466.47937 309.325Q466.10437 309.95 466.10437 311.2469L466.10437 312.98126Q466.10437 314.35626 466.495 315.02814Q466.90125 315.6844 467.71375 315.6844Q468.51062 315.6844 468.90125 315.0594Q469.29187 314.4344 469.3075 313.10626L469.3075 311.325ZM477.40125 312.8094Q477.40125 314.71564 476.745 315.65314Q476.10437 316.575 474.71375 316.575Q473.35437 316.575 472.69812 315.66876Q472.04187 314.7625 472.01062 312.95L472.01062 311.5125Q472.01062 309.6219 472.65125 308.71564Q473.3075 307.79376 474.69812 307.79376Q476.07312 307.79376 476.72937 308.6844Q477.38562 309.5594 477.40125 311.40314L477.40125 312.8094ZM476.3075 311.325Q476.3075 309.95 475.91687 309.325Q475.54187 308.6844 474.69812 308.6844Q473.87 308.6844 473.47937 309.325Q473.10437 309.95 473.10437 311.2469L473.10437 312.98126Q473.10437 314.35626 473.495 315.02814Q473.90125 315.6844 474.71375 315.6844Q475.51062 315.6844 475.90125 315.0594Q476.29187 314.4344 476.3075 313.10626L476.3075 311.325Z" fill-rule="nonzero"/><path fill="#757575" d="M495.96658 316.45L494.88846 316.45L494.88846 309.23126L492.70096 310.02814L492.70096 309.04376L495.81033 307.8719L495.96658 307.8719L495.96658 316.45ZM504.76346 312.8094Q504.76346 314.71564 504.1072 315.65314Q503.46658 316.575 502.07596 316.575Q500.71658 316.575 500.06033 315.66876Q499.40408 314.7625 499.37283 312.95L499.37283 311.5125Q499.37283 309.6219 500.01346 308.71564Q500.6697 307.79376 502.06033 307.79376Q503.43533 307.79376 504.09158 308.6844Q504.74783 309.5594 504.76346 311.40314L504.76346 312.8094ZM503.6697 311.325Q503.6697 309.95 503.27908 309.325Q502.90408 308.6844 502.06033 308.6844Q501.2322 308.6844 500.84158 309.325Q500.46658 309.95 500.46658 311.2469L500.46658 312.98126Q500.46658 314.35626 500.8572 315.02814Q501.26346 315.6844 502.07596 315.6844Q502.87283 315.6844 503.26346 315.0594Q503.65408 314.4344 503.6697 313.10626L503.6697 311.325ZM506.5447 315.8875Q506.5447 315.60626 506.70096 315.41876Q506.87283 315.23126 507.20096 315.23126Q507.5447 315.23126 507.71658 315.41876Q507.88846 315.60626 507.88846 315.8875Q507.88846 316.15314 507.71658 316.34064Q507.5447 316.5125 507.20096 316.5125Q506.87283 316.5125 506.70096 316.34064Q506.5447 316.15314 506.5447 315.8875ZM514.7634 312.8094Q514.7634 314.71564 514.1072 315.65314Q513.46655 316.575 512.0759 316.575Q510.71658 316.575 510.06033 315.66876Q509.40408 314.7625 509.37283 312.95L509.37283 311.5125Q509.37283 309.6219 510.01346 308.71564Q510.6697 307.79376 512.0603 307.79376Q513.4353 307.79376 514.09155 308.6844Q514.7478 309.5594 514.7634 311.40314L514.7634 312.8094ZM513.6697 311.325Q513.6697 309.95 513.27905 309.325Q512.90405 308.6844 512.0603 308.6844Q511.2322 308.6844 510.84158 309.325Q510.46658 309.95 510.46658 311.2469L510.46658 312.98126Q510.46658 314.35626 510.8572 315.02814Q511.26346 315.6844 512.0759 315.6844Q512.8728 315.6844 513.2634 315.0594Q513.65405 314.4344 513.6697 313.10626L513.6697 311.325ZM521.7634 312.8094Q521.7634 314.71564 521.1072 315.65314Q520.46655 316.575 519.0759 316.575Q517.71655 316.575 517.0603 315.66876Q516.40405 314.7625 516.3728 312.95L516.3728 311.5125Q516.3728 309.6219 517.0134 308.71564Q517.6697 307.79376 519.0603 307.79376Q520.4353 307.79376 521.09155 308.6844Q521.7478 309.5594 521.7634 311.40314L521.7634 312.8094ZM520.6697 311.325Q520.6697 309.95 520.27905 309.325Q519.90405 308.6844 519.0603 308.6844Q518.2322 308.6844 517.84155 309.325Q517.46655 309.95 517.46655 311.2469L517.46655 312.98126Q517.46655 314.35626 517.8572 315.02814Q518.2634 315.6844 519.0759 315.6844Q519.8728 315.6844 520.2634 315.0594Q520.65405 314.4344 520.6697 313.10626L520.6697 311.325Z" fill-rule="nonzero"/><path fill="#757575" d="M20.659374 24.503124L21.284374 24.971874Q22.534374 23.01875 23.315624 21.221874L24.8 22.08125Q25.190624 22.39375 24.565624 22.471874Q23.628124 24.1125 22.378124 25.83125L23.471874 26.76875Q24.565624 25.440624 25.659374 23.565624L26.9875 24.425Q27.45625 24.7375 26.83125 24.815624Q24.95625 27.315624 23.08125 29.425L25.659374 29.26875L24.95625 28.01875L26.284374 27.471874Q27.3 28.8 28.08125 31.065624L26.51875 31.690624L26.128124 30.51875L24.409374 30.675L24.409374 39.26875L22.846874 39.26875L22.846874 30.83125L20.190624 30.909374Q20.1125 31.45625 19.8 31.14375L19.409374 29.425L21.284374 29.425L22.534374 28.01875Q21.128124 26.925 19.721874 25.83125L20.659374 24.503124ZM27.690624 29.190624Q30.190624 28.253124 31.128124 27.471874Q29.8 26.065624 28.8625 23.878124L27.76875 23.878124L27.76875 22.39375L34.878124 22.39375L35.1125 22.159374L36.3625 23.175L35.971874 23.4875Q35.26875 25.51875 33.471874 27.39375Q34.64375 28.175 37.76875 28.95625L37.221874 30.675Q33.70625 29.58125 32.378124 28.409374Q30.7375 29.815624 28.39375 30.675L27.690624 29.190624ZM27.14375 38.64375L27.14375 37.159374L31.440624 37.159374L31.440624 33.8L28.2375 33.8L28.2375 32.315624L31.440624 32.315624L31.440624 30.128124L32.925 30.128124Q33.55 30.20625 33.003124 30.596874L33.003124 32.315624L36.440624 32.315624L36.440624 33.8L33.003124 33.8L33.003124 37.159374L37.14375 37.159374L37.14375 38.64375L27.14375 38.64375ZM30.425 23.878124Q31.128124 25.51875 32.3 26.534374Q33.315624 25.440624 34.096874 23.878124L30.425 23.878124ZM21.909374 33.096874Q21.83125 35.05 21.128124 37.55L19.565624 37.003124Q20.190624 34.659374 20.346874 32.315624L22.065624 32.70625Q22.3 33.01875 21.909374 33.096874ZM26.440624 32.2375Q27.221874 33.64375 27.534374 35.83125L25.971874 36.221874Q25.659374 34.034374 25.034374 32.628124L26.440624 32.2375ZM55.034374 27.159374L52.925 27.159374L52.925 28.64375L56.51875 28.64375L56.51875 33.8L55.190624 33.8L55.190624 33.175L53.08125 33.175Q54.4875 35.9875 57.690624 37.55L56.753124 39.034374Q53.628124 37.2375 52.534374 34.7375Q51.440624 37.940624 47.846874 39.26875L47.14375 37.8625Q50.971874 36.45625 51.51875 33.175L49.409374 33.175L49.409374 34.034374L48.08125 34.034374L48.08125 28.64375L51.596874 28.64375L51.596874 27.159374L49.4875 27.159374L49.4875 26.065624Q48.70625 27.003124 47.534374 27.628124L46.675 26.3Q49.409374 24.815624 51.128124 21.378124L52.76875 21.6125Q53.003124 21.925 52.6125 22.003124Q54.4875 24.425 57.690624 25.83125L56.909374 27.2375Q56.05 26.925 55.034374 26.14375L55.034374 27.159374ZM44.409374 36.3Q44.096874 34.815624 43.784374 33.8L44.64375 33.64375Q45.1125 34.659374 45.346874 35.9875L44.409374 36.3ZM39.253124 37.471874Q39.878124 35.20625 39.878124 33.721874L40.89375 33.878124Q40.7375 36.378124 40.346874 37.8625L39.253124 37.471874ZM41.3625 37.08125Q41.3625 35.440624 41.20625 33.878124L42.065624 33.8Q42.3 35.284374 42.3 36.925L41.3625 37.08125ZM43.08125 37.70625L44.8 37.70625Q45.26875 37.70625 45.425 37.2375Q45.659374 36.6125 45.659374 35.753124L45.7375 32.70625L40.26875 32.70625L40.26875 22.159374L47.14375 22.159374L47.14375 23.409374L44.64375 23.409374L44.64375 25.128124L46.51875 25.128124L46.51875 26.378124L44.64375 26.378124L44.64375 28.253124L46.675 28.253124L46.675 29.503124L44.64375 29.503124L44.64375 31.45625L47.14375 31.45625L46.9875 35.909374Q46.909374 37.70625 46.596874 38.33125Q46.20625 39.190624 45.26875 39.190624L43.2375 39.190624L43.08125 37.70625ZM52.925 29.89375L52.925 31.925L55.190624 31.925L55.190624 29.89375L52.925 29.89375ZM51.596874 29.89375L49.409374 29.89375L49.409374 31.925L51.596874 31.925L51.596874 29.89375ZM43.39375 33.8Q43.940624 35.284374 43.940624 36.534374L43.003124 36.76875Q42.846874 34.971874 42.534374 33.878124L43.39375 33.8ZM43.315624 29.503124L41.596874 29.503124L41.596874 31.45625L43.315624 31.45625L43.315624 29.503124ZM43.315624 26.378124L41.596874 26.378124L41.596874 28.253124L43.315624 28.253124L43.315624 26.378124ZM43.315624 23.409374L41.596874 23.409374L41.596874 25.128124L43.315624 25.128124L43.315624 23.409374ZM54.64375 25.909374Q53.08125 24.815624 51.83125 23.01875Q50.89375 24.7375 49.64375 25.909374L54.64375 25.909374ZM64.09688 22.08125Q63.784374 24.1125 63.003124 26.534374Q63.70625 26.6125 63.2375 27.08125L63.2375 39.190624L61.675 39.190624L61.675 29.503124Q61.128124 30.3625 60.659374 30.909374L59.409374 29.971874Q62.065624 26.76875 62.534374 21.3L64.33125 21.690624Q64.64375 22.003124 64.09688 22.08125ZM71.75313 24.971874L71.75313 26.45625L75.58125 26.45625L75.58125 35.675L68.31563 35.675L68.31563 26.45625L70.19063 26.45625L70.19063 24.971874L64.56563 24.971874L64.56563 23.4875L70.19063 23.4875L70.19063 21.3L71.675 21.3Q72.3 21.378124 71.75313 21.76875L71.75313 23.4875L76.83125 23.4875L76.83125 24.971874L71.75313 24.971874ZM69.64375 27.70625L69.64375 29.1125L74.25313 29.1125L74.25313 27.70625L69.64375 27.70625ZM69.64375 30.3625L69.64375 31.690624L74.25313 31.690624L74.25313 30.3625L69.64375 30.3625ZM69.64375 32.940624L69.64375 34.425L74.25313 34.425L74.25313 32.940624L69.64375 32.940624ZM65.1125 39.190624L65.1125 26.690624L66.59688 26.690624Q67.22188 26.76875 66.675 27.159374L66.675 37.003124L77.45625 37.003124L77.45625 38.4875L66.675 38.4875L66.675 39.190624L65.1125 39.190624Z" fill-rule="nonzero"/><path fill="#757575" d="M88.70625 21.925L90.34688 21.925Q91.20625 22.08125 90.50313 22.55L90.65938 26.3Q90.7375 27.940624 91.20625 28.95625Q93.39375 28.01875 97.06563 27.003124L97.84688 29.034374Q90.425 30.3625 87.925 32.8625Q87.06563 33.721874 87.06563 34.659374Q87.06563 35.3625 87.6125 35.909374Q88.15938 36.45625 89.87813 36.45625L97.37813 36.45625L97.37813 38.175L89.8 38.175Q87.22188 38.175 86.20625 37.159374Q85.19063 36.14375 85.19063 34.815624Q85.19063 33.096874 86.44063 31.846874Q87.37813 30.909374 89.56563 29.659374Q89.09688 28.4875 89.01875 27.08125L88.70625 21.925Z" fill-rule="nonzero"/><path fill="#757575" d="M107.08125 36.01875L113.83125 36.01875L113.83125 37.55L105.20625 37.55L105.20625 23.33125L107.08125 23.33125L107.08125 36.01875ZM119.40938 35.096874L122.01875 26.9875L123.8625 26.9875L120.08125 37.55L118.70625 37.55L114.87813 26.9875L116.72188 26.9875L119.40938 35.096874Z" fill-rule="nonzero"/></svg>