<svg version="1.1" viewBox="0.0 0.0 600.0 371.0" fill="none" stroke="none" stroke-linecap="square" stroke-miterlimit="10" width="600" height="371" xmlns:xlink="http://www.w3.org/1999/xlink" xmlns="http://www.w3.org/2000/svg"><path fill="#ffffff" d="M0 0L600.0 0L600.0 371.0L0 371.0L0 0Z" fill-rule="nonzero"/><path stroke="#333333" stroke-width="1.0" stroke-linecap="butt" d="M45.5 344.5L467.5 344.5" fill-rule="nonzero"/><path stroke="#cccccc" stroke-width="1.0" stroke-linecap="butt" d="M45.5 281.5L467.5 281.5" fill-rule="nonzero"/><path stroke="#cccccc" stroke-width="1.0" stroke-linecap="butt" d="M45.5 217.5L467.5 217.5" fill-rule="nonzero"/><path stroke="#cccccc" stroke-width="1.0" stroke-linecap="butt" d="M45.5 153.5L467.5 153.5" fill-rule="nonzero"/><path stroke="#cccccc" stroke-width="1.0" stroke-linecap="butt" d="M45.5 89.5L467.5 89.5" fill-rule="nonzero"/><path stroke="#cccccc" stroke-width="1.0" stroke-linecap="butt" d="M45.5 26.5L467.5 26.5" fill-rule="nonzero"/><clipPath id="id_0"><path d="M45.55 26.05L467.19 26.05L467.19 344.95L45.55 344.95L45.55 26.05Z" clip-rule="nonzero"/></clipPath><path stroke="#4285f4" stroke-width="2.0" stroke-linecap="butt" clip-path="url(#id_0)" d="M59.604668 297.7528L87.714 281.17L115.82333 264.5872L143.93266 250.5556L172.042 235.2484L200.15134 218.6656L228.26067 202.0828L256.37 186.7756L284.47934 172.744L312.58865 156.1612L340.698 139.5784L368.80734 124.2712L396.91666 107.6884L425.026 93.6568L453.13535 75.7984" fill-rule="nonzero"/><path stroke="#4285f4" stroke-width="2.0" stroke-linecap="butt" stroke-opacity="0.4" clip-path="url(#id_0)" d="M0 330.75482L467.19 68.997475" fill-rule="nonzero"/><path stroke="#db4437" stroke-width="2.0" stroke-linecap="butt" clip-path="url(#id_0)" d="M59.604668 293.926L87.714 276.0676L115.82333 259.4848L143.93266 244.1776L172.042 226.3192L200.15134 209.7364L228.26067 191.878L256.37 175.2952L284.47934 159.988L312.58865 142.1296L340.698 125.5468L368.80734 107.6884L396.91666 91.1056L425.026 75.7984L453.13535 56.6644" fill-rule="nonzero"/><path stroke="#db4437" stroke-width="2.0" stroke-linecap="butt" stroke-opacity="0.4" clip-path="url(#id_0)" d="M0 329.45615L467.19 49.299328" fill-rule="nonzero"/><path stroke="#f4b400" stroke-width="2.0" stroke-linecap="butt" clip-path="url(#id_0)" d="M59.604668 297.7528L87.714 281.17L115.82333 264.5872L143.93266 250.5556L172.042 235.2484L200.15134 218.6656L228.26067 202.0828L256.37 186.7756L284.47934 172.744L312.58865 156.1612L340.698 139.5784L368.80734 124.2712L396.91666 107.6884L425.026 93.6568L453.13535 75.7984" fill-rule="nonzero"/><path stroke="#f4b400" stroke-width="2.0" stroke-linecap="butt" stroke-opacity="0.4" clip-path="url(#id_0)" d="M0 330.75482L467.19 68.997475" fill-rule="nonzero"/><path stroke="#0f9d58" stroke-width="2.0" stroke-linecap="butt" clip-path="url(#id_0)" d="M59.604668 300.304L87.714 286.2724L115.82333 270.9652L143.93266 258.2092L172.042 242.902L200.15134 227.5948L228.26067 212.2876L256.37 198.256L284.47934 184.2244L312.58865 170.1928L340.698 154.8856L368.80734 139.5784L396.91666 125.5468L425.026 111.5152L453.13535 94.9324" fill-rule="nonzero"/><path stroke="#0f9d58" stroke-width="2.0" stroke-linecap="butt" stroke-opacity="0.4" clip-path="url(#id_0)" d="M0 331.88727L467.19 88.8323" fill-rule="nonzero"/><path fill="#000000" fill-opacity="0.0" clip-path="url(#id_0)" d="M62.604668 297.7528C62.604668 299.40967 61.26152 300.7528 59.604668 300.7528C57.94781 300.7528 56.604668 299.40967 56.604668 297.7528C56.604668 296.09595 57.94781 294.7528 59.604668 294.7528C61.26152 294.7528 62.604668 296.09595 62.604668 297.7528Z" fill-rule="nonzero"/><path fill="#000000" fill-opacity="0.0" clip-path="url(#id_0)" d="M90.714 281.17C90.714 282.82684 89.37086 284.17 87.714 284.17C86.057144 284.17 84.714 282.82684 84.714 281.17C84.714 279.51315 86.057144 278.17 87.714 278.17C89.37086 278.17 90.714 279.51315 90.714 281.17Z" fill-rule="nonzero"/><path fill="#000000" fill-opacity="0.0" clip-path="url(#id_0)" d="M118.82333 264.5872C118.82333 266.24405 117.48019 267.5872 115.82333 267.5872C114.16648 267.5872 112.82333 266.24405 112.82333 264.5872C112.82333 262.93036 114.16648 261.5872 115.82333 261.5872C117.48019 261.5872 118.82333 262.93036 118.82333 264.5872Z" fill-rule="nonzero"/><path fill="#000000" fill-opacity="0.0" clip-path="url(#id_0)" d="M146.93266 250.5556C146.93266 252.21245 145.58952 253.5556 143.93266 253.5556C142.27582 253.5556 140.93266 252.21245 140.93266 250.5556C140.93266 248.89874 142.27582 247.5556 143.93266 247.5556C145.58952 247.5556 146.93266 248.89874 146.93266 250.5556Z" fill-rule="nonzero"/><path fill="#000000" fill-opacity="0.0" clip-path="url(#id_0)" d="M175.042 235.2484C175.042 236.90526 173.69885 238.2484 172.042 238.2484C170.38515 238.2484 169.042 236.90526 169.042 235.2484C169.042 233.59155 170.38515 232.2484 172.042 232.2484C173.69885 232.2484 175.042 233.59155 175.042 235.2484Z" fill-rule="nonzero"/><path fill="#000000" fill-opacity="0.0" clip-path="url(#id_0)" d="M203.15134 218.6656C203.15134 220.32245 201.80818 221.6656 200.15134 221.6656C198.49448 221.6656 197.15134 220.32245 197.15134 218.6656C197.15134 217.00874 198.49448 215.6656 200.15134 215.6656C201.80818 215.6656 203.15134 217.00874 203.15134 218.6656Z" fill-rule="nonzero"/><path fill="#000000" fill-opacity="0.0" clip-path="url(#id_0)" d="M231.26067 202.0828C231.26067 203.73965 229.91753 205.0828 228.26067 205.0828C226.6038 205.0828 225.26067 203.73965 225.26067 202.0828C225.26067 200.42595 226.6038 199.0828 228.26067 199.0828C229.91753 199.0828 231.26067 200.42595 231.26067 202.0828Z" fill-rule="nonzero"/><path fill="#000000" fill-opacity="0.0" clip-path="url(#id_0)" d="M259.37 186.7756C259.37 188.43245 258.02686 189.7756 256.37 189.7756C254.71315 189.7756 253.37 188.43245 253.37 186.7756C253.37 185.11874 254.71315 183.7756 256.37 183.7756C258.02686 183.7756 259.37 185.11874 259.37 186.7756Z" fill-rule="nonzero"/><path fill="#000000" fill-opacity="0.0" clip-path="url(#id_0)" d="M287.47934 172.744C287.47934 174.40085 286.1362 175.744 284.47934 175.744C282.82248 175.744 281.47934 174.40085 281.47934 172.744C281.47934 171.08714 282.82248 169.744 284.47934 169.744C286.1362 169.744 287.47934 171.08714 287.47934 172.744Z" fill-rule="nonzero"/><path fill="#000000" fill-opacity="0.0" clip-path="url(#id_0)" d="M315.58865 156.1612C315.58865 157.81805 314.2455 159.1612 312.58865 159.1612C310.93182 159.1612 309.58865 157.81805 309.58865 156.1612C309.58865 154.50435 310.93182 153.1612 312.58865 153.1612C314.2455 153.1612 315.58865 154.50435 315.58865 156.1612Z" fill-rule="nonzero"/><path fill="#000000" fill-opacity="0.0" clip-path="url(#id_0)" d="M343.698 139.5784C343.698 141.23526 342.35486 142.5784 340.698 142.5784C339.04114 142.5784 337.698 141.23526 337.698 139.5784C337.698 137.92154 339.04114 136.5784 340.698 136.5784C342.35486 136.5784 343.698 137.92154 343.698 139.5784Z" fill-rule="nonzero"/><path fill="#000000" fill-opacity="0.0" clip-path="url(#id_0)" d="M371.80734 124.2712C371.80734 125.928055 370.46417 127.2712 368.80734 127.2712C367.15048 127.2712 365.80734 125.928055 365.80734 124.2712C365.80734 122.61435 367.15048 121.2712 368.80734 121.2712C370.46417 121.2712 371.80734 122.61435 371.80734 124.2712Z" fill-rule="nonzero"/><path fill="#000000" fill-opacity="0.0" clip-path="url(#id_0)" d="M399.91666 107.6884C399.91666 109.34525 398.57352 110.6884 396.91666 110.6884C395.25983 110.6884 393.91666 109.34525 393.91666 107.6884C393.91666 106.03155 395.25983 104.6884 396.91666 104.6884C398.57352 104.6884 399.91666 106.03155 399.91666 107.6884Z" fill-rule="nonzero"/><path fill="#000000" fill-opacity="0.0" clip-path="url(#id_0)" d="M428.026 93.6568C428.026 95.31365 426.68286 96.6568 425.026 96.6568C423.36914 96.6568 422.026 95.31365 422.026 93.6568C422.026 91.99995 423.36914 90.6568 425.026 90.6568C426.68286 90.6568 428.026 91.99995 428.026 93.6568Z" fill-rule="nonzero"/><path fill="#000000" fill-opacity="0.0" clip-path="url(#id_0)" d="M456.13535 75.7984C456.13535 77.45525 454.79218 78.7984 453.13535 78.7984C451.4785 78.7984 450.13535 77.45525 450.13535 75.7984C450.13535 74.14155 451.4785 72.7984 453.13535 72.7984C454.79218 72.7984 456.13535 74.14155 456.13535 75.7984Z" fill-rule="nonzero"/><path fill="#000000" fill-opacity="0.0" clip-path="url(#id_0)" d="M62.604668 293.926C62.604668 295.58286 61.26152 296.926 59.604668 296.926C57.94781 296.926 56.604668 295.58286 56.604668 293.926C56.604668 292.26913 57.94781 290.926 59.604668 290.926C61.26152 290.926 62.604668 292.26913 62.604668 293.926Z" fill-rule="nonzero"/><path fill="#000000" fill-opacity="0.0" clip-path="url(#id_0)" d="M90.714 276.0676C90.714 277.72446 89.37086 279.0676 87.714 279.0676C86.057144 279.0676 84.714 277.72446 84.714 276.0676C84.714 274.41074 86.057144 273.0676 87.714 273.0676C89.37086 273.0676 90.714 274.41074 90.714 276.0676Z" fill-rule="nonzero"/><path fill="#000000" fill-opacity="0.0" clip-path="url(#id_0)" d="M118.82333 259.4848C118.82333 261.14166 117.48019 262.4848 115.82333 262.4848C114.16648 262.4848 112.82333 261.14166 112.82333 259.4848C112.82333 257.82794 114.16648 256.4848 115.82333 256.4848C117.48019 256.4848 118.82333 257.82794 118.82333 259.4848Z" fill-rule="nonzero"/><path fill="#000000" fill-opacity="0.0" clip-path="url(#id_0)" d="M146.93266 244.1776C146.93266 245.83446 145.58952 247.1776 143.93266 247.1776C142.27582 247.1776 140.93266 245.83446 140.93266 244.1776C140.93266 242.52075 142.27582 241.1776 143.93266 241.1776C145.58952 241.1776 146.93266 242.52075 146.93266 244.1776Z" fill-rule="nonzero"/><path fill="#000000" fill-opacity="0.0" clip-path="url(#id_0)" d="M175.042 226.3192C175.042 227.97606 173.69885 229.3192 172.042 229.3192C170.38515 229.3192 169.042 227.97606 169.042 226.3192C169.042 224.66234 170.38515 223.3192 172.042 223.3192C173.69885 223.3192 175.042 224.66234 175.042 226.3192Z" fill-rule="nonzero"/><path fill="#000000" fill-opacity="0.0" clip-path="url(#id_0)" d="M203.15134 209.7364C203.15134 211.39325 201.80818 212.7364 200.15134 212.7364C198.49448 212.7364 197.15134 211.39325 197.15134 209.7364C197.15134 208.07954 198.49448 206.7364 200.15134 206.7364C201.80818 206.7364 203.15134 208.07954 203.15134 209.7364Z" fill-rule="nonzero"/><path fill="#000000" fill-opacity="0.0" clip-path="url(#id_0)" d="M231.26067 191.878C231.26067 193.53485 229.91753 194.878 228.26067 194.878C226.6038 194.878 225.26067 193.53485 225.26067 191.878C225.26067 190.22115 226.6038 188.878 228.26067 188.878C229.91753 188.878 231.26067 190.22115 231.26067 191.878Z" fill-rule="nonzero"/><path fill="#000000" fill-opacity="0.0" clip-path="url(#id_0)" d="M259.37 175.2952C259.37 176.95206 258.02686 178.2952 256.37 178.2952C254.71315 178.2952 253.37 176.95206 253.37 175.2952C253.37 173.63835 254.71315 172.2952 256.37 172.2952C258.02686 172.2952 259.37 173.63835 259.37 175.2952Z" fill-rule="nonzero"/><path fill="#000000" fill-opacity="0.0" clip-path="url(#id_0)" d="M287.47934 159.988C287.47934 161.64485 286.1362 162.988 284.47934 162.988C282.82248 162.988 281.47934 161.64485 281.47934 159.988C281.47934 158.33115 282.82248 156.988 284.47934 156.988C286.1362 156.988 287.47934 158.33115 287.47934 159.988Z" fill-rule="nonzero"/><path fill="#000000" fill-opacity="0.0" clip-path="url(#id_0)" d="M315.58865 142.1296C315.58865 143.78645 314.2455 145.1296 312.58865 145.1296C310.93182 145.1296 309.58865 143.78645 309.58865 142.1296C309.58865 140.47275 310.93182 139.1296 312.58865 139.1296C314.2455 139.1296 315.58865 140.47275 315.58865 142.1296Z" fill-rule="nonzero"/><path fill="#000000" fill-opacity="0.0" clip-path="url(#id_0)" d="M343.698 125.5468C343.698 127.20365 342.35486 128.5468 340.698 128.5468C339.04114 128.5468 337.698 127.20365 337.698 125.5468C337.698 123.889946 339.04114 122.5468 340.698 122.5468C342.35486 122.5468 343.698 123.889946 343.698 125.5468Z" fill-rule="nonzero"/><path fill="#000000" fill-opacity="0.0" clip-path="url(#id_0)" d="M371.80734 107.6884C371.80734 109.34525 370.46417 110.6884 368.80734 110.6884C367.15048 110.6884 365.80734 109.34525 365.80734 107.6884C365.80734 106.03155 367.15048 104.6884 368.80734 104.6884C370.46417 104.6884 371.80734 106.03155 371.80734 107.6884Z" fill-rule="nonzero"/><path fill="#000000" fill-opacity="0.0" clip-path="url(#id_0)" d="M399.91666 91.1056C399.91666 92.76245 398.57352 94.1056 396.91666 94.1056C395.25983 94.1056 393.91666 92.76245 393.91666 91.1056C393.91666 89.448746 395.25983 88.1056 396.91666 88.1056C398.57352 88.1056 399.91666 89.448746 399.91666 91.1056Z" fill-rule="nonzero"/><path fill="#000000" fill-opacity="0.0" clip-path="url(#id_0)" d="M428.026 75.7984C428.026 77.45525 426.68286 78.7984 425.026 78.7984C423.36914 78.7984 422.026 77.45525 422.026 75.7984C422.026 74.14155 423.36914 72.7984 425.026 72.7984C426.68286 72.7984 428.026 74.14155 428.026 75.7984Z" fill-rule="nonzero"/><path fill="#000000" fill-opacity="0.0" clip-path="url(#id_0)" d="M456.13535 56.6644C456.13535 58.321255 454.79218 59.6644 453.13535 59.6644C451.4785 59.6644 450.13535 58.321255 450.13535 56.6644C450.13535 55.007545 451.4785 53.6644 453.13535 53.6644C454.79218 53.6644 456.13535 55.007545 456.13535 56.6644Z" fill-rule="nonzero"/><path fill="#000000" fill-opacity="0.0" clip-path="url(#id_0)" d="M62.604668 297.7528C62.604668 299.40967 61.26152 300.7528 59.604668 300.7528C57.94781 300.7528 56.604668 299.40967 56.604668 297.7528C56.604668 296.09595 57.94781 294.7528 59.604668 294.7528C61.26152 294.7528 62.604668 296.09595 62.604668 297.7528Z" fill-rule="nonzero"/><path fill="#000000" fill-opacity="0.0" clip-path="url(#id_0)" d="M90.714 281.17C90.714 282.82684 89.37086 284.17 87.714 284.17C86.057144 284.17 84.714 282.82684 84.714 281.17C84.714 279.51315 86.057144 278.17 87.714 278.17C89.37086 278.17 90.714 279.51315 90.714 281.17Z" fill-rule="nonzero"/><path fill="#000000" fill-opacity="0.0" clip-path="url(#id_0)" d="M118.82333 264.5872C118.82333 266.24405 117.48019 267.5872 115.82333 267.5872C114.16648 267.5872 112.82333 266.24405 112.82333 264.5872C112.82333 262.93036 114.16648 261.5872 115.82333 261.5872C117.48019 261.5872 118.82333 262.93036 118.82333 264.5872Z" fill-rule="nonzero"/><path fill="#000000" fill-opacity="0.0" clip-path="url(#id_0)" d="M146.93266 250.5556C146.93266 252.21245 145.58952 253.5556 143.93266 253.5556C142.27582 253.5556 140.93266 252.21245 140.93266 250.5556C140.93266 248.89874 142.27582 247.5556 143.93266 247.5556C145.58952 247.5556 146.93266 248.89874 146.93266 250.5556Z" fill-rule="nonzero"/><path fill="#000000" fill-opacity="0.0" clip-path="url(#id_0)" d="M175.042 235.2484C175.042 236.90526 173.69885 238.2484 172.042 238.2484C170.38515 238.2484 169.042 236.90526 169.042 235.2484C169.042 233.59155 170.38515 232.2484 172.042 232.2484C173.69885 232.2484 175.042 233.59155 175.042 235.2484Z" fill-rule="nonzero"/><path fill="#000000" fill-opacity="0.0" clip-path="url(#id_0)" d="M203.15134 218.6656C203.15134 220.32245 201.80818 221.6656 200.15134 221.6656C198.49448 221.6656 197.15134 220.32245 197.15134 218.6656C197.15134 217.00874 198.49448 215.6656 200.15134 215.6656C201.80818 215.6656 203.15134 217.00874 203.15134 218.6656Z" fill-rule="nonzero"/><path fill="#000000" fill-opacity="0.0" clip-path="url(#id_0)" d="M231.26067 202.0828C231.26067 203.73965 229.91753 205.0828 228.26067 205.0828C226.6038 205.0828 225.26067 203.73965 225.26067 202.0828C225.26067 200.42595 226.6038 199.0828 228.26067 199.0828C229.91753 199.0828 231.26067 200.42595 231.26067 202.0828Z" fill-rule="nonzero"/><path fill="#000000" fill-opacity="0.0" clip-path="url(#id_0)" d="M259.37 186.7756C259.37 188.43245 258.02686 189.7756 256.37 189.7756C254.71315 189.7756 253.37 188.43245 253.37 186.7756C253.37 185.11874 254.71315 183.7756 256.37 183.7756C258.02686 183.7756 259.37 185.11874 259.37 186.7756Z" fill-rule="nonzero"/><path fill="#000000" fill-opacity="0.0" clip-path="url(#id_0)" d="M287.47934 172.744C287.47934 174.40085 286.1362 175.744 284.47934 175.744C282.82248 175.744 281.47934 174.40085 281.47934 172.744C281.47934 171.08714 282.82248 169.744 284.47934 169.744C286.1362 169.744 287.47934 171.08714 287.47934 172.744Z" fill-rule="nonzero"/><path fill="#000000" fill-opacity="0.0" clip-path="url(#id_0)" d="M315.58865 156.1612C315.58865 157.81805 314.2455 159.1612 312.58865 159.1612C310.93182 159.1612 309.58865 157.81805 309.58865 156.1612C309.58865 154.50435 310.93182 153.1612 312.58865 153.1612C314.2455 153.1612 315.58865 154.50435 315.58865 156.1612Z" fill-rule="nonzero"/><path fill="#000000" fill-opacity="0.0" clip-path="url(#id_0)" d="M343.698 139.5784C343.698 141.23526 342.35486 142.5784 340.698 142.5784C339.04114 142.5784 337.698 141.23526 337.698 139.5784C337.698 137.92154 339.04114 136.5784 340.698 136.5784C342.35486 136.5784 343.698 137.92154 343.698 139.5784Z" fill-rule="nonzero"/><path fill="#000000" fill-opacity="0.0" clip-path="url(#id_0)" d="M371.80734 124.2712C371.80734 125.928055 370.46417 127.2712 368.80734 127.2712C367.15048 127.2712 365.80734 125.928055 365.80734 124.2712C365.80734 122.61435 367.15048 121.2712 368.80734 121.2712C370.46417 121.2712 371.80734 122.61435 371.80734 124.2712Z" fill-rule="nonzero"/><path fill="#000000" fill-opacity="0.0" clip-path="url(#id_0)" d="M399.91666 107.6884C399.91666 109.34525 398.57352 110.6884 396.91666 110.6884C395.25983 110.6884 393.91666 109.34525 393.91666 107.6884C393.91666 106.03155 395.25983 104.6884 396.91666 104.6884C398.57352 104.6884 399.91666 106.03155 399.91666 107.6884Z" fill-rule="nonzero"/><path fill="#000000" fill-opacity="0.0" clip-path="url(#id_0)" d="M428.026 93.6568C428.026 95.31365 426.68286 96.6568 425.026 96.6568C423.36914 96.6568 422.026 95.31365 422.026 93.6568C422.026 91.99995 423.36914 90.6568 425.026 90.6568C426.68286 90.6568 428.026 91.99995 428.026 93.6568Z" fill-rule="nonzero"/><path fill="#000000" fill-opacity="0.0" clip-path="url(#id_0)" d="M456.13535 75.7984C456.13535 77.45525 454.79218 78.7984 453.13535 78.7984C451.4785 78.7984 450.13535 77.45525 450.13535 75.7984C450.13535 74.14155 451.4785 72.7984 453.13535 72.7984C454.79218 72.7984 456.13535 74.14155 456.13535 75.7984Z" fill-rule="nonzero"/><path fill="#000000" fill-opacity="0.0" clip-path="url(#id_0)" d="M62.604668 300.304C62.604668 301.96085 61.26152 303.304 59.604668 303.304C57.94781 303.304 56.604668 301.96085 56.604668 300.304C56.604668 298.64716 57.94781 297.304 59.604668 297.304C61.26152 297.304 62.604668 298.64716 62.604668 300.304Z" fill-rule="nonzero"/><path fill="#000000" fill-opacity="0.0" clip-path="url(#id_0)" d="M90.714 286.2724C90.714 287.92926 89.37086 289.2724 87.714 289.2724C86.057144 289.2724 84.714 287.92926 84.714 286.2724C84.714 284.61554 86.057144 283.2724 87.714 283.2724C89.37086 283.2724 90.714 284.61554 90.714 286.2724Z" fill-rule="nonzero"/><path fill="#000000" fill-opacity="0.0" clip-path="url(#id_0)" d="M118.82333 270.9652C118.82333 272.62204 117.48019 273.9652 115.82333 273.9652C114.16648 273.9652 112.82333 272.62204 112.82333 270.9652C112.82333 269.30835 114.16648 267.9652 115.82333 267.9652C117.48019 267.9652 118.82333 269.30835 118.82333 270.9652Z" fill-rule="nonzero"/><path fill="#000000" fill-opacity="0.0" clip-path="url(#id_0)" d="M146.93266 258.2092C146.93266 259.86606 145.58952 261.2092 143.93266 261.2092C142.27582 261.2092 140.93266 259.86606 140.93266 258.2092C140.93266 256.55234 142.27582 255.2092 143.93266 255.2092C145.58952 255.2092 146.93266 256.55234 146.93266 258.2092Z" fill-rule="nonzero"/><path fill="#000000" fill-opacity="0.0" clip-path="url(#id_0)" d="M175.042 242.902C175.042 244.55885 173.69885 245.902 172.042 245.902C170.38515 245.902 169.042 244.55885 169.042 242.902C169.042 241.24515 170.38515 239.902 172.042 239.902C173.69885 239.902 175.042 241.24515 175.042 242.902Z" fill-rule="nonzero"/><path fill="#000000" fill-opacity="0.0" clip-path="url(#id_0)" d="M203.15134 227.5948C203.15134 229.25165 201.80818 230.5948 200.15134 230.5948C198.49448 230.5948 197.15134 229.25165 197.15134 227.5948C197.15134 225.93794 198.49448 224.5948 200.15134 224.5948C201.80818 224.5948 203.15134 225.93794 203.15134 227.5948Z" fill-rule="nonzero"/><path fill="#000000" fill-opacity="0.0" clip-path="url(#id_0)" d="M231.26067 212.2876C231.26067 213.94446 229.91753 215.2876 228.26067 215.2876C226.6038 215.2876 225.26067 213.94446 225.26067 212.2876C225.26067 210.63075 226.6038 209.2876 228.26067 209.2876C229.91753 209.2876 231.26067 210.63075 231.26067 212.2876Z" fill-rule="nonzero"/><path fill="#000000" fill-opacity="0.0" clip-path="url(#id_0)" d="M259.37 198.256C259.37 199.91286 258.02686 201.256 256.37 201.256C254.71315 201.256 253.37 199.91286 253.37 198.256C253.37 196.59915 254.71315 195.256 256.37 195.256C258.02686 195.256 259.37 196.59915 259.37 198.256Z" fill-rule="nonzero"/><path fill="#000000" fill-opacity="0.0" clip-path="url(#id_0)" d="M287.47934 184.2244C287.47934 185.88126 286.1362 187.2244 284.47934 187.2244C282.82248 187.2244 281.47934 185.88126 281.47934 184.2244C281.47934 182.56755 282.82248 181.2244 284.47934 181.2244C286.1362 181.2244 287.47934 182.56755 287.47934 184.2244Z" fill-rule="nonzero"/><path fill="#000000" fill-opacity="0.0" clip-path="url(#id_0)" d="M315.58865 170.1928C315.58865 171.84966 314.2455 173.1928 312.58865 173.1928C310.93182 173.1928 309.58865 171.84966 309.58865 170.1928C309.58865 168.53595 310.93182 167.1928 312.58865 167.1928C314.2455 167.1928 315.58865 168.53595 315.58865 170.1928Z" fill-rule="nonzero"/><path fill="#000000" fill-opacity="0.0" clip-path="url(#id_0)" d="M343.698 154.8856C343.698 156.54245 342.35486 157.8856 340.698 157.8856C339.04114 157.8856 337.698 156.54245 337.698 154.8856C337.698 153.22874 339.04114 151.8856 340.698 151.8856C342.35486 151.8856 343.698 153.22874 343.698 154.8856Z" fill-rule="nonzero"/><path fill="#000000" fill-opacity="0.0" clip-path="url(#id_0)" d="M371.80734 139.5784C371.80734 141.23526 370.46417 142.5784 368.80734 142.5784C367.15048 142.5784 365.80734 141.23526 365.80734 139.5784C365.80734 137.92154 367.15048 136.5784 368.80734 136.5784C370.46417 136.5784 371.80734 137.92154 371.80734 139.5784Z" fill-rule="nonzero"/><path fill="#000000" fill-opacity="0.0" clip-path="url(#id_0)" d="M399.91666 125.5468C399.91666 127.20365 398.57352 128.5468 396.91666 128.5468C395.25983 128.5468 393.91666 127.20365 393.91666 125.5468C393.91666 123.889946 395.25983 122.5468 396.91666 122.5468C398.57352 122.5468 399.91666 123.889946 399.91666 125.5468Z" fill-rule="nonzero"/><path fill="#000000" fill-opacity="0.0" clip-path="url(#id_0)" d="M428.026 111.5152C428.026 113.17205 426.68286 114.5152 425.026 114.5152C423.36914 114.5152 422.026 113.17205 422.026 111.5152C422.026 109.858345 423.36914 108.5152 425.026 108.5152C426.68286 108.5152 428.026 109.858345 428.026 111.5152Z" fill-rule="nonzero"/><path fill="#000000" fill-opacity="0.0" clip-path="url(#id_0)" d="M456.13535 94.9324C456.13535 96.58926 454.79218 97.9324 453.13535 97.9324C451.4785 97.9324 450.13535 96.58926 450.13535 94.9324C450.13535 93.27554 451.4785 91.9324 453.13535 91.9324C454.79218 91.9324 456.13535 93.27554 456.13535 94.9324Z" fill-rule="nonzero"/><path fill="#757575" d="M38.6125 345.8094Q38.6125 347.71564 37.95625 348.65314Q37.315624 349.575 35.925 349.575Q34.565624 349.575 33.909374 348.66876Q33.253124 347.7625 33.221874 345.95L33.221874 344.5125Q33.221874 342.6219 33.8625 341.71564Q34.51875 340.79376 35.909374 340.79376Q37.284374 340.79376 37.940624 341.6844Q38.596874 342.5594 38.6125 344.40314L38.6125 345.8094ZM37.51875 344.325Q37.51875 342.95 37.128124 342.325Q36.753124 341.6844 35.909374 341.6844Q35.08125 341.6844 34.690624 342.325Q34.315624 342.95 34.315624 344.2469L34.315624 345.98126Q34.315624 347.35626 34.70625 348.02814Q35.1125 348.6844 35.925 348.6844Q36.721874 348.6844 37.1125 348.0594Q37.503124 347.4344 37.51875 346.10626L37.51875 344.325Z" fill-rule="nonzero"/><path fill="#757575" d="M26.753124 281.38876L27.190624 277.13876L31.565624 277.13876L31.565624 278.13876L28.1125 278.13876L27.846874 280.4669Q28.4875 280.0919 29.284374 280.0919Q30.440624 280.0919 31.128124 280.87314Q31.815624 281.63876 31.815624 282.95126Q31.815624 284.26376 31.096874 285.0294Q30.39375 285.795 29.1125 285.795Q27.9875 285.795 27.26875 285.17Q26.55 284.5294 26.45625 283.42L27.471874 283.42Q27.58125 284.1544 28.003124 284.5294Q28.425 284.9044 29.1125 284.9044Q29.8625 284.9044 30.3 284.38876Q30.7375 283.87314 30.7375 282.9669Q30.7375 282.1075 30.26875 281.5919Q29.8 281.07626 29.01875 281.07626Q28.315624 281.07626 27.909374 281.37314L27.628124 281.6075L26.753124 281.38876ZM38.6125 282.0294Q38.6125 283.93564 37.95625 284.87314Q37.315624 285.795 35.925 285.795Q34.565624 285.795 33.909374 284.88876Q33.253124 283.9825 33.221874 282.17L33.221874 280.7325Q33.221874 278.8419 33.8625 277.93564Q34.51875 277.01376 35.909374 277.01376Q37.284374 277.01376 37.940624 277.9044Q38.596874 278.7794 38.6125 280.62314L38.6125 282.0294ZM37.51875 280.545Q37.51875 279.17 37.128124 278.545Q36.753124 277.9044 35.909374 277.9044Q35.08125 277.9044 34.690624 278.545Q34.315624 279.17 34.315624 280.4669L34.315624 282.20126Q34.315624 283.57626 34.70625 284.24814Q35.1125 284.9044 35.925 284.9044Q36.721874 284.9044 37.1125 284.2794Q37.503124 283.6544 37.51875 282.32626L37.51875 280.545Z" fill-rule="nonzero"/><path fill="#757575" d="M22.815624 221.89L21.7375 221.89L21.7375 214.67125L19.55 215.46812L19.55 214.48375L22.659374 213.31187L22.815624 213.31187L22.815624 221.89ZM31.6125 218.24937Q31.6125 220.15562 30.95625 221.09312Q30.315624 222.015 28.925 222.015Q27.565624 222.015 26.909374 221.10875Q26.253124 220.2025 26.221874 218.39L26.221874 216.9525Q26.221874 215.06187 26.8625 214.15562Q27.51875 213.23375 28.909374 213.23375Q30.284374 213.23375 30.940624 214.12437Q31.596874 214.99937 31.6125 216.84312L31.6125 218.24937ZM30.51875 216.765Q30.51875 215.39 30.128124 214.765Q29.753124 214.12437 28.909374 214.12437Q28.08125 214.12437 27.690624 214.765Q27.315624 215.39 27.315624 216.68687L27.315624 218.42125Q27.315624 219.79625 27.70625 220.46812Q28.1125 221.12437 28.925 221.12437Q29.721874 221.12437 30.1125 220.49937Q30.503124 219.87437 30.51875 218.54625L30.51875 216.765ZM38.6125 218.24937Q38.6125 220.15562 37.95625 221.09312Q37.315624 222.015 35.925 222.015Q34.565624 222.015 33.909374 221.10875Q33.253124 220.2025 33.221874 218.39L33.221874 216.9525Q33.221874 215.06187 33.8625 214.15562Q34.51875 213.23375 35.909374 213.23375Q37.284374 213.23375 37.940624 214.12437Q38.596874 214.99937 38.6125 216.84312L38.6125 218.24937ZM37.51875 216.765Q37.51875 215.39 37.128124 214.765Q36.753124 214.12437 35.909374 214.12437Q35.08125 214.12437 34.690624 214.765Q34.315624 215.39 34.315624 216.68687L34.315624 218.42125Q34.315624 219.79625 34.70625 220.46812Q35.1125 221.12437 35.925 221.12437Q36.721874 221.12437 37.1125 220.49937Q37.503124 219.87437 37.51875 218.54625L37.51875 216.765Z" fill-rule="nonzero"/><path fill="#757575" d="M22.815624 158.11L21.7375 158.11L21.7375 150.89125L19.55 151.68813L19.55 150.70375L22.659374 149.53188L22.815624 149.53188L22.815624 158.11ZM26.753124 153.82875L27.190624 149.57875L31.565624 149.57875L31.565624 150.57875L28.1125 150.57875L27.846874 152.90688Q28.4875 152.53188 29.284374 152.53188Q30.440624 152.53188 31.128124 153.31313Q31.815624 154.07875 31.815624 155.39125Q31.815624 156.70375 31.096874 157.46938Q30.39375 158.235 29.1125 158.235Q27.9875 158.235 27.26875 157.61Q26.55 156.96938 26.45625 155.86L27.471874 155.86Q27.58125 156.59438 28.003124 156.96938Q28.425 157.34438 29.1125 157.34438Q29.8625 157.34438 30.3 156.82875Q30.7375 156.31313 30.7375 155.40688Q30.7375 154.5475 30.26875 154.03188Q29.8 153.51625 29.01875 153.51625Q28.315624 153.51625 27.909374 153.81313L27.628124 154.0475L26.753124 153.82875ZM38.6125 154.46938Q38.6125 156.37563 37.95625 157.31313Q37.315624 158.235 35.925 158.235Q34.565624 158.235 33.909374 157.32875Q33.253124 156.4225 33.221874 154.61L33.221874 153.1725Q33.221874 151.28188 33.8625 150.37563Q34.51875 149.45375 35.909374 149.45375Q37.284374 149.45375 37.940624 150.34438Q38.596874 151.21938 38.6125 153.06313L38.6125 154.46938ZM37.51875 152.985Q37.51875 151.61 37.128124 150.985Q36.753124 150.34438 35.909374 150.34438Q35.08125 150.34438 34.690624 150.985Q34.315624 151.61 34.315624 152.90688L34.315624 154.64125Q34.315624 156.01625 34.70625 156.68813Q35.1125 157.34438 35.925 157.34438Q36.721874 157.34438 37.1125 156.71938Q37.503124 156.09438 37.51875 154.76625L37.51875 152.985Z" fill-rule="nonzero"/><path fill="#757575" d="M24.846874 94.33L19.253124 94.33L19.253124 93.54875L22.20625 90.2675Q22.8625 89.5175 23.1125 89.06438Q23.3625 88.59563 23.3625 88.09563Q23.3625 87.42375 22.95625 87.00188Q22.565624 86.56438 21.878124 86.56438Q21.08125 86.56438 20.628124 87.03313Q20.175 87.48625 20.175 88.31438L19.096874 88.31438Q19.096874 87.12688 19.846874 86.40813Q20.6125 85.67375 21.878124 85.67375Q23.08125 85.67375 23.76875 86.29875Q24.45625 86.92375 24.45625 87.97063Q24.45625 89.22063 22.846874 90.97063L20.565624 93.43938L24.846874 93.43938L24.846874 94.33ZM31.6125 90.68938Q31.6125 92.59563 30.95625 93.53313Q30.315624 94.455 28.925 94.455Q27.565624 94.455 26.909374 93.54875Q26.253124 92.6425 26.221874 90.83L26.221874 89.3925Q26.221874 87.50188 26.8625 86.59563Q27.51875 85.67375 28.909374 85.67375Q30.284374 85.67375 30.940624 86.56438Q31.596874 87.43938 31.6125 89.28313L31.6125 90.68938ZM30.51875 89.205Q30.51875 87.83 30.128124 87.205Q29.753124 86.56438 28.909374 86.56438Q28.08125 86.56438 27.690624 87.205Q27.315624 87.83 27.315624 89.12688L27.315624 90.86125Q27.315624 92.23625 27.70625 92.90813Q28.1125 93.56438 28.925 93.56438Q29.721874 93.56438 30.1125 92.93938Q30.503124 92.31438 30.51875 90.98625L30.51875 89.205ZM38.6125 90.68938Q38.6125 92.59563 37.95625 93.53313Q37.315624 94.455 35.925 94.455Q34.565624 94.455 33.909374 93.54875Q33.253124 92.6425 33.221874 90.83L33.221874 89.3925Q33.221874 87.50188 33.8625 86.59563Q34.51875 85.67375 35.909374 85.67375Q37.284374 85.67375 37.940624 86.56438Q38.596874 87.43938 38.6125 89.28313L38.6125 90.68938ZM37.51875 89.205Q37.51875 87.83 37.128124 87.205Q36.753124 86.56438 35.909374 86.56438Q35.08125 86.56438 34.690624 87.205Q34.315624 87.83 34.315624 89.12688L34.315624 90.86125Q34.315624 92.23625 34.70625 92.90813Q35.1125 93.56438 35.925 93.56438Q36.721874 93.56438 37.1125 92.93938Q37.503124 92.31438 37.51875 90.98625L37.51875 89.205Z" fill-rule="nonzero"/><path fill="#757575" d="M24.846874 30.55L19.253124 30.55L19.253124 29.76875L22.20625 26.4875Q22.8625 25.7375 23.1125 25.284374Q23.3625 24.815624 23.3625 24.315624Q23.3625 23.64375 22.95625 23.221874Q22.565624 22.784374 21.878124 22.784374Q21.08125 22.784374 20.628124 23.253124Q20.175 23.70625 20.175 24.534374L19.096874 24.534374Q19.096874 23.346874 19.846874 22.628124Q20.6125 21.89375 21.878124 21.89375Q23.08125 21.89375 23.76875 22.51875Q24.45625 23.14375 24.45625 24.190624Q24.45625 25.440624 22.846874 27.190624L20.565624 29.659374L24.846874 29.659374L24.846874 30.55ZM26.753124 26.26875L27.190624 22.01875L31.565624 22.01875L31.565624 23.01875L28.1125 23.01875L27.846874 25.346874Q28.4875 24.971874 29.284374 24.971874Q30.440624 24.971874 31.128124 25.753124Q31.815624 26.51875 31.815624 27.83125Q31.815624 29.14375 31.096874 29.909374Q30.39375 30.675 29.1125 30.675Q27.9875 30.675 27.26875 30.05Q26.55 29.409374 26.45625 28.3L27.471874 28.3Q27.58125 29.034374 28.003124 29.409374Q28.425 29.784374 29.1125 29.784374Q29.8625 29.784374 30.3 29.26875Q30.7375 28.753124 30.7375 27.846874Q30.7375 26.9875 30.26875 26.471874Q29.8 25.95625 29.01875 25.95625Q28.315624 25.95625 27.909374 26.253124L27.628124 26.4875L26.753124 26.26875ZM38.6125 26.909374Q38.6125 28.815624 37.95625 29.753124Q37.315624 30.675 35.925 30.675Q34.565624 30.675 33.909374 29.76875Q33.253124 28.8625 33.221874 27.05L33.221874 25.6125Q33.221874 23.721874 33.8625 22.815624Q34.51875 21.89375 35.909374 21.89375Q37.284374 21.89375 37.940624 22.784374Q38.596874 23.659374 38.6125 25.503124L38.6125 26.909374ZM37.51875 25.425Q37.51875 24.05 37.128124 23.425Q36.753124 22.784374 35.909374 22.784374Q35.08125 22.784374 34.690624 23.425Q34.315624 24.05 34.315624 25.346874L34.315624 27.08125Q34.315624 28.45625 34.70625 29.128124Q35.1125 29.784374 35.925 29.784374Q36.721874 29.784374 37.1125 29.159374Q37.503124 28.534374 37.51875 27.20625L37.51875 25.425Z" fill-rule="nonzero"/><path stroke="#4285f4" stroke-width="4.0" stroke-linecap="butt" d="M489.45 26.05L501.45 26.05" fill-rule="nonzero"/><path stroke="#4285f4" stroke-width="4.0" stroke-linecap="butt" stroke-opacity="0.4" d="M489.45 51.05L501.45 51.05" fill-rule="nonzero"/><path fill="#757575" d="M513.71564 55.55L512.6375 55.55L512.6375 48.33125L510.45 49.128124L510.45 48.14375L513.5594 46.971874L513.71564 46.971874L513.71564 55.55ZM522.7469 55.55L517.15314 55.55L517.15314 54.76875L520.10626 51.4875Q520.7625 50.7375 521.0125 50.284374Q521.2625 49.815624 521.2625 49.315624Q521.2625 48.64375 520.85626 48.221874Q520.46564 47.784374 519.77814 47.784374Q518.98126 47.784374 518.52814 48.253124Q518.075 48.70625 518.075 49.534374L516.9969 49.534374Q516.9969 48.346874 517.7469 47.628124Q518.5125 46.89375 519.77814 46.89375Q520.98126 46.89375 521.66876 47.51875Q522.35626 48.14375 522.35626 49.190624Q522.35626 50.440624 520.7469 52.190624L518.46564 54.659374L522.7469 54.659374L522.7469 55.55ZM524.29376 54.9875Q524.29376 54.70625 524.45 54.51875Q524.6219 54.33125 524.95 54.33125Q525.29376 54.33125 525.46564 54.51875Q525.6375 54.70625 525.6375 54.9875Q525.6375 55.253124 525.46564 55.440624Q525.29376 55.6125 524.95 55.6125Q524.6219 55.6125 524.45 55.440624Q524.29376 55.253124 524.29376 54.9875ZM528.73126 50.753124L529.54376 50.753124Q530.325 50.7375 530.7625 50.346874Q531.2 49.95625 531.2 49.284374Q531.2 47.784374 529.7 47.784374Q528.9969 47.784374 528.575 48.190624Q528.16876 48.596874 528.16876 49.253124L527.075 49.253124Q527.075 48.2375 527.8094 47.565624Q528.5594 46.89375 529.7 46.89375Q530.90314 46.89375 531.59064 47.534374Q532.27814 48.175 532.27814 49.315624Q532.27814 49.878124 531.91876 50.39375Q531.5594 50.909374 530.9344 51.175Q531.6375 51.39375 532.0125 51.909374Q532.40314 52.425 532.40314 53.175Q532.40314 54.315624 531.65314 55.003124Q530.90314 55.675 529.7 55.675Q528.5125 55.675 527.7469 55.01875Q526.9969 54.3625 526.9969 53.3L528.09064 53.3Q528.09064 53.971874 528.52814 54.378124Q528.96564 54.784374 529.71564 54.784374Q530.4969 54.784374 530.90314 54.378124Q531.325 53.95625 531.325 53.190624Q531.325 52.45625 530.8719 52.065624Q530.41876 51.659374 529.54376 51.64375L528.73126 51.64375L528.73126 50.753124ZM535.3875 49.784374L533.6219 49.26875L533.8875 48.378124L535.65314 49.034374L535.60626 47.01875L536.4969 47.01875L536.4344 49.065624L538.1844 48.425L538.45 49.315624L536.65314 49.846874L537.8094 51.425L537.09064 51.9875L535.9969 50.3L534.9344 51.940624L534.2 51.409374L535.3875 49.784374ZM541.40314 51.51875L542.8094 49.20625L544.075 49.20625L541.9969 52.346874L544.1375 55.55L542.8875 55.55L541.41876 53.175L539.95 55.55L538.6844 55.55L540.825 52.346874L538.7625 49.20625L540.0125 49.20625L541.40314 51.51875ZM551.3719 50.971874L553.7625 50.971874L553.7625 52.003124L551.3719 52.003124L551.3719 54.690624L550.29376 54.690624L550.29376 52.003124L547.90314 52.003124L547.90314 50.971874L550.29376 50.971874L550.29376 48.4875L551.3719 48.4875L551.3719 50.971874ZM559.73126 50.753124L560.54376 50.753124Q561.325 50.7375 561.7625 50.346874Q562.2 49.95625 562.2 49.284374Q562.2 47.784374 560.7 47.784374Q559.9969 47.784374 559.575 48.190624Q559.16876 48.596874 559.16876 49.253124L558.075 49.253124Q558.075 48.2375 558.8094 47.565624Q559.5594 46.89375 560.7 46.89375Q561.90314 46.89375 562.59064 47.534374Q563.27814 48.175 563.27814 49.315624Q563.27814 49.878124 562.91876 50.39375Q562.5594 50.909374 561.9344 51.175Q562.6375 51.39375 563.0125 51.909374Q563.40314 52.425 563.40314 53.175Q563.40314 54.315624 562.65314 55.003124Q561.90314 55.675 560.7 55.675Q559.5125 55.675 558.7469 55.01875Q557.9969 54.3625 557.9969 53.3L559.09064 53.3Q559.09064 53.971874 559.52814 54.378124Q559.96564 54.784374 560.71564 54.784374Q561.4969 54.784374 561.90314 54.378124Q562.325 53.95625 562.325 53.190624Q562.325 52.45625 561.8719 52.065624Q561.41876 51.659374 560.54376 51.64375L559.73126 51.64375L559.73126 50.753124ZM570.66876 47.628124L567.1375 55.55L565.9969 55.55L569.5125 47.909374L564.90314 47.909374L564.90314 47.01875L570.66876 47.01875L570.66876 47.628124ZM572.29376 54.9875Q572.29376 54.70625 572.45 54.51875Q572.6219 54.33125 572.95 54.33125Q573.29376 54.33125 573.46564 54.51875Q573.6375 54.70625 573.6375 54.9875Q573.6375 55.253124 573.46564 55.440624Q573.29376 55.6125 572.95 55.6125Q572.6219 55.6125 572.45 55.440624Q572.29376 55.253124 572.29376 54.9875ZM576.73126 50.753124L577.54376 50.753124Q578.325 50.7375 578.7625 50.346874Q579.2 49.95625 579.2 49.284374Q579.2 47.784374 577.7 47.784374Q576.9969 47.784374 576.575 48.190624Q576.16876 48.596874 576.16876 49.253124L575.075 49.253124Q575.075 48.2375 575.8094 47.565624Q576.5594 46.89375 577.7 46.89375Q578.90314 46.89375 579.59064 47.534374Q580.27814 48.175 580.27814 49.315624Q580.27814 49.878124 579.91876 50.39375Q579.5594 50.909374 578.9344 51.175Q579.6375 51.39375 580.0125 51.909374Q580.40314 52.425 580.40314 53.175Q580.40314 54.315624 579.65314 55.003124Q578.90314 55.675 577.7 55.675Q576.5125 55.675 575.7469 55.01875Q574.9969 54.3625 574.9969 53.3L576.09064 53.3Q576.09064 53.971874 576.52814 54.378124Q576.96564 54.784374 577.71564 54.784374Q578.4969 54.784374 578.90314 54.378124Q579.325 53.95625 579.325 53.190624Q579.325 52.45625 578.8719 52.065624Q578.41876 51.659374 577.54376 51.64375L576.73126 51.64375L576.73126 50.753124Z" fill-rule="nonzero"/><path stroke="#db4437" stroke-width="4.0" stroke-linecap="butt" d="M489.45 76.05L501.45 76.05" fill-rule="nonzero"/><path stroke="#db4437" stroke-width="4.0" stroke-linecap="butt" stroke-opacity="0.4" d="M489.45 101.05L501.45 101.05" fill-rule="nonzero"/><path fill="#757575" d="M513.71564 105.55L512.6375 105.55L512.6375 98.33125L510.45 99.12813L510.45 98.14375L513.5594 96.97188L513.71564 96.97188L513.71564 105.55ZM518.73126 100.75313L519.54376 100.75313Q520.325 100.7375 520.7625 100.34688Q521.2 99.95625 521.2 99.28438Q521.2 97.78438 519.7 97.78438Q518.9969 97.78438 518.575 98.19063Q518.16876 98.59688 518.16876 99.25313L517.075 99.25313Q517.075 98.2375 517.8094 97.56563Q518.5594 96.89375 519.7 96.89375Q520.90314 96.89375 521.59064 97.53438Q522.27814 98.175 522.27814 99.31563Q522.27814 99.87813 521.91876 100.39375Q521.5594 100.90938 520.9344 101.175Q521.6375 101.39375 522.0125 101.90938Q522.40314 102.425 522.40314 103.175Q522.40314 104.31563 521.65314 105.00313Q520.90314 105.675 519.7 105.675Q518.5125 105.675 517.7469 105.01875Q516.9969 104.3625 516.9969 103.3L518.09064 103.3Q518.09064 103.97188 518.52814 104.37813Q518.96564 104.78438 519.71564 104.78438Q520.4969 104.78438 520.90314 104.37813Q521.325 103.95625 521.325 103.19063Q521.325 102.45625 520.8719 102.06563Q520.41876 101.65938 519.54376 101.64375L518.73126 101.64375L518.73126 100.75313ZM524.29376 104.9875Q524.29376 104.70625 524.45 104.51875Q524.6219 104.33125 524.95 104.33125Q525.29376 104.33125 525.46564 104.51875Q525.6375 104.70625 525.6375 104.9875Q525.6375 105.25313 525.46564 105.44063Q525.29376 105.6125 524.95 105.6125Q524.6219 105.6125 524.45 105.44063Q524.29376 105.25313 524.29376 104.9875ZM532.7469 105.55L527.15314 105.55L527.15314 104.76875L530.10626 101.4875Q530.7625 100.7375 531.0125 100.28438Q531.2625 99.81563 531.2625 99.31563Q531.2625 98.64375 530.85626 98.22188Q530.46564 97.78438 529.77814 97.78438Q528.98126 97.78438 528.52814 98.25313Q528.075 98.70625 528.075 99.53438L526.9969 99.53438Q526.9969 98.34688 527.7469 97.62813Q528.5125 96.89375 529.77814 96.89375Q530.98126 96.89375 531.66876 97.51875Q532.35626 98.14375 532.35626 99.19063Q532.35626 100.44063 530.7469 102.19063L528.46564 104.65938L532.7469 104.65938L532.7469 105.55ZM535.3875 99.78438L533.6219 99.26875L533.8875 98.37813L535.65314 99.03438L535.60626 97.01875L536.4969 97.01875L536.4344 99.06563L538.1844 98.425L538.45 99.31563L536.65314 99.84688L537.8094 101.425L537.09064 101.9875L535.9969 100.3L534.9344 101.94063L534.2 101.40938L535.3875 99.78438ZM541.40314 101.51875L542.8094 99.20625L544.075 99.20625L541.9969 102.34688L544.1375 105.55L542.8875 105.55L541.41876 103.175L539.95 105.55L538.6844 105.55L540.825 102.34688L538.7625 99.20625L540.0125 99.20625L541.40314 101.51875ZM551.3719 100.97188L553.7625 100.97188L553.7625 102.00313L551.3719 102.00313L551.3719 104.69063L550.29376 104.69063L550.29376 102.00313L547.90314 102.00313L547.90314 100.97188L550.29376 100.97188L550.29376 98.4875L551.3719 98.4875L551.3719 100.97188ZM562.73126 102.69063L563.91876 102.69063L563.91876 103.56563L562.73126 103.56563L562.73126 105.55L561.65314 105.55L561.65314 103.56563L557.7625 103.56563L557.7625 102.925L561.575 97.01875L562.73126 97.01875L562.73126 102.69063ZM558.9969 102.69063L561.65314 102.69063L561.65314 98.50313L561.5125 98.7375L558.9969 102.69063ZM570.5125 101.90938Q570.5125 103.81563 569.85626 104.75313Q569.21564 105.675 567.825 105.675Q566.46564 105.675 565.8094 104.76875Q565.15314 103.8625 565.1219 102.05L565.1219 100.6125Q565.1219 98.72188 565.7625 97.81563Q566.41876 96.89375 567.8094 96.89375Q569.1844 96.89375 569.84064 97.78438Q570.4969 98.65938 570.5125 100.50313L570.5125 101.90938ZM569.41876 100.425Q569.41876 99.05 569.02814 98.425Q568.65314 97.78438 567.8094 97.78438Q566.98126 97.78438 566.59064 98.425Q566.21564 99.05 566.21564 100.34688L566.21564 102.08125Q566.21564 103.45625 566.60626 104.12813Q567.0125 104.78438 567.825 104.78438Q568.6219 104.78438 569.0125 104.15938Q569.40314 103.53438 569.41876 102.20625L569.41876 100.425ZM572.29376 104.9875Q572.29376 104.70625 572.45 104.51875Q572.6219 104.33125 572.95 104.33125Q573.29376 104.33125 573.46564 104.51875Q573.6375 104.70625 573.6375 104.9875Q573.6375 105.25313 573.46564 105.44063Q573.29376 105.6125 572.95 105.6125Q572.6219 105.6125 572.45 105.44063Q572.29376 105.25313 572.29376 104.9875ZM580.7469 105.55L575.15314 105.55L575.15314 104.76875L578.10626 101.4875Q578.7625 100.7375 579.0125 100.28438Q579.2625 99.81563 579.2625 99.31563Q579.2625 98.64375 578.85626 98.22188Q578.46564 97.78438 577.77814 97.78438Q576.98126 97.78438 576.52814 98.25313Q576.075 98.70625 576.075 99.53438L574.9969 99.53438Q574.9969 98.34688 575.7469 97.62813Q576.5125 96.89375 577.77814 96.89375Q578.98126 96.89375 579.66876 97.51875Q580.35626 98.14375 580.35626 99.19063Q580.35626 100.44063 578.7469 102.19063L576.46564 104.65938L580.7469 104.65938L580.7469 105.55Z" fill-rule="nonzero"/><path stroke="#f4b400" stroke-width="4.0" stroke-linecap="butt" d="M489.45 126.05L501.45 126.05" fill-rule="nonzero"/><path stroke="#f4b400" stroke-width="4.0" stroke-linecap="butt" stroke-opacity="0.4" d="M489.45 151.05L501.45 151.05" fill-rule="nonzero"/><path fill="#757575" d="M513.71564 155.55L512.6375 155.55L512.6375 148.33125L510.45 149.12813L510.45 148.14375L513.5594 146.97188L513.71564 146.97188L513.71564 155.55ZM522.7469 155.55L517.15314 155.55L517.15314 154.76875L520.10626 151.4875Q520.7625 150.7375 521.0125 150.28438Q521.2625 149.81563 521.2625 149.31563Q521.2625 148.64375 520.85626 148.22188Q520.46564 147.78438 519.77814 147.78438Q518.98126 147.78438 518.52814 148.25313Q518.075 148.70625 518.075 149.53438L516.9969 149.53438Q516.9969 148.34688 517.7469 147.62813Q518.5125 146.89375 519.77814 146.89375Q520.98126 146.89375 521.66876 147.51875Q522.35626 148.14375 522.35626 149.19063Q522.35626 150.44063 520.7469 152.19063L518.46564 154.65938L522.7469 154.65938L522.7469 155.55ZM524.29376 154.9875Q524.29376 154.70625 524.45 154.51875Q524.6219 154.33125 524.95 154.33125Q525.29376 154.33125 525.46564 154.51875Q525.6375 154.70625 525.6375 154.9875Q525.6375 155.25313 525.46564 155.44063Q525.29376 155.6125 524.95 155.6125Q524.6219 155.6125 524.45 155.44063Q524.29376 155.25313 524.29376 154.9875ZM528.73126 150.75313L529.54376 150.75313Q530.325 150.7375 530.7625 150.34688Q531.2 149.95625 531.2 149.28438Q531.2 147.78438 529.7 147.78438Q528.9969 147.78438 528.575 148.19063Q528.16876 148.59688 528.16876 149.25313L527.075 149.25313Q527.075 148.2375 527.8094 147.56563Q528.5594 146.89375 529.7 146.89375Q530.90314 146.89375 531.59064 147.53438Q532.27814 148.175 532.27814 149.31563Q532.27814 149.87813 531.91876 150.39375Q531.5594 150.90938 530.9344 151.175Q531.6375 151.39375 532.0125 151.90938Q532.40314 152.425 532.40314 153.175Q532.40314 154.31563 531.65314 155.00313Q530.90314 155.675 529.7 155.675Q528.5125 155.675 527.7469 155.01875Q526.9969 154.3625 526.9969 153.3L528.09064 153.3Q528.09064 153.97188 528.52814 154.37813Q528.96564 154.78438 529.71564 154.78438Q530.4969 154.78438 530.90314 154.37813Q531.325 153.95625 531.325 153.19063Q531.325 152.45625 530.8719 152.06563Q530.41876 151.65938 529.54376 151.64375L528.73126 151.64375L528.73126 150.75313ZM535.3875 149.78438L533.6219 149.26875L533.8875 148.37813L535.65314 149.03438L535.60626 147.01875L536.4969 147.01875L536.4344 149.06563L538.1844 148.425L538.45 149.31563L536.65314 149.84688L537.8094 151.425L537.09064 151.9875L535.9969 150.3L534.9344 151.94063L534.2 151.40938L535.3875 149.78438ZM541.40314 151.51875L542.8094 149.20625L544.075 149.20625L541.9969 152.34688L544.1375 155.55L542.8875 155.55L541.41876 153.175L539.95 155.55L538.6844 155.55L540.825 152.34688L538.7625 149.20625L540.0125 149.20625L541.40314 151.51875ZM551.3719 150.97188L553.7625 150.97188L553.7625 152.00313L551.3719 152.00313L551.3719 154.69063L550.29376 154.69063L550.29376 152.00313L547.90314 152.00313L547.90314 150.97188L550.29376 150.97188L550.29376 148.4875L551.3719 148.4875L551.3719 150.97188ZM559.73126 150.75313L560.54376 150.75313Q561.325 150.7375 561.7625 150.34688Q562.2 149.95625 562.2 149.28438Q562.2 147.78438 560.7 147.78438Q559.9969 147.78438 559.575 148.19063Q559.16876 148.59688 559.16876 149.25313L558.075 149.25313Q558.075 148.2375 558.8094 147.56563Q559.5594 146.89375 560.7 146.89375Q561.90314 146.89375 562.59064 147.53438Q563.27814 148.175 563.27814 149.31563Q563.27814 149.87813 562.91876 150.39375Q562.5594 150.90938 561.9344 151.175Q562.6375 151.39375 563.0125 151.90938Q563.40314 152.425 563.40314 153.175Q563.40314 154.31563 562.65314 155.00313Q561.90314 155.675 560.7 155.675Q559.5125 155.675 558.7469 155.01875Q557.9969 154.3625 557.9969 153.3L559.09064 153.3Q559.09064 153.97188 559.52814 154.37813Q559.96564 154.78438 560.71564 154.78438Q561.4969 154.78438 561.90314 154.37813Q562.325 153.95625 562.325 153.19063Q562.325 152.45625 561.8719 152.06563Q561.41876 151.65938 560.54376 151.64375L559.73126 151.64375L559.73126 150.75313ZM570.66876 147.62813L567.1375 155.55L565.9969 155.55L569.5125 147.90938L564.90314 147.90938L564.90314 147.01875L570.66876 147.01875L570.66876 147.62813ZM572.29376 154.9875Q572.29376 154.70625 572.45 154.51875Q572.6219 154.33125 572.95 154.33125Q573.29376 154.33125 573.46564 154.51875Q573.6375 154.70625 573.6375 154.9875Q573.6375 155.25313 573.46564 155.44063Q573.29376 155.6125 572.95 155.6125Q572.6219 155.6125 572.45 155.44063Q572.29376 155.25313 572.29376 154.9875ZM576.73126 150.75313L577.54376 150.75313Q578.325 150.7375 578.7625 150.34688Q579.2 149.95625 579.2 149.28438Q579.2 147.78438 577.7 147.78438Q576.9969 147.78438 576.575 148.19063Q576.16876 148.59688 576.16876 149.25313L575.075 149.25313Q575.075 148.2375 575.8094 147.56563Q576.5594 146.89375 577.7 146.89375Q578.90314 146.89375 579.59064 147.53438Q580.27814 148.175 580.27814 149.31563Q580.27814 149.87813 579.91876 150.39375Q579.5594 150.90938 578.9344 151.175Q579.6375 151.39375 580.0125 151.90938Q580.40314 152.425 580.40314 153.175Q580.40314 154.31563 579.65314 155.00313Q578.90314 155.675 577.7 155.675Q576.5125 155.675 575.7469 155.01875Q574.9969 154.3625 574.9969 153.3L576.09064 153.3Q576.09064 153.97188 576.52814 154.37813Q576.96564 154.78438 577.71564 154.78438Q578.4969 154.78438 578.90314 154.37813Q579.325 153.95625 579.325 153.19063Q579.325 152.45625 578.8719 152.06563Q578.41876 151.65938 577.54376 151.64375L576.73126 151.64375L576.73126 150.75313Z" fill-rule="nonzero"/><path stroke="#0f9d58" stroke-width="4.0" stroke-linecap="butt" d="M489.45 176.05L501.45 176.05" fill-rule="nonzero"/><path stroke="#0f9d58" stroke-width="4.0" stroke-linecap="butt" stroke-opacity="0.4" d="M489.45 201.05L501.45 201.05" fill-rule="nonzero"/><path fill="#757575" d="M513.71564 205.55L512.6375 205.55L512.6375 198.33125L510.45 199.12813L510.45 198.14375L513.5594 196.97188L513.71564 196.97188L513.71564 205.55ZM520.71564 205.55L519.6375 205.55L519.6375 198.33125L517.45 199.12813L517.45 198.14375L520.5594 196.97188L520.71564 196.97188L520.71564 205.55ZM524.29376 204.9875Q524.29376 204.70625 524.45 204.51875Q524.6219 204.33125 524.95 204.33125Q525.29376 204.33125 525.46564 204.51875Q525.6375 204.70625 525.6375 204.9875Q525.6375 205.25313 525.46564 205.44063Q525.29376 205.6125 524.95 205.6125Q524.6219 205.6125 524.45 205.44063Q524.29376 205.25313 524.29376 204.9875ZM527.65314 201.26875L528.09064 197.01875L532.46564 197.01875L532.46564 198.01875L529.0125 198.01875L528.7469 200.34688Q529.3875 199.97188 530.1844 199.97188Q531.34064 199.97188 532.02814 200.75313Q532.71564 201.51875 532.71564 202.83125Q532.71564 204.14375 531.9969 204.90938Q531.29376 205.675 530.0125 205.675Q528.8875 205.675 528.16876 205.05Q527.45 204.40938 527.35626 203.3L528.3719 203.3Q528.48126 204.03438 528.90314 204.40938Q529.325 204.78438 530.0125 204.78438Q530.7625 204.78438 531.2 204.26875Q531.6375 203.75313 531.6375 202.84688Q531.6375 201.9875 531.16876 201.47188Q530.7 200.95625 529.91876 200.95625Q529.21564 200.95625 528.8094 201.25313L528.52814 201.4875L527.65314 201.26875ZM535.3875 199.78438L533.6219 199.26875L533.8875 198.37813L535.65314 199.03438L535.60626 197.01875L536.4969 197.01875L536.4344 199.06563L538.1844 198.425L538.45 199.31563L536.65314 199.84688L537.8094 201.425L537.09064 201.9875L535.9969 200.3L534.9344 201.94063L534.2 201.40938L535.3875 199.78438ZM541.40314 201.51875L542.8094 199.20625L544.075 199.20625L541.9969 202.34688L544.1375 205.55L542.8875 205.55L541.41876 203.175L539.95 205.55L538.6844 205.55L540.825 202.34688L538.7625 199.20625L540.0125 199.20625L541.40314 201.51875ZM551.3719 200.97188L553.7625 200.97188L553.7625 202.00313L551.3719 202.00313L551.3719 204.69063L550.29376 204.69063L550.29376 202.00313L547.90314 202.00313L547.90314 200.97188L550.29376 200.97188L550.29376 198.4875L551.3719 198.4875L551.3719 200.97188ZM559.73126 200.75313L560.54376 200.75313Q561.325 200.7375 561.7625 200.34688Q562.2 199.95625 562.2 199.28438Q562.2 197.78438 560.7 197.78438Q559.9969 197.78438 559.575 198.19063Q559.16876 198.59688 559.16876 199.25313L558.075 199.25313Q558.075 198.2375 558.8094 197.56563Q559.5594 196.89375 560.7 196.89375Q561.90314 196.89375 562.59064 197.53438Q563.27814 198.175 563.27814 199.31563Q563.27814 199.87813 562.91876 200.39375Q562.5594 200.90938 561.9344 201.175Q562.6375 201.39375 563.0125 201.90938Q563.40314 202.425 563.40314 203.175Q563.40314 204.31563 562.65314 205.00313Q561.90314 205.675 560.7 205.675Q559.5125 205.675 558.7469 205.01875Q557.9969 204.3625 557.9969 203.3L559.09064 203.3Q559.09064 203.97188 559.52814 204.37813Q559.96564 204.78438 560.71564 204.78438Q561.4969 204.78438 561.90314 204.37813Q562.325 203.95625 562.325 203.19063Q562.325 202.45625 561.8719 202.06563Q561.41876 201.65938 560.54376 201.64375L559.73126 201.64375L559.73126 200.75313ZM569.73126 202.69063L570.91876 202.69063L570.91876 203.56563L569.73126 203.56563L569.73126 205.55L568.65314 205.55L568.65314 203.56563L564.7625 203.56563L564.7625 202.925L568.575 197.01875L569.73126 197.01875L569.73126 202.69063ZM565.9969 202.69063L568.65314 202.69063L568.65314 198.50313L568.5125 198.7375L565.9969 202.69063ZM572.29376 204.9875Q572.29376 204.70625 572.45 204.51875Q572.6219 204.33125 572.95 204.33125Q573.29376 204.33125 573.46564 204.51875Q573.6375 204.70625 573.6375 204.9875Q573.6375 205.25313 573.46564 205.44063Q573.29376 205.6125 572.95 205.6125Q572.6219 205.6125 572.45 205.44063Q572.29376 205.25313 572.29376 204.9875ZM579.41876 197.01875L579.41876 197.925L579.21564 197.925Q577.95 197.95625 577.2 198.69063Q576.45 199.40938 576.325 200.72188Q577.0125 199.95625 578.16876 199.95625Q579.27814 199.95625 579.95 200.7375Q580.6219 201.51875 580.6219 202.76875Q580.6219 204.08125 579.90314 204.87813Q579.1844 205.675 577.96564 205.675Q576.7469 205.675 575.98126 204.7375Q575.23126 203.78438 575.23126 202.3L575.23126 201.89375Q575.23126 199.53438 576.23126 198.28438Q577.23126 197.03438 579.21564 197.01875L579.41876 197.01875ZM577.9969 200.8625Q577.4344 200.8625 576.96564 201.19063Q576.4969 201.51875 576.3094 202.03438L576.3094 202.425Q576.3094 203.4875 576.77814 204.12813Q577.2625 204.76875 577.96564 204.76875Q578.7 204.76875 579.1219 204.2375Q579.54376 203.69063 579.54376 202.81563Q579.54376 201.94063 579.1219 201.40938Q578.7 200.8625 577.9969 200.8625Z" fill-rule="nonzero"/></svg>