<?xml version="1.0" encoding="UTF-8" standalone="no"?>
<!-- Created with Inkscape (http://www.inkscape.org/) -->

<svg
   width="210mm"
   height="210mm"
   viewBox="0 0 210 210"
   version="1.1"
   id="svg3880"
   xmlns="http://www.w3.org/2000/svg"
   xmlns:svg="http://www.w3.org/2000/svg">
  <defs id="defs3877">
    <path
       id="brick"
       d="m 19.398758,182.15813 h 71.82177 v 27.84186 h -71.82177 z m 99.380702,0 h 71.82177 v 27.84186 H 118.77946 Z M 19.398766,0 H 91.220535 V 27.841867 H 19.398766 Z m 99.380694,0 h 71.82177 V 27.841867 H 118.77946 Z M 19.398758,91.293381 h 71.82177 v 27.841869 h -71.82177 z m 99.380702,0.134094 h 71.82177 v 27.841865 h -71.82177 z m 49.79873,48.550215 H 210 v 27.84187 H 168.57819 Z M 0,139.97769 h 40.306217 v 27.84187 H 0 Z m 69.089111,0.1069 h 71.821769 v 27.84187 H 69.089111 Z M 168.57819,42.137703 H 210 V 69.97957 H 168.57819 Z M 0,42.137703 H 40.306217 V 69.97957 H 0 Z m 69.089111,0.106899 H 140.91088 V 70.08647 H 69.089111 Z" />
    <path
       id="tiger"
       d="m 224.74279,202.6648 c -65.62406,8.10303 -103.18751,-24.20076 -103.18751,-24.20076 0,0 25.48,29.09471 86.84775,38.58336 0,0 10.04571,0.0587 16.33976,-14.3826 z M 197.12028,2.3419625 c -62.2022,22.4290785 -81.11179,68.2218205 -81.11179,68.2218205 0,0 9.5808,-37.469195 60.03592,-73.6674635 0,0 8.93475,-4.5923134 21.07587,5.445643 z M 14.885487,96.808231 c 65.983186,4.289079 96.856433,43.036869 96.856433,43.036869 0,0 -19.601216,-33.33955 -78.119137,-54.116618 0,0 -9.858169,-1.932868 -18.737296,11.079749 z M 68.128515,194.9939 C 7.507733,168.58751 -8.3996022,121.66731 -8.3996022,121.66731 c 0,0 7.1365868,38.01054 55.1440972,77.39727 0,0 8.618938,5.16075 21.38402,-4.07068 z M 168.59841,116.26858 c -41.65785,51.34976 -91.123268,54.12845 -91.123268,54.12845 0,0 38.534538,3.28959 89.326348,-32.43473 0,0 7.27795,-6.92466 1.79692,-21.69372 z M 3.5718754,75.439275 C 50.307358,39.683066 90.518087,52.504737 90.518087,52.504737 c 0,0 -29.892504,-15.169307 -79.8145,2.889393 0,0 -7.6275653,4.302881 -7.1317116,20.045145 z M 198.28871,57.066432 c -55.62077,35.756209 -103.476307,22.93454 -103.476307,22.93454 0,0 35.575607,15.169309 94.988737,-2.88939 0,0 9.07769,-4.302888 8.48757,-20.04515 z" />
    <path
       id="diamond"
       d="M 136.18411,105.11445 105,136.29856 73.815889,105.11445 105,73.93034 Z m 1e-5,62.13932 -31.18411,31.18411 -31.184113,-31.18411 31.184113,-31.18411 z M 73.930342,105 42.746233,136.1841 11.562121,104.99999 42.74623,73.815884 Z M 198.43788,105 167.25377,136.18411 136.06966,105 167.25377,73.815896 Z M 136.18411,42.746232 105,73.930341 73.815885,42.746229 104.99999,11.56212 Z" />
  </defs>
</svg>
